<svg width="20" height="12" viewBox="0 0 20 12" fill="none" xmlns="http://www.w3.org/2000/svg">
<path fill-rule="evenodd" clip-rule="evenodd" d="M6.804 11.7009C6.417 12.0949 5.784 12.0999 5.39 11.7129L0.299 6.71291C0.108 6.52491 0 6.26791 0 5.99991C0 5.73191 0.108 5.47491 0.299 5.28691L5.39 0.286909C5.784 -0.100091 6.417 -0.0950898 6.804 0.29891C7.191 0.69291 7.186 1.32591 6.792 1.71291L3.445 4.99991H19C19.552 4.99991 20 5.44791 20 5.99991C20 6.55191 19.552 6.99991 19 6.99991H3.445L6.792 10.2869C7.186 10.6739 7.191 11.3069 6.804 11.7009Z" fill="#060A0A"/>
</svg>
