<svg width="16" height="16" viewBox="0 0 16 16" fill="none" xmlns="http://www.w3.org/2000/svg">
<path fill-rule="evenodd" clip-rule="evenodd" d="M0 8C0 12.4184 3.5816 16 8 16C12.4184 16 16 12.4184 16 8C16 3.5816 12.4184 0 8 0C3.5816 0 0 3.5816 0 8ZM1.6 8C1.6 4.4656 4.4656 1.6 8 1.6C11.5344 1.6 14.4 4.4656 14.4 8C14.4 11.5344 11.5344 14.4 8 14.4C4.4656 14.4 1.6 11.5344 1.6 8ZM11.7896 6.1408C12.088 5.8152 12.0664 5.3088 11.7408 5.0104C11.4152 4.712 10.9088 4.7336 10.6104 5.0592L6.8288 9.1848L5.4144 7.488C5.132 7.1488 4.6272 7.1024 4.288 7.3856C3.9488 7.668 3.9024 8.1728 4.1856 8.512L6.1856 10.912C6.3328 11.0896 6.5504 11.1944 6.7808 11.2C7.012 11.2056 7.2336 11.1104 7.3896 10.9408L11.7896 6.1408Z" fill="#090E20"/>
</svg>
