<svg width="17" height="17" viewBox="0 0 17 17" fill="none" xmlns="http://www.w3.org/2000/svg">
<path fill-rule="evenodd" clip-rule="evenodd" d="M8.5 17C3.80545 17 0 13.1946 0 8.5C0 3.80545 3.80545 0 8.5 0C13.1946 0 17 3.80545 17 8.5C17 13.1946 13.1946 17 8.5 17ZM8.5 1.7C4.7447 1.7 1.7 4.7447 1.7 8.5C1.7 12.2553 4.7447 15.3 8.5 15.3C12.2553 15.3 15.3 12.2553 15.3 8.5C15.3 4.7447 12.2553 1.7 8.5 1.7ZM11.6509 5.34905C11.9833 5.68055 11.9833 6.21945 11.6509 6.55095L9.7019 8.5L11.6509 10.449C11.9833 10.7806 11.9833 11.3195 11.6509 11.651C11.3194 11.9833 10.7806 11.9833 10.4491 11.651L8.5 9.7019L6.55092 11.651C6.21942 11.9833 5.68058 11.9833 5.34908 11.651C5.01673 11.3195 5.01673 10.7806 5.34908 10.449L7.2981 8.5L5.34908 6.55095C5.01673 6.21945 5.01673 5.68055 5.34908 5.34905C5.68058 5.0167 6.21942 5.0167 6.55092 5.34905L8.5 7.2981L10.4491 5.34905C10.7806 5.0167 11.3194 5.0167 11.6509 5.34905Z" fill="#060A0A"/>
</svg>
