<svg width="14" height="14" viewBox="0 0 14 14" fill="none" xmlns="http://www.w3.org/2000/svg">
<path fill-rule="evenodd" clip-rule="evenodd" d="M2.26815 0.580171C1.83257 0.144593 1.12688 0.144599 0.691307 0.580177C0.255729 1.01576 0.255722 1.72144 0.6913 2.15702L5.42256 6.88828L0.579584 11.7313C0.144006 12.1668 0.143999 12.8725 0.579577 13.3081C1.01515 13.7437 1.72086 13.7437 2.15644 13.3081L6.99941 8.46513L11.8424 13.3081C12.278 13.7437 12.9837 13.7437 13.4192 13.3081C13.8548 12.8725 13.8548 12.1668 13.4192 11.7313L8.57626 6.88828L13.3075 2.15703C13.7431 1.72146 13.7431 1.01575 13.3075 0.580171C12.8719 0.144593 12.1662 0.1446 11.7307 0.580177L6.99941 5.31143L2.26815 0.580171Z" fill="#2C3036"/>
</svg>
