<svg width="88" height="150" viewBox="0 0 88 150" fill="none" xmlns="http://www.w3.org/2000/svg">
<path d="M69.9563 7.76733H6.28447C2.81365 7.76733 0 10.581 0 14.0518V129.956C0 133.427 2.81365 136.241 6.28447 136.241H69.9563C73.4271 136.241 76.2408 133.427 76.2408 129.956V14.0518C76.2408 10.581 73.4271 7.76733 69.9563 7.76733Z" fill="#EDEDED"/>
<path d="M80.1848 0.706146H16.513C13.0422 0.706146 10.2285 3.5198 10.2285 6.99061V122.895C10.2285 126.366 13.0422 129.18 16.513 129.18H80.1848C83.6556 129.18 86.4693 126.366 86.4693 122.895V6.99061C86.4693 3.5198 83.6556 0.706146 80.1848 0.706146Z" fill="white"/>
<path d="M80.1758 129.886H16.514C12.6555 129.88 9.52899 126.754 9.52344 122.895V6.99058C9.52899 3.1321 12.6555 0.00555579 16.514 0H80.1758C84.0342 0.00555579 87.1608 3.1321 87.1663 6.99058V122.895C87.1608 126.754 84.0342 129.88 80.1758 129.886ZM16.514 1.41224C13.4355 1.41779 10.9412 3.91205 10.9357 6.99058V122.895C10.9412 125.974 13.4355 128.468 16.514 128.473H80.1758C83.2504 128.462 85.7385 125.97 85.744 122.895V6.99058C85.7385 3.91598 83.2504 1.42333 80.1758 1.41224H16.514Z" fill="#0B132B"/>
<path d="M73.7592 0.706146V5.45732C73.7592 6.82434 73.2142 8.13492 72.2447 9.0987C71.2752 10.0625 69.9615 10.5999 68.5945 10.5919H28.0632C25.2275 10.5919 22.9287 8.29303 22.9287 5.45732V0.706146" fill="white"/>
<path d="M68.5945 11.2979H28.0633C26.5098 11.3033 25.018 10.6906 23.9167 9.59499C22.8154 8.49938 22.1951 7.01075 22.1924 5.4573V0.70612C22.1924 0.453847 22.327 0.220738 22.5454 0.0946021C22.7639 -0.031534 23.0331 -0.031534 23.2516 0.0946021C23.47 0.220738 23.6046 0.453847 23.6046 0.70612V5.4573C23.6073 6.63621 24.0789 7.76562 24.9153 8.59639C25.7518 9.42717 26.8844 9.89104 28.0633 9.88568H68.5945C71.038 9.88013 73.0174 7.90072 73.0229 5.4573V0.70612C73.0229 0.316141 73.3391 0 73.729 0C74.119 0 74.4352 0.316141 74.4352 0.70612V5.4573C74.4296 8.68068 71.8179 11.2924 68.5945 11.2979Z" fill="#1C2441"/>
<path d="M80.1758 129.886H16.514C12.6555 129.88 9.52899 126.754 9.52344 122.895V6.99058C9.52899 3.1321 12.6555 0.00555579 16.514 0H80.1758C84.0342 0.00555579 87.1608 3.1321 87.1663 6.99058V122.895C87.1608 126.754 84.0342 129.88 80.1758 129.886ZM16.514 1.41224C13.4355 1.41779 10.9412 3.91205 10.9357 6.99058V122.895C10.9412 125.974 13.4355 128.468 16.514 128.473H80.1758C83.2504 128.462 85.7385 125.97 85.744 122.895V6.99058C85.7385 3.91598 83.2504 1.42333 80.1758 1.41224H16.514Z" fill="#0B132B"/>
<path d="M37.7576 8.12036C39.1225 8.12036 40.229 7.01387 40.229 5.64894C40.229 4.28401 39.1225 3.17752 37.7576 3.17752C36.3926 3.17752 35.2861 4.28401 35.2861 5.64894C35.2861 7.01387 36.3926 8.12036 37.7576 8.12036Z" fill="#3A506B"/>
<path d="M60.6956 6.05247H43.7589C43.5066 6.05247 43.2735 5.91788 43.1473 5.69941C43.0212 5.48093 43.0212 5.21176 43.1473 4.99329C43.2735 4.77481 43.5066 4.64023 43.7589 4.64023H60.6956C61.0856 4.64023 61.4018 4.95637 61.4018 5.34635C61.4018 5.73633 61.0856 6.05247 60.6956 6.05247Z" fill="#3A506B"/>
<path d="M58.2051 60.7465L65.2965 54.7041L72.3577 61.7653L76.7256 57.8917L76.5238 81.6274L58.2051 60.7465Z" fill="#EDEDED"/>
<path d="M60.374 63.7021L71.6518 51.8796L76.524 57.2058V81.6275L60.374 63.7021Z" fill="#3A506B"/>
<path d="M76.5238 82.3338C76.3242 82.3327 76.1341 82.2486 75.9992 82.1015L59.8593 64.1762C59.6094 63.9056 59.6094 63.4884 59.8593 63.2179L71.1371 51.4459C71.2832 51.3169 71.4673 51.239 71.6616 51.2239C71.8536 51.2325 72.0346 51.3158 72.166 51.4559L77.0483 56.7821C77.1691 56.91 77.2343 57.0804 77.2299 57.2562V81.6274C77.2268 81.9206 77.0478 82.1833 76.7759 82.2932C76.6951 82.3221 76.6096 82.3358 76.5238 82.3338ZM61.3321 63.7223L75.8176 79.7915V57.4983L71.6213 52.9186L61.3321 63.7223Z" fill="#1C2441"/>
<path d="M30.9189 60.3531L37.7683 49.7714L42.005 55.4102L34.2377 63.8837L30.9189 60.3531Z" fill="#EDEDED"/>
<path d="M47.3916 48.3591L14.6377 87.1755H81.366L47.3916 48.3591Z" fill="#4FCBC2"/>
<path d="M81.3659 87.8817H14.6376C14.3628 87.8822 14.1119 87.7254 13.992 87.4782C13.9024 87.2301 13.9525 86.953 14.1231 86.7519L46.8568 47.8951C46.9914 47.7407 47.1865 47.6524 47.3914 47.6529C47.595 47.6485 47.7904 47.7332 47.9261 47.8851L81.9005 86.7519C82.0827 86.9609 82.1257 87.2572 82.0105 87.5094C81.8953 87.7616 81.6431 87.923 81.3659 87.9221V87.8817ZM16.1406 86.4695H79.7922L47.4116 49.4284L16.1406 86.4695Z" fill="#1C2441"/>
<path d="M42.0049 55.4102L44.1232 58.9408L47.6538 54.7041L51.5274 58.5878L53.2927 55.4102L47.6538 48.3591L42.0049 55.4102Z" fill="white"/>
<path d="M44.1226 59.647H44.0621C43.8348 59.6302 43.6307 59.5017 43.5174 59.304L41.3587 55.7734C41.2063 55.5236 41.2264 55.2051 41.4091 54.9765L47.058 47.9153C47.196 47.7555 47.3967 47.6636 47.6078 47.6636C47.8189 47.6636 48.0196 47.7555 48.1576 47.9153L53.8065 54.9765C53.9839 55.1978 54.0117 55.5036 53.8771 55.7532L52.1522 58.9308C52.0416 59.1235 51.8478 59.2539 51.6277 59.2838C51.4102 59.3161 51.1902 59.2452 51.0325 59.0922L47.6936 55.7532L44.6673 59.3948C44.5332 59.5569 44.333 59.6496 44.1226 59.647ZM42.8617 55.4809L44.2134 57.7405L47.1085 54.2704C47.2299 54.1131 47.4144 54.0171 47.6129 54.0081C47.8128 54.0009 48.0067 54.0778 48.1475 54.22L51.3654 57.4378L52.4548 55.4809L47.6633 49.489L42.8617 55.4809Z" fill="#1C2441"/>
<path d="M19.3984 65.4069L27.1758 55.4102L33.9748 63.8332L19.5296 81.4358L19.3984 65.4069Z" fill="#4FCBC2"/>
<path d="M19.5298 82.142C19.4532 82.1572 19.3744 82.1572 19.2978 82.142C19.0143 82.0433 18.8242 81.7763 18.8237 81.4762L18.6925 65.4574C18.6899 65.2994 18.7436 65.1456 18.8439 65.0236L26.6213 55.0169C26.7564 54.848 26.9598 54.7482 27.1761 54.7445C27.3901 54.7484 27.5921 54.8439 27.7309 55.0068L34.5197 63.4298C34.7306 63.6919 34.7306 64.0654 34.5197 64.3276L20.0745 81.8797C19.9415 82.0443 19.7415 82.1406 19.5298 82.142ZM20.1048 65.649L20.1754 79.4789L33.0671 63.8333L27.2366 56.5502L20.1048 65.649Z" fill="#1C2441"/>
<path d="M22.6465 61.4425L27.1757 59.6469L32.0076 61.6342L27.1757 55.4102L22.6465 61.4425Z" fill="white"/>
<path d="M32.0083 62.3403C31.9181 62.3546 31.8262 62.3546 31.7359 62.3403L27.1764 60.464L22.9094 62.1486C22.6128 62.2636 22.2759 62.1691 22.0823 61.9166C21.8905 61.6667 21.8905 61.3192 22.0823 61.0693L26.6115 55.0168C26.7469 54.8414 26.9549 54.7374 27.1764 54.7344C27.3911 54.7445 27.5919 54.8431 27.7312 55.0067L32.5631 61.2307C32.7285 61.4432 32.7587 61.7313 32.6408 61.9735C32.523 62.2156 32.2776 62.3697 32.0083 62.3706V62.3403ZM27.1764 58.9408C27.2666 58.9265 27.3586 58.9265 27.4488 58.9408L29.8193 59.9496L27.2369 56.5804L24.7151 59.8588L26.9142 58.9913C26.9982 58.96 27.0868 58.943 27.1764 58.9408Z" fill="#1C2441"/>
<path d="M64.7012 59.4654L71.6514 58.2347L76.5236 59.768V57.2058L71.6514 51.8796L64.7012 59.4654Z" fill="white"/>
<path d="M76.5232 60.5246C76.4533 60.539 76.3813 60.539 76.3114 60.5246L71.6207 58.961L64.8521 60.1614C64.5528 60.22 64.2502 60.0769 64.1056 59.8084C63.9637 59.5419 64.004 59.2152 64.2065 58.9913L71.1264 51.4459C71.4078 51.1743 71.8538 51.1743 72.1352 51.4459L77.0175 56.772C77.1383 56.8999 77.2035 57.0703 77.1991 57.2461V59.8084C77.2007 60.031 77.0957 60.241 76.9166 60.3732C76.803 60.4609 76.6663 60.5135 76.5232 60.5246ZM71.6207 57.4983C71.691 57.4885 71.7623 57.4885 71.8326 57.4983L75.7868 58.7391V57.4983L71.6207 52.9287L66.577 58.4062L71.5299 57.4983H71.6207Z" fill="#1C2441"/>
<path d="M47.6534 49.0552C47.467 49.0579 47.2874 48.9857 47.1547 48.8549C47.022 48.7241 46.9472 48.5455 46.9473 48.3591V37.0612C46.9473 36.6712 47.2634 36.3551 47.6534 36.3551C48.0434 36.3551 48.3595 36.6712 48.3595 37.0612V48.3591C48.354 48.7452 48.0395 49.0552 47.6534 49.0552Z" fill="#1C2441"/>
<path d="M47.6535 43.376C47.5039 43.3752 47.3587 43.3256 47.2399 43.2347C47.0543 43.107 46.9446 42.8951 46.9473 42.6698V39.1392C46.9441 38.9237 47.041 38.7188 47.2096 38.5844C47.3781 38.4533 47.5953 38.4018 47.8048 38.4432L54.1598 39.8554C54.4677 39.9274 54.6903 40.1953 54.7046 40.5111C54.7241 40.8297 54.5246 41.1207 54.2204 41.2172L47.8754 43.376C47.8017 43.3847 47.7272 43.3847 47.6535 43.376ZM48.3596 40.0168V41.6914L51.3858 40.6826L48.3596 40.0168Z" fill="#1C2441"/>
<path d="M76.5939 87.1755H19.4083C19.0183 87.1755 18.7021 86.8594 18.7021 86.4694V23.6449C18.7076 23.2572 19.0206 22.9442 19.4083 22.9388H76.5939C76.9816 22.9442 77.2946 23.2572 77.3 23.6449V86.4694C77.3 86.8594 76.9839 87.1755 76.5939 87.1755ZM20.1043 85.7633H75.8878V24.351H20.1144L20.1043 85.7633Z" fill="#1C2441"/>
<path d="M82.717 77.7337C84.5592 85.6111 80.881 93.7437 73.749 97.5623C66.617 101.381 57.8095 99.9334 52.2748 94.0331C46.7401 88.1328 45.8581 79.2507 50.1245 72.3773C53.9317 66.2249 61.0738 62.9763 68.2131 64.1496C75.3524 65.3229 81.0791 70.6864 82.717 77.7337Z" fill="white"/>
<path d="M65.2854 100.39C55.584 100.356 47.5419 92.8635 46.8215 83.1888C46.1012 73.5141 52.9451 64.9135 62.5345 63.4428C72.1238 61.9721 81.2307 68.1264 83.4428 77.5723C84.7308 83.1062 83.4189 88.9253 79.881 93.3712C76.3431 97.8172 70.9673 100.402 65.2854 100.39ZM65.2854 64.6301C63.9711 64.6322 62.6613 64.7845 61.3816 65.084C52.165 67.2457 46.4435 76.467 48.5994 85.685C50.7554 94.903 59.9731 100.63 69.1924 98.48C78.4117 96.3299 84.1447 87.1157 82.0003 77.8951C80.1958 70.1342 73.2836 64.6387 65.3157 64.6301H65.2854Z" fill="#1C2441"/>
<path d="M65.3159 95.4169C72.8314 95.4169 78.9239 89.3244 78.9239 81.809C78.9239 74.2935 72.8314 68.201 65.3159 68.201C57.8005 68.201 51.708 74.2935 51.708 81.809C51.708 89.3244 57.8005 95.4169 65.3159 95.4169Z" fill="#00FCDC"/>
<path d="M66.8289 86.7518H63.8027C61.6742 86.7518 60.0703 85.7431 60.0703 84.5023V83.7256C60.0703 83.3217 60.3977 82.9943 60.8017 82.9943C61.2056 82.9943 61.533 83.3217 61.533 83.7256V84.5023C61.533 84.7444 62.3501 85.3396 63.8531 85.3396H66.8793C68.3824 85.3396 69.1994 84.7444 69.1994 84.5023V83.2918C69.1994 83.1405 68.7758 82.7068 67.7166 82.5252L62.7233 81.7081C61.1093 81.4358 60.0703 80.5884 60.0703 79.5494V78.3389C60.0703 77.0578 61.6742 76.0894 63.8027 76.0894H66.8289C68.9573 76.0894 70.5612 77.0982 70.5612 78.3389V79.1156C70.5612 79.5056 70.2451 79.8218 69.8551 79.8218C69.4651 79.8218 69.149 79.5056 69.149 79.1156V78.3389C69.149 78.0968 68.3319 77.5017 66.8289 77.5017H63.8027C62.2996 77.5017 61.4826 78.0968 61.4826 78.3389V79.5494C61.4826 79.7007 61.9062 80.1446 62.9654 80.3161L67.9082 81.1634C69.5222 81.4358 70.5612 82.2831 70.5612 83.3221V84.5326C70.6117 85.7431 68.9573 86.7518 66.8289 86.7518Z" fill="#1C2441"/>
<path d="M65.3155 89.6772C64.9255 89.6772 64.6094 89.361 64.6094 88.9711V74.6469C64.6094 74.2569 64.9255 73.9408 65.3155 73.9408C65.7055 73.9408 66.0216 74.2569 66.0216 74.6469V88.9711C66.0216 89.361 65.7055 89.6772 65.3155 89.6772Z" fill="#1C2441"/>
<path d="M53.4034 109.509C53.0134 109.509 52.6973 109.193 52.6973 108.803V102.75C52.6973 102.361 53.0134 102.044 53.4034 102.044C53.7934 102.044 54.1095 102.361 54.1095 102.75V108.803C54.1041 109.191 53.7911 109.504 53.4034 109.509Z" fill="#0B132B"/>
<path d="M76.836 112.828C76.446 112.828 76.1299 112.512 76.1299 112.122V102.821C76.1299 102.431 76.446 102.115 76.836 102.115C77.226 102.115 77.5421 102.431 77.5421 102.821V112.122C77.5421 112.512 77.226 112.828 76.836 112.828Z" fill="#0B132B"/>
<path d="M65.3966 120.353C65.0066 120.353 64.6904 120.037 64.6904 119.647V104.586C64.6904 104.196 65.0066 103.88 65.3966 103.88C65.7865 103.88 66.1027 104.196 66.1027 104.586V119.647C66.1027 120.037 65.7865 120.353 65.3966 120.353Z" fill="#0B132B"/>
<path d="M59.5157 115.925C59.3284 115.925 59.1488 115.85 59.0164 115.718C58.884 115.585 58.8096 115.406 58.8096 115.219V106.584C58.8096 106.194 59.1257 105.878 59.5157 105.878C59.9057 105.878 60.2218 106.194 60.2218 106.584V115.219C60.2218 115.609 59.9057 115.925 59.5157 115.925Z" fill="#0B132B"/>
<path d="M71.2979 115.259C70.9079 115.259 70.5918 114.943 70.5918 114.553V110.346C70.5918 109.956 70.9079 109.64 71.2979 109.64C71.6879 109.64 72.004 109.956 72.004 110.346V114.553C72.004 114.943 71.6879 115.259 71.2979 115.259Z" fill="#0B132B"/>
<path d="M71.2979 108.621C70.9102 108.616 70.5972 108.303 70.5918 107.915V104.586C70.5918 104.196 70.9079 103.88 71.2979 103.88C71.6879 103.88 72.004 104.196 72.004 104.586V107.935C71.9931 108.318 71.6801 108.622 71.2979 108.621Z" fill="#0B132B"/>
<path d="M53.5841 117.7C53.3968 117.7 53.2172 117.626 53.0848 117.493C52.9523 117.361 52.8779 117.181 52.8779 116.994V110.79C52.8779 110.4 53.1941 110.084 53.5841 110.084C53.974 110.084 54.2902 110.4 54.2902 110.79V117.014C54.2792 117.396 53.9663 117.7 53.5841 117.7Z" fill="#0B132B"/>
<path d="M29.2942 96.3551L15.8779 115.42H22.9391V141.537H35.6493V115.42H42.7105L29.2942 96.3551Z" fill="#EDEDED"/>
<path d="M35.6492 142.233H22.9391C22.5514 142.227 22.2384 141.914 22.233 141.527V116.106H15.888C15.6228 116.111 15.3774 115.967 15.2525 115.733C15.1317 115.497 15.1511 115.214 15.3029 114.997L28.7192 95.9415C28.8567 95.7633 29.0691 95.6589 29.2941 95.6589C29.5192 95.6589 29.7316 95.7633 29.8691 95.9415L43.2854 114.997C43.4371 115.214 43.4565 115.497 43.3358 115.733C43.2126 115.964 42.9719 116.107 42.7104 116.106H36.315V141.527C36.3156 141.901 36.0234 142.211 35.6492 142.233ZM23.6452 140.82H34.9431V115.4C34.9431 115.01 35.2592 114.694 35.6492 114.694H41.3587L29.2538 97.5454L17.1993 114.694H22.8987C23.2887 114.694 23.6048 115.01 23.6048 115.4L23.6452 140.82Z" fill="#1C2441"/>
<path d="M39.8866 118.235L31.5039 130.148H35.9121V146.479H43.8509V130.148H48.2692L39.8866 118.235Z" fill="#4FCBC2"/>
<path d="M43.8499 147.186H35.9111C35.5234 147.18 35.2104 146.867 35.205 146.48V130.854H31.5029C31.2414 130.855 31.0007 130.711 30.8775 130.481C30.7567 130.245 30.7761 129.962 30.9279 129.744L39.3408 117.831C39.4783 117.653 39.6907 117.549 39.9158 117.549C40.1409 117.549 40.3532 117.653 40.4908 117.831L48.8734 129.744C49.0093 129.971 49.0093 130.254 48.8734 130.481C48.7501 130.711 48.5095 130.855 48.248 130.854H44.556V146.48C44.556 146.869 44.2399 147.186 43.8499 147.186ZM36.6172 145.773H43.1438V130.128C43.1492 129.74 43.4622 129.427 43.8499 129.422H46.8761L39.8149 119.445L32.7537 129.422H35.7799C36.1699 129.422 36.4861 129.738 36.4861 130.128L36.6172 145.773Z" fill="#1C2441"/>
<path d="M20.1141 121.059L11.7314 132.972H16.1497V149.294H24.0885V132.972H28.4967L20.1141 121.059Z" fill="#3A506B"/>
<path d="M24.089 150H16.1401C15.7501 150 15.434 149.684 15.434 149.294V133.679H11.7319C11.4697 133.677 11.2301 133.53 11.1094 133.297C10.9888 133.065 11.0071 132.784 11.1569 132.569L19.5396 120.656C19.6791 120.477 19.8931 120.373 20.1196 120.373C20.3461 120.373 20.5601 120.477 20.6996 120.656L29.0823 132.569C29.2345 132.782 29.254 133.063 29.1327 133.295C29.0088 133.531 28.7639 133.679 28.4972 133.679H24.7951V149.294C24.7951 149.684 24.479 150 24.089 150ZM16.8563 148.588H23.3829V132.972C23.3829 132.582 23.699 132.266 24.089 132.266H27.1152L20.054 122.29L12.9928 132.266H16.0191C16.4068 132.272 16.7198 132.585 16.7252 132.972L16.8563 148.588Z" fill="#1C2441"/>
</svg>
