<svg width="150" height="150" viewBox="0 0 150 150" fill="none" xmlns="http://www.w3.org/2000/svg">
<path d="M15.0428 22.6077H7.81641V43.3233H15.0428V22.6077Z" fill="white"/>
<path d="M33.2518 22.6077H26.0254V43.3233H33.2518V22.6077Z" fill="white"/>
<path d="M51.4588 22.6077H44.2324V43.3233H51.4588V22.6077Z" fill="white"/>
<path d="M4.03906 48.0314L7.81649 43.3233L14.7144 43.6408L17.7363 47.5825L4.03906 48.0314Z" fill="#4FCBC2"/>
<path d="M21.9414 48.0314L26.332 43.6408L33.2408 43.9474L36.7007 47.7139L21.9414 48.0314Z" fill="#4FCBC2"/>
<path d="M40.7715 47.7139L44.5489 43.6408H51.4468L54.9067 48.0314L40.7715 47.7139Z" fill="#4FCBC2"/>
<path d="M4.47656 18.5565L7.81603 22.9142H14.7139L18.4914 18.2061L4.47656 18.5565Z" fill="#4FCBC2"/>
<path d="M22.5645 18.2061L26.0244 22.9142H32.6157L36.6997 18.2061H22.5645Z" fill="#4FCBC2"/>
<path d="M40.8066 18.6113L43.9162 22.5967H50.825L54.9419 18.4361L40.8066 18.6113Z" fill="#4FCBC2"/>
<path d="M1.21484 18.5236L29.1569 0.939453L58.358 18.5236H1.21484Z" fill="white"/>
<path d="M58.1932 47.3854H0.623047V52.1811H58.1932V47.3854Z" fill="#3A506B"/>
<path d="M29.4076 14.4506C31.5301 14.4506 33.2507 12.73 33.2507 10.6075C33.2507 8.485 31.5301 6.76437 29.4076 6.76437C27.2851 6.76437 25.5645 8.485 25.5645 10.6075C25.5645 12.73 27.2851 14.4506 29.4076 14.4506Z" fill="#4FCBC2"/>
<path d="M29.5611 5.97604C27.0033 5.97604 24.9297 8.04962 24.9297 10.6075C24.9297 13.1654 27.0033 15.2389 29.5611 15.2389C32.119 15.2389 34.1926 13.1654 34.1926 10.6075C34.1866 8.05211 32.1165 5.98206 29.5611 5.97604ZM29.5611 13.7389C27.8331 13.7329 26.4366 12.3282 26.4407 10.6002C26.4447 8.87221 27.8477 7.47408 29.5757 7.47608C31.3037 7.47809 32.7035 8.87948 32.7035 10.6075C32.7035 11.4399 32.3721 12.2381 31.7825 12.8256C31.1929 13.4132 30.3935 13.7418 29.5611 13.7389Z" fill="#1C2441"/>
<path d="M51.9627 22.9909L54.9737 19.2025H58.4008C58.7342 19.1939 59.0249 18.9736 59.1234 18.6551C59.2129 18.3323 59.0792 17.9891 58.795 17.812L29.9661 0.10734C29.7228 -0.0357801 29.421 -0.0357801 29.1777 0.10734L0.359815 17.8448C0.0694166 18.0168 -0.0661481 18.3648 0.0313428 18.6879C0.119469 19.009 0.410076 19.2325 0.743032 19.2354H4.17009L7.15918 22.9909V43.2466L4.17009 47.0788H0.819675C0.6203 47.0788 0.429246 47.1587 0.289299 47.3007C0.149353 47.4427 0.0722071 47.6349 0.075139 47.8343V52.3782C0.0722071 52.5775 0.149353 52.7697 0.289299 52.9117C0.429246 53.0537 0.6203 53.1336 0.819675 53.1336H58.3242C58.7414 53.1336 59.0796 52.7954 59.0796 52.3782V47.7796C59.0796 47.3623 58.7414 47.0241 58.3242 47.0241H54.9737L51.9627 43.2357V22.9909ZM36.8749 47.0788L33.8639 43.2904V22.9909L36.8749 19.2025H40.3786L43.3677 22.9909V43.2466L40.3786 47.0788H36.8749ZM18.7761 47.0788L15.7651 43.2357V22.9909L18.7761 19.2025H22.2689L25.258 22.9909V43.2466L22.2689 47.0788H18.7761ZM8.6592 23.5164H14.2323V42.6992H8.6592V23.5164ZM26.758 23.5164H32.3639V42.6992H26.758V23.5164ZM32.7471 22.0164H26.3967L24.2069 19.2354H34.9807L32.7471 22.0164ZM26.3967 44.243H32.7471L34.937 47.0241H24.185L26.3967 44.243ZM44.8897 23.5164H50.4956V42.6992H44.8897V23.5164ZM50.8788 22.0164H44.5283L42.3385 19.2354H53.1124L50.8788 22.0164ZM29.561 1.62926L55.7511 17.7353H3.3927L29.561 1.62926ZM16.8601 19.2354L14.6702 22.0164H8.29788L6.10807 19.2354H16.8601ZM8.29788 44.243H14.6483L16.8382 47.0241H6.08617L8.29788 44.243ZM57.5687 51.5789H1.57516V48.5241H57.5796L57.5687 51.5789ZM42.2838 47.0788L44.4736 44.2978H50.824L53.0139 47.0788H42.2838Z" fill="#1C2441"/>
<path d="M26.2767 65.747C25.8135 65.7411 25.4395 65.367 25.4336 64.9039V60.6556C25.4336 60.19 25.8111 59.8126 26.2767 59.8126C26.7423 59.8126 27.1197 60.19 27.1197 60.6556V64.9039C27.1197 65.3695 26.7423 65.747 26.2767 65.747Z" fill="#1C2441"/>
<path d="M26.2767 109.664C25.8111 109.664 25.4336 109.286 25.4336 108.821V100.598C25.4336 100.132 25.8111 99.7548 26.2767 99.7548C26.7423 99.7548 27.1197 100.132 27.1197 100.598V108.821C27.1227 109.045 27.0349 109.261 26.8761 109.42C26.7173 109.579 26.5012 109.667 26.2767 109.664ZM26.2767 95.0249C25.8111 95.0249 25.4336 94.6473 25.4336 94.1817V85.959C25.4336 85.4933 25.8111 85.1159 26.2767 85.1159C26.7423 85.1159 27.1197 85.4933 27.1197 85.959V94.1598C27.1288 94.3881 27.0436 94.61 26.8842 94.7736C26.7247 94.9371 26.5051 95.028 26.2767 95.0249ZM26.2767 80.3859C25.8135 80.38 25.4395 80.006 25.4336 79.5428V71.3201C25.4336 70.8545 25.8111 70.477 26.2767 70.477C26.7423 70.477 27.1197 70.8545 27.1197 71.3201V79.5428C27.1197 80.0084 26.7423 80.3859 26.2767 80.3859Z" fill="#1C2441"/>
<path d="M30.5464 120.328H25.4551V115.248C25.4551 114.946 25.6158 114.668 25.8766 114.518C26.1375 114.367 26.4588 114.367 26.7197 114.518C26.9805 114.668 27.1412 114.946 27.1412 115.248V118.642H30.5464C31.012 118.642 31.3895 119.019 31.3895 119.485C31.3895 119.951 31.012 120.328 30.5464 120.328Z" fill="#1C2441"/>
<path d="M85.293 120.328H77.6286C77.163 120.328 76.7855 119.951 76.7855 119.485C76.7855 119.019 77.163 118.642 77.6286 118.642H85.293C85.7586 118.642 86.136 119.019 86.136 119.485C86.136 119.951 85.7586 120.328 85.293 120.328ZM71.6066 120.328H63.9423C63.4767 120.328 63.0992 119.951 63.0992 119.485C63.0992 119.019 63.4767 118.642 63.9423 118.642H71.6066C72.0723 118.642 72.4497 119.019 72.4497 119.485C72.4497 119.951 72.0723 120.328 71.6066 120.328ZM57.9203 120.328H50.256C49.7903 120.328 49.4129 119.951 49.4129 119.485C49.4129 119.019 49.7903 118.642 50.256 118.642H57.9203C58.3859 118.642 58.7634 119.019 58.7634 119.485C58.7634 119.951 58.3859 120.328 57.9203 120.328ZM44.234 120.328H36.5696C36.104 120.328 35.7266 119.951 35.7266 119.485C35.7266 119.019 36.104 118.642 36.5696 118.642H44.234C44.6996 118.642 45.0771 119.019 45.0771 119.485C45.0771 119.951 44.6996 120.328 44.234 120.328Z" fill="#1C2441"/>
<path d="M95.5405 120.328H91.2923C90.8267 120.328 90.4492 119.951 90.4492 119.485C90.4492 119.019 90.8267 118.642 91.2923 118.642H95.5405C96.0062 118.642 96.3836 119.019 96.3836 119.485C96.3836 119.951 96.0062 120.328 95.5405 120.328Z" fill="#1C2441"/>
<path d="M126.089 79.0501C125.858 79.053 125.635 78.9632 125.47 78.8007C125.306 78.6381 125.213 78.4164 125.213 78.1851V73.7179C125.213 73.2341 125.605 72.842 126.089 72.842C126.32 72.842 126.542 72.9346 126.704 73.0992C126.867 73.2638 126.957 73.4866 126.954 73.7179V78.1851C126.954 78.4145 126.863 78.6345 126.7 78.7968C126.538 78.959 126.318 79.0501 126.089 79.0501Z" fill="#1C2441"/>
<path d="M126.089 66.6338C125.605 66.6338 125.213 66.2417 125.213 65.7579V57.8089C125.213 57.5776 125.306 57.3559 125.47 57.1934C125.635 57.0308 125.858 56.941 126.089 56.9438C126.567 56.9438 126.954 57.3312 126.954 57.8089V65.7579C126.957 65.9892 126.867 66.212 126.704 66.3766C126.542 66.5412 126.32 66.6338 126.089 66.6338ZM126.089 50.7249C125.858 50.7278 125.635 50.6379 125.47 50.4754C125.306 50.3129 125.213 50.0912 125.213 49.8599V41.8999C125.213 41.6686 125.306 41.4469 125.47 41.2844C125.635 41.1218 125.858 41.032 126.089 41.0349C126.567 41.0349 126.954 41.4222 126.954 41.8999V49.8599C126.954 50.3376 126.567 50.7249 126.089 50.7249Z" fill="#1C2441"/>
<path d="M126.089 34.8268C125.605 34.8268 125.213 34.4346 125.213 33.9509V30.3596H121.622C121.138 30.3596 120.746 29.9674 120.746 29.4837C120.746 29.2524 120.839 29.0307 121.003 28.8681C121.168 28.7056 121.391 28.6158 121.622 28.6187H127.009V33.9399C127.016 34.1829 126.92 34.4175 126.745 34.5862C126.57 34.755 126.332 34.8423 126.089 34.8268Z" fill="#1C2441"/>
<path d="M113.628 30.3596H105.635C105.404 30.3596 105.182 30.267 105.02 30.1024C104.857 29.9378 104.767 29.715 104.77 29.4837C104.77 29.006 105.157 28.6187 105.635 28.6187H113.628C113.859 28.6158 114.082 28.7056 114.247 28.8681C114.411 29.0307 114.504 29.2524 114.504 29.4837C114.504 29.716 114.412 29.9388 114.247 30.103C114.083 30.2673 113.86 30.3596 113.628 30.3596ZM97.6423 30.3596H89.6494C89.17 30.3536 88.7845 29.9632 88.7845 29.4837C88.7845 29.006 89.1717 28.6187 89.6494 28.6187H97.6423C97.8736 28.6158 98.0964 28.7056 98.261 28.8681C98.4256 29.0307 98.5182 29.2524 98.5182 29.4837C98.5182 29.716 98.4259 29.9388 98.2616 30.103C98.0974 30.2673 97.8746 30.3596 97.6423 30.3596ZM81.6676 30.3596H73.6748C73.191 30.3596 72.7988 29.9674 72.7988 29.4837C72.7988 29.2524 72.8914 29.0307 73.056 28.8681C73.2206 28.7056 73.4435 28.6158 73.6748 28.6187H81.6676C81.897 28.6187 82.117 28.7098 82.2792 28.872C82.4414 29.0342 82.5326 29.2543 82.5326 29.4837C82.5355 29.715 82.4456 29.9378 82.2831 30.1024C82.1206 30.267 81.8989 30.3596 81.6676 30.3596Z" fill="#1C2441"/>
<path d="M65.6939 30.3596H61.2158C60.732 30.3596 60.3398 29.9674 60.3398 29.4837C60.3398 29.2524 60.4325 29.0307 60.597 28.8681C60.7616 28.7056 60.9845 28.6158 61.2158 28.6187H65.6939C65.9252 28.6158 66.1481 28.7056 66.3127 28.8681C66.4772 29.0307 66.5699 29.2524 66.5699 29.4837C66.5699 29.9674 66.1777 30.3596 65.6939 30.3596Z" fill="#1C2441"/>
<path d="M93.9083 123C93.6418 122.997 93.3914 122.872 93.2295 122.66C92.9575 122.288 93.0355 121.765 93.4046 121.489L96.0434 119.507L93.4046 117.525C93.0341 117.244 92.9563 116.719 93.2295 116.343C93.3643 116.164 93.5648 116.046 93.7866 116.015C94.0085 115.984 94.2335 116.043 94.412 116.178L97.9485 118.828C98.1589 118.991 98.2838 119.241 98.2879 119.507C98.2854 119.77 98.1598 120.017 97.9485 120.175L94.412 122.835C94.2654 122.941 94.0892 122.999 93.9083 123Z" fill="#1C2441"/>
<path d="M63.3714 33.6115C63.1452 33.6106 62.9286 33.52 62.7692 33.3597L59.6596 30.2501C59.5012 30.092 59.4121 29.8773 59.4121 29.6534C59.4121 29.4295 59.5012 29.2148 59.6596 29.0567L62.7692 25.9362C62.9823 25.723 63.2931 25.6397 63.5843 25.7178C63.8755 25.7958 64.103 26.0233 64.181 26.3145C64.2591 26.6057 64.1758 26.9164 63.9626 27.1296L61.4443 29.6479L63.9626 32.1662C64.1211 32.3244 64.2101 32.539 64.2101 32.7629C64.2101 32.9868 64.1211 33.2015 63.9626 33.3597C63.8072 33.5194 63.5942 33.6101 63.3714 33.6115Z" fill="#1C2441"/>
<path d="M146.005 77.2982H109.982C108.017 77.2982 106.424 78.8914 106.424 80.8567V146.442C106.424 148.407 108.017 150 109.982 150H146.005C147.97 150 149.563 148.407 149.563 146.442V80.8567C149.563 78.8914 147.97 77.2982 146.005 77.2982Z" fill="#EDEDED"/>
<path d="M142.798 72.7106H106.775C104.81 72.7106 103.217 74.3037 103.217 76.269V141.854C103.217 143.819 104.81 145.412 106.775 145.412H142.798C144.763 145.412 146.356 143.819 146.356 141.854V76.269C146.356 74.3037 144.763 72.7106 142.798 72.7106Z" fill="white"/>
<path d="M142.808 146.244H106.774C104.355 146.244 102.395 144.284 102.395 141.865V76.258C102.395 73.8392 104.355 71.8784 106.774 71.8784H142.808C145.226 71.8784 147.187 73.8392 147.187 76.258V141.854C147.19 143.017 146.73 144.134 145.908 144.958C145.087 145.782 143.971 146.244 142.808 146.244ZM106.774 73.5533C106.048 73.5419 105.348 73.8213 104.83 74.3294C104.311 74.8376 104.018 75.5321 104.015 76.258V141.854C104.027 142.574 104.324 143.26 104.841 143.761C105.359 144.262 106.054 144.537 106.774 144.526H142.808C144.303 144.526 145.517 143.316 145.523 141.821V76.258C145.517 74.7627 144.303 73.5533 142.808 73.5533H106.774Z" fill="#0B132B"/>
<path d="M139.171 72.7106V75.3931C139.171 76.9955 137.872 78.2946 136.27 78.2946H113.277C111.674 78.2946 110.375 76.9955 110.375 75.3931V72.7106" fill="white"/>
<path d="M136.271 79.1377H113.278C112.285 79.1377 111.332 78.7432 110.63 78.0409C109.928 77.3387 109.533 76.3862 109.533 75.3931V72.7106C109.533 72.2449 109.911 71.8675 110.376 71.8675C110.842 71.8675 111.219 72.2449 111.219 72.7106V75.3931C111.219 76.5299 112.141 77.4515 113.278 77.4515H136.271C137.408 77.4515 138.329 76.5299 138.329 75.3931V72.7106C138.329 72.2449 138.707 71.8675 139.172 71.8675C139.638 71.8675 140.015 72.2449 140.015 72.7106V75.3931C140.015 77.4612 138.339 79.1377 136.271 79.1377Z" fill="#1C2441"/>
<path d="M142.808 146.244H106.774C104.355 146.244 102.395 144.284 102.395 141.865V76.258C102.395 73.8392 104.355 71.8784 106.774 71.8784H142.808C145.226 71.8784 147.187 73.8392 147.187 76.258V141.854C147.19 143.017 146.73 144.134 145.908 144.958C145.087 145.782 143.971 146.244 142.808 146.244ZM106.774 73.5533C106.048 73.5419 105.348 73.8213 104.83 74.3294C104.311 74.8376 104.018 75.5321 104.015 76.258V141.854C104.027 142.574 104.324 143.26 104.841 143.761C105.359 144.262 106.054 144.537 106.774 144.526H142.808C144.303 144.526 145.517 143.316 145.523 141.821V76.258C145.517 74.7627 144.303 73.5533 142.808 73.5533H106.774Z" fill="#0B132B"/>
<path d="M118.796 76.904C119.57 76.904 120.197 76.2766 120.197 75.5026C120.197 74.7285 119.57 74.1011 118.796 74.1011C118.022 74.1011 117.395 74.7285 117.395 75.5026C117.395 76.2766 118.022 76.904 118.796 76.904Z" fill="#3A506B"/>
<path d="M131.78 76.1486H122.189C121.723 76.1486 121.346 75.7711 121.346 75.3055C121.346 74.8399 121.723 74.4624 122.189 74.4624H131.78C132.246 74.4624 132.623 74.8399 132.623 75.3055C132.623 75.7711 132.246 76.1486 131.78 76.1486Z" fill="#3A506B"/>
<path d="M142.139 126.722H108.011C107.545 126.722 107.168 126.345 107.168 125.879V82.5538C107.168 82.0881 107.545 81.7107 108.011 81.7107C108.477 81.7107 108.854 82.0881 108.854 82.5538V125.036H142.139C142.605 125.036 142.982 125.414 142.982 125.879C142.982 126.345 142.605 126.722 142.139 126.722Z" fill="#0B132B"/>
<path d="M141.198 130.467H110.277C109.389 130.467 108.668 131.187 108.668 132.076V134.113C108.668 135.002 109.389 135.722 110.277 135.722H141.198C142.087 135.722 142.807 135.002 142.807 134.113V132.076C142.807 131.187 142.087 130.467 141.198 130.467Z" fill="#4FCBC2"/>
<path d="M141.198 137.036H110.277C109.389 137.036 108.668 137.757 108.668 138.646V140.682C108.668 141.571 109.389 142.292 110.277 142.292H141.198C142.087 142.292 142.807 141.571 142.807 140.682V138.646C142.807 137.757 142.087 137.036 141.198 137.036Z" fill="#3A506B"/>
<path d="M137.628 86.4407H114.603C113.03 86.4407 111.756 87.7152 111.756 89.2874V118.554C111.756 120.126 113.03 121.401 114.603 121.401H137.628C139.201 121.401 140.475 120.126 140.475 118.554V89.2874C140.475 87.7152 139.201 86.4407 137.628 86.4407Z" fill="#EDEDED"/>
<path d="M108.624 126.613C108.512 126.612 108.4 126.59 108.296 126.547C107.876 126.362 107.682 125.876 107.858 125.452L116.617 105.47C116.755 105.164 117.059 104.967 117.394 104.966H121.96L125.464 100.313C125.608 100.115 125.833 99.9911 126.077 99.9737C126.317 99.9538 126.554 100.042 126.723 100.215L128.442 101.934L132.876 94.1598C133 93.929 133.229 93.7735 133.49 93.7437C133.751 93.7097 134.014 93.7986 134.201 93.9846L135.909 95.6926L141.603 85.4334C141.826 85.0554 142.303 84.9125 142.698 85.1049C143.08 85.325 143.224 85.8055 143.026 86.1998L136.862 97.4445C136.729 97.6739 136.5 97.8309 136.238 97.8715C135.976 97.9055 135.713 97.8165 135.526 97.6306L133.807 95.9116L129.362 103.696C129.231 103.923 129.002 104.076 128.742 104.11C128.483 104.144 128.222 104.056 128.037 103.872L126.219 102.065L123.066 106.28C122.903 106.491 122.653 106.616 122.387 106.62H117.92L109.402 126.087C109.273 126.404 108.966 126.611 108.624 126.613Z" fill="#0B132B"/>
<path d="M90.0657 61.663H61.4886C60.0797 61.663 58.9375 62.8051 58.9375 64.2141V92.7912C58.9375 94.2001 60.0797 95.3423 61.4886 95.3423H90.0657C91.4746 95.3423 92.6168 94.2001 92.6168 92.7912V64.2141C92.6168 62.8051 91.4746 61.663 90.0657 61.663Z" fill="#00FCDC"/>
<path d="M85.0525 54.0752V69.2397C85.0525 69.9853 84.4513 70.5914 83.7057 70.5974H81.0232V56.933C81.0232 56.4008 80.5918 55.9694 80.0597 55.9694H72.1654C71.9042 55.9605 71.6506 56.0581 71.4628 56.2398C71.2749 56.4214 71.1689 56.6716 71.1691 56.933V70.5974H68.5413C67.7939 70.5914 67.1895 69.9871 67.1836 69.2397V54.0752C67.1896 53.3297 67.7957 52.7285 68.5413 52.7285H83.7057C84.4495 52.7285 85.0525 53.3315 85.0525 54.0752Z" fill="#EDEDED"/>
<path d="M83.7039 71.4405H81.0214C80.5557 71.4405 80.1783 71.063 80.1783 70.5974V56.933C80.1783 56.8664 80.1244 56.8125 80.0578 56.8125H72.1636C72.1307 56.809 72.098 56.8206 72.0746 56.844C72.0512 56.8674 72.0396 56.9001 72.0431 56.933V70.5974C72.0372 71.0605 71.6632 71.4346 71.2 71.4405H68.5394C67.33 71.4405 66.3496 70.4601 66.3496 69.2507V54.0752C66.3496 52.8658 67.33 51.8854 68.5394 51.8854H83.7039C84.9133 51.8854 85.8937 52.8658 85.8937 54.0752V69.2397C85.8966 69.8224 85.6672 70.3822 85.2562 70.7952C84.8452 71.2083 84.2865 71.4405 83.7039 71.4405ZM81.8863 69.7543H83.7039C83.9838 69.7483 84.2075 69.5197 84.2075 69.2397V54.0752C84.2017 53.7995 83.9796 53.5774 83.7039 53.5716H68.5394C68.2594 53.5716 68.0308 53.7953 68.0248 54.0752V69.2397C68.0248 69.5239 68.2552 69.7543 68.5394 69.7543H70.357V56.933C70.363 55.9395 71.1701 55.1373 72.1636 55.1373H80.0797C81.0732 55.1373 81.8803 55.9395 81.8863 56.933V69.7543Z" fill="#1C2441"/>
<path d="M90.0657 61.663H61.4886C60.0797 61.663 58.9375 62.8051 58.9375 64.2141V92.7912C58.9375 94.2001 60.0797 95.3423 61.4886 95.3423H90.0657C91.4746 95.3423 92.6168 94.2001 92.6168 92.7912V64.2141C92.6168 62.8051 91.4746 61.663 90.0657 61.663Z" fill="#EDEDED"/>
<path d="M90.065 96.1744H61.488C59.6134 96.1744 58.0938 94.6548 58.0938 92.7802V64.2141C58.0938 62.3395 59.6134 60.8199 61.488 60.8199H90.065C91.9396 60.8199 93.4592 62.3395 93.4592 64.2141V92.7802C93.4592 94.6548 91.9396 96.1744 90.065 96.1744ZM61.488 62.506C60.5446 62.506 59.7799 63.2708 59.7799 64.2141V92.7802C59.777 93.2351 59.9557 93.6724 60.2763 93.9951C60.5969 94.3178 61.0331 94.4992 61.488 94.4992H90.065C90.5199 94.4992 90.956 94.3178 91.2767 93.9951C91.5973 93.6724 91.776 93.2351 91.7731 92.7802V64.2141C91.7731 63.2708 91.0083 62.506 90.065 62.506H61.488Z" fill="#1C2441"/>
<path d="M77.5839 80.4844C79.5943 79.7727 80.7997 77.7163 80.4386 75.6144C80.0775 73.5125 78.2549 71.9763 76.1222 71.9763C73.9896 71.9763 72.1669 73.5125 71.8058 75.6144C71.4447 77.7163 72.6501 79.7727 74.6605 80.4844" fill="#4FCBC2"/>
<path d="M77.5841 81.3166C77.1797 81.3099 76.837 81.017 76.7675 80.6185C76.698 80.2201 76.9212 79.8284 77.2995 79.6852C78.9221 79.1095 79.8943 77.449 79.6022 75.7522C79.3102 74.0555 77.8386 72.8156 76.117 72.8156C74.3953 72.8156 72.9237 74.0555 72.6317 75.7522C72.3396 77.449 73.3119 79.1095 74.9345 79.6852C75.152 79.757 75.3309 79.9143 75.4301 80.1209C75.5292 80.3274 75.54 80.5654 75.46 80.7801C75.3834 80.9937 75.2248 81.1681 75.0194 81.2647C74.8139 81.3612 74.5785 81.372 74.3651 81.2947C71.9669 80.4468 70.5284 77.9945 70.9585 75.4875C71.3887 72.9805 73.5624 71.1479 76.106 71.1479C78.6497 71.1479 80.8234 72.9805 81.2535 75.4875C81.6836 77.9945 80.2451 80.4468 77.8469 81.2947C77.7611 81.3165 77.6723 81.3239 77.5841 81.3166Z" fill="#1C2441"/>
<path d="M77.5836 80.4734V85.718H74.6602V80.4734" fill="#4FCBC2"/>
<path d="M77.5829 86.5612H74.6595C74.1939 86.5612 73.8164 86.1837 73.8164 85.7181V80.4844C73.8164 80.0188 74.1939 79.6414 74.6595 79.6414C75.1251 79.6414 75.5026 80.0188 75.5026 80.4844V84.8641H76.7398V80.4844C76.7398 80.0188 77.1173 79.6414 77.5829 79.6414C78.0485 79.6414 78.426 80.0188 78.426 80.4844V85.7181C78.4201 86.1812 78.046 86.5553 77.5829 86.5612Z" fill="#1C2441"/>
<path d="M90.065 96.1744H61.488C59.6134 96.1744 58.0938 94.6548 58.0938 92.7802V64.2141C58.0938 62.3395 59.6134 60.8199 61.488 60.8199H90.065C91.9396 60.8199 93.4592 62.3395 93.4592 64.2141V92.7802C93.4592 94.6548 91.9396 96.1744 90.065 96.1744ZM61.488 62.506C60.5446 62.506 59.7799 63.2708 59.7799 64.2141V92.7802C59.777 93.2351 59.9557 93.6724 60.2763 93.9951C60.5969 94.3178 61.0331 94.4992 61.488 94.4992H90.065C90.5199 94.4992 90.956 94.3178 91.2767 93.9951C91.5973 93.6724 91.776 93.2351 91.7731 92.7802V64.2141C91.7731 63.2708 91.0083 62.506 90.065 62.506H61.488Z" fill="#1C2441"/>
<path d="M63.054 71.966H62.6708C62.0177 71.966 61.4883 72.4954 61.4883 73.1485V92.0904C61.4883 92.7435 62.0177 93.2729 62.6708 93.2729H63.054C63.7071 93.2729 64.2365 92.7435 64.2365 92.0904V73.1485C64.2365 72.4954 63.7071 71.966 63.054 71.966Z" fill="white"/>
<path d="M63.6015 64.4112H62.1233C61.7726 64.4112 61.4883 64.6955 61.4883 65.0462V69.9624C61.4883 70.3131 61.7726 70.5974 62.1233 70.5974H63.6015C63.9522 70.5974 64.2365 70.3131 64.2365 69.9624V65.0462C64.2365 64.6955 63.9522 64.4112 63.6015 64.4112Z" fill="white"/>
</svg>
