<svg width="20" height="22" viewBox="0 0 20 22" fill="none" xmlns="http://www.w3.org/2000/svg">
<path fill-rule="evenodd" clip-rule="evenodd" d="M16.6667 3.3L15.5556 3.3C15.5556 1.47746 14.0632 0 12.2222 0H3.33333C1.49238 0 0 1.47746 0 3.3V15.4C0 17.2225 1.49238 18.7 3.33333 18.7C3.33333 20.5225 4.82572 22 6.66667 22H16.6667C18.5076 22 20 20.5225 20 18.7L20 6.6C20 4.77746 18.5076 3.3 16.6667 3.3ZM14.4444 5.5L14.4427 5.5H6.66667C6.05302 5.5 5.55556 5.99248 5.55556 6.6L5.55556 17.6V18.7C5.55556 19.3075 6.05302 19.8 6.66667 19.8L16.6667 19.8C17.2803 19.8 17.7778 19.3075 17.7778 18.7L17.7778 6.6C17.7778 5.99249 17.2803 5.5 16.6667 5.5H14.4462L14.4444 5.5ZM2.22222 15.4C2.22222 16.0075 2.71968 16.5 3.33333 16.5L3.33333 6.6C3.33333 4.77746 4.82572 3.3 6.66667 3.3L13.3333 3.3C13.3333 2.69249 12.8359 2.2 12.2222 2.2H3.33333C2.71968 2.2 2.22222 2.69249 2.22222 3.3V15.4ZM8.88889 17.6C8.27524 17.6 7.77778 17.1075 7.77778 16.5C7.77778 15.8925 8.27524 15.4 8.88889 15.4H14.4444C15.0581 15.4 15.5556 15.8925 15.5556 16.5C15.5556 17.1075 15.0581 17.6 14.4444 17.6H8.88889ZM7.77778 12.65C7.77778 13.2575 8.27524 13.75 8.88889 13.75H14.4444C15.0581 13.75 15.5556 13.2575 15.5556 12.65C15.5556 12.0425 15.0581 11.55 14.4444 11.55H8.88889C8.27524 11.55 7.77778 12.0425 7.77778 12.65ZM8.88889 9.9C8.27524 9.9 7.77778 9.40751 7.77778 8.8C7.77778 8.19248 8.27524 7.7 8.88889 7.7H14.4444C15.0581 7.7 15.5556 8.19248 15.5556 8.8C15.5556 9.40751 15.0581 9.9 14.4444 9.9H8.88889Z" fill="#2A2C2C"/>
</svg>
