<svg width="15" height="15" viewBox="0 0 15 15" fill="none" xmlns="http://www.w3.org/2000/svg">
<path fill-rule="evenodd" clip-rule="evenodd" d="M10.5712 0.447751C11.1682 -0.14925 12.1372 -0.14925 12.7343 0.447751L14.5522 2.26575C15.1493 2.86275 15.1493 3.83175 14.5522 4.42875L5.21698 13.764C5.07298 13.9073 4.90274 14.0205 4.71524 14.0978L4.70623 14.1068L4.70249 14.103C4.66199 14.1188 4.62074 14.1338 4.57873 14.1458L1.97249 14.9348C1.43249 15.0975 0.846734 14.9505 0.447734 14.5523C0.0494835 14.1533 -0.0975126 13.5675 0.0652376 13.0275L0.85424 10.4213C0.92699 10.1805 1.05823 9.96077 1.23598 9.78302L10.5712 0.447751ZM12.3892 4.42875L4.79023 12.0278L2.97223 10.2098L10.5712 2.61075L11.6527 1.52925L12.3892 2.26575L12.7343 2.61075L13.4707 3.34725L12.3892 4.42875ZM2.06173 11.712L2.11949 11.52L3.47999 12.8805L3.28799 12.9383L1.52924 13.4708L2.06173 11.712ZM8.28224 5.89575C8.05874 6.11925 8.05874 6.48301 8.28224 6.70651C8.50649 6.93076 8.86949 6.93076 9.09374 6.70651L11.7697 4.0305C11.994 3.80625 11.994 3.44326 11.7697 3.21901C11.5462 2.99551 11.1832 2.99551 10.959 3.21901L8.28224 5.89575Z" fill="#2A2C2C"/>
</svg>
