<svg width="16" height="16" viewBox="0 0 16 16" fill="none" xmlns="http://www.w3.org/2000/svg">
<path fill-rule="evenodd" clip-rule="evenodd" d="M0 8C0 12.4184 3.584 16 8 16C12.416 16 16 12.4184 16 8C16 3.5816 12.416 0 8 0C3.584 0 0 3.5816 0 8ZM1.6 8C1.6 4.4656 4.464 1.6 8 1.6C11.536 1.6 14.4 4.4656 14.4 8C14.4 11.5344 11.536 14.4 8 14.4C4.464 14.4 1.6 11.5344 1.6 8ZM8 3C7.456 3 7.016 3.4536 7.04 3.9992L7.216 8.5008C7.24 8.9192 7.584 9.2496 8 9.2496C8.416 9.2496 8.76 8.9192 8.776 8.5008L8.96 3.9992C8.984 3.4536 8.544 3 8 3ZM6.848 11.6248C6.848 11.004 7.352 10.5 7.976 10.5C8.6 10.5 9.104 11.004 9.104 11.6248C9.104 12.2464 8.6 12.7504 7.976 12.7504C7.352 12.7504 6.848 12.2464 6.848 11.6248Z" fill="#060A0A"/>
</svg>
