<svg width="17" height="17" viewBox="0 0 17 17" fill="none" xmlns="http://www.w3.org/2000/svg">
<path fill-rule="evenodd" clip-rule="evenodd" d="M2.00345 8.14C1.92185 8.27714 1.85384 8.39714 1.79944 8.5C1.85384 8.60286 1.92185 8.72286 2.00345 8.86C2.2695 9.29714 2.67664 9.88857 3.23764 10.48C4.35709 11.6457 6.06135 12.7857 8.5 12.7857C10.9387 12.7857 12.6429 11.6457 13.7624 10.48C14.3234 9.88857 14.7305 9.29714 14.9966 8.86C15.0782 8.72286 15.1462 8.60286 15.2006 8.5C15.1462 8.39714 15.0782 8.27714 14.9966 8.14C14.7305 7.70286 14.3234 7.11143 13.7624 6.52C12.6429 5.35429 10.9387 4.21428 8.5 4.21428C6.06135 4.21428 4.35709 5.35429 3.23764 6.52C2.67664 7.11143 2.2695 7.70286 2.00345 8.14ZM16.9312 8.83429C16.9312 8.83429 16.9311 8.83429 16.15 8.5L16.9312 8.83429C17.023 8.62 17.023 8.38 16.9312 8.16571L16.15 8.5C16.9311 8.16571 16.9312 8.16571 16.9312 8.16571L16.9303 8.15714H16.9294H16.9269L16.9201 8.14C16.9142 8.12286 16.9056 8.10571 16.8954 8.08C16.8742 8.03714 16.8436 7.96857 16.8045 7.89143C16.7246 7.73714 16.6073 7.51429 16.45 7.24857C16.1347 6.72571 15.6536 6.03143 14.9864 5.33714C13.6459 3.93143 11.526 2.5 8.5 2.5C5.474 2.5 3.35409 3.93143 2.01364 5.33714C1.34639 6.03143 0.86531 6.72571 0.54996 7.24857C0.39271 7.51429 0.275398 7.73714 0.195498 7.89143C0.156398 7.96857 0.125806 8.03714 0.104556 8.08C0.0943556 8.10571 0.0858474 8.12286 0.0798974 8.14L0.0730919 8.15714H0.070559H0.0697045L0.06885 8.16571C0.06885 8.16571 0.0688584 8.16571 0.850008 8.5L0.06885 8.16571C-0.02295 8.38 -0.02295 8.62 0.06885 8.83429L0.850008 8.5C0.0688584 8.83429 0.06885 8.83429 0.06885 8.83429L0.0697045 8.84286H0.070559H0.0730919L0.0798974 8.86C0.0858474 8.87714 0.0943556 8.89429 0.104556 8.92C0.125806 8.96286 0.156398 9.03143 0.195498 9.10857C0.275398 9.26286 0.39271 9.48571 0.54996 9.75143C0.86531 10.2743 1.34639 10.9686 2.01364 11.6629C3.35409 13.0686 5.474 14.5 8.5 14.5C11.526 14.5 13.6459 13.0686 14.9864 11.6629C15.6536 10.9686 16.1347 10.2743 16.45 9.75143C16.6073 9.48571 16.7246 9.26286 16.8045 9.10857C16.8436 9.03143 16.8742 8.96286 16.8954 8.92C16.9056 8.89429 16.9142 8.87714 16.9201 8.86L16.9269 8.84286H16.9294H16.9303L16.9312 8.83429ZM8.5 10.2143C7.56075 10.2143 6.79999 9.44286 6.79999 8.5C6.79999 7.55714 7.56075 6.78572 8.5 6.78572C9.43925 6.78572 10.2 7.55714 10.2 8.5C10.2 9.44286 9.43925 10.2143 8.5 10.2143ZM5.10001 8.5C5.10001 6.60571 6.62235 5.07143 8.5 5.07143C10.3777 5.07143 11.9 6.60571 11.9 8.5C11.9 10.3943 10.3777 11.9286 8.5 11.9286C6.62235 11.9286 5.10001 10.3943 5.10001 8.5Z" fill="#060A0A"/>
</svg>
