<svg width="17" height="17" viewBox="0 0 17 17" fill="none" xmlns="http://www.w3.org/2000/svg">
<path fill-rule="evenodd" clip-rule="evenodd" d="M15.5489 0.248563C15.8804 -0.0828543 16.4192 -0.0828543 16.7507 0.248563C17.0831 0.57998 17.0831 1.12384 16.7507 1.45526L13.8523 4.35304C14.279 4.67596 14.6555 5.01587 14.9862 5.36428C15.6534 6.05261 16.1345 6.74094 16.4498 7.25931C16.6071 7.52274 16.7244 7.74369 16.8043 7.89665C16.8434 7.97313 16.874 8.04111 16.8952 8.0836C16.9054 8.1091 16.9139 8.12609 16.9199 8.14309L16.9267 8.16008H16.9292H16.9301L16.9309 8.16858C16.9309 8.16858 16.9309 8.16858 16.1498 8.5C16.9309 8.83142 16.9309 8.83142 16.9309 8.83142L16.9301 8.83991H16.9292H16.9267L16.9199 8.85691C16.9139 8.87391 16.9054 8.8909 16.8952 8.91639C16.874 8.95888 16.8434 9.02687 16.8043 9.10335C16.7244 9.25631 16.6071 9.47725 16.4498 9.74069C16.1345 10.2591 15.6534 10.9474 14.9862 11.6357C13.6457 13.0294 11.5259 14.4485 8.49999 14.4485C6.99043 14.4485 5.70696 14.0916 4.63259 13.5647L1.4511 16.7514C1.11961 17.0829 0.580748 17.0829 0.249256 16.7514C-0.0830852 16.42 -0.0830852 15.8762 0.249256 15.5447L15.5489 0.248563ZM5.92202 12.2816C6.67085 12.5705 7.52676 12.7489 8.49999 12.7489C10.9386 12.7489 12.6428 11.6187 13.7622 10.463C14.3232 9.87665 14.7303 9.2903 14.9964 8.85691C15.078 8.72094 15.146 8.60197 15.2004 8.5C15.146 8.39802 15.078 8.27905 14.9964 8.14309C14.7303 7.7097 14.3232 7.12334 13.7622 6.53699C13.4375 6.20557 13.0635 5.87416 12.6368 5.56823L11.429 6.77493C11.7282 7.2763 11.8999 7.87116 11.8999 8.5C11.8999 10.378 10.3776 11.8991 8.49999 11.8991C7.8693 11.8991 7.27943 11.7292 6.77285 11.4318L5.92202 12.2816ZM8.05971 10.1401C8.19996 10.1826 8.34784 10.1996 8.49999 10.1996C9.43922 10.1996 10.1999 9.43476 10.1999 8.5C10.1999 8.34704 10.1795 8.20257 10.1421 8.05811L8.05971 10.1401ZM16.1498 8.5L16.9309 8.83142C17.0227 8.61897 17.0227 8.38103 16.9309 8.16858L16.1498 8.5ZM8.49999 2.55149C9.26327 2.55149 9.96874 2.64496 10.619 2.79792L9.14086 4.27656C8.93261 4.25956 8.71928 4.25106 8.49999 4.25106C6.0614 4.25106 4.3572 5.38128 3.23778 6.53699C2.6768 7.12334 2.26963 7.7097 2.00359 8.14309C1.92199 8.27905 1.85401 8.39802 1.79961 8.5C1.85401 8.60197 1.92199 8.72094 2.00359 8.85691C2.24753 9.25631 2.61048 9.78318 3.10176 10.3185L1.89907 11.5167C1.29048 10.8624 0.846771 10.2251 0.550129 9.74069C0.392883 9.47725 0.275595 9.25631 0.195697 9.10335C0.156598 9.02687 0.126004 8.95888 0.104755 8.91639C0.094555 8.8909 0.0860468 8.87391 0.0800968 8.85691L0.0732914 8.83991H0.0707584H0.0699039L0.0690494 8.83142C0.0690494 8.83142 0.0690473 8.83142 0.850177 8.5L0.0690494 8.83142C-0.0227486 8.61897 -0.0227486 8.38103 0.0690494 8.16858L0.850177 8.5C0.0690473 8.16858 0.0690494 8.16858 0.0690494 8.16858L0.0699039 8.16008H0.0707584H0.0732914L0.0800968 8.14309C0.0860468 8.12609 0.094555 8.1091 0.104755 8.0836C0.126004 8.04111 0.156598 7.97313 0.195697 7.89665C0.275595 7.74369 0.392883 7.52274 0.550129 7.25931C0.865471 6.74094 1.34658 6.05261 2.01381 5.36428C3.35423 3.97063 5.47406 2.55149 8.49999 2.55149ZM5.10518 8.31305C5.19953 6.58798 6.58415 5.20282 8.31215 5.10935L5.10518 8.31305Z" fill="#060A0A"/>
</svg>
