<svg width="18" height="18" viewBox="0 0 18 18" fill="none" xmlns="http://www.w3.org/2000/svg">
<path fill-rule="evenodd" clip-rule="evenodd" d="M18 9C18 4.0293 13.968 0 9 0C4.032 0 0 4.0293 0 9C0 13.9707 4.032 18 9 18C13.968 18 18 13.9707 18 9ZM16.2 9C16.2 12.9762 12.978 16.2 9 16.2C5.022 16.2 1.8 12.9762 1.8 9C1.8 5.0238 5.022 1.8 9 1.8C12.978 1.8 16.2 5.0238 16.2 9ZM9 14.625C9.612 14.625 10.107 14.1147 10.08 13.5009L9.88198 8.43659C9.85498 7.96589 9.468 7.59419 9 7.59419C8.532 7.59419 8.14503 7.96589 8.12703 8.43659L7.91999 13.5009C7.89299 14.1147 8.388 14.625 9 14.625ZM10.296 4.9221C10.296 5.62049 9.72903 6.1875 9.02703 6.1875C8.32503 6.1875 7.758 5.62049 7.758 4.9221C7.758 4.2228 8.32503 3.65581 9.02703 3.65581C9.72903 3.65581 10.296 4.2228 10.296 4.9221Z" fill="#060A0A"/>
</svg>
