<svg width="18" height="18" viewBox="0 0 18 18" fill="none" xmlns="http://www.w3.org/2000/svg">
<path fill-rule="evenodd" clip-rule="evenodd" d="M9 18C4.02944 18 0 13.9706 0 9C0 4.02944 4.02944 0 9 0C13.9706 0 18 4.02944 18 9C18 13.9706 13.9706 18 9 18ZM9 1.8C5.02355 1.8 1.8 5.02355 1.8 9C1.8 12.9764 5.02355 16.2 9 16.2C12.9764 16.2 16.2 12.9764 16.2 9C16.2 5.02355 12.9764 1.8 9 1.8ZM9 7.875C9.62132 7.875 10.125 8.37868 10.125 9V12.6C10.125 13.2213 9.62132 13.725 9 13.725C8.37868 13.725 7.875 13.2213 7.875 12.6V9C7.875 8.37868 8.37868 7.875 9 7.875ZM9 4.5C8.37868 4.5 7.875 5.00368 7.875 5.625C7.875 6.24632 8.37868 6.75 9 6.75C9.62132 6.75 10.125 6.24632 10.125 5.625C10.125 5.00368 9.62132 4.5 9 4.5Z" fill="#060A0A"/>
</svg>
