<svg width="50" height="50" viewBox="0 0 50 50" fill="none" xmlns="http://www.w3.org/2000/svg">
<rect width="50" height="50" rx="19" fill="#2C3036" fill-opacity="0.05"/>
<path fill-rule="evenodd" clip-rule="evenodd" d="M21 22V21C21 18.791 22.791 17 25 17C27.209 17 29 18.791 29 21V22H21ZM19 22.345V21C19 17.686 21.686 15 25 15C28.314 15 31 17.686 31 21V22.345C31.602 22.732 32 23.408 32 24.176V28C32 31.866 28.866 35 25 35C21.134 35 18 31.866 18 28V24.176C18 23.408 18.398 22.732 19 22.345ZM20.176 24C20.079 24 20 24.079 20 24.176V28C20 30.761 22.239 33 25 33C27.761 33 30 30.761 30 28V24.176C30 24.079 29.921 24 29.824 24H29H21H20.176ZM25 26C26.105 26 27 26.895 27 28C27 29.105 26.105 30 25 30C23.895 30 23 29.105 23 28C23 26.895 23.895 26 25 26Z" fill="#2C3036"/>
</svg>
