<svg width="20" height="20" viewBox="0 0 20 20" fill="none" xmlns="http://www.w3.org/2000/svg">
<path fill-rule="evenodd" clip-rule="evenodd" d="M0 10C0 15.523 4.477 20 10 20C15.523 20 20 15.523 20 10C20 4.477 15.523 0 10 0C4.477 0 0 4.477 0 10ZM2 10C2 5.582 5.582 2 10 2C14.418 2 18 5.582 18 10C18 14.418 14.418 18 10 18C5.582 18 2 14.418 2 10ZM5.75699 11C5.20499 11 4.75699 10.552 4.75699 10C4.75699 9.448 5.20499 9 5.75699 9H14.243C14.795 9 15.243 9.448 15.243 10C15.243 10.552 14.795 11 14.243 11H5.75699Z" fill="white" fill-opacity="0.9"/>
</svg>
