<svg width="134" height="150" viewBox="0 0 134 150" fill="none" xmlns="http://www.w3.org/2000/svg">
<path d="M82.8492 7.09167H15.7288C12.0665 7.09167 9.09766 10.0606 9.09766 13.7229V135.919C9.09766 139.581 12.0665 142.55 15.7288 142.55H82.8492C86.5115 142.55 89.4804 139.581 89.4804 135.919V13.7229C89.4804 10.0606 86.5115 7.09167 82.8492 7.09167Z" fill="#EDEDED"/>
<path d="M88.4366 0.757263H21.3162C17.6539 0.757263 14.6851 3.72615 14.6851 7.38845V129.585C14.6851 133.247 17.6539 136.216 21.3162 136.216H88.4366C92.0989 136.216 95.0678 133.247 95.0678 129.585V7.38845C95.0678 3.72615 92.0989 0.757263 88.4366 0.757263Z" fill="white"/>
<path d="M81.672 0.757263V5.77159C81.672 8.76134 79.2483 11.185 76.2585 11.185H33.4935C30.5038 11.185 28.0801 8.76134 28.0801 5.77159V0.757263" fill="white"/>
<path d="M76.2585 11.9424H33.4935C30.1025 11.9424 27.3535 9.19332 27.3535 5.80229V0.757266C27.3535 0.339039 27.6926 0 28.1108 0C28.529 0 28.868 0.339039 28.868 0.757266V5.77159C28.8737 8.33912 30.9567 10.4175 33.5242 10.4175H76.2585C78.8221 10.4119 80.8988 8.33513 80.9045 5.77159V0.757266C80.9494 0.370214 81.2772 0.078242 81.6669 0.078242C82.0565 0.078242 82.3843 0.370214 82.4293 0.757266V5.77159C82.4375 7.41067 81.79 8.98498 80.631 10.144C79.4719 11.303 77.8976 11.9505 76.2585 11.9424Z" fill="#1C2441"/>
<path d="M88.436 136.973H21.3157C19.3571 136.976 17.4778 136.2 16.0919 134.816C14.706 133.432 13.9272 131.553 13.9272 129.595V7.38846C13.9272 3.30792 17.2352 0 21.3157 0H88.436C92.5142 0.00563677 95.8189 3.31026 95.8245 7.38846V129.595C95.8189 133.671 92.5126 136.973 88.436 136.973ZM21.3157 1.52476C18.0756 1.52476 15.4474 4.14837 15.4418 7.38846V129.595C15.4474 132.835 18.0756 135.458 21.3157 135.458H88.436C91.6721 135.453 94.2941 132.831 94.2997 129.595V7.38846C94.2941 4.15237 91.6721 1.5304 88.436 1.52476H21.3157Z" fill="#1C2441"/>
<path d="M36.267 52.4867C40.5849 52.4867 44.0852 48.9864 44.0852 44.6685C44.0852 40.3506 40.5849 36.8502 36.267 36.8502C31.9491 36.8502 28.4487 40.3506 28.4487 44.6685C28.4487 48.9864 31.9491 52.4867 36.267 52.4867Z" fill="#EDEDED"/>
<path d="M36.2669 53.2132C31.5308 53.2132 27.6914 49.3738 27.6914 44.6377C27.6914 39.9016 31.5308 36.0622 36.2669 36.0622C41.0031 36.0622 44.8425 39.9016 44.8425 44.6377C44.8425 46.9121 43.939 49.0933 42.3307 50.7015C40.7225 52.3097 38.5413 53.2132 36.2669 53.2132ZM36.2669 37.5869C33.4092 37.5828 30.8307 39.3017 29.7352 41.9411C28.6396 44.5805 29.2431 47.6201 31.2638 49.6408C33.2846 51.6616 36.3241 52.265 38.9635 51.1695C41.603 50.074 43.3218 47.4955 43.3177 44.6377C43.2952 40.758 40.1467 37.6232 36.2669 37.6177V37.5869Z" fill="#1C2441"/>
<path d="M43.7067 8.57553C45.1478 8.57553 46.3162 7.40722 46.3162 5.96603C46.3162 4.52485 45.1478 3.35654 43.7067 3.35654C42.2655 3.35654 41.0972 4.52485 41.0972 5.96603C41.0972 7.40722 42.2655 8.57553 43.7067 8.57553Z" fill="#3A506B"/>
<path d="M66.4145 41.3426H55.2602C54.8386 41.3371 54.4982 40.9967 54.4927 40.5751C54.4983 40.1553 54.8403 39.8178 55.2602 39.8179H66.4145C66.8327 39.8179 67.1718 40.1569 67.1718 40.5751C67.1718 40.9951 66.8344 41.337 66.4145 41.3426Z" fill="#3A506B"/>
<path d="M73.8541 45.8043H55.2602C54.8403 45.8043 54.4983 45.4669 54.4927 45.047C54.4982 44.6255 54.8386 44.2851 55.2602 44.2795H73.8541C74.274 44.2851 74.6114 44.6271 74.6114 45.047C74.6114 45.2479 74.5316 45.4405 74.3896 45.5825C74.2476 45.7245 74.055 45.8043 73.8541 45.8043Z" fill="#3A506B"/>
<path d="M36.267 78.5407C40.5849 78.5407 44.0852 75.0404 44.0852 70.7225C44.0852 66.4046 40.5849 62.9042 36.267 62.9042C31.9491 62.9042 28.4487 66.4046 28.4487 70.7225C28.4487 75.0404 31.9491 78.5407 36.267 78.5407Z" fill="#4FCBC2"/>
<path d="M36.2669 79.298C31.5308 79.298 27.6914 75.4586 27.6914 70.7225C27.6914 65.9864 31.5308 62.147 36.2669 62.147C41.0031 62.147 44.8425 65.9864 44.8425 70.7225C44.8368 75.4563 41.0007 79.2924 36.2669 79.298ZM36.2669 63.6717C32.3729 63.6717 29.2162 66.8285 29.2162 70.7225C29.2162 74.6165 32.3729 77.7733 36.2669 77.7733C40.161 77.7733 43.3177 74.6165 43.3177 70.7225C43.3121 66.8308 40.1586 63.6774 36.2669 63.6717Z" fill="#1C2441"/>
<path d="M66.414 67.3864H55.2597C54.8415 67.3864 54.5024 67.0474 54.5024 66.6292C54.5024 66.2109 54.8415 65.8719 55.2597 65.8719H66.414C66.8323 65.8719 67.1713 66.2109 67.1713 66.6292C67.1713 67.0474 66.8323 67.3864 66.414 67.3864Z" fill="#3A506B"/>
<path d="M73.8541 71.8584H55.2602C54.8386 71.8529 54.4982 71.5125 54.4927 71.0909C54.4983 70.671 54.8403 70.3336 55.2602 70.3336H73.8541C74.2723 70.3336 74.6114 70.6727 74.6114 71.0909C74.6114 71.5108 74.274 71.8528 73.8541 71.8584Z" fill="#3A506B"/>
<path d="M26.9855 20.4666H72.3601V27.1695H25.4811V22.0016C25.4758 21.5982 25.6315 21.2093 25.9139 20.9211C26.1963 20.6329 26.5821 20.4693 26.9855 20.4666Z" fill="#00FCDC"/>
<path d="M75.3378 23.4752H29.9428C29.5246 23.4752 29.1855 23.1362 29.1855 22.718C29.1855 22.2997 29.5246 21.9607 29.9428 21.9607H75.3378C75.756 21.9607 76.0951 22.2997 76.0951 22.718C76.0951 23.1362 75.756 23.4752 75.3378 23.4752Z" fill="#3A506B"/>
<path d="M67.8981 6.35489H50.041C49.7704 6.35489 49.5204 6.21056 49.3851 5.97626C49.2499 5.74196 49.2499 5.45329 49.3851 5.219C49.5204 4.9847 49.7704 4.84036 50.041 4.84036H67.8981C68.3163 4.84036 68.6554 5.1794 68.6554 5.59763C68.6554 6.01585 68.3163 6.35489 67.8981 6.35489Z" fill="#3A506B"/>
<path d="M62.9251 112.362L58.228 114.398L49.9697 95.395L54.6771 93.3483" fill="#EDEDED"/>
<path d="M58.2277 115.166C58.1289 115.166 58.0311 115.145 57.9412 115.104C57.7552 115.034 57.607 114.889 57.5318 114.705L49.2735 95.702C49.1882 95.5137 49.1824 95.2989 49.2575 95.1063C49.3327 94.9136 49.4823 94.7595 49.6726 94.6787L54.3697 92.632C54.7446 92.5156 55.147 92.7009 55.3022 93.0614C55.4575 93.422 55.3157 93.8416 54.9735 94.034L50.9723 95.7839L58.6166 113.395L62.628 111.656C63.0029 111.539 63.4052 111.725 63.5605 112.085C63.7158 112.446 63.574 112.865 63.2318 113.058L58.5245 115.104C58.4308 115.145 58.3298 115.166 58.2277 115.166Z" fill="#1C2441"/>
<path d="M66.8021 85.8756L53.8672 91.4918L63.7342 114.217L76.6691 108.601L66.8021 85.8756Z" fill="white"/>
<path d="M63.7331 114.982C63.6415 114.996 63.5483 114.996 63.4568 114.982C63.2712 114.902 63.1217 114.756 63.0372 114.572L53.2132 91.7929C53.1272 91.6058 53.12 91.3921 53.1931 91.1997C53.2662 91.0073 53.4136 90.8523 53.6021 90.7695L66.5165 85.1821C66.7036 85.0962 66.9173 85.0889 67.1097 85.1621C67.3021 85.2352 67.4571 85.3825 67.5399 85.571L77.4048 108.299C77.4901 108.488 77.4959 108.702 77.4208 108.895C77.3457 109.088 77.196 109.242 77.0057 109.323L64.0401 114.92C63.9426 114.96 63.8384 114.981 63.7331 114.982ZM54.871 91.885L64.1322 113.221L75.6651 108.207L66.4551 86.8809L54.871 91.885Z" fill="#1C2441"/>
<path d="M110.356 101.453L76.4838 108.176L66.9771 86.2976L95.0266 66.1482" fill="#EDEDED"/>
<path d="M76.4839 108.944C76.1806 108.944 75.9068 108.762 75.788 108.483L66.2812 86.6045C66.1416 86.2754 66.2477 85.8935 66.5371 85.6836L94.5764 65.4932C94.7949 65.2948 95.1077 65.2393 95.3812 65.3504C95.6546 65.4615 95.8401 65.7195 95.8583 66.014C95.8765 66.3086 95.7243 66.5875 95.4667 66.7314L67.9288 86.5636L76.9341 107.317L110.203 100.706C110.401 100.664 110.608 100.703 110.777 100.814C110.946 100.926 111.064 101.101 111.103 101.3C111.185 101.715 110.915 102.118 110.499 102.2L76.6271 108.923L76.4839 108.944Z" fill="#1C2441"/>
<path d="M72.4109 110.448C74.8157 116.087 79.39 123.455 81.6209 125.266L73.3216 128.858L66.4551 113.048" fill="#3A506B"/>
<path d="M73.3115 129.625C73.22 129.64 73.1268 129.64 73.0353 129.625C72.8497 129.545 72.7002 129.4 72.6157 129.216L65.7491 113.395C65.6638 113.207 65.658 112.992 65.7331 112.8C65.8082 112.607 65.9579 112.453 66.1482 112.372C66.3362 112.284 66.5521 112.276 66.7456 112.352C66.9391 112.427 67.0931 112.579 67.1716 112.771L73.6799 127.916L80.2395 125.061C77.7733 122.36 73.8539 115.851 71.6845 110.806C71.5681 110.431 71.7533 110.029 72.1139 109.874C72.4744 109.719 72.894 109.86 73.0864 110.203C75.4094 115.667 79.9427 122.994 82.061 124.724C82.2673 124.892 82.3687 125.157 82.3271 125.42C82.2955 125.684 82.1233 125.911 81.8768 126.013L73.5879 129.615C73.4971 129.635 73.4035 129.638 73.3115 129.625Z" fill="#1C2441"/>
<path d="M103.93 72.718C108.563 71.6136 113.321 73.9922 115.218 78.3612C117.116 82.7302 115.605 87.8308 111.635 90.4626" fill="#00FCDC"/>
<path d="M111.635 91.2198C111.381 91.2194 111.143 91.0929 111.001 90.8821C110.788 90.5384 110.882 90.0878 111.216 89.8588C114.899 87.4417 116.308 82.7249 114.555 78.6834C112.802 74.6418 108.395 72.448 104.114 73.4855C103.724 73.5368 103.359 73.2863 103.267 72.9047C103.175 72.5231 103.386 72.1335 103.756 72.0016C108.711 70.891 113.758 73.4542 115.784 78.1112C117.81 82.7681 116.245 88.2077 112.055 91.0766C111.931 91.163 111.786 91.2126 111.635 91.2198Z" fill="#1C2441"/>
<path d="M99.365 62.1851L94.2681 64.3981L111.113 103.193L116.21 100.98L99.365 62.1851Z" fill="white"/>
<path d="M111.114 103.96C110.81 103.96 110.537 103.779 110.418 103.5L93.5737 64.7053C93.4847 64.5187 93.4759 64.3038 93.5494 64.1105C93.6228 63.9173 93.7721 63.7624 93.9625 63.682L99.0792 61.4716C99.266 61.3948 99.4756 61.3948 99.6625 61.4716C99.8504 61.5481 100.001 61.695 100.082 61.8809L116.926 100.675C117.018 100.863 117.027 101.08 116.951 101.275C116.875 101.469 116.721 101.623 116.527 101.699L111.41 103.919C111.315 103.953 111.214 103.967 111.114 103.96ZM95.2724 64.7974L111.543 102.19L115.248 100.594L98.9666 63.1908L95.2724 64.7974Z" fill="#1C2441"/>
<path d="M121.541 76.842C121.236 76.8473 120.959 76.6642 120.845 76.3815C120.753 76.1953 120.743 75.9792 120.816 75.7851C120.89 75.5909 121.041 75.4362 121.234 75.3582L132.347 70.6099C132.722 70.4935 133.124 70.6788 133.28 71.0393C133.435 71.3999 133.293 71.8195 132.951 72.0119L121.848 76.7499C121.753 76.8005 121.648 76.8318 121.541 76.842Z" fill="#1C2441"/>
<path d="M120.159 73.6799C120.068 73.6992 119.974 73.6992 119.883 73.6799C119.683 73.6101 119.523 73.4589 119.441 73.2638C119.359 73.0687 119.363 72.848 119.453 72.6565L122.135 65.8514C122.207 65.6536 122.358 65.4949 122.552 65.4133C122.747 65.3318 122.966 65.3348 123.158 65.4216C123.356 65.4934 123.514 65.6455 123.594 65.8404C123.674 66.0352 123.668 66.2548 123.577 66.4449L120.896 73.2501C120.762 73.5312 120.47 73.7017 120.159 73.6799Z" fill="#1C2441"/>
<path d="M129.728 82.7159C129.632 82.7152 129.538 82.6943 129.451 82.6545L122.646 79.9734C122.256 79.8208 122.064 79.381 122.216 78.991C122.369 78.601 122.809 78.4086 123.199 78.5612L129.963 81.2423C130.159 81.3171 130.316 81.4688 130.397 81.6621C130.478 81.8554 130.477 82.0734 130.393 82.2657C130.276 82.5307 130.017 82.7055 129.728 82.7159Z" fill="#1C2441"/>
<path d="M72.779 87.6995L92.1609 72.9226C92.603 72.5873 93.1796 72.4859 93.7095 72.6504C94.2394 72.8148 94.6573 73.2249 94.8318 73.7515L95.7528 76.5145C96.0256 77.2901 95.7074 78.1499 94.9956 78.5612L74.7029 90.5342C74.2578 90.7992 73.7166 90.8482 73.2312 90.6671C72.7458 90.4861 72.3687 90.0947 72.206 89.6029C71.9671 88.9112 72.198 88.1443 72.779 87.6995Z" fill="white"/>
<path d="M9.06657 122.094H59.3326C61.2429 122.094 62.7915 120.545 62.7915 118.635V111.983C62.7915 110.073 61.2429 108.524 59.3326 108.524H9.06657C7.1563 108.524 5.60771 110.073 5.60771 111.983V118.635C5.60771 120.545 7.1563 122.094 9.06657 122.094Z" fill="#EDEDED"/>
<path d="M59.3537 122.861H9.0672C6.74103 122.856 4.8567 120.971 4.85107 118.645V111.993C4.85107 109.663 6.73704 107.773 9.0672 107.767H59.3537C61.6879 107.767 63.5801 109.659 63.5801 111.993V118.645C63.5744 120.975 61.6839 122.861 59.3537 122.861ZM9.0672 109.292C7.57515 109.292 6.36561 110.501 6.36561 111.993V118.645C6.37124 120.133 7.57914 121.336 9.0672 121.336H59.3537C60.8418 121.336 62.0497 120.133 62.0553 118.645V111.993C62.0553 110.501 60.8458 109.292 59.3537 109.292H9.0672Z" fill="#1C2441"/>
<path d="M4.22624 135.673H54.4923C56.4026 135.673 57.9512 134.125 57.9512 132.214V125.563C57.9512 123.653 56.4026 122.104 54.4923 122.104H4.22624C2.31596 122.104 0.76738 123.653 0.76738 125.563V132.214C0.76738 134.125 2.31596 135.673 4.22624 135.673Z" fill="#3A506B"/>
<path d="M54.4924 136.431H4.21613C1.88996 136.425 0.00562558 134.541 0 132.215V125.563C0 123.233 1.88597 121.342 4.21613 121.336H54.4924C56.8226 121.342 58.7086 123.233 58.7086 125.563V132.215C58.7029 134.541 56.8186 136.425 54.4924 136.431ZM4.21613 122.861C2.72808 122.867 1.52476 124.075 1.52476 125.563V132.215C1.52476 133.701 2.72973 134.906 4.21613 134.906H54.4924C55.9788 134.906 57.1838 133.701 57.1838 132.215V125.563C57.1838 124.075 55.9805 122.867 54.4924 122.861H4.21613Z" fill="#1C2441"/>
<path d="M9.06657 149.243H59.3326C61.2429 149.243 62.7915 147.694 62.7915 145.784V139.132C62.7915 137.222 61.2429 135.673 59.3326 135.673H9.06657C7.1563 135.673 5.60771 137.222 5.60771 139.132V145.784C5.60771 147.694 7.1563 149.243 9.06657 149.243Z" fill="#4FCBC2"/>
<path d="M59.3537 150H9.0672C6.74103 149.994 4.8567 148.11 4.85107 145.784V139.173C4.85107 136.843 6.73704 134.952 9.0672 134.947H59.3537C61.6799 134.958 63.5596 136.847 63.5596 139.173V145.825C63.5317 148.131 61.6601 149.989 59.3537 150ZM9.0672 136.431C8.34355 136.431 7.65011 136.721 7.14227 137.236C6.63443 137.752 6.35464 138.45 6.3653 139.173V145.825C6.37122 147.315 7.57748 148.521 9.0672 148.526H59.3537C60.8458 148.526 62.0556 147.317 62.0556 145.825V139.173C62.0663 138.45 61.7865 137.752 61.2787 137.236C60.7708 136.721 60.0774 136.431 59.3537 136.431H9.0672Z" fill="#1C2441"/>
<path d="M53.9807 84.4761C53.9807 96.05 46.1226 106.146 34.903 108.988C23.6834 111.83 11.9665 106.692 6.45677 96.5134C0.947017 86.3351 3.05096 73.7153 11.5647 65.875C20.0785 58.0346 32.8286 56.9754 42.5194 63.3033C49.6701 67.9726 53.9807 75.9359 53.9807 84.4761Z" fill="#00FCDC"/>
<path d="M28.6538 110.52C14.2769 110.492 2.64236 98.8189 2.66116 84.442C2.68 70.0651 14.3451 58.4229 28.722 58.4323C43.0989 58.4417 54.7488 70.0991 54.7488 84.4761C54.6813 98.8516 43.0294 110.481 28.6538 110.52ZM28.6538 59.9366C16.4559 59.9265 6.09903 68.8703 4.33247 80.9396C2.5659 93.0089 9.92503 104.546 21.6141 108.032C33.3032 111.518 45.7796 105.897 50.9129 94.832C56.0461 83.7668 52.2803 70.611 42.0697 63.9378C38.0795 61.3343 33.4182 59.9477 28.6538 59.9468V59.9366Z" fill="#1C2441"/>
<path d="M44.1159 72.1346C44.1184 81.4204 39.0313 89.9605 30.8648 94.3802C22.6983 98.7999 12.7664 98.3881 4.99389 93.3074C1.17619 83.0722 4.36281 71.5426 12.8949 64.7207C21.4269 57.8987 33.3751 57.3271 42.5195 63.3033C43.5733 66.1285 44.1139 69.1193 44.1159 72.1346Z" fill="white"/>
<path d="M28.6537 110.52C14.2685 110.497 2.62372 98.8204 2.64064 84.4352C2.65761 70.0499 14.3299 58.4005 28.7151 58.4118C43.1004 58.4231 54.7543 70.0908 54.7487 84.476C54.7261 98.8703 43.048 110.526 28.6537 110.52ZM28.6537 59.9365C15.0896 59.9365 4.09377 70.9324 4.09377 84.4965C4.09377 98.0606 15.0896 109.056 28.6537 109.056C42.2178 109.056 53.2137 98.0606 53.2137 84.4965C53.2081 70.9364 42.2138 59.9468 28.6537 59.9468V59.9365Z" fill="#1C2441"/>
<path d="M30.8126 94.6172H26.0029C22.8818 94.6172 20.4258 92.8776 20.4258 90.6569V89.0299C20.4314 88.61 20.7734 88.2726 21.1933 88.2726C21.6115 88.2726 21.9505 88.6116 21.9505 89.0299V90.6263C21.9505 91.9464 23.8028 93.0618 26.0439 93.0618H30.8535C33.0435 93.0618 34.9469 91.9464 34.9469 90.6263V88.1703C34.9469 87.1469 33.8417 86.2362 32.2555 85.878L24.4065 84.1383C22.0836 83.6267 20.5179 82.0917 20.5179 80.3725V77.8755C20.5179 75.6651 22.9739 73.9255 26.095 73.9255H30.9047C33.9747 73.9255 36.4716 75.6651 36.4716 77.8755V79.4719C36.5057 79.7654 36.3683 80.0524 36.1183 80.2098C35.8683 80.3673 35.5502 80.3673 35.3002 80.2098C35.0502 80.0524 34.9128 79.7654 34.9469 79.4719V77.8755C34.9469 76.5554 33.0946 75.44 30.8535 75.44H26.0439C23.8437 75.44 21.9505 76.5554 21.9505 77.8755V80.3725C21.9505 81.3958 23.0557 82.3066 24.6419 82.6545L32.4909 84.3942C34.8138 84.9058 36.3795 86.4408 36.3795 88.1703V90.6569C36.3795 92.8776 33.9338 94.6172 30.8126 94.6172Z" fill="#1C2441"/>
<path d="M28.4071 100.655C27.9872 100.655 27.6452 100.318 27.6396 99.8976V70.2926C27.6452 69.8711 27.9856 69.5307 28.4071 69.5251C28.827 69.5307 29.1645 69.8727 29.1644 70.2926V99.8976C29.1644 100.316 28.8254 100.655 28.4071 100.655Z" fill="#1C2441"/>
</svg>
