<svg width="128" height="150" viewBox="0 0 128 150" fill="none" xmlns="http://www.w3.org/2000/svg">
<path d="M105.576 9.09875H40.9404C37.4169 9.09875 34.5605 11.9551 34.5605 15.4786V133.148C34.5605 136.672 37.4169 139.528 40.9404 139.528H105.576C109.099 139.528 111.955 136.672 111.955 133.148V15.4786C111.955 11.9551 109.099 9.09875 105.576 9.09875Z" fill="#EDEDED"/>
<path d="M99.8295 0.86438H35.1943C31.6708 0.86438 28.8145 3.72074 28.8145 7.24424V124.914C28.8145 128.437 31.6708 131.294 35.1943 131.294H99.8295C103.353 131.294 106.209 128.437 106.209 124.914V7.24424C106.209 3.72074 103.353 0.86438 99.8295 0.86438Z" fill="white"/>
<path d="M99.8302 132.12H35.195C31.2452 132.115 28.0446 128.914 28.0391 124.964V7.24422C28.0391 3.29211 31.2429 0.0882874 35.195 0.0882874H99.8302C103.78 0.0938387 106.981 3.29441 106.986 7.24422V124.914C106.997 126.82 106.248 128.651 104.905 130.004C103.562 131.356 101.736 132.118 99.8302 132.12ZM35.195 1.64042C32.0985 1.64042 29.5867 4.1477 29.5811 7.24422V124.914C29.5922 128.008 32.1008 130.512 35.195 130.518H99.8302C102.923 130.512 105.428 128.007 105.434 124.914V7.24422C105.434 4.14932 102.925 1.64042 99.8302 1.64042H35.195Z" fill="#0B132B"/>
<path d="M93.3084 0.86438V5.68203C93.3111 7.06483 92.763 8.39175 91.7852 9.36954C90.8074 10.3473 89.4805 10.8954 88.0977 10.8928H46.9158C45.5338 10.8928 44.2085 10.3438 43.2313 9.36657C42.2541 8.38937 41.7051 7.064 41.7051 5.68203V0.86438" fill="white"/>
<path d="M88.0992 11.6688H46.9173C43.6148 11.6632 40.9406 8.9845 40.9406 5.68202V0.864363C40.9066 0.567853 41.0457 0.27814 41.2983 0.119203C41.5509 -0.0397344 41.8723 -0.0397344 42.1249 0.119203C42.3775 0.27814 42.5166 0.567853 42.4827 0.864363V5.68202C42.4882 8.12891 44.4704 10.1111 46.9173 10.1167H88.0992C89.2753 10.1167 90.4033 9.64946 91.235 8.8178C92.0666 7.98614 92.5339 6.85816 92.5339 5.68202V0.864363C92.5339 0.435754 92.8813 0.0882972 93.3099 0.0882972C93.7385 0.0882972 94.086 0.435754 94.086 0.864363V5.68202C94.0532 8.97476 91.3919 11.636 88.0992 11.6688Z" fill="#1C2441"/>
<path d="M99.8302 132.12H35.195C31.2452 132.115 28.0446 128.914 28.0391 124.964V7.24422C28.0391 3.29211 31.2429 0.0882874 35.195 0.0882874H99.8302C103.78 0.0938387 106.981 3.29441 106.986 7.24422V124.914C106.997 126.82 106.248 128.651 104.905 130.004C103.562 131.356 101.736 132.118 99.8302 132.12ZM35.195 1.64042C32.0985 1.64042 29.5867 4.1477 29.5811 7.24422V124.914C29.5922 128.008 32.1008 130.512 35.195 130.518H99.8302C102.923 130.512 105.428 128.007 105.434 124.914V7.24422C105.434 4.14932 102.925 1.64042 99.8302 1.64042H35.195Z" fill="#0B132B"/>
<path d="M56.7635 8.39319C58.1495 8.39319 59.2731 7.2696 59.2731 5.88358C59.2731 4.49756 58.1495 3.37396 56.7635 3.37396C55.3775 3.37396 54.2539 4.49756 54.2539 5.88358C54.2539 7.2696 55.3775 8.39319 56.7635 8.39319Z" fill="#3A506B"/>
<path d="M80.0567 6.29682H62.8522C62.4236 6.29682 62.0762 5.94936 62.0762 5.52076C62.0762 5.09215 62.4236 4.74469 62.8522 4.74469H80.0567C80.4853 4.74469 80.8328 5.09215 80.8328 5.52076C80.8328 5.94936 80.4853 6.29682 80.0567 6.29682Z" fill="#3A506B"/>
<path d="M69.4933 125.458H101.493C102.061 125.458 102.521 124.998 102.521 124.43V119.32C102.521 118.752 102.061 118.292 101.493 118.292H69.4933C68.9256 118.292 68.4653 118.752 68.4653 119.32V124.43C68.4653 124.998 68.9256 125.458 69.4933 125.458Z" fill="#00FCDC"/>
<path d="M33.695 125.458H43.2497C43.7062 125.458 44.0762 125.088 44.0762 124.632V119.119C44.0762 118.662 43.7062 118.292 43.2497 118.292H33.695C33.2386 118.292 32.8686 118.662 32.8686 119.119V124.632C32.8686 125.088 33.2386 125.458 33.695 125.458Z" fill="#3A506B"/>
<path d="M48.2368 125.458H65.0583C65.6539 125.458 66.1367 124.975 66.1367 124.38V119.371C66.1367 118.775 65.6539 118.292 65.0583 118.292H48.2368C47.6412 118.292 47.1584 118.775 47.1584 119.371V124.38C47.1584 124.975 47.6412 125.458 48.2368 125.458Z" fill="#4FCBC2"/>
<path d="M92.8252 106.702H44.8401C44.4482 106.657 44.1523 106.325 44.1523 105.931C44.1523 105.536 44.4482 105.204 44.8401 105.16H92.8252C93.1217 105.126 93.4114 105.265 93.5703 105.517C93.7293 105.77 93.7293 106.091 93.5703 106.344C93.4114 106.596 93.1217 106.736 92.8252 106.702Z" fill="#1C2441"/>
<path d="M58.7702 80.9402H47.9355V99.7372H58.7702V80.9402Z" fill="#3A506B"/>
<path d="M58.7706 100.513H47.9359C47.5112 100.508 47.1699 100.162 47.1699 99.7372V80.9403C47.1699 80.5156 47.5112 80.1697 47.9359 80.1642H58.7706C59.1992 80.1642 59.5467 80.5116 59.5467 80.9403V99.7372C59.5467 100.166 59.1992 100.513 58.7706 100.513ZM48.6918 98.9611H57.9844V81.7264H48.712L48.6918 98.9611Z" fill="#1C2441"/>
<path d="M74.2507 62.1534H63.416V99.7472H74.2507V62.1534Z" fill="#4FCBC2"/>
<path d="M74.2514 100.513H63.4167C62.9904 100.508 62.6461 100.163 62.6406 99.7371V62.1534C62.6406 61.7248 62.9881 61.3773 63.4167 61.3773H74.2514C74.458 61.3746 74.657 61.4555 74.8032 61.6016C74.9493 61.7478 75.0302 61.9467 75.0275 62.1534V99.7371C75.0275 100.166 74.68 100.513 74.2514 100.513ZM64.1726 98.9611H73.4753V62.9194H64.1928L64.1726 98.9611Z" fill="#1C2441"/>
<path d="M89.7312 33.9529H78.8965V99.7371H89.7312V33.9529Z" fill="#00FCDC"/>
<path d="M89.7016 100.513H78.8972C78.4685 100.513 78.1211 100.166 78.1211 99.7372V33.953C78.1211 33.7481 78.2032 33.5517 78.349 33.4078C78.4948 33.2638 78.6923 33.1843 78.8972 33.187H89.7016C90.1263 33.187 90.4722 33.5283 90.4777 33.953V99.7372C90.4722 100.164 90.1279 100.508 89.7016 100.513ZM79.6228 98.9611H88.9054V34.7291H79.6732L79.6228 98.9611Z" fill="#1C2441"/>
<path d="M83.7545 119.653H76.5684V140.274H83.7545V119.653Z" fill="#EDEDED"/>
<path d="M101.878 119.653H94.6914V140.274H101.878V119.653Z" fill="#EDEDED"/>
<path d="M119.989 119.653H112.803V140.274H119.989V119.653Z" fill="#EDEDED"/>
<path d="M72.8184 144.961L76.5677 140.274L83.4414 140.586L86.4449 144.507L72.8184 144.961Z" fill="#4FCBC2"/>
<path d="M90.6289 144.961L95.0031 140.586L101.877 140.899L105.314 144.648L90.6289 144.961Z" fill="#4FCBC2"/>
<path d="M109.375 144.648L113.114 140.586H119.988L123.425 144.961L109.375 144.648Z" fill="#4FCBC2"/>
<path d="M73.2539 115.621L76.5698 119.965H83.4435L87.1929 115.279L73.2539 115.621Z" fill="#4FCBC2"/>
<path d="M91.2539 115.279L94.6908 119.965H101.252L105.314 115.279H91.2539Z" fill="#4FCBC2"/>
<path d="M109.406 115.682L112.49 119.653H119.364L123.466 115.51L109.406 115.682Z" fill="#4FCBC2"/>
<path d="M70.0059 115.591L97.8132 98.0943L126.86 115.591H70.0059Z" fill="#EDEDED"/>
<path d="M126.702 144.316H69.4141V149.093H126.702V144.316Z" fill="#3A506B"/>
<path d="M98.0562 111.539C100.166 111.539 101.876 109.829 101.876 107.72C101.876 105.61 100.166 103.9 98.0562 103.9C95.9465 103.9 94.2363 105.61 94.2363 107.72C94.2363 109.829 95.9465 111.539 98.0562 111.539Z" fill="#4FCBC2"/>
<path d="M98.2176 103.103C95.6683 103.103 93.6016 105.17 93.6016 107.72C93.6016 110.269 95.6683 112.336 98.2176 112.336C100.767 112.336 102.834 110.269 102.834 107.72C102.834 105.17 100.767 103.103 98.2176 103.103ZM98.2176 110.834C96.953 110.834 95.8131 110.072 95.3301 108.903C94.8471 107.734 95.1163 106.389 96.0119 105.497C96.9076 104.604 98.2531 104.339 99.4203 104.826C100.587 105.313 101.346 106.455 101.342 107.72C101.337 109.441 99.9393 110.834 98.2176 110.834Z" fill="#1C2441"/>
<path d="M120.502 120.026L123.526 116.256H126.933C127.266 116.255 127.558 116.033 127.648 115.712C127.735 115.393 127.605 115.054 127.326 114.875L98.6112 97.2679C98.3716 97.1271 98.0747 97.1271 97.8351 97.2679L69.1509 114.916C68.868 115.091 68.733 115.431 68.8183 115.752C68.9094 116.077 69.2069 116.3 69.544 116.297H72.9506L75.9743 120.046V140.203L72.9506 143.953H69.6145C69.2026 143.953 68.8687 144.287 68.8687 144.699V149.254C68.8687 149.666 69.2026 150 69.6145 150H126.832C127.244 150 127.578 149.666 127.578 149.254V144.729C127.578 144.531 127.499 144.341 127.359 144.201C127.219 144.062 127.03 143.983 126.832 143.983H123.496L120.472 140.214L120.502 120.026ZM105.485 143.912L102.461 140.143V120.026L105.485 116.256H108.972L111.945 120.006V140.163L108.972 143.912H105.485ZM87.4741 143.912L84.4505 140.143V120.026L87.4741 116.256H90.9614L93.985 120.006V140.163L90.9614 143.912H87.4741ZM77.3954 120.52H82.9689V139.669H77.4155L77.3954 120.52ZM95.4061 120.52H100.98V139.669H95.4263L95.4061 120.52ZM101.363 119.028H95.0635L92.8663 116.256H103.58L101.363 119.028ZM95.0433 141.201H101.363L103.56 143.963H92.8663L95.0433 141.201ZM113.417 120.57H118.99V139.72H113.417V120.57ZM119.373 119.078H113.054L110.867 116.297H121.581L119.373 119.078ZM98.208 98.7897L124.262 114.815H72.1746L98.208 98.7897ZM85.5692 116.297L83.3721 119.068H77.0527L74.8555 116.297H85.5692ZM77.0527 141.191H83.3721L85.5692 143.953H74.8555L77.0527 141.191ZM126.086 148.478H70.3604V145.454H126.086V148.478ZM110.867 143.953L113.064 141.191H119.384L121.581 143.953H110.867Z" fill="#1C2441"/>
<path d="M33.0335 53.5623L29.748 50.2769L19.8988 60.1261L23.1843 63.4115L33.0335 53.5623Z" fill="#3A506B"/>
<path d="M23.1808 64.1792C22.9771 64.1806 22.7813 64.1008 22.6366 63.9575L19.3509 60.6718C19.205 60.5262 19.123 60.3286 19.123 60.1225C19.123 59.9164 19.205 59.7188 19.3509 59.5732L29.2281 49.7263C29.3737 49.5804 29.5713 49.4984 29.7774 49.4984C29.9835 49.4984 30.1811 49.5804 30.3267 49.7263L33.6023 53.0119C33.7501 53.1544 33.8336 53.3509 33.8336 53.5562C33.8336 53.7615 33.7501 53.958 33.6023 54.1004L23.7553 63.9575C23.6026 64.1075 23.3947 64.1877 23.1808 64.1792ZM20.9937 60.1477L23.1808 62.3146L31.9393 53.5562L29.7421 51.3691L20.9937 60.1477Z" fill="#1C2441"/>
<path d="M45.1027 61.1858C57.7939 61.1858 68.0823 50.8975 68.0823 38.2062C68.0823 25.5149 57.7939 15.2266 45.1027 15.2266C32.4114 15.2266 22.123 25.5149 22.123 38.2062C22.123 50.8975 32.4114 61.1858 45.1027 61.1858Z" fill="white"/>
<path d="M45.1029 61.962C33.7689 61.9634 24.0124 53.9578 21.8008 42.8417C19.5892 31.7256 25.5384 20.5954 36.0098 16.2585C46.4812 11.9216 58.558 15.5861 64.8536 25.0108C71.1492 34.4354 69.9101 46.9949 61.8941 55.0076C57.4502 59.4748 51.404 61.9789 45.1029 61.962ZM45.1029 15.9924C35.0894 16.0325 26.3454 22.7788 23.7661 32.4545C21.1869 42.1301 25.4127 52.3337 34.0775 57.3527C42.7424 62.3717 53.6959 60.9604 60.8056 53.909C67.1963 47.5705 69.1213 37.9977 65.6773 29.6816C62.2333 21.3656 54.1037 15.9567 45.1029 15.9924Z" fill="#1C2441"/>
<path d="M25.9484 65.0185L18.2871 57.3572L0.776636 74.8677L8.43791 82.5289L25.9484 65.0185Z" fill="#4FCBC2"/>
<path d="M8.43624 83.2988C8.23235 83.3012 8.03607 83.2213 7.89199 83.077L0.232121 75.4171C0.0837266 75.2729 0 75.0747 0 74.8678C0 74.6609 0.0837266 74.4627 0.232121 74.3185L17.739 56.8117C18.0465 56.5186 18.53 56.5186 18.8375 56.8117L26.4974 64.4715C26.6427 64.6154 26.7244 64.8114 26.7244 65.0158C26.7244 65.2202 26.6427 65.4162 26.4974 65.56L8.9805 83.077C8.83641 83.2213 8.64014 83.3012 8.43624 83.2988ZM1.86488 74.8728L8.43624 81.4341L24.8546 65.0158L18.2832 58.4545L1.86488 74.8728Z" fill="#1C2441"/>
<path d="M26.9295 44.314C26.6166 44.3144 26.334 44.1269 26.2129 43.8383C26.0917 43.5498 26.1557 43.2167 26.3752 42.9936L36.8067 32.5722C37.0138 32.3612 37.3249 32.2903 37.603 32.3908L46.1901 35.4144L56.6821 24.8922C56.9915 24.6338 57.4471 24.6553 57.7308 24.9416C58.0145 25.2279 58.0318 25.6838 57.7706 25.9907L46.9359 36.8254C46.7288 37.0364 46.4177 37.1073 46.1397 37.0068L37.5526 33.9832L27.4738 44.062C27.3342 44.2165 27.1377 44.3074 26.9295 44.314Z" fill="#1D253F"/>
<path d="M58.0436 51.1575C50.8926 58.305 39.3023 58.305 32.1513 51.1575C30.5689 49.5852 27.1119 44.8885 28.4826 45.9064C30.2363 47.1965 47.9951 55.4208 54.9495 46.5111C59.1019 41.1996 61.3192 35.0213 59.7369 28.9338C59.6838 28.6899 59.8137 28.4431 60.0447 28.3487C60.2758 28.2543 60.5413 28.3395 60.6742 28.5508C65.1586 35.7817 64.0685 45.1494 58.0436 51.1575Z" fill="#00FCDC"/>
</svg>
