<svg width="20" height="20" viewBox="0 0 20 20" fill="none" xmlns="http://www.w3.org/2000/svg">
<path fill-rule="evenodd" clip-rule="evenodd" d="M10 20C4.477 20 0 15.523 0 10C0 4.477 4.477 0 10 0C15.523 0 20 4.477 20 10C20 15.523 15.523 20 10 20ZM10 2C5.582 2 2 5.582 2 10C2 14.418 5.582 18 10 18C14.418 18 18 14.418 18 10C18 5.582 14.418 2 10 2ZM10 4.75699C10.553 4.75699 11 5.20499 11 5.75699V9H14.243C14.795 9 15.243 9.448 15.243 10C15.243 10.552 14.795 11 14.243 11H11V14.243C11 14.795 10.553 15.243 10 15.243C9.448 15.243 9 14.795 9 14.243V11H5.75699C5.20499 11 4.75699 10.552 4.75699 10C4.75699 9.448 5.20499 9 5.75699 9H9V5.75699C9 5.20499 9.448 4.75699 10 4.75699Z" fill="white" fill-opacity="0.9"/>
</svg>
