<svg width="91" height="150" viewBox="0 0 91 150" fill="none" xmlns="http://www.w3.org/2000/svg">
<path d="M83.3634 9.63254H13.8141C10.0189 9.63254 6.94238 12.7091 6.94238 16.5042V143.128C6.94238 146.923 10.0189 150 13.8141 150H83.3634C87.1585 150 90.2351 146.923 90.2351 143.128V16.5042C90.2351 12.7091 87.1585 9.63254 83.3634 9.63254Z" fill="#EDEDED"/>
<path d="M77.1828 0.761261H7.63342C3.83828 0.761261 0.761719 3.83783 0.761719 7.63296V134.257C0.761719 138.052 3.83828 141.129 7.63342 141.129H77.1828C80.9779 141.129 84.0545 138.052 84.0545 134.257V7.63296C84.0545 3.83783 80.9779 0.761261 77.1828 0.761261Z" fill="white"/>
<path d="M77.1924 141.89H7.63297C3.42136 141.89 0.00560055 138.479 0 134.267V7.63297C0 3.4174 3.4174 0 7.63297 0H77.1924C81.4041 0.00560055 84.8153 3.42136 84.8153 7.63297V134.267C84.8097 138.475 81.4001 141.884 77.1924 141.89ZM7.63297 1.52253C4.26948 1.52253 1.54283 4.24918 1.54283 7.61267V134.267C1.54283 137.631 4.26948 140.357 7.63297 140.357H77.1924C80.5559 140.357 83.2826 137.631 83.2826 134.267V7.63297C83.2826 4.26948 80.5559 1.54283 77.1924 1.54283L7.63297 1.52253Z" fill="#0B132B"/>
<path d="M70.1784 0.761261V5.94802C70.1811 7.43753 69.5906 8.86681 68.5374 9.92005C67.4841 10.9733 66.0548 11.5638 64.5653 11.5611H20.3002C18.8125 11.5611 17.3858 10.9694 16.3347 9.91645C15.2837 8.8635 14.6946 7.43577 14.6973 5.94802V0.761261" fill="white"/>
<path d="M64.5658 12.3224H20.3007C16.7842 12.3168 13.9365 9.46452 13.9365 5.94803V0.761267C13.9365 0.340831 14.2774 0 14.6978 0C15.1182 0 15.4591 0.340831 15.4591 0.761267V5.94803C15.4591 8.62365 17.6251 10.7942 20.3007 10.7998H64.5658C67.2415 10.7942 69.4075 8.62365 69.4075 5.94803V0.761267C69.4524 0.371982 69.782 0.0781917 70.1738 0.0781917C70.5657 0.0781917 70.8953 0.371982 70.9402 0.761267V5.94803C70.9346 9.46616 68.084 12.3168 64.5658 12.3224Z" fill="#1C2441"/>
<path d="M77.1924 141.89H7.63297C3.42136 141.89 0.00560055 138.479 0 134.267V7.63297C0 3.4174 3.4174 0 7.63297 0H77.1924C81.4041 0.00560055 84.8153 3.42136 84.8153 7.63297V134.267C84.8097 138.475 81.4001 141.884 77.1924 141.89ZM7.63297 1.52253C4.26948 1.52253 1.54283 4.24918 1.54283 7.61267V134.267C1.54283 137.631 4.26948 140.357 7.63297 140.357H77.1924C80.5559 140.357 83.2826 137.631 83.2826 134.267V7.63297C83.2826 4.26948 80.5559 1.54283 77.1924 1.54283L7.63297 1.52253Z" fill="#0B132B"/>
<path d="M30.8367 8.86116C32.3278 8.86116 33.5366 7.65235 33.5366 6.1612C33.5366 4.67006 32.3278 3.46124 30.8367 3.46124C29.3455 3.46124 28.1367 4.67006 28.1367 6.1612C28.1367 7.65235 29.3455 8.86116 30.8367 8.86116Z" fill="#3A506B"/>
<path d="M55.9071 6.53675H37.3931C36.9727 6.53675 36.6318 6.19592 36.6318 5.77549C36.6318 5.35505 36.9727 5.01422 37.3931 5.01422H55.9071C56.3275 5.01422 56.6684 5.35505 56.6684 5.77549C56.6684 6.19592 56.3275 6.53675 55.9071 6.53675Z" fill="#3A506B"/>
<path d="M40.8342 125.315H6.38431C5.77888 125.315 5.28809 125.805 5.28809 126.411V131.933C5.28809 132.538 5.77888 133.029 6.38431 133.029H40.8342C41.4396 133.029 41.9304 132.538 41.9304 131.933V126.411C41.9304 125.805 41.4396 125.315 40.8342 125.315Z" fill="#4FCBC2"/>
<path d="M79.1005 125.315H61.4087C60.7752 125.315 60.2617 125.828 60.2617 126.462V131.882C60.2617 132.515 60.7752 133.029 61.4087 133.029H79.1005C79.734 133.029 80.2475 132.515 80.2475 131.882V126.462C80.2475 125.828 79.734 125.315 79.1005 125.315Z" fill="#3A506B"/>
<path d="M43.4128 21.9549C43.4128 21.9549 27.4973 21.9549 23.1124 34.9777C18.7275 48.0004 21.6609 52.3345 21.6609 52.3345C21.6609 52.3345 27.4465 69.6914 41.9613 69.6914C56.4762 69.6914 59.6633 63.6825 59.6633 63.6825L44.8643 45.0974L43.4128 21.9549Z" fill="#4FCBC2"/>
<path d="M63.6625 30.6334L44.8643 45.0974L57.8565 65.3573C57.8565 65.3573 68.0068 56.6687 68.0068 46.5489C68.0068 36.4291 63.6625 30.6334 63.6625 30.6334Z" fill="#3A506B"/>
<path d="M43.4121 21.9549L44.8636 45.0974L63.6618 30.6334C63.6618 30.6334 53.542 19.0621 43.4121 21.9549Z" fill="#00FCDC"/>
<path d="M44.3061 70.3309C32.1199 70.351 21.7361 61.4894 19.8403 49.4515C17.9446 37.4136 25.1022 25.7895 36.7048 22.0633C48.3073 18.3371 60.8947 23.6201 66.3626 34.5108C70.2137 42.1687 69.822 51.2752 65.3276 58.5743C60.8332 65.8733 52.8779 70.3224 44.3061 70.3309ZM44.2351 22.4117C33.8576 22.408 24.7394 29.2953 21.9053 39.2784C19.0713 49.2614 23.2106 59.9124 32.0422 65.3619C40.8737 70.8113 52.2499 69.734 59.9015 62.7236C67.5531 55.7132 69.6194 44.4746 64.9618 35.201C61.0199 27.3682 53.0039 22.4219 44.2351 22.4117Z" fill="#0B132B"/>
<path d="M44.3971 46.4271C44.2854 46.424 44.1752 46.3999 44.0723 46.3561C43.8142 46.227 43.6497 45.9646 43.646 45.676L42.631 21.7012C42.62 21.4985 42.6914 21.3 42.8291 21.1509C42.9667 21.0017 43.1589 20.9147 43.3618 20.9095C43.7766 20.8977 44.1264 21.2161 44.1535 21.6301L45.0772 44.1738L62.9314 30.5522C63.1472 30.3854 63.4356 30.3463 63.6879 30.4498C63.9403 30.5532 64.1183 30.7835 64.1548 31.0537C64.1914 31.324 64.081 31.5932 63.8653 31.7601L44.864 46.2647C44.7291 46.3661 44.5659 46.4228 44.3971 46.4271Z" fill="#0B132B"/>
<path d="M57.8566 65.1442C57.6112 65.1467 57.38 65.0292 57.2374 64.8295L43.7782 46.1023C43.5574 45.7606 43.6443 45.3055 43.9756 45.0693C44.3069 44.833 44.7654 44.8991 45.0165 45.2192L58.4656 63.9464C58.6197 64.1782 58.6369 64.475 58.5108 64.7231C58.3846 64.9712 58.1346 65.1321 57.8566 65.1442Z" fill="#0B132B"/>
<path d="M19.793 81.0496H73.0106V83.3029C73.0106 91.0909 69.9168 98.5599 64.4099 104.067C58.903 109.574 51.434 112.668 43.646 112.668H19.793V81.0496Z" fill="#EDEDED"/>
<path d="M65.2965 85.6679H55.2681C54.8477 85.6679 54.5068 85.327 54.5068 84.9066C54.5068 84.4862 54.8477 84.1453 55.2681 84.1453H65.2965C65.717 84.1453 66.0578 84.4862 66.0578 84.9066C66.0578 85.327 65.717 85.6679 65.2965 85.6679Z" fill="#0B132B"/>
<path d="M50.6398 85.6679H17.479C17.0586 85.6679 16.7178 85.327 16.7178 84.9066C16.7178 84.4862 17.0586 84.1453 17.479 84.1453H50.6398C51.0603 84.1453 51.4011 84.4862 51.4011 84.9066C51.4011 85.327 51.0603 85.6679 50.6398 85.6679Z" fill="#0B132B"/>
<path d="M68.3825 102.629H47.5542C47.1338 102.629 46.793 102.288 46.793 101.868C46.793 101.447 47.1338 101.106 47.5542 101.106H68.3825C68.8029 101.106 69.1438 101.447 69.1438 101.868C69.1438 102.288 68.8029 102.629 68.3825 102.629Z" fill="#0B132B"/>
<path d="M42.9256 102.629H17.479C17.0586 102.629 16.7178 102.288 16.7178 101.868C16.7178 101.447 17.0586 101.106 17.479 101.106H42.9256C43.3461 101.106 43.6869 101.447 43.6869 101.868C43.6869 102.288 43.3461 102.629 42.9256 102.629Z" fill="#0B132B"/>
<path d="M46.0114 94.1535H35.9829C35.5625 94.1535 35.2217 93.8127 35.2217 93.3922C35.2217 92.9718 35.5625 92.631 35.9829 92.631H46.0114C46.4318 92.631 46.7726 92.9718 46.7726 93.3922C46.7726 93.8127 46.4318 94.1535 46.0114 94.1535Z" fill="#0B132B"/>
<path d="M55.2677 94.1535H50.6392C50.2188 94.1535 49.8779 93.8127 49.8779 93.3922C49.8779 92.9718 50.2188 92.631 50.6392 92.631H55.2677C55.6881 92.631 56.029 92.9718 56.029 93.3922C56.029 93.8127 55.6881 94.1535 55.2677 94.1535Z" fill="#0B132B"/>
<path d="M31.3544 94.1535H17.479C17.0586 94.1535 16.7178 93.8127 16.7178 93.3922C16.7178 92.9718 17.0586 92.631 17.479 92.631H31.3544C31.7748 92.631 32.1157 92.9718 32.1157 93.3922C32.1157 93.8127 31.7748 94.1535 31.3544 94.1535Z" fill="#0B132B"/>
<path d="M56.8309 125.315H45.3713C44.8556 125.315 44.4375 125.733 44.4375 126.248V132.095C44.4375 132.611 44.8556 133.029 45.3713 133.029H56.8309C57.3467 133.029 57.7647 132.611 57.7647 132.095V126.248C57.7647 125.733 57.3467 125.315 56.8309 125.315Z" fill="#00FCDC"/>
</svg>
