<svg width="16" height="16" viewBox="0 0 16 16" fill="none" xmlns="http://www.w3.org/2000/svg">
<path fill-rule="evenodd" clip-rule="evenodd" d="M8 16C3.58172 16 0 12.4183 0 8C0 3.58172 3.58172 0 8 0C12.4183 0 16 3.58172 16 8C16 12.4183 12.4183 16 8 16ZM8 1.6C4.46538 1.6 1.6 4.46538 1.6 8C1.6 11.5346 4.46538 14.4 8 14.4C11.5346 14.4 14.4 11.5346 14.4 8C14.4 4.46538 11.5346 1.6 8 1.6ZM8 7C8.55229 7 9 7.44772 9 8V11.2C9 11.7523 8.55229 12.2 8 12.2C7.44772 12.2 7 11.7523 7 11.2V8C7 7.44772 7.44772 7 8 7ZM8 4C7.44772 4 7 4.44772 7 5C7 5.55229 7.44772 6 8 6C8.55229 6 9 5.55229 9 5C9 4.44772 8.55229 4 8 4Z" fill="#2A2C2C"/>
</svg>
