<svg width="50" height="50" viewBox="0 0 50 50" fill="none" xmlns="http://www.w3.org/2000/svg">
<rect width="50" height="50" rx="19" fill="#2C3036" fill-opacity="0.05"/>
<path fill-rule="evenodd" clip-rule="evenodd" d="M25.8605 15.1947C25.3174 15.9946 25 16.9602 25 18C25 18.3429 25.0345 18.6777 25.1003 19.0012C25.067 19.0004 25.0336 19 25.0001 19C22.7911 19 21.0001 20.79 21.0001 23V24.5V26.6C21.0001 27.02 20.8661 27.43 20.6171 27.78L20.4551 28L19.0001 30H21.4731H24.0001H26.0001H26.0011H28.5271H31.0001L29.5451 28L29.3831 27.78C29.1341 27.43 29.0001 27.02 29.0001 26.6V24.5V23C29.0001 22.9665 28.9997 22.9331 28.9989 22.8998C29.3223 22.9655 29.6571 23 30 23C30.3422 23 30.6764 22.9656 30.9993 22.9001C30.9998 22.9334 31.0001 22.9666 31.0001 23V24.5V26.6L32.6171 28.8199C33.0601 29.4299 33.1241 30.24 32.7821 30.91C32.4411 31.58 31.7521 32 31.0001 32H28.0001C28.0001 33.66 26.6571 35 25.0001 35C23.3431 35 22.0001 33.66 22.0001 32H19.0001C18.2481 32 17.5591 31.58 17.2181 30.91C16.8761 30.24 16.9401 29.4299 17.3831 28.8199L19.0001 26.6V24.5V23C19.0001 20.39 20.6701 18.17 23.0001 17.34V17C23.0001 15.9 23.8951 15 25.0001 15C25.3082 15 25.5999 15.07 25.8605 15.1947ZM24.0001 32C24.0001 32.55 24.4481 33 25.0001 33C25.5521 33 26.0001 32.55 26.0001 32H24.0001Z" fill="#2C3036"/>
<rect x="26.5" y="14.5" width="7" height="7" rx="3.5" fill="#2C3036"/>
</svg>
