<svg width="115" height="150" viewBox="0 0 115 150" fill="none" xmlns="http://www.w3.org/2000/svg">
<path d="M107.658 134.801V41.2537C107.658 37.3684 104.509 34.2188 100.623 34.2188L39.0681 34.2188C35.1828 34.2188 32.0332 37.3684 32.0332 41.2537V134.801C32.0332 138.687 35.1828 141.836 39.0681 141.836H100.623C104.509 141.836 107.658 138.687 107.658 134.801Z" fill="#4FCBC2"/>
<path d="M40.5322 11.6807H48.7972L49.031 8.45812C48.9677 6.70253 50.3263 5.22164 52.0808 5.13383H76.6419C78.3965 5.22164 79.7551 6.70253 79.6917 8.45812L79.9764 11.6807H88.1092V4.65603C88.2108 0.904772 86.0556 0.772614 83.3617 0.772614H45.3408C42.6874 0.772614 40.5322 0.904772 40.5322 4.65603V11.6807Z" fill="#EDEDED"/>
<path d="M88.2101 12.4433H80.0773C79.6789 12.4445 79.3467 12.1388 79.3148 11.7417L79.0302 8.52929C79.0718 7.87047 78.848 7.2224 78.4087 6.72965C77.9694 6.2369 77.3512 5.94046 76.692 5.90646H52.1004C50.771 5.99363 49.7549 7.12713 49.813 8.45813L49.5792 11.7316C49.5524 12.1327 49.2188 12.4441 48.8168 12.4433H40.5823C40.3783 12.4459 40.1818 12.3668 40.0366 12.2235C39.8914 12.0802 39.8097 11.8847 39.8097 11.6808V4.65603C39.7588 0 42.9916 0 45.34 0H83.3609C85.7092 0 88.942 0 88.942 4.65603V11.6808C88.942 12.0902 88.6192 12.4268 88.2101 12.4433ZM80.7381 10.9081H87.4273V4.65603C87.4273 1.67739 86.1159 1.54523 83.3609 1.54523H45.34C42.6155 1.54523 41.2736 1.67739 41.2736 4.65603V10.9081H48.0136L48.1966 8.39713C48.1511 6.20767 49.8808 4.3917 52.0699 4.33072H76.6411C78.8278 4.39716 80.5544 6.20983 80.5144 8.39713L80.7381 10.9081Z" fill="#1C2441"/>
<path d="M102.189 129.098L102.189 17.1501C102.189 12.9223 98.7617 9.49506 94.534 9.49506L34.219 9.49506C29.9912 9.49506 26.564 12.9223 26.564 17.1501L26.564 129.098C26.564 133.326 29.9912 136.753 34.219 136.753H94.534C98.7617 136.753 102.189 133.326 102.189 129.098Z" fill="white"/>
<path d="M94.5443 137.516H34.209C29.5641 137.516 25.7971 133.753 25.7915 129.108V17.1501C25.7915 12.4996 29.5585 8.72805 34.209 8.72244H94.5443C99.1947 8.72805 102.962 12.4996 102.962 17.1501V129.108C102.956 133.753 99.1891 137.516 94.5443 137.516ZM34.209 10.2677C30.4102 10.2733 27.3322 13.3514 27.3266 17.1501V129.108C27.3322 132.907 30.4102 135.985 34.209 135.991H94.5443C98.339 135.98 101.411 132.903 101.416 129.108V17.1501C101.411 13.3553 98.339 10.2789 94.5443 10.2677H34.209Z" fill="#1C2441"/>
<path d="M42.2397 17.4957H86.5737V24.0426H40.7656V18.9596C40.7712 18.1495 41.4295 17.4957 42.2397 17.4957Z" fill="#EDEDED"/>
<path d="M48.7969 20.4439H39.3425C39.0472 20.4779 38.7586 20.3395 38.6002 20.0879C38.4419 19.8364 38.4419 19.5163 38.6002 19.2647C38.7586 19.0131 39.0472 18.8747 39.3425 18.9088H48.7969C49.1868 18.9537 49.4811 19.2838 49.4811 19.6763C49.4811 20.0688 49.1868 20.3989 48.7969 20.4439Z" fill="#3A506B"/>
<path d="M84.378 20.4439H53.1277C52.8324 20.4779 52.5437 20.3395 52.3854 20.0879C52.227 19.8364 52.227 19.5163 52.3854 19.2647C52.5437 19.0131 52.8324 18.8747 53.1277 18.9088H84.378C84.7679 18.9537 85.0622 19.2838 85.0622 19.6763C85.0622 20.0688 84.7679 20.3989 84.378 20.4439Z" fill="#3A506B"/>
<path d="M39.312 82.2126H89.461V84.3779C89.4386 99.6442 77.0655 112.013 61.7992 112.03H39.312V82.2126Z" fill="#EDEDED"/>
<path d="M82.2129 86.6145H72.7585C72.5545 86.6172 72.3579 86.5381 72.2127 86.3948C72.0675 86.2515 71.9858 86.056 71.9858 85.852C71.9858 85.6471 72.0672 85.4506 72.2121 85.3057C72.357 85.1608 72.5535 85.0794 72.7585 85.0794H82.2129C82.4178 85.0794 82.6143 85.1608 82.7592 85.3057C82.9041 85.4506 82.9855 85.6471 82.9855 85.852C82.9855 86.056 82.9038 86.2515 82.7586 86.3948C82.6134 86.5381 82.4168 86.6172 82.2129 86.6145Z" fill="#3A506B"/>
<path d="M68.3968 86.6145H37.1261C36.9222 86.6172 36.7256 86.5381 36.5804 86.3948C36.4352 86.2515 36.3535 86.056 36.3535 85.852C36.3535 85.6471 36.4349 85.4506 36.5798 85.3057C36.7247 85.1608 36.9212 85.0794 37.1261 85.0794H68.3968C68.6017 85.0794 68.7982 85.1608 68.9431 85.3057C69.088 85.4506 69.1694 85.6471 69.1694 85.852C69.1694 86.056 69.0877 86.2515 68.9425 86.3948C68.7973 86.5381 68.6008 86.6172 68.3968 86.6145Z" fill="#3A506B"/>
<path d="M85.12 102.616H65.4894C65.0627 102.616 64.7168 102.27 64.7168 101.843C64.7168 101.639 64.7985 101.444 64.9437 101.3C65.0889 101.157 65.2854 101.078 65.4894 101.081H85.12C85.324 101.078 85.5205 101.157 85.6657 101.3C85.8109 101.444 85.8926 101.639 85.8926 101.843C85.8926 102.27 85.5467 102.616 85.12 102.616Z" fill="#3A506B"/>
<path d="M61.1281 102.616H37.1261C36.6994 102.616 36.3535 102.27 36.3535 101.843C36.3535 101.639 36.4352 101.444 36.5804 101.3C36.7256 101.157 36.9222 101.078 37.1261 101.081H61.1281C61.3311 101.078 61.5267 101.157 61.6703 101.301C61.8139 101.445 61.8933 101.64 61.8906 101.843C61.8933 102.047 61.8141 102.244 61.6709 102.389C61.5276 102.534 61.3321 102.616 61.1281 102.616Z" fill="#3A506B"/>
<path d="M64.046 94.6151H54.5916C54.2963 94.6492 54.0076 94.5108 53.8492 94.2592C53.6909 94.0076 53.6909 93.6875 53.8492 93.436C54.0076 93.1844 54.2963 93.046 54.5916 93.08H64.046C64.3413 93.046 64.6299 93.1844 64.7883 93.436C64.9466 93.6875 64.9466 94.0076 64.7883 94.2592C64.6299 94.5108 64.3413 94.6492 64.046 94.6151Z" fill="#3A506B"/>
<path d="M72.7584 94.6151H68.3972C68.1019 94.6492 67.8133 94.5108 67.6549 94.2592C67.4965 94.0076 67.4965 93.6875 67.6549 93.436C67.8133 93.1844 68.1019 93.046 68.3972 93.08H72.7584C73.0538 93.046 73.3424 93.1844 73.5008 93.436C73.6591 93.6875 73.6591 94.0076 73.5008 94.2592C73.3424 94.5108 73.0538 94.6492 72.7584 94.6151Z" fill="#3A506B"/>
<path d="M50.2201 94.6151H37.1262C36.8309 94.6492 36.5423 94.5108 36.3839 94.2592C36.2255 94.0076 36.2255 93.6875 36.3839 93.436C36.5423 93.1844 36.8309 93.046 37.1262 93.08H50.2201C50.5154 93.046 50.804 93.1844 50.9624 93.436C51.1208 93.6875 51.1208 94.0076 50.9624 94.2592C50.804 94.5108 50.5154 94.6492 50.2201 94.6151Z" fill="#3A506B"/>
<path d="M94.5443 137.516H34.209C29.5641 137.516 25.7971 133.753 25.7915 129.108V17.1501C25.7915 12.4996 29.5585 8.72805 34.209 8.72244H94.5443C99.1947 8.72805 102.962 12.4996 102.962 17.1501V129.108C102.956 133.753 99.1891 137.516 94.5443 137.516ZM34.209 10.2677C30.4102 10.2733 27.3322 13.3514 27.3266 17.1501V129.108C27.3322 132.907 30.4102 135.985 34.209 135.991H94.5443C98.339 135.98 101.411 132.903 101.416 129.108V17.1501C101.411 13.3553 98.339 10.2789 94.5443 10.2677H34.209Z" fill="#1C2441"/>
<path d="M65.2253 30.5793H62.8465C52.7571 30.5793 44.5781 38.7584 44.5781 48.8477V50.1286C44.5781 60.2179 52.7571 68.3969 62.8465 68.3969H65.2253C75.3146 68.3969 83.4936 60.2179 83.4936 50.1286V48.8477C83.4936 38.7584 75.3146 30.5793 65.2253 30.5793Z" fill="#00FCDC"/>
<path d="M81.0946 68.397H46.9673C46.9673 68.397 46.9673 51.3384 64.0462 51.3384C81.1251 51.3384 81.0946 68.397 81.0946 68.397Z" fill="white"/>
<path d="M81.0944 69.1289H46.967C46.5443 69.1233 46.2046 68.779 46.2046 68.3563C46.2046 62.1855 49.9254 50.5251 64.0358 50.5251C81.6637 50.5251 81.867 68.1733 81.867 68.3563C81.8652 68.5611 81.7851 68.7575 81.6433 68.9052C81.4967 69.0489 81.2996 69.1292 81.0944 69.1289ZM47.7803 67.6243H80.3116C80.1049 65.032 79.4153 62.5013 78.2784 60.1625C75.5844 54.8151 70.8063 52.1008 64.0459 52.1008C57.2855 52.1008 52.5177 54.8151 49.8135 60.1625C48.68 62.5025 47.9906 65.0327 47.7803 67.6243Z" fill="#1C2441"/>
<path d="M64.036 48.5631C69.1003 48.5631 73.2057 44.4576 73.2057 39.3933C73.2057 34.329 69.1003 30.2236 64.036 30.2236C58.9716 30.2236 54.8662 34.329 54.8662 39.3933C54.8662 44.4576 58.9716 48.5631 64.036 48.5631Z" fill="white"/>
<path d="M64.0459 49.3357C58.5549 49.3357 54.1035 44.8843 54.1035 39.3933C54.1035 33.9023 58.5549 29.451 64.0459 29.451C69.5369 29.451 73.9882 33.9023 73.9882 39.3933C73.9826 44.882 69.5346 49.3301 64.0459 49.3357ZM64.0459 31.0369C60.6445 31.0327 57.5758 33.0785 56.2713 36.2198C54.9668 39.361 55.6836 42.9788 58.0873 45.3854C60.4909 47.792 64.1079 48.5131 67.2507 47.2124C70.3935 45.9118 72.4431 42.8455 72.4431 39.4442C72.4538 37.2082 71.5745 35.0598 69.9992 33.473C68.4238 31.8862 66.2819 30.9914 64.0459 30.986V31.0369Z" fill="#1C2441"/>
<path d="M114.002 130.938C114.002 132.321 112.812 133.561 112.518 134.862C112.223 136.164 112.741 137.841 112.152 139.051C111.562 140.261 109.956 140.881 109.102 141.938C108.248 142.995 108.024 144.703 106.967 145.557C105.91 146.411 104.192 146.248 102.962 146.848C101.731 147.448 100.806 148.881 99.4644 149.176C98.1225 149.471 96.6891 148.586 95.3065 148.586C93.924 148.586 92.4397 149.471 91.1385 149.166C89.8372 148.861 88.8511 147.428 87.6414 146.848C86.4316 146.269 84.7034 146.401 83.636 145.557C82.5685 144.713 82.3449 143.005 81.5011 141.938C80.6573 140.87 79.0409 140.281 78.4513 139.051C77.8617 137.821 78.3903 136.204 78.0853 134.862C77.7803 133.52 76.6011 132.321 76.6011 130.938C76.6011 129.556 77.7905 128.305 78.0853 127.004C78.3801 125.703 77.8617 124.025 78.4513 122.816C79.0409 121.606 80.6573 120.986 81.5011 119.928C82.3449 118.871 82.5787 117.163 83.6461 116.309C84.7136 115.455 86.4113 115.618 87.6414 115.018C88.8715 114.419 89.7966 112.985 91.1385 112.7C92.4804 112.416 93.9138 113.28 95.3065 113.28C96.6993 113.28 98.1632 112.395 99.4644 112.7C100.766 113.005 101.752 114.439 102.962 115.018C104.171 115.598 105.91 115.466 106.967 116.309C108.024 117.153 108.258 118.861 109.112 119.928C109.966 120.996 111.562 121.586 112.162 122.816C112.762 124.046 112.223 125.662 112.528 127.004C112.833 128.346 114.002 129.546 114.002 130.938Z" fill="white"/>
<path d="M91.718 150C91.4649 150.003 91.2123 149.975 90.9657 149.918C90.0643 149.644 89.2463 149.148 88.5869 148.475C88.1973 148.115 87.7675 147.801 87.3059 147.539C86.804 147.332 86.278 147.189 85.7404 147.112C83.816 147.034 82.1672 145.711 81.674 143.849C81.487 143.342 81.2304 142.863 80.9115 142.426C80.5549 142.035 80.1481 141.693 79.7018 141.409C78.905 140.895 78.2428 140.198 77.7702 139.376C77.4336 138.51 77.3149 137.574 77.4246 136.652C77.4695 136.109 77.4456 135.562 77.3534 135.025C77.2052 134.521 76.997 134.036 76.7333 133.581C75.5557 132.005 75.5557 129.841 76.7333 128.265C77.3249 127.365 77.5704 126.282 77.4246 125.215C77.3153 124.295 77.434 123.363 77.7702 122.5C78.2428 121.678 78.905 120.981 79.7018 120.467C80.1481 120.183 80.5549 119.841 80.9115 119.451C81.2262 119.011 81.4825 118.533 81.674 118.027C82.1672 116.166 83.816 114.843 85.7404 114.764C86.278 114.688 86.804 114.544 87.3059 114.337C87.7675 114.076 88.1973 113.762 88.5869 113.402C89.2463 112.729 90.0643 112.233 90.9657 111.958C91.8777 111.823 92.8089 111.91 93.68 112.212C94.2062 112.386 94.7533 112.489 95.3066 112.517C95.8588 112.486 96.4051 112.387 96.9331 112.223C97.7987 111.912 98.7279 111.821 99.6373 111.958C100.539 112.233 101.357 112.729 102.016 113.402C102.406 113.762 102.836 114.076 103.297 114.337C103.799 114.544 104.325 114.688 104.863 114.764C105.788 114.867 106.675 115.195 107.445 115.72C108.131 116.351 108.648 117.145 108.949 118.027C109.139 118.534 109.395 119.013 109.712 119.451C110.071 119.839 110.477 120.181 110.922 120.467C111.723 120.975 112.387 121.674 112.853 122.5C113.19 123.367 113.308 124.302 113.199 125.225C113.154 125.768 113.178 126.314 113.27 126.852C113.418 127.358 113.629 127.843 113.9 128.295C115.065 129.876 115.065 132.031 113.9 133.612C113.629 134.064 113.418 134.549 113.27 135.056C113.178 135.596 113.154 136.146 113.199 136.692C113.569 138.593 112.641 140.51 110.922 141.399C109.982 141.951 109.28 142.831 108.949 143.869C108.456 145.731 106.807 147.054 104.883 147.133C104.345 147.209 103.819 147.352 103.317 147.56C102.856 147.821 102.426 148.135 102.036 148.495C101.366 149.165 100.537 149.654 99.6271 149.918C98.7178 150.055 97.7886 149.965 96.923 149.654C96.395 149.489 95.8487 149.39 95.2964 149.359C94.7441 149.389 94.1977 149.488 93.6699 149.654C93.037 149.853 92.3809 149.97 91.718 150ZM91.718 113.402C91.586 113.391 91.4535 113.391 91.3215 113.402C90.6708 113.638 90.083 114.021 89.6035 114.52C89.1127 114.969 88.5701 115.358 87.9871 115.679C87.3663 115.945 86.7136 116.13 86.0453 116.228C85.3678 116.293 84.714 116.512 84.1341 116.868C83.6665 117.358 83.3186 117.95 83.1175 118.597C82.8769 119.227 82.552 119.822 82.1518 120.366C81.7098 120.87 81.204 121.314 80.6472 121.687C79.3438 122.278 78.647 123.714 78.9901 125.103C79.0474 125.782 79.0132 126.466 78.8885 127.136C78.7111 127.772 78.4549 128.383 78.126 128.956C77.201 130.081 77.201 131.704 78.126 132.829C78.4549 133.402 78.7111 134.013 78.8885 134.649C79.0132 135.319 79.0474 136.003 78.9901 136.682C78.647 138.071 79.3438 139.507 80.6472 140.098C81.204 140.471 81.7098 140.915 82.1518 141.419C82.552 141.963 82.8769 142.558 83.1175 143.188C83.3235 143.833 83.6708 144.423 84.1341 144.917C84.711 145.272 85.3611 145.491 86.0352 145.557C86.707 145.654 87.3633 145.838 87.9871 146.106C88.5701 146.427 89.1127 146.816 89.6035 147.265C90.083 147.764 90.6708 148.147 91.3215 148.383C91.9896 148.444 92.663 148.358 93.2937 148.129C94.6093 147.664 96.0446 147.664 97.3601 148.129C97.9874 148.357 98.6574 148.444 99.3222 148.383C99.9768 148.149 100.568 147.766 101.05 147.265C101.536 146.813 102.075 146.424 102.657 146.106C103.277 145.84 103.93 145.655 104.598 145.557C105.276 145.492 105.93 145.273 106.51 144.917C106.977 144.427 107.325 143.835 107.526 143.188C107.967 141.914 108.842 140.835 109.996 140.139C111.3 139.548 111.997 138.112 111.654 136.723C111.601 136.043 111.636 135.36 111.755 134.69C111.936 134.053 112.196 133.442 112.528 132.87C113.453 131.744 113.453 130.122 112.528 128.997C112.196 128.424 111.936 127.813 111.755 127.177C111.636 126.506 111.601 125.823 111.654 125.144C111.997 123.754 111.3 122.318 109.996 121.728C109.44 121.355 108.934 120.91 108.492 120.406C108.074 119.866 107.732 119.271 107.475 118.637C107.272 117.992 106.924 117.401 106.459 116.909C105.883 116.553 105.232 116.333 104.558 116.269C103.886 116.172 103.23 115.987 102.606 115.72C102.024 115.402 101.485 115.012 101 114.561C100.515 114.063 99.9239 113.681 99.2713 113.443C98.6066 113.381 97.9365 113.468 97.3093 113.697C95.9962 114.176 94.5559 114.176 93.2429 113.697C92.7451 113.537 92.2296 113.438 91.7078 113.402H91.718Z" fill="#1C2441"/>
<path d="M94.9405 141.114C100.364 141.114 104.761 136.718 104.761 131.294C104.761 125.87 100.364 121.474 94.9405 121.474C89.5168 121.474 85.1201 125.87 85.1201 131.294C85.1201 136.718 89.5168 141.114 94.9405 141.114Z" fill="#00FCDC"/>
<path d="M94.473 136.275C94.2383 136.275 94.0171 136.166 93.8732 135.981L90.1321 131.314C90.0036 131.154 89.9443 130.949 89.9672 130.745C89.9901 130.541 90.0933 130.355 90.2541 130.227C90.4127 130.099 90.6159 130.04 90.8183 130.063C91.0208 130.086 91.2056 130.189 91.3317 130.349L94.3815 134.191L102.677 121.525C102.921 121.197 103.377 121.116 103.719 121.339C104.061 121.563 104.17 122.014 103.968 122.368L95.0829 135.93C94.9478 136.137 94.7203 136.266 94.473 136.275Z" fill="#1C2441"/>
<path d="M48.5832 74.8524H4.68638C2.52478 74.8524 0.772461 76.6047 0.772461 78.7663V122.663C0.772461 124.825 2.52478 126.577 4.68638 126.577H48.5832C50.7448 126.577 52.4972 124.825 52.4972 122.663V78.7663C52.4972 76.6047 50.7448 74.8524 48.5832 74.8524Z" fill="#00FCDC"/>
<path d="M40.8778 63.2021V86.4925C40.8778 87.6154 39.9675 88.5257 38.8446 88.5257H34.7782V67.6447C34.7782 67.2537 34.6229 66.8788 34.3465 66.6024C34.07 66.3259 33.6951 66.1706 33.3041 66.1706H21.1049C20.714 66.1706 20.339 66.3259 20.0626 66.6024C19.7862 66.8788 19.6309 67.2537 19.6309 67.6447V88.5663H15.5645C14.4415 88.5663 13.5312 87.656 13.5312 86.5331V63.2021C13.5312 62.0792 14.4415 61.1689 15.5645 61.1689H38.804C39.3502 61.158 39.8779 61.3674 40.268 61.7499C40.6582 62.1324 40.8778 62.6558 40.8778 63.2021Z" fill="#EDEDED"/>
<path d="M38.8039 89.339H34.7375C34.3148 89.3334 33.975 88.9891 33.975 88.5663V67.6447C33.9696 67.254 33.6542 66.9385 33.2634 66.9331H21.0642C20.6752 66.9386 20.3627 67.2556 20.3628 67.6447V88.5663C20.3628 88.9931 20.0168 89.339 19.5901 89.339H15.5237C13.954 89.3334 12.6828 88.0622 12.6772 86.4925V63.2021C12.6828 61.6324 13.954 60.3612 15.5237 60.3557H38.8039C40.3737 60.3612 41.6448 61.6324 41.6504 63.2021V86.4925C41.6448 88.0622 40.3737 89.3334 38.8039 89.339ZM35.4898 87.8039H38.8039C39.5282 87.8039 40.1153 87.2168 40.1153 86.4925V63.2021C40.1153 62.4779 39.5282 61.8907 38.8039 61.8907H15.5136C14.7989 61.9019 14.227 62.4874 14.2326 63.2021V86.4925C14.2299 86.8394 14.3658 87.1729 14.6102 87.4192C14.8545 87.6654 15.187 87.8039 15.5339 87.8039H18.848V67.6447C18.848 66.4039 19.8539 65.398 21.0947 65.398H33.2939C34.5347 65.398 35.5406 66.4039 35.5406 67.6447L35.4898 87.8039Z" fill="#1C2441"/>
<path d="M48.5832 74.8524H4.68638C2.52478 74.8524 0.772461 76.6047 0.772461 78.7663V122.663C0.772461 124.825 2.52478 126.577 4.68638 126.577H48.5832C50.7448 126.577 52.4972 124.825 52.4972 122.663V78.7663C52.4972 76.6047 50.7448 74.8524 48.5832 74.8524Z" fill="#EDEDED"/>
<path d="M48.5732 127.34H4.68653C2.10055 127.334 0.00559133 125.239 0 122.653V78.7663C0.00559133 76.1803 2.10055 74.0854 4.68653 74.0798H48.5732C51.1592 74.0854 53.2542 76.1803 53.2598 78.7663V122.653C53.2542 125.239 51.1592 127.334 48.5732 127.34ZM4.68653 75.6148C3.85164 75.6148 3.0511 75.9472 2.4617 76.5385C1.8723 77.1298 1.54253 77.9314 1.54522 78.7663V122.653C1.54253 123.488 1.8723 124.289 2.4617 124.881C3.0511 125.472 3.85164 125.804 4.68653 125.804H48.5732C49.409 125.804 50.2106 125.472 50.8016 124.881C51.3927 124.29 51.7247 123.489 51.7247 122.653V78.7663C51.7247 77.9305 51.3927 77.1289 50.8016 76.5379C50.2106 75.9469 49.409 75.6148 48.5732 75.6148H4.68653Z" fill="#1C2441"/>
<path d="M29.3999 103.754C32.4907 102.662 34.3453 99.5025 33.7914 96.2716C33.2375 93.0407 30.4363 90.6788 27.1583 90.6788C23.8802 90.6788 21.079 93.0407 20.5251 96.2716C19.9712 99.5025 21.8258 102.662 24.9167 103.754" fill="#4FCBC2"/>
<path d="M29.4001 104.517C29.0759 104.518 28.7864 104.314 28.6783 104.008C28.6001 103.812 28.6059 103.592 28.6943 103.4C28.7826 103.208 28.9459 103.06 29.146 102.992C31.8867 102.024 33.5313 99.2218 33.0402 96.3569C32.5491 93.492 30.0652 91.3977 27.1585 91.3977C24.2518 91.3977 21.7679 93.492 21.2768 96.3569C20.7857 99.2218 22.4303 102.024 25.171 102.992C25.5385 103.155 25.7192 103.573 25.5865 103.953C25.4537 104.332 25.052 104.547 24.6627 104.446C21.2159 103.23 19.1468 99.7069 19.7636 96.1043C20.3803 92.5017 23.5035 89.8679 27.1585 89.8679C30.8135 89.8679 33.9366 92.5017 34.5534 96.1043C35.1702 99.7069 33.1011 103.23 29.6543 104.446C29.5748 104.485 29.4886 104.509 29.4001 104.517Z" fill="#1C2441"/>
<path d="M29.3997 103.754V111.796H24.9165V103.754" fill="#4FCBC2"/>
<path d="M29.4004 112.558H24.9171C24.7132 112.561 24.5166 112.482 24.3714 112.338C24.2262 112.195 24.1445 112 24.1445 111.796V103.754C24.1445 103.328 24.4904 102.982 24.9171 102.982C25.3439 102.982 25.6898 103.328 25.6898 103.754V111.023H28.6277V103.754C28.6277 103.328 28.9737 102.982 29.4004 102.982C29.8271 102.982 30.173 103.328 30.173 103.754V111.826C30.1565 112.239 29.8138 112.564 29.4004 112.558Z" fill="#1C2441"/>
<path d="M48.5732 127.34H4.68653C2.10055 127.334 0.00559133 125.239 0 122.653V78.7663C0.00559133 76.1803 2.10055 74.0854 4.68653 74.0798H48.5732C51.1592 74.0854 53.2542 76.1803 53.2598 78.7663V122.653C53.2542 125.239 51.1592 127.334 48.5732 127.34ZM4.68653 75.6148C3.85164 75.6148 3.0511 75.9472 2.4617 76.5385C1.8723 77.1298 1.54253 77.9314 1.54522 78.7663V122.653C1.54253 123.488 1.8723 124.289 2.4617 124.881C3.0511 125.472 3.85164 125.804 4.68653 125.804H48.5732C49.409 125.804 50.2106 125.472 50.8016 124.881C51.3927 124.29 51.7247 123.489 51.7247 122.653V78.7663C51.7247 77.9305 51.3927 77.1289 50.8016 76.5379C50.2106 75.9469 49.409 75.6148 48.5732 75.6148H4.68653Z" fill="#1C2441"/>
<path d="M7.09587 90.6808H6.49607C5.49669 90.6808 4.68652 91.491 4.68652 92.4904V121.596C4.68652 122.595 5.49669 123.405 6.49607 123.405H7.09587C8.09526 123.405 8.90542 122.595 8.90542 121.596V92.4904C8.90542 91.491 8.09526 90.6808 7.09587 90.6808Z" fill="white"/>
<path d="M7.92948 79.0713H5.66246C5.12347 79.0713 4.68652 79.5082 4.68652 80.0472V87.5904C4.68652 88.1294 5.12347 88.5664 5.66246 88.5664H7.92948C8.46848 88.5664 8.90542 88.1294 8.90542 87.5904V80.0472C8.90542 79.5082 8.46848 79.0713 7.92948 79.0713Z" fill="white"/>
</svg>
