<svg width="91" height="18" viewBox="0 0 91 18" fill="none" xmlns="http://www.w3.org/2000/svg">
<path fill-rule="evenodd" clip-rule="evenodd" d="M88.5424 1.66273e-06H90.8336C90.8777 -0.000195988 90.9201 0.0172349 90.9514 0.0484419C90.9827 0.0796489 91.0003 0.12206 91.0003 0.166294V17.6697C91.0003 17.7619 90.9256 17.8367 90.8336 17.8367H88.5424C88.4506 17.8363 88.3764 17.7617 88.3764 17.6697V0.166294C88.3764 0.0744551 88.4507 1.66273e-06 88.5424 1.66273e-06ZM86.5452 2.30083L84.2533 5.57067C84.2337 5.59854 84.2232 5.6318 84.2231 5.66591V17.7294C84.2235 17.8214 84.2981 17.8957 84.3899 17.8957H86.6811C86.7725 17.8953 86.8466 17.8211 86.847 17.7294V2.39682C86.8472 2.32423 86.8003 2.25991 86.7313 2.23794C86.6622 2.21598 86.5869 2.24143 86.5452 2.30083ZM45.1131 11.6069L50.0667 6.67043C50.0978 6.63947 50.1398 6.62208 50.1836 6.62206H52.8536C52.9209 6.62252 52.9814 6.66356 53.0068 6.72607C53.0322 6.78858 53.0176 6.86027 52.9697 6.90777L44.88 14.839C44.8482 14.8705 44.8302 14.9135 44.8302 14.9584V17.6871C44.8298 17.7787 44.7558 17.8529 44.6643 17.8533H42.3731C42.2816 17.8529 42.2075 17.7787 42.2071 17.6871V2.41873C42.2071 2.32689 42.2814 2.25244 42.3731 2.25244H44.6643C44.7559 2.25244 44.8302 2.32689 44.8302 2.41873V11.489C44.8303 11.5562 44.8706 11.6167 44.9325 11.6425C44.9943 11.6682 45.0656 11.6542 45.1131 11.6069ZM18.6327 17.1247C18.6606 17.194 18.639 17.2735 18.5798 17.319C18.271 17.5432 17.9241 17.7094 17.5561 17.8095C17.1019 17.9375 16.6321 18.0011 16.1604 17.9986C14.9287 17.9986 13.9771 17.6763 13.3056 17.0318C12.6342 16.3873 12.2985 15.448 12.2985 14.2139V8.97583C12.2981 8.88387 12.2235 8.80954 12.1318 8.80954H10.6176C10.5258 8.80954 10.4513 8.73521 10.4509 8.64325V6.87303C10.4509 6.8288 10.4685 6.78639 10.4998 6.75518C10.5311 6.72397 10.5735 6.70654 10.6176 6.70674H12.1318C12.2235 6.70674 12.2981 6.63242 12.2985 6.54045V4.30765C12.2983 4.26349 12.3157 4.22107 12.3469 4.18984C12.378 4.15861 12.4204 4.14116 12.4645 4.14136H14.7557C14.7997 4.14116 14.8421 4.15861 14.8732 4.18984C14.9044 4.22107 14.9218 4.26349 14.9216 4.30765V6.54272C14.922 6.63439 14.9961 6.7086 15.0876 6.70901H17.7568C17.8009 6.70881 17.8433 6.72624 17.8746 6.75745C17.9059 6.78865 17.9235 6.83107 17.9235 6.8753V8.64552C17.9231 8.73748 17.8486 8.81181 17.7568 8.81181H15.0876C14.9961 8.81222 14.922 8.88643 14.9216 8.9781V14.1527C14.9216 14.6999 15.0547 15.1172 15.3207 15.4044C15.5868 15.6916 15.9715 15.8352 16.475 15.8352C16.983 15.8352 17.4178 15.7198 17.7794 15.4891C17.821 15.4629 17.872 15.4567 17.9187 15.472C17.9653 15.4874 18.0028 15.5227 18.0208 15.5684L18.6327 17.1247ZM2.03004 17.6417C1.22834 17.421 0.576008 17.1479 0.0730568 16.8224C0.00322152 16.7753 -0.0201688 16.6832 0.0187381 16.6085L0.877276 14.9063C0.898318 14.8646 0.935979 14.8337 0.98096 14.8213C1.02594 14.8089 1.07405 14.8162 1.11341 14.8413C1.63174 15.1528 2.19016 15.3919 2.77315 15.5518C3.45183 15.7505 4.1551 15.8523 4.86216 15.8541C6.42886 15.8541 7.21245 15.4404 7.21296 14.613C7.21296 14.221 7.01354 13.9476 6.6147 13.7929C6.21586 13.6382 5.5756 13.4911 4.69392 13.3515C3.93078 13.2468 3.17651 13.0851 2.43743 12.8677C1.8596 12.6865 1.33933 12.3565 0.928577 11.9108C0.501572 11.4573 0.28832 10.8231 0.288823 10.0083C0.288823 8.94256 0.732929 8.09096 1.62114 7.45352C2.50935 6.81608 3.7094 6.49711 5.22127 6.4966C5.99813 6.4976 6.77245 6.58557 7.52982 6.75888C8.22942 6.91812 8.81335 7.12673 9.2816 7.38473C9.35901 7.42877 9.38797 7.52614 9.34723 7.60545L8.48945 9.30613C8.46892 9.3457 8.43339 9.37535 8.39083 9.38843C8.34828 9.40151 8.30226 9.39691 8.26312 9.37566C7.34926 8.87176 6.32927 8.61981 5.20316 8.61981C4.43365 8.61981 3.84947 8.7357 3.45063 8.9675C3.05179 9.1993 2.85237 9.50416 2.85237 9.88209C2.85237 10.3023 3.06562 10.6002 3.49212 10.7755C3.91862 10.9509 4.57975 11.1156 5.47551 11.2698C6.22121 11.3765 6.95803 11.5382 7.67995 11.7536C8.24406 11.9299 8.7535 12.2485 9.15938 12.6788C9.5718 13.1136 9.77826 13.7304 9.77876 14.5291C9.77876 15.5802 9.32384 16.4215 8.41401 17.0529C7.50417 17.6843 6.2659 17.9995 4.69921 17.9985C3.79753 18.0002 2.89974 17.8802 2.03004 17.6417ZM29.3841 11.2698C29.3841 9.67195 28.9471 8.47694 28.073 7.6848C27.1963 6.89266 25.9334 6.49659 24.2842 6.49659C23.3971 6.49137 22.5138 6.61173 21.6603 6.85412C20.9436 7.051 20.2663 7.37038 19.6581 7.79818C19.5909 7.84746 19.5706 7.93893 19.6105 8.01209L20.4766 9.62358C20.5001 9.66635 20.5412 9.69668 20.5889 9.70656C20.6366 9.71645 20.6863 9.70491 20.7248 9.67498C21.146 9.36727 21.615 9.13153 22.113 8.97732C22.7121 8.78325 23.3377 8.6843 23.9674 8.68405C24.8908 8.68405 25.5869 8.89443 26.0556 9.31519C26.5244 9.73595 26.7587 10.3386 26.7587 11.1232V11.2918H23.8625C22.253 11.2902 21.0741 11.5951 20.3257 12.2063C19.5773 12.8176 19.2032 13.6271 19.2032 14.6349C19.1945 15.252 19.3737 15.8571 19.7169 16.3696C20.0599 16.8816 20.5463 17.2812 21.176 17.5684C21.8057 17.8551 22.5402 17.9987 23.3797 17.9992C24.2191 17.9997 24.936 17.8702 25.5305 17.6107C25.9415 17.4378 26.3116 17.1803 26.6169 16.8549C26.6628 16.8041 26.7351 16.7868 26.799 16.8112C26.8629 16.8356 26.9053 16.8967 26.9059 16.9652V17.6856C26.9059 17.7774 26.9802 17.8518 27.0718 17.8518H29.2182C29.3098 17.8518 29.3841 17.7774 29.3841 17.6856V11.2698ZM26.7467 14.3711C26.5467 14.903 26.1689 15.3491 25.6776 15.6334C25.1451 15.9401 24.5393 16.0958 23.9251 16.0839C23.2532 16.0844 22.7286 15.9441 22.3514 15.6629C21.9842 15.4044 21.7711 14.9785 21.784 14.5291C21.7866 13.5339 22.5422 13.0363 24.0511 13.0363H26.5928C26.6844 13.0363 26.7587 13.1107 26.7587 13.2026V14.3069C26.7589 14.3289 26.7548 14.3507 26.7467 14.3711ZM33.2862 17.263C32.3876 16.7964 31.6383 16.0857 31.124 15.2124C30.6065 14.3366 30.3477 13.3449 30.3477 12.2373C30.3477 11.1297 30.6065 10.1413 31.124 9.27209C31.6389 8.4054 32.3837 7.6989 33.2757 7.23127C34.1926 6.74047 35.2384 6.49532 36.4133 6.49582C37.5198 6.49582 38.4888 6.72006 39.3201 7.16854C40.0864 7.57291 40.7147 8.19718 41.1247 8.96143C41.1664 9.04097 41.1381 9.13925 41.0606 9.18441L39.3201 10.2018C39.2428 10.2484 39.1425 10.225 39.0938 10.1489C38.8117 9.71726 38.4283 9.36146 37.9773 9.1126C37.4899 8.85238 36.9452 8.7188 36.393 8.72409C35.4137 8.72409 34.6022 9.04281 33.9584 9.68025C33.3146 10.3177 32.9928 11.1695 32.9928 12.2358C32.9928 13.3011 33.3111 14.1527 33.9479 14.7906C34.5846 15.4285 35.3996 15.7475 36.393 15.7475C36.9452 15.7526 37.49 15.6187 37.9773 15.3583C38.4292 15.1119 38.8139 14.7581 39.0976 14.328C39.1463 14.252 39.2464 14.2283 39.3239 14.2744L41.0591 15.291C41.0974 15.3127 41.1256 15.3488 41.1373 15.3914C41.1491 15.4339 41.1434 15.4794 41.1217 15.5177C40.6997 16.2812 40.0672 16.9068 39.2998 17.3197C38.4669 17.7732 37.5047 18 36.4133 18C35.2515 17.999 34.2091 17.7533 33.2862 17.263ZM49.4486 11.9909L47.8545 13.5722C47.792 13.633 47.7867 13.7318 47.8425 13.7989L51.0676 17.7974C51.0991 17.8365 51.1465 17.8593 51.1967 17.8594H53.9647C54.0285 17.8596 54.0868 17.8232 54.1147 17.7656C54.1425 17.7081 54.1349 17.6396 54.0952 17.5896L49.6961 12.0136C49.6678 11.9754 49.6247 11.9512 49.5774 11.9468C49.5302 11.9425 49.4834 11.9585 49.4486 11.9909ZM64.3868 16.4815L65.4121 13.7944C65.4266 13.7565 65.4269 13.7146 65.4128 13.6765L62.8953 6.75132C62.8715 6.68549 62.809 6.64173 62.7392 6.64173H60.7663C60.6971 6.64173 60.6351 6.68483 60.6109 6.74981L57.7282 14.4928C57.7034 14.5583 57.6403 14.6014 57.5704 14.6005C57.5004 14.5997 57.4384 14.5551 57.4152 14.489L54.8395 7.00605C54.821 6.9517 54.7757 6.9108 54.7198 6.89788C54.664 6.88497 54.6054 6.90186 54.5649 6.94256L52.912 8.60544C52.8661 8.65141 52.8514 8.72 52.8743 8.7808L56.2035 17.7664C56.2273 17.8319 56.2895 17.8753 56.359 17.8753H58.6479C58.7167 17.8751 58.7782 17.8324 58.8025 17.768L61.5441 10.5488C61.5684 10.4838 61.6304 10.4408 61.6995 10.4408C61.7687 10.4408 61.8307 10.4838 61.855 10.5488L64.076 16.4815C64.1003 16.5464 64.1622 16.5894 64.2314 16.5894C64.3006 16.5894 64.3625 16.5464 64.3868 16.4815ZM82.6142 13.0786H74.1797C74.1283 13.0789 74.0799 13.1028 74.0485 13.1436C74.0171 13.1844 74.0062 13.2374 74.019 13.2872C74.1833 13.9937 74.5957 14.6174 75.1808 15.0446C75.8311 15.5284 76.6391 15.7702 77.6048 15.7702C78.7717 15.7702 79.7444 15.4047 80.5229 14.6735C80.5554 14.6416 80.5994 14.6245 80.6448 14.6263C80.6902 14.628 80.7329 14.6483 80.7628 14.6826L81.9586 16.0597C82.0136 16.1227 82.0136 16.2167 81.9586 16.2797C81.4604 16.8354 80.8386 17.2658 80.1435 17.5359C79.3739 17.8448 78.5063 17.999 77.5407 17.9985C76.3095 17.9985 75.2251 17.7534 74.2876 17.2631C73.3819 16.8029 72.6277 16.091 72.1156 15.2124C71.6051 14.3366 71.3496 13.3449 71.3491 12.2374C71.3491 11.1434 71.5976 10.1585 72.0945 9.28271C72.5787 8.41908 73.2948 7.70867 74.1616 7.23207C75.0433 6.74126 76.0369 6.49611 77.1423 6.49661C78.2337 6.49661 79.2097 6.73824 80.0703 7.22148C80.9216 7.6964 81.6206 8.40424 82.0854 9.2623C82.5672 10.1386 82.8083 11.1514 82.8089 12.3008C82.8089 12.452 82.799 12.6599 82.7794 12.9244C82.7728 13.0111 82.7009 13.0781 82.6142 13.0786ZM75.0126 9.34544C74.4762 9.80734 74.1143 10.4397 73.9873 11.1368C73.9783 11.1854 73.9914 11.2355 74.0231 11.2734C74.0548 11.3113 74.1017 11.333 74.151 11.3326H80.1163C80.1653 11.3331 80.2119 11.3118 80.2437 11.2744C80.2755 11.237 80.289 11.1875 80.2808 11.1391C80.1622 10.4479 79.8104 9.8185 79.2842 9.35603C78.7103 8.85212 77.9966 8.60017 77.1431 8.60017C76.3032 8.59966 75.593 8.84809 75.0126 9.34544ZM86.1858 0.10452C86.2142 0.160423 86.2088 0.227567 86.1718 0.278163L82.3966 5.45957C82.3653 5.50253 82.3155 5.52806 82.2623 5.52835H72.3378C72.2687 5.52804 72.2067 5.57086 72.1824 5.63568L67.6098 17.7672C67.585 17.8316 67.5233 17.8742 67.4544 17.8745H65.4756C65.4206 17.8748 65.3691 17.8478 65.3379 17.8024C65.3068 17.757 65.3002 17.6991 65.3202 17.6478L70.6532 3.45881C70.6774 3.39383 70.7394 3.35075 70.8086 3.35072H81.3412C81.3751 3.35072 81.9685 2.51645 82.5618 1.68217C83.1552 0.847891 83.7486 0.0136125 83.7825 0.0136125H86.0375C86.1001 0.0136125 86.1574 0.0486169 86.1858 0.10452Z" fill="#0C1329"/>
</svg>
