<svg id="Layer_1" data-name="Layer 1" xmlns="http://www.w3.org/2000/svg" xmlns:xlink="http://www.w3.org/1999/xlink" viewBox="0 0 500 500"><defs><style>.cls-1{fill:url(#linear-gradient);}.cls-2{fill:#69f9de;}</style><linearGradient id="linear-gradient" x1="0.95" y1="499.47" x2="492.4" y2="7.19" gradientUnits="userSpaceOnUse"><stop offset="0" stop-color="#3e5069"/><stop offset="1" stop-color="#0c1329"/></linearGradient></defs><rect class="cls-1" width="500" height="500" transform="translate(500 500) rotate(180)"/><path class="cls-2" d="M292.66,224.26a11.64,11.64,0,0,0,11.2-8.48l32.6-116A11.64,11.64,0,0,0,325.25,85H96.64A11.64,11.64,0,0,0,85,96.64V403.45a11.28,11.28,0,0,0,5.73,10,11.74,11.74,0,0,0,17.09-6.93L157.48,232.7a11.64,11.64,0,0,1,11.19-8.44Z"/><path class="cls-2" d="M403.36,85h0a11.62,11.62,0,0,0-11.18,8.44L342.52,267.3a11.64,11.64,0,0,1-11.19,8.44h-124a11.64,11.64,0,0,0-11.2,8.48l-32.6,116A11.64,11.64,0,0,0,174.75,415H403.36A11.64,11.64,0,0,0,415,403.36V96.64A11.64,11.64,0,0,0,403.36,85Z"/></svg>