<svg id="Layer_1" data-name="Layer 1" xmlns="http://www.w3.org/2000/svg" viewBox="0 0 400 400"><defs><style>.cls-1{fill:#69f9de;}</style></defs><path class="cls-1" d="M301.71,218.8a14.09,14.09,0,0,0,13.57-10.28l39.51-140.6A14.1,14.1,0,0,0,341.22,50H64.1A14.1,14.1,0,0,0,50,64.1V436a13.68,13.68,0,0,0,7,12.18c8.83,4.66,18.35-.1,20.72-8.4L137.86,229a14.11,14.11,0,0,1,13.56-10.23Z" transform="translate(-50 -50)"/><path class="cls-1" d="M435.9,50h0a14.12,14.12,0,0,0-13.57,10.23L362.14,271a14.11,14.11,0,0,1-13.56,10.23H198.29a14.09,14.09,0,0,0-13.57,10.28L145.2,432.08A14.11,14.11,0,0,0,158.78,450H435.9A14.1,14.1,0,0,0,450,435.9V64.1A14.1,14.1,0,0,0,435.9,50Z" transform="translate(-50 -50)"/></svg>