<svg width="131" height="150" viewBox="0 0 131 150" fill="none" xmlns="http://www.w3.org/2000/svg">
<path d="M53.444 56.4713H9.07718C6.66146 56.4713 4.70312 58.4296 4.70312 60.8453V141.601C4.70312 144.017 6.66146 145.975 9.07718 145.975H53.444C55.8598 145.975 57.8181 144.017 57.8181 141.601V60.8453C57.8181 58.4296 55.8598 56.4713 53.444 56.4713Z" fill="#EDEDED"/>
<path d="M49.5007 50.824H5.13382C2.7181 50.824 0.759766 52.7823 0.759766 55.198V135.954C0.759766 138.369 2.7181 140.328 5.13382 140.328H49.5007C51.9164 140.328 53.8747 138.369 53.8747 135.954V55.198C53.8747 52.7823 51.9164 50.824 49.5007 50.824Z" fill="white"/>
<path d="M49.4905 141.077H5.13387C2.29851 141.077 0 138.779 0 135.943V55.198C0 52.3627 2.29851 50.0641 5.13387 50.0641H49.4905C52.3258 50.0641 54.6243 52.3627 54.6243 55.198V135.943C54.6243 138.779 52.3258 141.077 49.4905 141.077ZM5.13387 51.5735C3.13445 51.5791 1.515 53.1986 1.50936 55.198V135.943C1.515 137.943 3.13445 139.562 5.13387 139.568H49.4905C51.4899 139.562 53.1093 137.943 53.115 135.943V55.198C53.1093 53.1986 51.4899 51.5791 49.4905 51.5735H5.13387Z" fill="#0B132B"/>
<path d="M45.0125 50.824V54.1302C45.0125 56.1036 43.4128 57.7034 41.4393 57.7034H13.1825C11.2091 57.7034 9.60938 56.1036 9.60938 54.1302V50.824" fill="white"/>
<path d="M41.4406 58.4631H13.1838C10.7931 58.4575 8.8565 56.5209 8.85085 54.1302V50.8239C8.81689 50.5333 8.95285 50.249 9.20041 50.093C9.44796 49.9369 9.76311 49.9369 10.0107 50.093C10.2582 50.249 10.3942 50.5333 10.3602 50.8239V54.1302C10.3659 55.6856 11.6284 56.9435 13.1838 56.9435H41.4406C42.9944 56.9435 44.254 55.6839 44.254 54.1302V50.8239C44.254 50.4043 44.5942 50.0641 45.0138 50.0641C45.4334 50.0641 45.7736 50.4043 45.7736 50.8239V54.1302C45.768 56.5209 43.8313 58.4575 41.4406 58.4631Z" fill="#1C2441"/>
<path d="M49.4905 141.077H5.13387C2.29851 141.077 0 138.779 0 135.943V55.198C0 52.3627 2.29851 50.0641 5.13387 50.0641H49.4905C52.3258 50.0641 54.6243 52.3627 54.6243 55.198V135.943C54.6243 138.779 52.3258 141.077 49.4905 141.077ZM5.13387 51.5735C3.13445 51.5791 1.515 53.1986 1.50936 55.198V135.943C1.515 137.943 3.13445 139.562 5.13387 139.568H49.4905C51.4899 139.562 53.1093 137.943 53.115 135.943V55.198C53.1093 53.1986 51.4899 51.5791 49.4905 51.5735H5.13387Z" fill="#0B132B"/>
<path d="M19.9398 55.9887C20.8925 55.9887 21.6648 55.2164 21.6648 54.2637C21.6648 53.311 20.8925 52.5387 19.9398 52.5387C18.9871 52.5387 18.2148 53.311 18.2148 54.2637C18.2148 55.2164 18.9871 55.9887 19.9398 55.9887Z" fill="#3A506B"/>
<path d="M35.9373 54.7771H24.1192C23.6996 54.7771 23.3594 54.4369 23.3594 54.0173C23.3594 53.5976 23.6996 53.2574 24.1192 53.2574H35.9373C36.357 53.2574 36.6972 53.5976 36.6972 54.0173C36.6972 54.4369 36.357 54.7771 35.9373 54.7771Z" fill="#3A506B"/>
<path d="M116.005 6.54953H71.6377C69.222 6.54953 67.2637 8.50786 67.2637 10.9236V91.6793C67.2637 94.095 69.222 96.0534 71.6377 96.0534H116.005C118.42 96.0534 120.379 94.095 120.379 91.6793V10.9236C120.379 8.50786 118.42 6.54953 116.005 6.54953Z" fill="#EDEDED"/>
<path d="M112.061 0.902283H67.6944C65.2786 0.902283 63.3203 2.86061 63.3203 5.27634V86.0321C63.3203 88.4478 65.2786 90.4061 67.6944 90.4061H112.061C114.477 90.4061 116.435 88.4478 116.435 86.0321V5.27634C116.435 2.86061 114.477 0.902283 112.061 0.902283Z" fill="white"/>
<path d="M112.054 91.2072H67.6969C64.8554 91.2016 62.5454 88.9144 62.5117 86.0731V5.27632C62.5454 2.43502 64.8554 0.147872 67.6969 0.142456H112.054C114.915 0.148105 117.233 2.46629 117.239 5.32766V86.0218C117.253 87.4012 116.711 88.7281 115.735 89.7036C114.76 90.679 113.433 91.2208 112.054 91.2072ZM67.6969 1.70315C65.7275 1.70881 64.134 3.30692 64.134 5.27632V86.0218C64.134 87.9912 65.7275 89.5893 67.6969 89.5949H112.054C113.001 89.5949 113.91 89.2185 114.58 88.5484C115.25 87.8783 115.627 86.9694 115.627 86.0218V5.27632C115.627 4.32866 115.25 3.41981 114.58 2.74971C113.91 2.07961 113.001 1.70315 112.054 1.70315H67.6969Z" fill="#0B132B"/>
<path d="M107.575 0.902283V4.19822C107.578 5.14672 107.202 6.05717 106.531 6.72786C105.861 7.39855 104.95 7.77413 104.002 7.77141H75.745C73.7716 7.77141 72.1719 6.17163 72.1719 4.19822V0.902283" fill="white"/>
<path d="M104.002 8.59281H75.7456C73.3226 8.58714 71.3613 6.62127 71.3613 4.19821V0.902268C71.3613 0.454282 71.7245 0.0911171 72.1725 0.0911171C72.6205 0.0911171 72.9836 0.454282 72.9836 0.902268V4.19821C72.9836 5.7253 74.2186 6.96484 75.7456 6.9705H104.002C104.739 6.97323 105.447 6.68235 105.969 6.16215C106.492 5.64195 106.785 4.93525 106.785 4.19821V0.902268C106.75 0.592584 106.896 0.290227 107.159 0.124383C107.423 -0.0414609 107.759 -0.0414609 108.023 0.124383C108.287 0.290227 108.432 0.592584 108.397 0.902268V4.19821C108.4 5.36456 107.938 6.48393 107.113 7.30867C106.288 8.13341 105.169 8.59553 104.002 8.59281Z" fill="#1C2441"/>
<path d="M112.054 91.2072H67.6969C64.8554 91.2016 62.5454 88.9144 62.5117 86.0731V5.27632C62.5454 2.43502 64.8554 0.147872 67.6969 0.142456H112.054C114.915 0.148105 117.233 2.46629 117.239 5.32766V86.0218C117.253 87.4012 116.711 88.7281 115.735 89.7036C114.76 90.679 113.433 91.2208 112.054 91.2072ZM67.6969 1.70315C65.7275 1.70881 64.134 3.30692 64.134 5.27632V86.0218C64.134 87.9912 65.7275 89.5893 67.6969 89.5949H112.054C113.001 89.5949 113.91 89.2185 114.58 88.5484C115.25 87.8783 115.627 86.9694 115.627 86.0218V5.27632C115.627 4.32866 115.25 3.41981 114.58 2.74971C113.91 2.07961 113.001 1.70315 112.054 1.70315H67.6969Z" fill="#0B132B"/>
<path d="M82.5004 6.06693C83.453 6.06693 84.2253 5.29463 84.2253 4.34195C84.2253 3.38927 83.453 2.61697 82.5004 2.61697C81.5477 2.61697 80.7754 3.38927 80.7754 4.34195C80.7754 5.29463 81.5477 6.06693 82.5004 6.06693Z" fill="#3A506B"/>
<path d="M98.4779 4.90666H86.6803C86.3905 4.90666 86.1227 4.75206 85.9778 4.50109C85.8329 4.25012 85.8329 3.94091 85.9778 3.68994C86.1227 3.43897 86.3905 3.28436 86.6803 3.28436H98.4779C98.9259 3.28436 99.2891 3.64753 99.2891 4.09551C99.2891 4.5435 98.9259 4.90666 98.4779 4.90666Z" fill="#3A506B"/>
<path d="M43.7609 112.42H12.2493C9.34586 112.42 6.99219 114.774 6.99219 117.677V120.09C6.99219 122.994 9.34586 125.347 12.2493 125.347H43.7609C46.6643 125.347 49.018 122.994 49.018 120.09V117.677C49.018 114.774 46.6643 112.42 43.7609 112.42Z" fill="#00FCDC"/>
<path d="M16.3663 129.465V117.965C16.417 117.3 16.0909 116.662 15.522 116.314C14.9531 115.966 14.2372 115.966 13.6683 116.314C13.0994 116.662 12.7733 117.3 12.824 117.965V133.027C12.5321 133.299 12.1356 133.428 11.7401 133.38C11.3445 133.333 10.9899 133.114 10.7704 132.781L9.3432 130.573C7.92626 128.623 5.75977 129.711 5.75977 130.573C5.75977 130.573 8.44991 136.847 8.84008 137.453C9.53829 138.551 10.4008 139.506 11.1195 140.615C12.0847 142.053 11.9717 143.069 11.9615 144.805C11.9615 144.989 12.0231 145.174 12.0231 145.369C12.0231 150.78 25.0631 150.298 25.2274 145.369C25.2274 145.236 25.2274 145.102 25.2274 144.969C25.1051 143.86 25.2972 142.739 25.7818 141.734C26.4498 140.851 26.8715 139.805 27.0037 138.706V130.368C26.9572 129.407 26.1885 128.638 25.2274 128.592H23.4511C23.4094 127.634 22.6426 126.867 21.685 126.826H19.9087C19.4774 126.286 18.833 125.96 18.1426 125.932H16.3663" fill="#EDEDED"/>
<path d="M18.2863 150H17.9988C13.8917 149.918 11.2119 148.049 11.2324 145.359C11.2368 145.304 11.2368 145.249 11.2324 145.195C11.2223 145.065 11.2223 144.934 11.2324 144.805V144.322C11.3891 143.176 11.1344 142.012 10.5137 141.036C10.1851 140.554 9.83599 140.092 9.48689 139.63C9.13778 139.168 8.6244 138.48 8.22396 137.864C7.82352 137.247 5.54408 131.929 5.14364 130.871L5.08203 130.727V130.573C5.1728 129.736 5.78871 129.049 6.61192 128.869C7.90918 128.464 9.31653 128.982 10.0413 130.132L11.4891 132.37C11.5848 132.52 11.7435 132.618 11.9203 132.637C12.0014 132.656 12.0857 132.656 12.1668 132.637V117.965C12.2519 116.629 13.3597 115.59 14.6978 115.59C16.0358 115.59 17.1437 116.629 17.2288 117.965V125.152H18.2555C19.0469 125.182 19.8011 125.496 20.381 126.035H21.7979C22.8862 126.082 23.8371 126.785 24.2005 127.811H25.3403C26.6678 127.936 27.6918 129.035 27.7224 130.368V138.706C27.6588 139.764 27.3034 140.784 26.6956 141.652C26.6135 141.786 26.5211 141.93 26.4492 142.073C26.04 142.944 25.8834 143.911 25.9974 144.866C26.0039 144.996 26.0039 145.126 25.9974 145.256C25.9917 145.29 25.9917 145.325 25.9974 145.359C25.8434 148.429 22.0649 150 18.2863 150ZM6.55032 130.491C7.81325 133.428 9.21993 136.652 9.44582 136.991C9.81546 137.566 10.2159 138.1 10.6471 138.664C11.0784 139.229 11.3762 139.63 11.6739 140.143C12.4669 141.357 12.8118 142.809 12.6493 144.25V144.722C12.6444 144.777 12.6444 144.832 12.6493 144.887C12.6595 145.02 12.6595 145.154 12.6493 145.287C12.6493 147.341 15.2984 148.367 17.9372 148.367C21.0175 148.367 24.2724 147.269 24.3443 145.195C24.3342 145.106 24.3342 145.016 24.3443 144.928C24.3443 144.928 24.3443 144.866 24.3443 144.825C24.2101 143.58 24.4346 142.322 24.9912 141.201L25.2581 140.759C25.7245 140.123 26.0181 139.376 26.1103 138.593V130.255C26.0667 129.707 25.6315 129.272 25.0836 129.228H22.7015V128.469C22.6537 127.923 22.2208 127.49 21.6747 127.442H19.5082L19.2823 127.093C18.9895 126.775 18.5844 126.583 18.1529 126.559H17.1261V129.465C17.0813 129.847 16.7569 130.136 16.3714 130.136C15.9859 130.136 15.6615 129.847 15.6167 129.465V117.965C15.6167 117.398 15.157 116.938 14.59 116.938C14.0229 116.938 13.5632 117.398 13.5632 117.965V133.366L13.3476 133.572C12.8936 134.01 12.267 134.221 11.6404 134.147C11.0139 134.074 10.4533 133.723 10.1132 133.192L8.68601 130.984C8.38509 130.481 7.82267 130.193 7.23826 130.245C6.98474 130.275 6.74554 130.378 6.55032 130.543V130.491Z" fill="#1C2441"/>
<path d="M23.4507 132.011C23.0351 132.005 22.7011 131.667 22.7012 131.251V128.592C22.7459 128.209 23.0703 127.92 23.4558 127.92C23.8414 127.92 24.1658 128.209 24.2105 128.592V131.251C24.2105 131.671 23.8703 132.011 23.4507 132.011Z" fill="#1C2441"/>
<path d="M19.909 131.128C19.4934 131.122 19.1594 130.784 19.1594 130.368V126.826C19.1255 126.535 19.2614 126.251 19.509 126.095C19.7565 125.939 20.0717 125.939 20.3193 126.095C20.5668 126.251 20.7028 126.535 20.6688 126.826V130.368C20.6688 130.788 20.3286 131.128 19.909 131.128Z" fill="#1C2441"/>
<path d="M63.5577 119.638H61.1345C60.7516 119.594 60.4629 119.269 60.4629 118.884C60.4629 118.498 60.7516 118.174 61.1345 118.129H63.5577C63.8483 118.095 64.1327 118.231 64.2887 118.479C64.4447 118.726 64.4447 119.041 64.2887 119.289C64.1327 119.536 63.8483 119.672 63.5577 119.638Z" fill="#1C2441"/>
<path d="M83.5981 119.638H78.5875C78.2046 119.594 77.9158 119.269 77.9158 118.884C77.9158 118.498 78.2046 118.174 78.5875 118.129H83.5981C83.8888 118.095 84.1731 118.231 84.3291 118.479C84.4851 118.726 84.4851 119.041 84.3291 119.289C84.1731 119.536 83.8888 119.672 83.5981 119.638ZM73.5768 119.638H68.5662C68.1832 119.594 67.8945 119.269 67.8945 118.884C67.8945 118.498 68.1832 118.174 68.5662 118.129H73.5768C73.8675 118.095 74.1518 118.231 74.3078 118.479C74.4638 118.726 74.4638 119.041 74.3078 119.289C74.1518 119.536 73.8675 119.672 73.5768 119.638Z" fill="#1C2441"/>
<path d="M91.7941 119.638H88.6111C88.2282 119.594 87.9395 119.269 87.9395 118.884C87.9395 118.498 88.2282 118.174 88.6111 118.129H90.2847V116.455C90.3295 116.072 90.6539 115.784 91.0394 115.784C91.4249 115.784 91.7494 116.072 91.7941 116.455V119.638Z" fill="#1C2441"/>
<path d="M91.034 112.636C90.6184 112.63 90.2844 112.292 90.2844 111.876V107.307C90.2505 107.016 90.3864 106.732 90.634 106.576C90.8816 106.42 91.1967 106.42 91.4443 106.576C91.6918 106.732 91.8278 107.016 91.7938 107.307V111.876C91.7938 112.296 91.4536 112.636 91.034 112.636Z" fill="#1C2441"/>
<path d="M91.0328 103.477C90.6188 103.477 90.2832 103.141 90.2832 102.727V100.294C90.3279 99.911 90.6524 99.6223 91.0379 99.6223C91.4234 99.6223 91.7478 99.911 91.7926 100.294V102.768C91.7655 103.168 91.4331 103.478 91.0328 103.477Z" fill="#1C2441"/>
<path d="M89.3913 21.6534C89.3913 21.6534 77.07 21.6533 73.7227 31.726C70.3754 41.7986 72.6035 45.1562 72.6035 45.1562C72.6035 45.1562 77.0803 58.5556 88.3029 58.5556C99.5255 58.5556 101.959 53.9043 101.959 53.9043L90.5105 39.5295L89.3913 21.6534Z" fill="#4FCBC2"/>
<path d="M105.049 28.3376L90.5098 39.5295L100.623 55.198C100.623 55.198 108.458 48.4829 108.458 40.6487C108.458 32.8144 105.049 28.3376 105.049 28.3376Z" fill="#3A506B"/>
<path d="M89.3906 21.6533L90.5098 39.5603L105.049 28.3684C105.049 28.3684 97.2146 19.3842 89.3906 21.6533Z" fill="#00FCDC"/>
<path d="M90.0804 59.2127C80.5715 59.2293 72.4684 52.315 70.9887 42.9219C69.509 33.5288 75.094 24.4582 84.1475 21.5506C93.201 18.6431 103.023 22.7657 107.289 31.2639C110.301 37.2384 109.999 44.3475 106.491 50.0449C102.983 55.7423 96.7712 59.2127 90.0804 59.2127ZM90.0188 22.1462C83.8553 22.1544 78.136 25.3553 74.9057 30.6046C71.6753 35.8539 71.3952 42.402 74.1655 47.9079C77.0212 53.5828 82.6876 57.3031 89.0301 57.6673C95.3725 58.0316 101.428 54.9845 104.914 49.6739C108.401 44.3633 108.79 37.5959 105.934 31.9211C102.903 25.9167 96.7449 22.1347 90.0188 22.1462Z" fill="#0B132B"/>
<path d="M90.1505 40.7206C90.0368 40.7225 89.9243 40.6979 89.8219 40.6487C89.5688 40.525 89.4034 40.273 89.3906 39.9915L88.6308 21.4377C88.6014 21.0215 88.9131 20.6594 89.329 20.6265C89.7447 20.6202 90.0924 20.9408 90.1197 21.3556L90.8179 38.4616L104.351 28.122C104.683 27.9257 105.109 28.0091 105.342 28.316C105.576 28.6229 105.542 29.0559 105.265 29.3234L90.6022 40.5665C90.4732 40.6671 90.3141 40.7213 90.1505 40.7206Z" fill="#0B132B"/>
<path d="M100.552 55.198C100.308 55.1973 100.078 55.0788 99.9364 54.8797L89.5351 40.4022C89.3014 40.0701 89.3794 39.6117 89.7097 39.3755C90.0417 39.1508 90.4911 39.2227 90.7365 39.5398L101.158 53.9967C101.383 54.3287 101.311 54.7782 100.994 55.0235C100.871 55.1307 100.715 55.1924 100.552 55.198Z" fill="#0B132B"/>
<path d="M32.8568 122.503C32.5512 122.506 32.2742 122.324 32.1568 122.041C32.0394 121.759 32.1051 121.434 32.3228 121.22L34.5817 118.95L32.3228 116.691C32.0343 116.539 31.8753 116.219 31.928 115.897C31.9806 115.575 32.2331 115.322 32.5552 115.27C32.8774 115.217 33.1971 115.376 33.3496 115.665L36.1527 118.458C36.4142 118.75 36.4142 119.192 36.1527 119.484L33.3393 122.277C33.2116 122.409 33.0399 122.489 32.8568 122.503Z" fill="#1C2441"/>
<path d="M110.07 72.0166H72.0071C70.9126 72.0166 70.0254 72.9038 70.0254 73.9983V76.5036C70.0254 77.5981 70.9126 78.4853 72.0071 78.4853H110.07C111.164 78.4853 112.051 77.5981 112.051 76.5036V73.9983C112.051 72.9038 111.164 72.0166 110.07 72.0166Z" fill="#4FCBC2"/>
<path d="M110.07 80.0973H72.0071C70.9126 80.0973 70.0254 80.9845 70.0254 82.079V84.5843C70.0254 85.6787 70.9126 86.566 72.0071 86.566H110.07C111.164 86.566 112.051 85.6787 112.051 84.5843V82.079C112.051 80.9845 111.164 80.0973 110.07 80.0973Z" fill="#3A506B"/>
<path d="M8.23438 94.3489L11.1196 97.0083H49.562V77.5406L47.1593 75.3331L8.23438 94.3489Z" fill="#4FCBC2"/>
<path d="M49.5619 97.7578H11.1195C10.9301 97.7591 10.747 97.6895 10.6061 97.5627L7.72091 94.9034C7.5322 94.7366 7.44292 94.4843 7.48475 94.236C7.52193 93.9923 7.67505 93.7817 7.89546 93.6713L46.8307 74.6452C47.1106 74.5134 47.4422 74.5619 47.6727 74.7684L50.0753 76.9862C50.2319 77.128 50.3217 77.3294 50.3217 77.5407V97.0493C50.2947 97.4488 49.9623 97.7587 49.5619 97.7578ZM11.407 96.2485H48.8124V77.8692L47.0258 76.2367L9.55884 94.5543L11.407 96.2485Z" fill="#0B132B"/>
<path d="M46.0195 93.9793V71.8318H5.88297V93.9793H46.0195Z" fill="white"/>
<path d="M46.0209 94.7391H5.88431C5.46869 94.7335 5.13477 94.3949 5.13477 93.9793V71.8318C5.13477 71.4121 5.47494 71.072 5.89458 71.072H46.0209C46.4365 71.0776 46.7704 71.4161 46.7704 71.8318V93.9793C46.7704 94.3949 46.4365 94.7335 46.0209 94.7391ZM6.64412 93.2195H45.2611V72.5813H6.64412V93.2195Z" fill="#0B132B"/>
<path d="M43.1243 87.911H35.8547C35.3557 87.911 34.9512 88.3155 34.9512 88.8146V91.0427C34.9512 91.5417 35.3557 91.9462 35.8547 91.9462H43.1243C43.6233 91.9462 44.0278 91.5417 44.0278 91.0427V88.8146C44.0278 88.3155 43.6233 87.911 43.1243 87.911Z" fill="#00FCDC"/>
<path d="M42.3229 90.6833H36.6449C36.3542 90.7173 36.0699 90.5813 35.9139 90.3338C35.7579 90.0862 35.7579 89.7711 35.9139 89.5235C36.0699 89.276 36.3542 89.14 36.6449 89.174H42.3229C42.6136 89.14 42.8979 89.276 43.0539 89.5235C43.2099 89.7711 43.2099 90.0862 43.0539 90.3338C42.8979 90.5813 42.6136 90.7173 42.3229 90.6833Z" fill="#0B132B"/>
<path d="M16.9114 73.7929H9.64184C9.14282 73.7929 8.73828 74.1974 8.73828 74.6965V76.9246C8.73828 77.4236 9.14282 77.8281 9.64184 77.8281H16.9114C17.4104 77.8281 17.815 77.4236 17.815 76.9246V74.6965C17.815 74.1974 17.4104 73.7929 16.9114 73.7929Z" fill="#00FCDC"/>
<path d="M16.11 76.5652H10.432C10.1413 76.5991 9.85702 76.4632 9.701 76.2156C9.54498 75.9681 9.54498 75.6529 9.701 75.4054C9.85702 75.1578 10.1413 75.0219 10.432 75.0558H16.11C16.4007 75.0219 16.685 75.1578 16.841 75.4054C16.997 75.6529 16.997 75.9681 16.841 76.2156C16.685 76.4632 16.4007 76.5991 16.11 76.5652Z" fill="#0B132B"/>
<path d="M25.9465 92.973C29.8423 92.973 33.0004 88.4587 33.0004 82.8901C33.0004 77.3215 29.8423 72.8072 25.9465 72.8072C22.0507 72.8072 18.8926 77.3215 18.8926 82.8901C18.8926 88.4587 22.0507 92.973 25.9465 92.973Z" fill="#EDEDED"/>
<path d="M27.3955 87.7878H24.5103C22.4567 87.7878 20.8652 86.8226 20.8652 85.5494V84.8204C20.8652 84.4008 21.2054 84.0606 21.625 84.0606C21.8256 84.0606 22.0179 84.141 22.1587 84.2838C22.2996 84.4266 22.3773 84.6199 22.3746 84.8204V85.5494C22.3746 85.6932 23.0625 86.2682 24.5103 86.2682H27.3955C28.833 86.2682 29.5209 85.6932 29.5209 85.5494V84.4097C29.5209 84.3173 29.1718 83.9169 28.1759 83.7526L23.4732 82.9517C21.892 82.6847 20.8652 81.8428 20.8652 80.8057V79.6558C20.8652 78.3826 22.4362 77.4277 24.5103 77.4277H27.3955C29.4491 77.4277 31.0304 78.3826 31.0304 79.6558V80.395C31.033 80.5956 30.9553 80.7889 30.8144 80.9317C30.6735 81.0745 30.4813 81.1549 30.2807 81.1549C29.8611 81.1549 29.5209 80.8147 29.5209 80.395V79.6558C29.5209 79.512 28.833 78.937 27.3955 78.937H24.5103C23.0625 78.937 22.3746 79.512 22.3746 79.6558V80.8057C22.3746 80.9084 22.7853 81.2986 23.7197 81.4629L28.4326 82.2638C30.0138 82.5307 31.0304 83.3727 31.0304 84.4097V85.5494C31.0304 86.8226 29.4696 87.7878 27.3955 87.7878Z" fill="#0B132B"/>
<path d="M25.9461 90.5703C25.5305 90.5647 25.1965 90.2262 25.1966 89.8105V76.1544C25.1626 75.8638 25.2986 75.5795 25.5461 75.4235C25.7937 75.2675 26.1088 75.2675 26.3564 75.4235C26.6039 75.5795 26.7399 75.8638 26.7059 76.1544V89.8105C26.7059 90.2302 26.3657 90.5703 25.9461 90.5703Z" fill="#0B132B"/>
<path d="M34.439 119.71H22.3128C22.0222 119.744 21.7379 119.608 21.5819 119.361C21.4258 119.113 21.4258 118.798 21.5819 118.55C21.7379 118.303 22.0222 118.167 22.3128 118.201H34.439C34.8219 118.246 35.1107 118.57 35.1107 118.956C35.1107 119.341 34.8219 119.665 34.439 119.71Z" fill="#1C2441"/>
<path d="M130.215 82.3254C130.215 83.691 129.044 84.9129 128.757 86.1861C128.469 87.4593 128.972 89.1124 128.397 90.2932C127.822 91.474 126.231 92.09 125.399 93.1271C124.567 94.1641 124.372 95.848 123.345 96.6797C122.319 97.5114 120.635 97.3574 119.423 97.9426C118.212 98.5279 117.308 99.9346 115.983 100.232C114.659 100.53 113.263 99.6573 111.876 99.6573C110.49 99.6573 109.063 100.52 107.769 100.232C106.476 99.9448 105.521 98.5176 104.33 97.9426C103.139 97.3676 101.444 97.5114 100.407 96.6797C99.3703 95.848 99.1341 94.1744 98.3538 93.1271C97.5734 92.0798 95.8793 91.474 95.294 90.3034C94.7087 89.1329 95.294 87.5106 94.9346 86.1963C94.5753 84.8821 93.4355 83.691 93.4355 82.3254C93.4355 80.9598 94.6061 79.7482 94.8936 78.4647C95.1811 77.1813 94.6779 75.5487 95.2529 74.3577C95.8279 73.1666 97.4194 72.5608 98.2511 71.5238C99.0828 70.4867 99.2779 68.8028 100.305 67.9711C101.331 67.1394 103.015 67.2935 104.227 66.7082C105.439 66.1229 106.342 64.7163 107.667 64.4185C108.991 64.1207 110.388 64.9935 111.774 64.9935C113.16 64.9935 114.587 64.131 115.881 64.4185C117.175 64.706 118.129 66.1332 119.32 66.7082C120.512 67.2832 122.206 67.1394 123.243 67.9711C124.28 68.8028 124.516 70.4765 125.296 71.5238C126.077 72.5711 127.709 73.1461 128.294 74.3577C128.88 75.5692 128.356 77.1505 128.654 78.4647C128.952 79.779 130.215 80.9598 130.215 82.3254Z" fill="white"/>
<path d="M108.324 101.054C108.079 101.055 107.835 101.031 107.595 100.982C106.707 100.704 105.9 100.215 105.244 99.5546C104.868 99.1966 104.447 98.8894 103.991 98.6408C103.503 98.43 102.988 98.2883 102.461 98.2198C101.553 98.117 100.683 97.7965 99.925 97.2854C99.2488 96.6617 98.7403 95.8778 98.4465 95.006C98.2537 94.5121 98.002 94.0432 97.6969 93.6096C97.3439 93.2194 96.9438 92.8745 96.5059 92.5828C95.7219 92.1019 95.0721 91.4309 94.6166 90.6319C94.2823 89.7844 94.1624 88.8674 94.2675 87.9623C94.3128 87.4211 94.2921 86.8763 94.2059 86.34C94.0549 85.8459 93.8482 85.3705 93.5898 84.9231C92.4414 83.3703 92.4414 81.2496 93.5898 79.6968C93.8524 79.2515 94.0593 78.7756 94.2059 78.2798C94.2902 77.7503 94.3109 77.2126 94.2675 76.6781C93.9237 74.8171 94.8365 72.95 96.5161 72.0781C96.9517 71.7833 97.3514 71.4388 97.7072 71.0514C98.0144 70.6153 98.2661 70.1428 98.4567 69.6447C98.7533 68.7771 99.2615 67.9972 99.9353 67.3755C100.693 66.8645 101.563 66.5439 102.471 66.4412C102.996 66.3628 103.51 66.2215 104.001 66.0202C104.461 65.7689 104.886 65.4582 105.264 65.0961C106.491 63.6454 108.525 63.1734 110.265 63.9358C110.78 64.1027 111.315 64.2028 111.856 64.2336C112.4 64.2019 112.939 64.1019 113.458 63.9358C114.31 63.6356 115.223 63.5475 116.117 63.6791C117 63.9569 117.803 64.4429 118.458 65.0961C118.833 65.4579 119.255 65.7686 119.711 66.0202C120.204 66.2262 120.722 66.3677 121.251 66.4412C122.156 66.5459 123.022 66.8664 123.777 67.3755C124.457 67.9981 124.969 68.7821 125.266 69.655C125.459 70.1489 125.71 70.6177 126.015 71.0514C126.368 71.4415 126.768 71.7864 127.206 72.0781C127.985 72.5651 128.634 73.2347 129.096 74.029C129.43 74.8766 129.55 75.7936 129.445 76.6986C129.298 77.7537 129.539 78.8261 130.122 79.7173C130.625 80.5011 130.924 81.3972 130.995 82.3253C130.926 83.257 130.626 84.1568 130.122 84.9436C129.864 85.3911 129.657 85.8664 129.506 86.3606C129.422 86.8901 129.401 87.4279 129.445 87.9623C129.55 88.8674 129.43 89.7844 129.096 90.6319C128.64 91.4309 127.99 92.1019 127.206 92.5828C126.768 92.8745 126.368 93.2194 126.015 93.6096C125.71 94.0432 125.459 94.5121 125.266 95.006C124.972 95.8778 124.464 96.6617 123.787 97.2854C123.032 97.7946 122.166 98.115 121.261 98.2198C120.731 98.2885 120.213 98.4301 119.721 98.6408C119.263 98.8897 118.842 99.2007 118.469 99.5649C117.811 100.216 117.009 100.701 116.128 100.982C115.233 101.116 114.319 101.024 113.468 100.715C112.435 100.332 111.298 100.332 110.265 100.715C109.636 100.916 108.983 101.03 108.324 101.054ZM108.324 65.1166C108.191 65.101 108.057 65.101 107.924 65.1166C107.286 65.3448 106.71 65.7173 106.24 66.205C105.76 66.6518 105.225 67.0348 104.648 67.3447C104.04 67.6053 103.402 67.7882 102.749 67.8889C102.083 67.9523 101.44 68.1665 100.87 68.5152C100.404 68.9996 100.054 69.582 99.8429 70.2197C99.5978 70.8407 99.2734 71.4274 98.8777 71.9652C98.4483 72.4601 97.9545 72.8952 97.4094 73.2589C96.8328 73.6123 96.3419 74.0892 95.972 74.6553C95.7631 75.2867 95.6964 75.9564 95.7769 76.6165C95.8347 77.282 95.8002 77.9524 95.6742 78.6084C95.5037 79.2342 95.2517 79.8349 94.9246 80.395C94.5549 80.9681 94.3197 81.6175 94.2367 82.2945C94.3054 83.0035 94.5412 83.6862 94.9246 84.2865C95.2517 84.8466 95.5037 85.4473 95.6742 86.0731C95.8008 86.729 95.8354 87.3995 95.7769 88.065C95.6971 88.7251 95.7637 89.3947 95.972 90.0261C96.3419 90.5922 96.8328 91.0692 97.4094 91.4225C97.9524 91.789 98.4459 92.2238 98.8777 92.7163C99.269 93.2514 99.5899 93.8346 99.8326 94.4515C100.114 95.8265 101.335 96.8059 102.738 96.7823C103.397 96.8767 104.039 97.0598 104.648 97.3265C105.225 97.6364 105.76 98.0195 106.24 98.4662C107.081 99.5925 108.612 99.9481 109.864 99.3082C110.507 99.1082 111.173 98.9909 111.846 98.9591C112.522 98.9918 113.191 99.1091 113.838 99.3082C114.454 99.5363 115.114 99.6206 115.768 99.5546C116.408 99.3242 116.987 98.9521 117.462 98.4662C117.936 98.0173 118.468 97.634 119.044 97.3265C119.653 97.0598 120.295 96.8767 120.953 96.7823C121.615 96.7126 122.252 96.4988 122.822 96.156C123.291 95.6743 123.642 95.091 123.849 94.4515C124.092 93.8346 124.412 93.2514 124.804 92.7163C125.239 92.2043 125.739 91.7521 126.293 91.3712C126.869 91.0178 127.36 90.5409 127.73 89.9748C127.938 89.3433 128.005 88.6738 127.925 88.0137C127.872 87.348 127.907 86.6784 128.028 86.0217C128.198 85.3959 128.45 84.7953 128.777 84.2351C129.153 83.6613 129.389 83.0071 129.465 82.3253C129.387 81.6472 129.152 80.9966 128.777 80.4258C128.45 79.8657 128.198 79.265 128.028 78.6392C127.907 77.9826 127.872 77.3129 127.925 76.6473C128.006 75.9872 127.939 75.3175 127.73 74.6861C127.36 74.12 126.869 73.6431 126.293 73.2897C125.744 72.9145 125.247 72.4692 124.814 71.9652C124.422 71.4321 124.104 70.8484 123.869 70.23C123.655 69.5941 123.304 69.0125 122.843 68.5255C122.268 68.1845 121.628 67.9709 120.964 67.8992C120.305 67.8047 119.663 67.6217 119.054 67.355C118.478 67.0475 117.946 66.6641 117.473 66.2153C116.997 65.7294 116.418 65.3573 115.778 65.1269C115.125 65.0609 114.464 65.1452 113.848 65.3733C113.201 65.569 112.532 65.6829 111.856 65.7121C111.184 65.6838 110.518 65.5699 109.874 65.3733C109.37 65.2261 108.849 65.14 108.324 65.1166Z" fill="#1C2441"/>
<path d="M111.487 92.3261C116.812 92.3261 121.129 88.0095 121.129 82.6847C121.129 77.3599 116.812 73.0433 111.487 73.0433C106.162 73.0433 101.846 77.3599 101.846 82.6847C101.846 88.0095 106.162 92.3261 111.487 92.3261Z" fill="#00FCDC"/>
<path d="M111.035 87.5722C110.805 87.5733 110.586 87.4716 110.439 87.295L106.784 82.7053C106.523 82.3764 106.578 81.8983 106.907 81.6374C107.236 81.3766 107.714 81.4318 107.975 81.7607L110.993 85.5289L119.105 73.0947C119.241 72.8438 119.506 72.6902 119.791 72.697C120.076 72.7038 120.334 72.8699 120.458 73.127C120.581 73.3841 120.551 73.6889 120.378 73.9161L111.651 87.2642C111.52 87.4678 111.297 87.5944 111.055 87.603L111.035 87.5722Z" fill="#1C2441"/>
</svg>
