<svg width="102" height="20" viewBox="0 0 102 20" fill="none" xmlns="http://www.w3.org/2000/svg">
<path fill-rule="evenodd" clip-rule="evenodd" d="M98.5669 1.84748e-06H101.118C101.167 -0.000217765 101.214 0.0191498 101.249 0.0538243C101.284 0.0884987 101.303 0.135622 101.303 0.184771V19.633C101.303 19.7355 101.22 19.8186 101.118 19.8186H98.5669C98.4647 19.8181 98.3821 19.7352 98.3821 19.633V0.184771C98.3821 0.0827278 98.4649 1.84748e-06 98.5669 1.84748e-06ZM96.3437 2.55648L93.7922 6.18964C93.7704 6.22061 93.7587 6.25757 93.7587 6.29546V19.6993C93.7591 19.8015 93.8421 19.8841 93.9443 19.8841H96.4949C96.5967 19.8836 96.6792 19.8012 96.6796 19.6993V2.66314C96.6798 2.58248 96.6277 2.51102 96.5508 2.48661C96.4739 2.4622 96.3901 2.49049 96.3437 2.55648ZM50.2202 12.8966L55.7346 7.41161C55.7692 7.37721 55.816 7.35788 55.8648 7.35786H58.837C58.912 7.35838 58.9793 7.40398 59.0076 7.47343C59.0359 7.54288 59.0196 7.62254 58.9663 7.67532L49.9607 16.4878C49.9252 16.5228 49.9052 16.5706 49.9053 16.6205V19.6523C49.9048 19.7542 49.8223 19.8366 49.7205 19.8371H47.1699C47.068 19.8366 46.9856 19.7542 46.9851 19.6523V2.6875C46.9851 2.58545 47.0678 2.50273 47.1699 2.50273H49.7205C49.8225 2.50273 49.9053 2.58545 49.9053 2.6875V12.7656C49.9053 12.8402 49.9502 12.9074 50.0191 12.9361C50.0879 12.9647 50.1673 12.9492 50.2202 12.8966ZM20.7417 19.0275C20.7728 19.1045 20.7487 19.1927 20.6829 19.2433C20.3391 19.4924 19.9529 19.6771 19.5432 19.7884C19.0376 19.9305 18.5147 20.0012 17.9895 19.9984C16.6183 19.9984 15.559 19.6403 14.8115 18.9242C14.0641 18.2081 13.6903 17.1644 13.6903 15.7932V9.97313C13.6899 9.87096 13.6069 9.78837 13.5047 9.78837H11.8192C11.717 9.78837 11.634 9.70578 11.6336 9.6036V7.63669C11.6336 7.58754 11.6532 7.54042 11.688 7.50575C11.7228 7.47107 11.77 7.4517 11.8192 7.45193H13.5047C13.6069 7.45193 13.6899 7.36934 13.6903 7.26716V4.78627C13.6901 4.7372 13.7095 4.69007 13.7442 4.65537C13.7789 4.62067 13.826 4.60128 13.8751 4.6015H16.4257C16.4748 4.60128 16.5219 4.62067 16.5566 4.65537C16.5913 4.69007 16.6107 4.7372 16.6105 4.78627V7.26968C16.6109 7.37153 16.6934 7.45399 16.7952 7.45445H19.7666C19.8157 7.45422 19.863 7.47359 19.8978 7.50827C19.9326 7.54294 19.9522 7.59006 19.9522 7.63921V9.60612C19.9517 9.7083 19.8688 9.79089 19.7666 9.79089H16.7952C16.6934 9.79135 16.6109 9.8738 16.6105 9.97565V15.7252C16.6105 16.3333 16.7586 16.7969 17.0548 17.116C17.3509 17.4351 17.7793 17.5947 18.3397 17.5947C18.9052 17.5947 19.3892 17.4665 19.7918 17.2101C19.8381 17.181 19.8949 17.1741 19.9468 17.1911C19.9988 17.2082 20.0404 17.2474 20.0605 17.2982L20.7417 19.0275ZM2.25988 19.6019C1.36741 19.3567 0.641223 19.0532 0.0813282 18.6915C0.00358625 18.6393 -0.0224523 18.5369 0.0208595 18.4539L0.9766 16.5625C1.00002 16.5162 1.04195 16.4819 1.09202 16.4681C1.1421 16.4544 1.19565 16.4624 1.23947 16.4903C1.81648 16.8365 2.43813 17.1021 3.08712 17.2798C3.84264 17.5005 4.62553 17.6136 5.41264 17.6157C7.15672 17.6157 8.02903 17.156 8.02959 16.2367C8.02959 15.8011 7.80759 15.4973 7.3636 15.3254C6.9196 15.1536 6.20685 14.9901 5.22536 14.835C4.37581 14.7187 3.53615 14.539 2.71339 14.2975C2.07014 14.0961 1.49097 13.7295 1.03371 13.2342C0.558358 12.7303 0.320963 12.0257 0.321523 11.1204C0.321523 9.93618 0.81591 8.98996 1.80468 8.28169C2.79346 7.57342 4.12937 7.21901 5.81241 7.21845C6.67723 7.21956 7.53922 7.31731 8.38233 7.50988C9.16114 7.6868 9.81118 7.9186 10.3324 8.20526C10.4186 8.25419 10.4509 8.36239 10.4055 8.4505L9.4506 10.3401C9.42775 10.3841 9.3882 10.4171 9.34083 10.4316C9.29345 10.4461 9.24222 10.441 9.19865 10.4174C8.18132 9.85751 7.04586 9.57757 5.79225 9.57757C4.93561 9.57757 4.2853 9.70634 3.8413 9.96389C3.3973 10.2214 3.17531 10.5602 3.17531 10.9801C3.17531 11.4471 3.4127 11.778 3.88749 11.9728C4.36228 12.1676 5.09826 12.3507 6.09544 12.5221C6.92556 12.6405 7.7458 12.8202 8.54945 13.0596C9.17744 13.2554 9.74455 13.6094 10.1964 14.0875C10.6555 14.5707 10.8853 15.256 10.8859 16.1434C10.8859 17.3114 10.3795 18.2461 9.36662 18.9477C8.35377 19.6492 6.97531 19.9994 5.23124 19.9983C4.22748 20.0002 3.22804 19.8669 2.25988 19.6019ZM32.711 12.522C32.711 10.7466 32.2244 9.41883 31.2513 8.53868C30.2754 7.65852 28.8695 7.21844 27.0336 7.21844C26.0461 7.21264 25.0627 7.34638 24.1126 7.61569C23.3148 7.83445 22.5608 8.18931 21.8837 8.66465C21.809 8.71941 21.7864 8.82104 21.8308 8.90233L22.7949 10.6929C22.8211 10.7404 22.8668 10.7741 22.9199 10.7851C22.9731 10.7961 23.0284 10.7832 23.0712 10.75C23.54 10.4081 24.0622 10.1462 24.6166 9.97481C25.2835 9.75918 25.98 9.64923 26.6809 9.64895C27.7089 9.64895 28.4837 9.8827 29.0056 10.3502C29.5274 10.8177 29.7883 11.4874 29.7883 12.3591V12.5464H26.5641C24.7725 12.5447 23.4601 12.8835 22.627 13.5626C21.7938 14.2418 21.3773 15.1412 21.3773 16.261C21.3676 16.9467 21.5671 17.619 21.9492 18.1885C22.3311 18.7573 22.8725 19.2013 23.5735 19.5204C24.2745 19.839 25.0922 19.9986 26.0267 19.9992C26.9611 19.9997 27.7592 19.8558 28.421 19.5675C28.8786 19.3754 29.2906 19.0892 29.6304 18.7276C29.6815 18.6712 29.762 18.652 29.8331 18.6791C29.9042 18.7062 29.9515 18.7741 29.9521 18.8503V19.6506C29.9521 19.7527 30.0348 19.8354 30.1368 19.8354H32.5262C32.6282 19.8354 32.711 19.7527 32.711 19.6506V12.522ZM29.7749 15.9679C29.5522 16.5589 29.1317 17.0545 28.5848 17.3705C27.992 17.7112 27.3175 17.8843 26.6339 17.871C25.8858 17.8716 25.3019 17.7156 24.8819 17.4032C24.4732 17.116 24.236 16.6428 24.2504 16.1434C24.2532 15.0377 25.0944 14.4848 26.7741 14.4848H29.6035C29.7056 14.4848 29.7883 14.5675 29.7883 14.6695V15.8965C29.7885 15.921 29.7839 15.9452 29.7749 15.9679ZM37.0543 19.1812C36.0539 18.6627 35.2198 17.8731 34.6473 16.9027C34.0712 15.9296 33.7831 14.8277 33.7831 13.597C33.7831 12.3664 34.0712 11.2682 34.6473 10.3023C35.2204 9.33935 36.0496 8.55436 37.0425 8.03477C38.0632 7.48943 39.2275 7.21704 40.5354 7.2176C41.7672 7.2176 42.8458 7.46676 43.7713 7.96506C44.6243 8.41436 45.3238 9.108 45.7802 9.95717C45.8266 10.0455 45.7951 10.1548 45.7088 10.2049L43.7713 11.3353C43.6853 11.3872 43.5736 11.3611 43.5194 11.2766C43.2053 10.797 42.7786 10.4016 42.2764 10.1251C41.7339 9.836 41.1275 9.68758 40.5127 9.69346C39.4226 9.69346 38.5192 10.0476 37.8026 10.7559C37.0859 11.4641 36.7276 12.4106 36.7276 13.5954C36.7276 14.779 37.082 15.7252 37.7908 16.434C38.4996 17.1429 39.4069 17.4973 40.5127 17.4973C41.1276 17.5029 41.7339 17.3541 42.2764 17.0648C42.7796 16.791 43.2078 16.398 43.5236 15.92C43.5778 15.8356 43.6892 15.8092 43.7755 15.8604L45.7072 16.99C45.7498 17.0142 45.7812 17.0543 45.7942 17.1015C45.8073 17.1488 45.8011 17.1993 45.7769 17.242C45.3071 18.0903 44.603 18.7854 43.7487 19.2441C42.8215 19.748 41.7504 20 40.5354 20C39.2421 19.9989 38.0817 19.7259 37.0543 19.1812ZM55.0466 13.3233L53.272 15.0802C53.2023 15.1478 53.1965 15.2576 53.2585 15.3322L56.8489 19.7749C56.8839 19.8184 56.9367 19.8437 56.9925 19.8438H60.0739C60.1449 19.8441 60.2099 19.8036 60.2408 19.7396C60.2718 19.6756 60.2634 19.5996 60.2191 19.544L55.322 13.3484C55.2905 13.3061 55.2425 13.2791 55.1899 13.2743C55.1373 13.2695 55.0852 13.2873 55.0466 13.3233ZM71.6765 18.3128L72.8179 15.3271C72.8341 15.285 72.8344 15.2384 72.8187 15.1961L70.0162 7.50147C69.9896 7.42832 69.9201 7.37969 69.8423 7.37969H67.6461C67.5691 7.37969 67.5001 7.42759 67.4731 7.49979L64.2641 16.1031C64.2364 16.1759 64.1662 16.2237 64.0884 16.2228C64.0105 16.2218 63.9415 16.1724 63.9156 16.0989L61.0483 7.7845C61.0277 7.72411 60.9773 7.67867 60.9151 7.66431C60.8529 7.64996 60.7877 7.66873 60.7426 7.71395L58.9025 9.5616C58.8515 9.61268 58.8351 9.68889 58.8605 9.75645L62.5668 19.7405C62.5933 19.8132 62.6624 19.8614 62.7398 19.8614H65.2879C65.3644 19.8612 65.4329 19.8137 65.46 19.7422L68.512 11.7208C68.539 11.6487 68.608 11.6009 68.685 11.6009C68.762 11.6009 68.831 11.6487 68.858 11.7208L71.3305 18.3128C71.3576 18.3849 71.4265 18.4327 71.5035 18.4327C71.5806 18.4327 71.6495 18.3849 71.6765 18.3128ZM91.967 14.5318H82.5776C82.5204 14.5321 82.4665 14.5587 82.4315 14.604C82.3966 14.6493 82.3845 14.7082 82.3987 14.7636C82.5816 15.5485 83.0407 16.2416 83.6921 16.7162C84.416 17.2537 85.3155 17.5225 86.3905 17.5225C87.6894 17.5225 88.7723 17.1163 89.639 16.3039C89.6751 16.2685 89.7242 16.2495 89.7747 16.2514C89.8252 16.2533 89.8727 16.2759 89.9061 16.3139L91.2372 17.8441C91.2984 17.9141 91.2984 18.0186 91.2372 18.0885C90.6826 18.706 89.9904 19.1842 89.2166 19.4843C88.3599 19.8276 87.3941 19.9989 86.3191 19.9983C84.9485 19.9983 83.7413 19.7259 82.6977 19.1812C81.6894 18.6699 80.8499 17.8788 80.2798 16.9027C79.7115 15.9296 79.4271 14.8277 79.4265 13.5971C79.4265 12.3815 79.7031 11.2872 80.2563 10.3141C80.7954 9.35452 81.5926 8.56518 82.5574 8.03562C83.5389 7.49028 84.645 7.21789 85.8757 7.21845C87.0906 7.21845 88.1771 7.48692 89.1351 8.02386C90.0828 8.55155 90.8609 9.33803 91.3783 10.2914C91.9147 11.2651 92.1832 12.3905 92.1837 13.6676C92.1837 13.8356 92.1728 14.0665 92.151 14.3605C92.1435 14.4567 92.0636 14.5312 91.967 14.5318ZM83.5048 10.3838C82.9077 10.897 82.5048 11.5997 82.3634 12.3742C82.3534 12.4282 82.368 12.4839 82.4033 12.526C82.4386 12.5681 82.4908 12.5922 82.5457 12.5918H89.1863C89.2409 12.5923 89.2928 12.5686 89.3282 12.5271C89.3635 12.4856 89.3786 12.4305 89.3694 12.3768C89.2374 11.6088 88.8458 10.9094 88.26 10.3956C87.6211 9.83568 86.8266 9.55573 85.8765 9.55573C84.9415 9.55517 84.1509 9.8312 83.5048 10.3838ZM95.9436 0.116133C95.9752 0.178248 95.9691 0.252852 95.9279 0.30907L91.7254 6.06619C91.6905 6.11393 91.635 6.14228 91.5759 6.14261H80.5278C80.4508 6.14227 80.3818 6.18984 80.3548 6.26187L75.2645 19.7413C75.2368 19.8129 75.1682 19.8602 75.0915 19.8606H72.8886C72.8274 19.8609 72.77 19.8309 72.7354 19.7804C72.7007 19.73 72.6933 19.6656 72.7155 19.6086L78.6524 3.84312C78.6794 3.77093 78.7483 3.72306 78.8254 3.72303H90.5504C90.5882 3.72303 91.2488 2.79605 91.9093 1.86908C92.5698 0.942101 93.2304 0.015125 93.2682 0.015125H95.7784C95.8481 0.015125 95.912 0.0540188 95.9436 0.116133Z" fill="#2C3036"/>
</svg>
