<svg id="Layer_1" data-name="Layer 1" xmlns="http://www.w3.org/2000/svg" viewBox="0 0 1206.21 238.13"><defs><style>.cls-1{fill:#69f9de;}</style></defs><path class="cls-1" d="M73.8,301.84Q57.86,297.46,47.86,291a2.19,2.19,0,0,1-.72-2.83l11.38-22.52a2.19,2.19,0,0,1,3.13-.86,87.87,87.87,0,0,0,22,9.4,99.66,99.66,0,0,0,27.69,4q31.15,0,31.16-16.42,0-7.78-7.93-10.85t-25.46-5.84a204.86,204.86,0,0,1-29.91-6.4,45.88,45.88,0,0,1-20-12.66q-8.49-9-8.48-25.17,0-21.15,17.66-33.8t47.72-12.66a138.22,138.22,0,0,1,30.6,3.47q13.91,3.16,23.22,8.28a2.2,2.2,0,0,1,.87,2.92l-11.37,22.5a2.2,2.2,0,0,1-3,.92q-18.17-10-40.56-10-15.3,0-23.23,4.6t-7.93,12.1q0,8.34,8.48,11.82t26.29,6.54a202.68,202.68,0,0,1,29.22,6.4,45.71,45.71,0,0,1,19.61,12.24q8.2,8.63,8.21,24.48,0,20.86-18.09,33.39t-49.24,12.51A133.09,133.09,0,0,1,73.8,301.84Z" transform="translate(-46.89 -68.44)"/><path class="cls-1" d="M293.86,295a2.2,2.2,0,0,1-.7,2.57,41.8,41.8,0,0,1-13.57,6.49,67,67,0,0,1-18.5,2.5q-24.49,0-37.84-12.79T209.9,256.49v-69.3a2.21,2.21,0,0,0-2.21-2.2H187.62a2.21,2.21,0,0,1-2.21-2.2V159.37a2.2,2.2,0,0,1,2.21-2.2h20.07a2.21,2.21,0,0,0,2.21-2.2V125.43a2.19,2.19,0,0,1,2.2-2.2h30.37a2.19,2.19,0,0,1,2.2,2.2V155a2.21,2.21,0,0,0,2.2,2.2h35.38a2.2,2.2,0,0,1,2.21,2.2v23.42a2.21,2.21,0,0,1-2.21,2.2H246.87a2.21,2.21,0,0,0-2.2,2.2v68.46q0,10.86,5.29,16.56t15.3,5.7q10.1,0,17.29-4.58a2.19,2.19,0,0,1,3.2,1.05Z" transform="translate(-46.89 -68.44)"/><path class="cls-1" d="M419,170.11q17.38,15.72,17.38,47.43v84.88a2.2,2.2,0,0,1-2.2,2.2H405.73a2.2,2.2,0,0,1-2.2-2.2v-9.53a2.2,2.2,0,0,0-3.83-1.46,42.16,42.16,0,0,1-14.4,10q-11.82,5.15-28.51,5.14t-29.21-5.7q-12.52-5.7-19.34-15.86a40.17,40.17,0,0,1-6.81-22.95q0-20,14.88-32.13t46.88-12.1h38.39v-2.23q0-15.57-9.32-23.92t-27.68-8.35A80,80,0,0,0,340,187.21a62.6,62.6,0,0,0-18.4,9.23,2.21,2.21,0,0,1-3.29-.68l-11.48-21.32a2.2,2.2,0,0,1,.63-2.83A85.57,85.57,0,0,1,334,159.12a124.84,124.84,0,0,1,34.78-4.73Q401.57,154.39,419,170.11ZM387.25,275.27a32.53,32.53,0,0,0,14.17-16.7,2.25,2.25,0,0,0,.16-.85V243.11a2.2,2.2,0,0,0-2.2-2.2H365.69q-30,0-30.05,19.75a17.71,17.71,0,0,0,7.52,15q7.5,5.58,20.86,5.57A44.87,44.87,0,0,0,387.25,275.27Z" transform="translate(-46.89 -68.44)"/><path class="cls-1" d="M488.1,296.83a71.45,71.45,0,0,1-28.66-27.13q-10.29-17.38-10.29-39.36t10.29-39.23a72.08,72.08,0,0,1,28.52-27q18.23-9.74,41.59-9.73,22,0,38.53,8.9A57.67,57.67,0,0,1,592,187a2.22,2.22,0,0,1-.85,2.95l-23.07,13.46a2.21,2.21,0,0,1-3-.7A41.78,41.78,0,0,0,550.28,189a43.76,43.76,0,0,0-21-5.14q-19.47,0-32.27,12.65t-12.8,33.81q0,21.14,12.66,33.8t32.41,12.66a43.77,43.77,0,0,0,21-5.15A41.66,41.66,0,0,0,565.13,258a2.22,2.22,0,0,1,3-.71l23,13.45a2.2,2.2,0,0,1,.83,3,60.11,60.11,0,0,1-24.15,23.84q-16.56,9-38.26,9Q506.45,306.56,488.1,296.83Z" transform="translate(-46.89 -68.44)"/><path class="cls-1" d="M710.52,156.69,644.86,222a2.2,2.2,0,0,1-3.75-1.56v-120a2.2,2.2,0,0,0-2.2-2.2H608.54a2.2,2.2,0,0,0-2.2,2.2v202a2.21,2.21,0,0,0,2.2,2.2h30.37a2.21,2.21,0,0,0,2.2-2.2v-36.1a2.22,2.22,0,0,1,.66-1.58L749,159.83a2.21,2.21,0,0,0-1.54-3.78H712.07A2.2,2.2,0,0,0,710.52,156.69Z" transform="translate(-46.89 -68.44)"/><path class="cls-1" d="M702.33,227.08,681.2,248a2.21,2.21,0,0,0-.16,3l42.75,52.9a2.2,2.2,0,0,0,1.71.82h36.69a2.2,2.2,0,0,0,1.73-3.57l-58.31-73.77A2.21,2.21,0,0,0,702.33,227.08Z" transform="translate(-46.89 -68.44)"/><path class="cls-1" d="M913.93,250.94l-13.59,35.55a2.2,2.2,0,0,1-4.12,0L866.78,208a2.2,2.2,0,0,0-4.12,0l-36.34,95.51a2.2,2.2,0,0,1-2.05,1.42H793.93a2.19,2.19,0,0,1-2.06-1.44L747.74,184.61a2.19,2.19,0,0,1,.5-2.32l21.91-22a2.2,2.2,0,0,1,3.64.84l34.14,99a2.21,2.21,0,0,0,4.15.05l38.21-102.44a2.2,2.2,0,0,1,2.06-1.43H878.5a2.2,2.2,0,0,1,2.07,1.45l33.37,91.62A2.21,2.21,0,0,1,913.93,250.94Z" transform="translate(-46.89 -68.44)"/><path class="cls-1" d="M1141.94,241.47h-111.8a2.21,2.21,0,0,0-2.13,2.76,40,40,0,0,0,15.4,23.25q12.93,9.6,32.13,9.6,23.2,0,38.68-14.51a2.19,2.19,0,0,1,3.18.12l15.85,18.22a2.21,2.21,0,0,1,0,2.91,62.92,62.92,0,0,1-24.06,16.62q-15.3,6.13-34.5,6.12-24.48,0-43.12-9.73a70,70,0,0,1-28.79-27.13q-10.15-17.38-10.16-39.36,0-21.71,9.88-39.09a70.13,70.13,0,0,1,27.4-27.13q17.53-9.74,39.51-9.73,21.7,0,38.81,9.59a68.06,68.06,0,0,1,26.71,27q9.58,17.39,9.59,40.2,0,3-.39,8.25A2.21,2.21,0,0,1,1141.94,241.47Zm-100.76-49.39a40.94,40.94,0,0,0-13.59,23.7,2.19,2.19,0,0,0,2.17,2.59h79.07a2.19,2.19,0,0,0,2.18-2.56,40.51,40.51,0,0,0-13.21-23.59q-11.41-10-28.38-10Q1052.72,182.21,1041.18,192.08Z" transform="translate(-46.89 -68.44)"/><path class="cls-1" d="M1163.68,142.14l30.38-43.26a2.2,2.2,0,0,1,4,1.27V303a2.21,2.21,0,0,1-2.2,2.2h-30.37a2.21,2.21,0,0,1-2.21-2.2V143.4A2.19,2.19,0,0,1,1163.68,142.14Z" transform="translate(-46.89 -68.44)"/><path class="cls-1" d="M1220.53,68.44h30.37a2.2,2.2,0,0,1,2.21,2.2V302.21a2.21,2.21,0,0,1-2.21,2.21h-30.37a2.21,2.21,0,0,1-2.2-2.21V70.64A2.2,2.2,0,0,1,1220.53,68.44Z" transform="translate(-46.89 -68.44)"/><path class="cls-1" d="M1189.1,72.12a2.2,2.2,0,0,0-1.78-3.5h-29.89c-.9,0-31.46,44.15-32.36,44.15H985.46a2.2,2.2,0,0,0-2.06,1.43L912.71,301.92a2.2,2.2,0,0,0,2.06,3H941a2.22,2.22,0,0,0,2.06-1.42L1003.67,143a2.19,2.19,0,0,1,2.06-1.42h131.55a2.22,2.22,0,0,0,1.78-.91Z" transform="translate(-46.89 -68.44)"/></svg>