<svg width="20" height="20" viewBox="0 0 20 20" fill="none" xmlns="http://www.w3.org/2000/svg">
<path fill-rule="evenodd" clip-rule="evenodd" d="M10 20C4.477 20 0 15.523 0 10C0 4.477 4.477 0 10 0C15.523 0 20 4.477 20 10C20 15.523 15.523 20 10 20ZM10 2C5.582 2 2 5.582 2 10C2 12.289 2.96201 14.354 4.50301 15.812C5.31401 14.147 7.023 13 9 13H11.5C13.342 13 14.926 14.107 15.622 15.692C17.09 14.241 18 12.227 18 10C18 5.582 14.418 2 10 2ZM13.942 16.963C13.696 15.84 12.696 15 11.5 15H9C7.686 15 6.56899 15.845 6.16299 17.022C7.30199 17.645 8.61 18 10 18C11.433 18 12.779 17.623 13.942 16.963ZM10 12C7.791 12 6 10.209 6 8C6 5.791 7.791 4 10 4C12.209 4 14 5.791 14 8C14 10.209 12.209 12 10 12ZM10 6C8.895 6 8 6.895 8 8C8 9.105 8.895 10 10 10C11.105 10 12 9.105 12 8C12 6.895 11.105 6 10 6Z" fill="#0C1329"/>
</svg>
