<svg width="18" height="12" viewBox="0 0 18 12" fill="none" xmlns="http://www.w3.org/2000/svg">
<path fill-rule="evenodd" clip-rule="evenodd" d="M0 9.66667C0 4.60406 4.02944 0.5 9 0.5C13.9706 0.5 18 4.60406 18 9.66667V10.5833C18 11.0896 17.5971 11.5 17.1 11.5C16.6029 11.5 16.2 11.0896 16.2 10.5833V9.66667C16.2 5.61658 12.9764 2.33333 9 2.33333C5.02355 2.33333 1.8 5.61658 1.8 9.66667V10.5833C1.8 11.0896 1.39706 11.5 0.9 11.5C0.402944 11.5 0 11.0896 0 10.5833V9.66667ZM12.24 5.26667C12.6376 5.57042 12.7182 6.14499 12.42 6.55L10.6556 8.94606C10.7486 9.16726 10.8 9.41084 10.8 9.66667C10.8 10.6792 9.99411 11.5 9 11.5C8.00589 11.5 7.2 10.6792 7.2 9.66667C7.2 8.65415 8.00589 7.83333 9 7.83333C9.0729 7.83333 9.1448 7.83775 9.21543 7.84633L10.98 5.45C11.2782 5.04499 11.8424 4.96291 12.24 5.26667Z" fill="#2D9F98"/>
</svg>
