<svg width="16" height="16" viewBox="0 0 16 16" fill="none" xmlns="http://www.w3.org/2000/svg">
<path fill-rule="evenodd" clip-rule="evenodd" d="M1.6 1.99966C1.6 1.77904 1.77879 1.6 2 1.6H9.6C10.0418 1.6 10.4 1.95817 10.4 2.4V10.4H7.51787C7.05416 10.4 6.67826 10.7759 6.67826 11.2396V11.7217C6.67826 13.2009 5.47916 14.4 4 14.4C2.67452 14.4 1.6 13.3255 1.6 12V11.2V9.6V8.18286V1.99966ZM0 9.6V8.18286V1.99966C0 0.894797 0.895725 0 2 0H9.6C10.9255 0 12 1.07452 12 2.4V10.4H15.1604C15.6241 10.4 16 10.7759 16 11.2396C16 13.879 13.8187 16 11.2 16H4C1.82142 16 0.0496237 14.2583 0.00102433 12.0914H0V12V11.2V9.6ZM11.2 14.4H7.33643C7.87133 13.7345 8.21122 12.9056 8.26936 12H11.6H12H14.3053C13.9571 13.3724 12.6909 14.4 11.2 14.4ZM4 7.2C3.55817 7.2 3.2 7.55817 3.2 8C3.2 8.44183 3.55817 8.8 4 8.8H8C8.44183 8.8 8.8 8.44183 8.8 8C8.8 7.55817 8.44183 7.2 8 7.2H4ZM3.2 4.8C3.2 4.35817 3.55817 4 4 4H8C8.44183 4 8.8 4.35817 8.8 4.8C8.8 5.24183 8.44183 5.6 8 5.6H4C3.55817 5.6 3.2 5.24183 3.2 4.8Z" fill="#0C1329"/>
</svg>
