<svg width="18" height="12" viewBox="0 0 18 12" fill="none" xmlns="http://www.w3.org/2000/svg">
<path fill-rule="evenodd" clip-rule="evenodd" d="M0 9.66667C0 4.60406 4.02944 0.5 9 0.5C13.9706 0.5 18 4.60406 18 9.66667V10.5833C18 11.0896 17.5971 11.5 17.1 11.5C16.6029 11.5 16.2 11.0896 16.2 10.5833V9.66667C16.2 5.61658 12.9764 2.33333 9 2.33333C5.02355 2.33333 1.8 5.61658 1.8 9.66667V10.5833C1.8 11.0896 1.39706 11.5 0.9 11.5C0.402944 11.5 0 11.0896 0 10.5833V9.66667ZM5.76 5.26667C6.15764 4.96291 6.72177 5.04499 7.02 5.45L8.78457 7.84633C8.8552 7.83775 8.9271 7.83333 9 7.83333C9.99411 7.83333 10.8 8.65415 10.8 9.66667C10.8 10.6792 9.99411 11.5 9 11.5C8.00589 11.5 7.2 10.6792 7.2 9.66667C7.2 9.41084 7.25144 9.16726 7.34437 8.94606L5.58 6.55C5.28177 6.14499 5.36235 5.57042 5.76 5.26667Z" fill="#2D9F98"/>
</svg>
