<svg width="20" height="18" viewBox="0 0 20 18" fill="none" xmlns="http://www.w3.org/2000/svg">
<path fill-rule="evenodd" clip-rule="evenodd" d="M9.51445 0.125843C9.81647 -0.0419476 10.1837 -0.0419476 10.4857 0.125843L19.4857 5.12584C19.8841 5.34714 20.0824 5.80974 19.9681 6.25084C19.8538 6.69195 19.4558 7 19.0001 7H18.0001V16H19.0001C19.5524 16 20.0001 16.4477 20.0001 17C20.0001 17.5523 19.5524 18 19.0001 18H1.00009C0.447809 18 9.34899e-05 17.5523 9.34899e-05 17C9.34899e-05 16.4477 0.447809 16 1.00009 16H2.00009V7H1.00009C0.544418 7 0.146368 6.69195 0.0320645 6.25084C-0.0822372 5.80974 0.116119 5.34714 0.51445 5.12584L9.51445 0.125843ZM4.00009 16H6.50009V7H4.00009V16ZM8.50009 16H11.5001V7H8.50009V16ZM13.5001 16H16.0001V7H13.5001V16ZM15.141 5H12.5001H7.50009H4.85922L10.0001 2.14396L15.141 5Z" fill="#AFE9E5"/>
</svg>
