<svg width="12" height="18" viewBox="0 0 12 18" fill="none" xmlns="http://www.w3.org/2000/svg">
<path fill-rule="evenodd" clip-rule="evenodd" d="M7.8668 16.2V14.787C7.8668 14.661 7.8668 14.526 7.8668 14.4H3.93365C3.94222 14.49 3.94221 14.571 3.94221 14.661V16.2H7.8668ZM8.98076 10.224C8.58659 10.971 8.29524 11.772 8.10673 12.6H6.94135V9.657L7.8668 7.587C8.06388 7.137 7.8925 6.606 7.47262 6.39C7.06132 6.174 6.55575 6.363 6.35866 6.813L5.96449 7.695L5.28754 6.678C5.01333 6.273 4.49063 6.183 4.12216 6.471C3.74513 6.759 3.65944 7.326 3.93365 7.722L5.27897 9.738V12.6H3.72799C3.57375 11.826 3.32525 11.079 2.99106 10.368L2.14273 8.559C0.686012 5.463 2.77684 1.8 5.99876 1.8C9.31495 1.8 11.3886 5.652 9.75197 8.757L8.98076 10.224ZM5.99876 0C1.53434 0 -1.36197 5.076 0.651736 9.369L1.50006 11.178C2.00563 12.258 2.27127 13.455 2.27127 14.661V16.263C2.27127 17.226 2.99106 18 3.88223 18H8.02961C8.8608 18 9.52917 17.28 9.52917 16.38V14.787C9.52917 13.5 9.84623 12.231 10.4375 11.115L11.2087 9.648C13.4795 5.346 10.5917 0 5.99876 0Z" fill="#0C1329"/>
</svg>
