<svg width="134" height="150" viewBox="0 0 134 150" fill="none" xmlns="http://www.w3.org/2000/svg">
<path d="M82.8492 7.09167H15.7288C12.0665 7.09167 9.09766 10.0606 9.09766 13.7229V135.919C9.09766 139.581 12.0665 142.55 15.7288 142.55H82.8492C86.5115 142.55 89.4804 139.581 89.4804 135.919V13.7229C89.4804 10.0606 86.5115 7.09167 82.8492 7.09167Z" fill="#EDEDED"/>
<path d="M88.4351 0.757263H21.3148C17.6525 0.757263 14.6836 3.72615 14.6836 7.38845V129.585C14.6836 133.247 17.6525 136.216 21.3148 136.216H88.4351C92.0974 136.216 95.0663 133.247 95.0663 129.585V7.38845C95.0663 3.72615 92.0974 0.757263 88.4351 0.757263Z" fill="white"/>
<path d="M81.6739 0.757263V5.77159C81.6739 8.76134 79.2502 11.185 76.2605 11.185H33.4955C30.5057 11.185 28.082 8.76134 28.082 5.77159V0.757263" fill="white"/>
<path d="M76.2605 11.9424H33.4955C30.1044 11.9424 27.3555 9.19332 27.3555 5.80229V0.757266C27.3555 0.339039 27.6945 0 28.1127 0C28.531 0 28.87 0.339039 28.87 0.757266V5.77159C28.8756 8.33912 30.9586 10.4175 33.5262 10.4175H76.2605C78.824 10.4119 80.9008 8.33513 80.9064 5.77159V0.757266C80.9513 0.370214 81.2792 0.078242 81.6688 0.078242C82.0585 0.078242 82.3863 0.370214 82.4313 0.757266V5.77159C82.4394 7.41067 81.7919 8.98498 80.6329 10.144C79.4739 11.303 77.8996 11.9505 76.2605 11.9424Z" fill="#1C2441"/>
<path d="M88.4346 136.973H21.3142C19.3556 136.976 17.4763 136.2 16.0904 134.816C14.7045 133.432 13.9258 131.553 13.9258 129.595V7.38846C13.9258 3.30792 17.2337 0 21.3142 0H88.4346C92.5128 0.00563677 95.8174 3.31026 95.823 7.38846V129.595C95.8174 133.671 92.5111 136.973 88.4346 136.973ZM21.3142 1.52476C18.0742 1.52476 15.446 4.14837 15.4403 7.38846V129.595C15.446 132.835 18.0742 135.458 21.3142 135.458H88.4346C91.6707 135.453 94.2926 132.831 94.2983 129.595V7.38846C94.2926 4.15237 91.6707 1.5304 88.4346 1.52476H21.3142Z" fill="#1C2441"/>
<path d="M36.2675 52.4867C40.5854 52.4867 44.0857 48.9864 44.0857 44.6685C44.0857 40.3506 40.5854 36.8502 36.2675 36.8502C31.9496 36.8502 28.4492 40.3506 28.4492 44.6685C28.4492 48.9864 31.9496 52.4867 36.2675 52.4867Z" fill="#EDEDED"/>
<path d="M36.2669 53.2132C31.5308 53.2132 27.6914 49.3738 27.6914 44.6377C27.6914 39.9016 31.5308 36.0622 36.2669 36.0622C41.0031 36.0622 44.8425 39.9016 44.8425 44.6377C44.8425 46.9121 43.939 49.0933 42.3307 50.7015C40.7225 52.3097 38.5413 53.2132 36.2669 53.2132ZM36.2669 37.5869C33.4092 37.5828 30.8307 39.3017 29.7352 41.9411C28.6396 44.5805 29.2431 47.6201 31.2638 49.6408C33.2846 51.6616 36.3241 52.265 38.9635 51.1695C41.603 50.074 43.3218 47.4955 43.3177 44.6377C43.2952 40.758 40.1467 37.6232 36.2669 37.6177V37.5869Z" fill="#1C2441"/>
<path d="M43.7072 8.57553C45.1483 8.57553 46.3166 7.40722 46.3166 5.96603C46.3166 4.52485 45.1483 3.35654 43.7072 3.35654C42.266 3.35654 41.0977 4.52485 41.0977 5.96603C41.0977 7.40722 42.266 8.57553 43.7072 8.57553Z" fill="#3A506B"/>
<path d="M66.414 41.3426H55.2597C54.8381 41.3371 54.4977 40.9967 54.4922 40.5751C54.4978 40.1553 54.8398 39.8178 55.2597 39.8179H66.414C66.8322 39.8179 67.1713 40.1569 67.1713 40.5751C67.1713 40.9951 66.8339 41.337 66.414 41.3426Z" fill="#3A506B"/>
<path d="M73.8536 45.8043H55.2597C54.8398 45.8043 54.4978 45.4669 54.4922 45.047C54.4977 44.6255 54.8381 44.2851 55.2597 44.2795H73.8536C74.2735 44.2851 74.6109 44.6271 74.6109 45.047C74.6109 45.2479 74.5311 45.4405 74.3891 45.5825C74.2471 45.7245 74.0545 45.8043 73.8536 45.8043Z" fill="#3A506B"/>
<path d="M36.2675 78.5407C40.5854 78.5407 44.0857 75.0404 44.0857 70.7225C44.0857 66.4046 40.5854 62.9042 36.2675 62.9042C31.9496 62.9042 28.4492 66.4046 28.4492 70.7225C28.4492 75.0404 31.9496 78.5407 36.2675 78.5407Z" fill="#4FCBC2"/>
<path d="M36.2669 79.298C31.5308 79.298 27.6914 75.4586 27.6914 70.7225C27.6914 65.9864 31.5308 62.147 36.2669 62.147C41.0031 62.147 44.8425 65.9864 44.8425 70.7225C44.8368 75.4563 41.0007 79.2924 36.2669 79.298ZM36.2669 63.6717C32.3729 63.6717 29.2162 66.8285 29.2162 70.7225C29.2162 74.6165 32.3729 77.7733 36.2669 77.7733C40.161 77.7733 43.3177 74.6165 43.3177 70.7225C43.3121 66.8308 40.1586 63.6774 36.2669 63.6717Z" fill="#1C2441"/>
<path d="M66.4155 67.3864H55.2612C54.8429 67.3864 54.5039 67.0474 54.5039 66.6292C54.5039 66.2109 54.8429 65.8719 55.2612 65.8719H66.4155C66.8337 65.8719 67.1728 66.2109 67.1728 66.6292C67.1728 67.0474 66.8337 67.3864 66.4155 67.3864Z" fill="#3A506B"/>
<path d="M73.8536 71.8584H55.2597C54.8381 71.8529 54.4977 71.5125 54.4922 71.0909C54.4978 70.671 54.8398 70.3336 55.2597 70.3336H73.8536C74.2719 70.3336 74.6109 70.6727 74.6109 71.0909C74.6109 71.5108 74.2735 71.8528 73.8536 71.8584Z" fill="#3A506B"/>
<path d="M26.985 20.4666H72.3596V27.1695H25.4806V22.0016C25.4753 21.5982 25.631 21.2093 25.9134 20.9211C26.1958 20.6329 26.5816 20.4693 26.985 20.4666Z" fill="#00FCDC"/>
<path d="M75.3398 23.4752H29.9448C29.5265 23.4752 29.1875 23.1362 29.1875 22.718C29.1875 22.2997 29.5265 21.9607 29.9448 21.9607H75.3398C75.758 21.9607 76.097 22.2997 76.097 22.718C76.097 23.1362 75.758 23.4752 75.3398 23.4752Z" fill="#3A506B"/>
<path d="M67.8996 6.35489H50.0424C49.7719 6.35489 49.5219 6.21056 49.3866 5.97626C49.2513 5.74196 49.2513 5.45329 49.3866 5.219C49.5219 4.9847 49.7719 4.84036 50.0424 4.84036H67.8996C68.3178 4.84036 68.6568 5.1794 68.6568 5.59763C68.6568 6.01585 68.3178 6.35489 67.8996 6.35489Z" fill="#3A506B"/>
<path d="M62.9241 112.362L58.227 114.398L49.9688 95.395L54.6761 93.3483" fill="#EDEDED"/>
<path d="M58.2257 115.166C58.1269 115.166 58.0292 115.145 57.9392 115.104C57.7533 115.034 57.605 114.889 57.5299 114.705L49.2716 95.702C49.1862 95.5137 49.1805 95.2989 49.2556 95.1063C49.3307 94.9136 49.4804 94.7595 49.6707 94.6787L54.3678 92.632C54.7427 92.5156 55.145 92.7009 55.3003 93.0614C55.4555 93.422 55.3137 93.8416 54.9715 94.034L50.9703 95.7839L58.6146 113.395L62.6261 111.656C63.001 111.539 63.4033 111.725 63.5586 112.085C63.7138 112.446 63.572 112.865 63.2298 113.058L58.5225 115.104C58.4288 115.145 58.3278 115.166 58.2257 115.166Z" fill="#1C2441"/>
<path d="M66.8021 85.8756L53.8672 91.4918L63.7342 114.217L76.6691 108.601L66.8021 85.8756Z" fill="white"/>
<path d="M63.7345 114.982C63.643 114.996 63.5498 114.996 63.4582 114.982C63.2726 114.902 63.1232 114.756 63.0387 114.572L53.2147 91.7929C53.1287 91.6058 53.1215 91.3921 53.1946 91.1997C53.2677 91.0073 53.4151 90.8523 53.6035 90.7695L66.518 85.1821C66.705 85.0962 66.9188 85.0889 67.1112 85.1621C67.3036 85.2352 67.4586 85.3825 67.5413 85.571L77.4062 108.299C77.4916 108.488 77.4974 108.702 77.4223 108.895C77.3471 109.088 77.1975 109.242 77.0072 109.323L64.0415 114.92C63.9441 114.96 63.8399 114.981 63.7345 114.982ZM54.8725 91.885L64.1336 113.221L75.6666 108.207L66.4566 86.8809L54.8725 91.885Z" fill="#1C2441"/>
<path d="M110.356 101.453L76.4833 108.176L66.9766 86.2976L95.0261 66.1482" fill="#EDEDED"/>
<path d="M76.4824 108.944C76.1792 108.944 75.9054 108.762 75.7865 108.483L66.2798 86.6045C66.1401 86.2754 66.2462 85.8935 66.5356 85.6836L94.5749 65.4932C94.7934 65.2948 95.1063 65.2393 95.3797 65.3504C95.6531 65.4615 95.8386 65.7195 95.8568 66.014C95.8751 66.3086 95.7228 66.5875 95.4652 66.7314L67.9273 86.5636L76.9327 107.317L110.201 100.706C110.399 100.664 110.606 100.703 110.776 100.814C110.945 100.926 111.062 101.101 111.102 101.3C111.183 101.715 110.913 102.118 110.498 102.2L76.6257 108.923L76.4824 108.944Z" fill="#1C2441"/>
<path d="M72.4089 110.448C74.8137 116.087 79.388 123.455 81.6189 125.266L73.3197 128.858L66.4531 113.048" fill="#3A506B"/>
<path d="M73.3106 129.625C73.219 129.64 73.1258 129.64 73.0343 129.625C72.8487 129.545 72.6992 129.4 72.6147 129.216L65.7481 113.395C65.6628 113.207 65.657 112.992 65.7321 112.8C65.8073 112.607 65.9569 112.453 66.1472 112.372C66.3352 112.284 66.5511 112.276 66.7446 112.352C66.9381 112.427 67.0921 112.579 67.1706 112.771L73.679 127.916L80.2385 125.061C77.7723 122.36 73.8529 115.851 71.6835 110.806C71.5671 110.431 71.7523 110.029 72.1129 109.874C72.4734 109.719 72.893 109.86 73.0854 110.203C75.4084 115.667 79.9418 122.994 82.0601 124.724C82.2663 124.892 82.3677 125.157 82.3261 125.42C82.2945 125.684 82.1223 125.911 81.8759 126.013L73.5869 129.615C73.4961 129.635 73.4026 129.638 73.3106 129.625Z" fill="#1C2441"/>
<path d="M103.93 72.718C108.563 71.6136 113.321 73.9922 115.218 78.3612C117.116 82.7302 115.605 87.8308 111.635 90.4626" fill="#00FCDC"/>
<path d="M111.636 91.2198C111.381 91.2194 111.144 91.0929 111.001 90.8821C110.788 90.5384 110.883 90.0878 111.216 89.8588C114.899 87.4417 116.309 82.7249 114.556 78.6834C112.803 74.6418 108.396 72.448 104.114 73.4855C103.725 73.5368 103.36 73.2863 103.268 72.9047C103.176 72.5231 103.386 72.1335 103.756 72.0016C108.712 70.891 113.758 73.4542 115.784 78.1112C117.811 82.7681 116.246 88.2077 112.055 91.0766C111.932 91.163 111.786 91.2126 111.636 91.2198Z" fill="#1C2441"/>
<path d="M99.3665 62.1851L94.2695 64.3981L111.114 103.193L116.211 100.98L99.3665 62.1851Z" fill="white"/>
<path d="M111.114 103.96C110.81 103.96 110.537 103.779 110.418 103.5L93.5737 64.7053C93.4847 64.5187 93.4759 64.3038 93.5494 64.1105C93.6228 63.9173 93.7721 63.7624 93.9625 63.682L99.0792 61.4716C99.266 61.3948 99.4756 61.3948 99.6625 61.4716C99.8504 61.5481 100.001 61.695 100.082 61.8809L116.926 100.675C117.018 100.863 117.027 101.08 116.951 101.275C116.875 101.469 116.721 101.623 116.527 101.699L111.41 103.919C111.315 103.953 111.214 103.967 111.114 103.96ZM95.2724 64.7974L111.543 102.19L115.248 100.594L98.9666 63.1908L95.2724 64.7974Z" fill="#1C2441"/>
<path d="M121.543 76.842C121.238 76.8473 120.961 76.6642 120.847 76.3815C120.755 76.1953 120.744 75.9792 120.818 75.7851C120.892 75.5909 121.043 75.4362 121.236 75.3582L132.349 70.6099C132.724 70.4935 133.126 70.6788 133.282 71.0393C133.437 71.3999 133.295 71.8195 132.953 72.0119L121.85 76.7499C121.755 76.8005 121.65 76.8318 121.543 76.842Z" fill="#1C2441"/>
<path d="M120.16 73.6799C120.069 73.6992 119.975 73.6992 119.884 73.6799C119.684 73.6101 119.523 73.4589 119.441 73.2638C119.359 73.0687 119.364 72.848 119.454 72.6565L122.135 65.8514C122.207 65.6536 122.359 65.4949 122.553 65.4133C122.747 65.3318 122.966 65.3348 123.158 65.4216C123.356 65.4934 123.515 65.6455 123.595 65.8404C123.675 66.0352 123.668 66.2548 123.578 66.4449L120.897 73.2501C120.763 73.5312 120.471 73.7017 120.16 73.6799Z" fill="#1C2441"/>
<path d="M129.728 82.7159C129.632 82.7152 129.538 82.6943 129.451 82.6545L122.646 79.9734C122.256 79.8208 122.064 79.381 122.216 78.991C122.369 78.601 122.809 78.4086 123.199 78.5612L129.963 81.2423C130.159 81.3171 130.316 81.4688 130.397 81.6621C130.478 81.8554 130.477 82.0734 130.393 82.2657C130.276 82.5307 130.017 82.7055 129.728 82.7159Z" fill="#1C2441"/>
<path d="M72.7795 87.6995L92.1614 72.9226C92.6034 72.5873 93.1801 72.4859 93.71 72.6504C94.2398 72.8148 94.6578 73.2249 94.8323 73.7515L95.7533 76.5145C96.026 77.2901 95.7079 78.1499 94.9961 78.5612L74.7034 90.5342C74.2583 90.7992 73.717 90.8482 73.2317 90.6671C72.7463 90.4861 72.3692 90.0947 72.2064 89.6029C71.9676 88.9112 72.1985 88.1443 72.7795 87.6995Z" fill="white"/>
<path d="M9.06804 122.094H59.3341C61.2444 122.094 62.793 120.545 62.793 118.635V111.983C62.793 110.073 61.2444 108.524 59.3341 108.524H9.06804C7.15776 108.524 5.60918 110.073 5.60918 111.983V118.635C5.60918 120.545 7.15776 122.094 9.06804 122.094Z" fill="#EDEDED"/>
<path d="M59.3542 122.861H9.06769C6.74152 122.856 4.85719 120.971 4.85156 118.645V111.993C4.85156 109.663 6.73753 107.773 9.06769 107.767H59.3542C61.6884 107.767 63.5806 109.659 63.5806 111.993V118.645C63.5749 120.975 61.6844 122.861 59.3542 122.861ZM9.06769 109.292C7.57564 109.292 6.36609 110.501 6.36609 111.993V118.645C6.37173 120.133 7.57963 121.336 9.06769 121.336H59.3542C60.8423 121.336 62.0502 120.133 62.0558 118.645V111.993C62.0558 110.501 60.8463 109.292 59.3542 109.292H9.06769Z" fill="#1C2441"/>
<path d="M4.22429 135.673H54.4904C56.4006 135.673 57.9492 134.125 57.9492 132.214V125.563C57.9492 123.653 56.4006 122.104 54.4904 122.104H4.22429C2.31401 122.104 0.765427 123.653 0.765427 125.563V132.214C0.765427 134.125 2.31401 135.673 4.22429 135.673Z" fill="#3A506B"/>
<path d="M54.4924 136.431H4.21613C1.88996 136.425 0.00562558 134.541 0 132.215V125.563C0 123.233 1.88597 121.342 4.21613 121.336H54.4924C56.8226 121.342 58.7086 123.233 58.7086 125.563V132.215C58.7029 134.541 56.8186 136.425 54.4924 136.431ZM4.21613 122.861C2.72808 122.867 1.52476 124.075 1.52476 125.563V132.215C1.52476 133.701 2.72973 134.906 4.21613 134.906H54.4924C55.9788 134.906 57.1838 133.701 57.1838 132.215V125.563C57.1838 124.075 55.9805 122.867 54.4924 122.861H4.21613Z" fill="#1C2441"/>
<path d="M9.06804 149.243H59.3341C61.2444 149.243 62.793 147.694 62.793 145.784V139.132C62.793 137.222 61.2444 135.673 59.3341 135.673H9.06804C7.15776 135.673 5.60918 137.222 5.60918 139.132V145.784C5.60918 147.694 7.15776 149.243 9.06804 149.243Z" fill="#4FCBC2"/>
<path d="M59.3542 150H9.06769C6.74152 149.994 4.85719 148.11 4.85156 145.784V139.173C4.85156 136.843 6.73753 134.952 9.06769 134.947H59.3542C61.6804 134.958 63.5601 136.847 63.5601 139.173V145.825C63.5322 148.131 61.6606 149.989 59.3542 150ZM9.06769 136.431C8.34403 136.431 7.6506 136.721 7.14275 137.236C6.63491 137.752 6.35513 138.45 6.36578 139.173V145.825C6.37171 147.315 7.57797 148.521 9.06769 148.526H59.3542C60.8463 148.526 62.0561 147.317 62.0561 145.825V139.173C62.0668 138.45 61.787 137.752 61.2792 137.236C60.7713 136.721 60.0779 136.431 59.3542 136.431H9.06769Z" fill="#1C2441"/>
<path d="M53.9802 84.4761C53.9802 96.05 46.1221 106.146 34.9025 108.988C23.6829 111.83 11.966 106.692 6.45629 96.5134C0.946528 86.3351 3.05047 73.7153 11.5642 65.875C20.078 58.0346 32.8281 56.9754 42.5189 63.3033C49.6697 67.9726 53.9802 75.9359 53.9802 84.4761Z" fill="#00FCDC"/>
<path d="M28.6528 110.52C14.2759 110.492 2.64138 98.8189 2.66018 84.442C2.67902 70.0651 14.3441 58.4229 28.721 58.4323C43.0979 58.4417 54.7478 70.0991 54.7478 84.4761C54.6804 98.8516 43.0285 110.481 28.6528 110.52ZM28.6528 59.9366C16.4549 59.9265 6.09805 68.8703 4.33149 80.9396C2.56493 93.0089 9.92406 104.546 21.6132 108.032C33.3023 111.518 45.7787 105.897 50.9119 94.832C56.0451 83.7668 52.2794 70.611 42.0687 63.9378C38.0785 61.3343 33.4172 59.9477 28.6528 59.9468V59.9366Z" fill="#1C2441"/>
<path d="M44.1164 72.1346C44.1189 81.4204 39.0318 89.9605 30.8653 94.3802C22.6988 98.7999 12.7669 98.3881 4.99438 93.3074C1.17668 83.0722 4.3633 71.5426 12.8953 64.7207C21.4274 57.8987 33.3756 57.3271 42.52 63.3033C43.5738 66.1285 44.1144 69.1193 44.1164 72.1346Z" fill="white"/>
<path d="M28.6537 110.52C14.2685 110.497 2.62372 98.8204 2.64064 84.4352C2.65761 70.0499 14.3299 58.4005 28.7151 58.4118C43.1004 58.4231 54.7543 70.0908 54.7487 84.476C54.7261 98.8703 43.048 110.526 28.6537 110.52ZM28.6537 59.9365C15.0896 59.9365 4.09377 70.9324 4.09377 84.4965C4.09377 98.0606 15.0896 109.056 28.6537 109.056C42.2178 109.056 53.2137 98.0606 53.2137 84.4965C53.2081 70.9364 42.2138 59.9468 28.6537 59.9468V59.9365Z" fill="#1C2441"/>
<path d="M30.8126 94.6172H26.0029C22.8818 94.6172 20.4258 92.8776 20.4258 90.6569V89.0299C20.4314 88.61 20.7734 88.2726 21.1933 88.2726C21.6115 88.2726 21.9505 88.6116 21.9505 89.0299V90.6263C21.9505 91.9464 23.8028 93.0618 26.0439 93.0618H30.8535C33.0435 93.0618 34.9469 91.9464 34.9469 90.6263V88.1703C34.9469 87.1469 33.8417 86.2362 32.2555 85.878L24.4065 84.1383C22.0836 83.6267 20.5179 82.0917 20.5179 80.3725V77.8755C20.5179 75.6651 22.9739 73.9255 26.095 73.9255H30.9047C33.9747 73.9255 36.4716 75.6651 36.4716 77.8755V79.4719C36.5057 79.7654 36.3683 80.0524 36.1183 80.2098C35.8683 80.3673 35.5502 80.3673 35.3002 80.2098C35.0502 80.0524 34.9128 79.7654 34.9469 79.4719V77.8755C34.9469 76.5554 33.0946 75.44 30.8535 75.44H26.0439C23.8437 75.44 21.9505 76.5554 21.9505 77.8755V80.3725C21.9505 81.3958 23.0557 82.3066 24.6419 82.6545L32.4909 84.3942C34.8138 84.9058 36.3795 86.4408 36.3795 88.1703V90.6569C36.3795 92.8776 33.9338 94.6172 30.8126 94.6172Z" fill="#1C2441"/>
<path d="M28.4081 100.655C27.9882 100.655 27.6462 100.318 27.6406 99.8976V70.2926C27.6461 69.8711 27.9866 69.5307 28.4081 69.5251C28.828 69.5307 29.1654 69.8727 29.1654 70.2926V99.8976C29.1654 100.316 28.8264 100.655 28.4081 100.655Z" fill="#1C2441"/>
</svg>
