<svg width="18" height="18" viewBox="0 0 18 18" fill="none" xmlns="http://www.w3.org/2000/svg">
<path fill-rule="evenodd" clip-rule="evenodd" d="M8.56293 1.01328C8.83474 0.862272 9.16526 0.862272 9.43707 1.01328L17.537 5.51324C17.8955 5.7124 18.074 6.12874 17.9711 6.52573C17.8683 6.92272 17.51 7.19997 17.0999 7.19997H16.1999V15.2999H17.0999C17.597 15.2999 17.9999 15.7028 17.9999 16.1999C17.9999 16.6969 17.597 17.0999 17.0999 17.0999H0.900076C0.403025 17.0999 8.41401e-05 16.6969 8.41401e-05 16.1999C8.41401e-05 15.7028 0.403025 15.2999 0.900076 15.2999H1.80007V7.19997H0.900076C0.489972 7.19997 0.13173 6.92272 0.0288578 6.52573C-0.0740128 6.12874 0.104506 5.7124 0.463001 5.51324L8.56293 1.01328ZM3.60005 15.2999H5.85003V7.19997H3.60005V15.2999ZM7.65001 15.2999H10.35V7.19997H7.65001V15.2999ZM12.15 15.2999H14.3999V7.19997H12.15V15.2999ZM13.6267 5.39998H11.25H6.75002H4.37326L9 2.82957L13.6267 5.39998Z" fill="#2D9F98"/>
</svg>
