<svg width="39" height="14" viewBox="0 0 39 14" fill="none" xmlns="http://www.w3.org/2000/svg">
<path fill-rule="evenodd" clip-rule="evenodd" d="M17 14L3 14C1.34315 14 0 12.6569 0 11V3C0 1.34315 1.34314 0 3 0H17C18.6569 0 20 1.34315 20 3V11C20 12.6569 18.6569 14 17 14ZM17 12C17.5523 12 18 11.5523 18 11V9.53545C16.6381 9.73025 15.5291 10.7091 15.1449 12H17ZM13.0907 12L6.90931 12C6.46846 9.59993 4.46958 7.74497 2 7.52242L2 6.47758C4.46958 6.25503 6.46845 4.40007 6.90931 2L13.0907 2C13.5315 4.40007 15.5304 6.25503 18 6.47758V7.52242C15.5304 7.74497 13.5315 9.59993 13.0907 12ZM2 9.53545C3.36188 9.73025 4.47086 10.7091 4.85506 12H3C2.44771 12 2 11.5523 2 11L2 9.53545ZM18 3V4.46456C16.6381 4.26975 15.5291 3.29095 15.1449 2L17 2C17.5523 2 18 2.44771 18 3ZM2 4.46456C3.36188 4.26976 4.47086 3.29095 4.85506 2L3 2C2.44771 2 2 2.44772 2 3L2 4.46456ZM12 7C12 5.89543 11.1046 5 10 5C8.89543 5 8 5.89543 8 7C8 8.10457 8.89543 9 10 9C11.1046 9 12 8.10457 12 7ZM33.2511 11.7559C33.5858 12.0814 34.1285 12.0814 34.4632 11.7559L38.7489 7.58925C39.0837 7.26382 39.0837 6.73618 38.7489 6.41074L34.4632 2.24408C34.1285 1.91864 33.5858 1.91864 33.251 2.24408C32.9163 2.56951 32.9163 3.09715 33.251 3.42259L36.9307 7L33.2511 10.5774C32.9163 10.9028 32.9163 11.4305 33.2511 11.7559ZM27.2511 11.7559C27.5858 12.0814 28.1285 12.0814 28.4632 11.7559L32.7489 7.58926C33.0837 7.26382 33.0837 6.73618 32.7489 6.41074L28.4632 2.24408C28.1285 1.91864 27.5858 1.91864 27.2511 2.24408C26.9163 2.56951 26.9163 3.09715 27.2511 3.42259L30.9307 7L27.2511 10.5774C26.9163 10.9028 26.9163 11.4305 27.2511 11.7559Z" fill="#0C1329"/>
</svg>
