<svg width="34" height="14" viewBox="0 0 34 14" fill="none" xmlns="http://www.w3.org/2000/svg">
<path fill-rule="evenodd" clip-rule="evenodd" d="M16.0556 13.5L2.83333 13.5C1.26853 13.5 0 12.2528 0 10.7143V3.28572C0 1.74721 1.26853 0.5 2.83333 0.5H16.0556C17.6204 0.5 18.8889 1.74721 18.8889 3.28571V10.7143C18.8889 12.2528 17.6204 13.5 16.0556 13.5ZM16.0556 11.6429C16.5772 11.6429 17 11.2271 17 10.7143V9.35434C15.7138 9.53523 14.6664 10.4441 14.3036 11.6429H16.0556ZM12.3634 11.6429L6.52546 11.6429C6.1091 9.41422 4.22127 7.69175 1.88889 7.48511L1.88889 6.51489C4.22127 6.30825 6.1091 4.58578 6.52546 2.35714L12.3634 2.35714C12.7798 4.58578 14.6676 6.30824 17 6.51489V7.48511C14.6676 7.69176 12.7798 9.41422 12.3634 11.6429ZM1.88889 9.35434C3.17511 9.53523 4.22248 10.4441 4.58534 11.6429H2.83333C2.31173 11.6429 1.88889 11.2271 1.88889 10.7143L1.88889 9.35434ZM17 3.28571V4.64566C15.7138 4.46477 14.6664 3.55588 14.3036 2.35714L16.0556 2.35714C16.5772 2.35714 17 2.77288 17 3.28571ZM1.88889 4.64566C3.17511 4.46477 4.22248 3.55588 4.58534 2.35714L2.83333 2.35714C2.31173 2.35714 1.88889 2.77288 1.88889 3.28572L1.88889 4.64566ZM11.3333 7C11.3333 5.97433 10.4876 5.14286 9.44445 5.14286C8.40124 5.14286 7.55556 5.97433 7.55556 7C7.55556 8.02567 8.40124 8.85714 9.44445 8.85714C10.4876 8.85714 11.3333 8.02567 11.3333 7ZM28.5704 11.4162C28.8866 11.7184 29.3991 11.7184 29.7153 11.4162L33.7629 7.54719C34.079 7.245 34.079 6.75505 33.7629 6.45286L29.7153 2.58381C29.3991 2.28162 28.8866 2.28162 28.5704 2.58381C28.2543 2.886 28.2543 3.37595 28.5704 3.67814L32.0456 7.00003L28.5704 10.3219C28.2543 10.6241 28.2543 11.114 28.5704 11.4162ZM22.9038 11.4162C23.2199 11.7184 23.7325 11.7184 24.0486 11.4162L28.0962 7.54719C28.4124 7.245 28.4124 6.75505 28.0962 6.45286L24.0486 2.58381C23.7325 2.28162 23.2199 2.28162 22.9038 2.58381C22.5876 2.886 22.5876 3.37595 22.9038 3.67814L26.379 7.00003L22.9038 10.3219C22.5876 10.6241 22.5876 11.114 22.9038 11.4162Z" fill="#2A2C2C"/>
</svg>
