<svg width="20" height="20" viewBox="0 0 20 20" fill="none" xmlns="http://www.w3.org/2000/svg">
<path fill-rule="evenodd" clip-rule="evenodd" d="M17 0H3C1.34315 0 0 1.34315 0 3V17C0 18.6569 1.34315 20 3 20H17C18.6569 20 20 18.6569 20 17V3C20 1.34315 18.6569 0 17 0ZM2 3C2 2.44772 2.44772 2 3 2H17C17.5523 2 18 2.44772 18 3V17C18 17.5523 17.5523 18 17 18H3C2.44772 18 2 17.5523 2 17V3ZM14.1121 5.75385C14.0038 5.32741 13.6295 5.02185 13.19 5.00111C12.7505 4.98037 12.3491 5.24932 12.2011 5.66366L10.1536 11.3967L8.33143 7.57007C8.17139 7.23398 7.83791 7.0146 7.46593 7.0007C7.09394 6.98679 6.74502 7.18066 6.56033 7.50386L5.13396 10H4C3.44772 10 3 10.4477 3 11C3 11.5523 3.44772 12 4 12H5.71429C6.07314 12 6.40449 11.8077 6.58253 11.4961L7.34795 10.1566L9.38285 14.4299C9.55659 14.7948 9.93282 15.0192 10.3364 14.9987C10.74 14.9782 11.0915 14.7169 11.2275 14.3363L12.9812 9.4259L13.3165 10.7462C13.4291 11.1896 13.8282 11.5 14.2857 11.5H16C16.5523 11.5 17 11.0523 17 10.5C17 9.94772 16.5523 9.5 16 9.5H15.0635L14.1121 5.75385Z" fill="white"/>
</svg>
