<svg width="18" height="21" viewBox="0 0 18 21" fill="none" xmlns="http://www.w3.org/2000/svg">
<path fill-rule="evenodd" clip-rule="evenodd" d="M16.941 6.78101L10.968 1.711C9.814 0.732004 8.11 0.765999 6.996 1.79L0.97 7.331C0.352 7.899 0 8.70001 0 9.53901V18.001C0 19.658 1.343 21.001 3 21.001H15C16.657 21.001 18 19.658 18 18.001V9.068C18 8.187 17.613 7.35101 16.941 6.78101ZM8.35 3.262C8.721 2.921 9.289 2.91 9.674 3.236L15.647 8.30601C15.871 8.49601 16 8.774 16 9.068V18.001C16 18.554 15.552 19.001 15 19.001H13C13 18.999 13 18.996 13 18.994V14.028C13 12.924 12.105 12.028 11 12.028H7C5.895 12.028 5 12.924 5 14.028V18.994C5 18.996 5 18.999 5 19.001H3C2.448 19.001 2 18.554 2 18.001V9.53901C2 9.25901 2.117 8.992 2.323 8.803L8.35 3.262ZM7 14.028H11V18.994H7V14.028Z" fill="#A1A4A4"/>
</svg>
