<svg width="18" height="12" viewBox="0 0 18 12" fill="none" xmlns="http://www.w3.org/2000/svg">
<path fill-rule="evenodd" clip-rule="evenodd" d="M0 9.66667C0 4.60406 4.02944 0.5 9 0.5C13.9706 0.5 18 4.60406 18 9.66667V10.5833C18 11.0896 17.5971 11.5 17.1 11.5C16.6029 11.5 16.2 11.0896 16.2 10.5833V9.66667C16.2 5.61658 12.9764 2.33333 9 2.33333C5.02355 2.33333 1.8 5.61658 1.8 9.66667V10.5833C1.8 11.0896 1.39706 11.5 0.9 11.5C0.402944 11.5 0 11.0896 0 10.5833V9.66667ZM9 4.16667C9.49706 4.16667 9.9 4.57707 9.9 5.08333V8.0786C10.438 8.39559 10.8 8.98808 10.8 9.66667C10.8 10.6792 9.99411 11.5 9 11.5C8.00589 11.5 7.2 10.6792 7.2 9.66667C7.2 8.98808 7.56198 8.39559 8.1 8.0786V5.08333C8.1 4.57707 8.50294 4.16667 9 4.16667Z" fill="#2D9F98"/>
</svg>
