<svg width="18" height="18" viewBox="0 0 18 18" fill="none" xmlns="http://www.w3.org/2000/svg">
<path fill-rule="evenodd" clip-rule="evenodd" d="M15.2729 1.12586C15.8451 1.44313 16.2 2.04582 16.2 2.70003V6.00366C17.2487 6.37431 18 7.37443 18 8.55003C18 9.72562 17.2487 10.7257 16.2 11.0964V14.4C16.2 15.0542 15.8451 15.6569 15.2729 15.9742C14.7008 16.2915 14.0016 16.2733 13.4467 15.9268L11.6767 14.8217C10.2942 13.9585 8.77866 13.3465 7.2 13.0059V16.2C7.2 16.6971 6.79706 17.1 6.3 17.1H3.6C3.10294 17.1 2.7 16.6971 2.7 16.2V12.4327C1.12345 11.8478 0 10.3301 0 8.55002C0 6.26357 1.85354 4.41003 4.14 4.41003H4.23779C6.8681 4.41003 9.44557 3.67144 11.6767 2.27836L13.4467 1.17321C14.0016 0.826725 14.7008 0.808599 15.2729 1.12586ZM4.5 12.6925V15.3H5.4V12.7382C5.10112 12.7134 4.80097 12.6981 4.5 12.6925ZM14.4 2.70003L12.63 3.80518L12.6 3.82387C10.0899 5.38339 7.1934 6.21003 4.23779 6.21003H4.14C2.84765 6.21003 1.8 7.25768 1.8 8.55002C1.8 9.84237 2.84765 10.89 4.14 10.89H4.23779C7.1934 10.89 10.0899 11.7167 12.6 13.2762L12.63 13.2949L14.4 14.4V12.278V4.82208V2.70003Z" fill="#2D9F98"/>
</svg>
