<svg width="18" height="18" viewBox="0 0 18 18" fill="none" xmlns="http://www.w3.org/2000/svg">
<path fill-rule="evenodd" clip-rule="evenodd" d="M1.83138 0.76001C0.819938 0.76001 0 1.57995 0 2.59139V15.4111C0 16.4145 0.807038 17.2295 1.80746 17.2423C1.82182 17.2427 1.83613 17.2428 1.8504 17.2425H10.5272C10.5283 17.2425 10.5293 17.2425 10.5303 17.2425L13.9697 17.2425C14.7784 17.2425 15.4914 16.712 15.7238 15.9374L17.9216 8.61181C18.2431 7.54012 17.5394 6.46213 16.4825 6.2808V5.33847C16.4825 4.32702 15.6625 3.50709 14.6511 3.50709H10.0437L8.30356 1.41897C7.95561 1.00143 7.44017 0.76001 6.89665 0.76001H1.83138ZM14.6511 6.25416V5.33847H9.61477C9.34301 5.33847 9.08529 5.21776 8.91131 5.00899L6.89665 2.59139H1.83138V11.6572L2.61763 7.72635C2.78885 6.87033 3.54047 6.25416 4.41344 6.25416L14.6511 6.25416ZM2.94819 15.4111H11.4461L13.9697 15.4111L16.1674 8.08555L4.41344 8.08554L2.94819 15.4111Z" fill="#2D9F98"/>
</svg>
