<svg width="18" height="18" viewBox="0 0 18 18" fill="none" xmlns="http://www.w3.org/2000/svg">
<path fill-rule="evenodd" clip-rule="evenodd" d="M9 9V1.8324C12.8007 2.1726 15.8274 5.1993 16.1676 9H9ZM8.2836 0C7.6851 0 7.2 0.485095 7.2 1.0836V1.84949C3.15 2.29679 0 5.7303 0 9.9C0 14.3739 3.6261 18 8.1 18C12.2697 18 15.7032 14.85 16.1505 10.8H16.9164C17.5149 10.8 18 10.3149 18 9.7164C18 4.3497 13.6503 0 8.2836 0ZM14.3361 10.8C13.8996 13.8528 11.2734 16.2 8.1 16.2C4.6206 16.2 1.8 13.3794 1.8 9.9C1.8 6.7266 4.1472 4.1004 7.2 3.6639V9C7.2 9.9945 8.0055 10.8 9 10.8H14.3361Z" fill="#2D9F98"/>
</svg>
