<svg width="20" height="20" viewBox="0 0 20 20" fill="none" xmlns="http://www.w3.org/2000/svg">
<path fill-rule="evenodd" clip-rule="evenodd" d="M10 10V2.036C14.223 2.414 17.586 5.777 17.964 10H10ZM9.204 0C8.539 0 8 0.538995 8 1.20399V2.05499C3.5 2.55199 0 6.367 0 11C0 15.971 4.029 20 9 20C13.633 20 17.448 16.5 17.945 12H18.796C19.461 12 20 11.461 20 10.796C20 4.83301 15.167 0 9.204 0ZM15.929 12C15.444 15.392 12.526 18 9 18C5.134 18 2 14.866 2 11C2 7.474 4.608 4.556 8 4.071V10C8 11.105 8.895 12 10 12H15.929Z" fill="#AFE9E5"/>
</svg>
