<svg width="18" height="18" viewBox="0 0 18 18" fill="none" xmlns="http://www.w3.org/2000/svg">
<path fill-rule="evenodd" clip-rule="evenodd" d="M3.8579 4.85118C3.5096 5.20581 3.51474 5.77563 3.86936 6.12392C4.22399 6.47221 4.79381 6.46708 5.1421 6.11246L8.1 3.10078V11.7C8.1 12.1971 8.50294 12.6 9 12.6C9.49706 12.6 9.9 12.1971 9.9 11.7V3.10078L12.8579 6.11246C13.2062 6.46708 13.776 6.47221 14.1306 6.12392C14.4853 5.77563 14.4904 5.20581 14.1421 4.85118L9.6421 0.269363C9.47288 0.0970606 9.2415 0 9 0C8.75849 0 8.52712 0.0970606 8.3579 0.269363L3.8579 4.85118ZM1.8 9C1.8 8.50294 1.39706 8.1 0.9 8.1C0.402944 8.1 0 8.50294 0 9V17.1C0 17.5971 0.402944 18 0.9 18H17.1C17.5971 18 18 17.5971 18 17.1V9C18 8.50294 17.5971 8.1 17.1 8.1C16.6029 8.1 16.2 8.50294 16.2 9V16.2H1.8V9Z" fill="#0C1329"/>
</svg>
