<svg width="121" height="150" viewBox="0 0 121 150" fill="none" xmlns="http://www.w3.org/2000/svg">
<path d="M53.4887 56.385H9.08313C6.66412 56.385 4.70312 58.346 4.70312 60.765V141.593C4.70312 144.012 6.66412 145.973 9.08313 145.973H53.4887C55.9077 145.973 57.8687 144.012 57.8687 141.593V60.765C57.8687 58.346 55.9077 56.385 53.4887 56.385Z" fill="#EDEDED"/>
<path d="M49.5414 50.7233H5.13586C2.71685 50.7233 0.755859 52.6843 0.755859 55.1033V135.931C0.755859 138.35 2.71685 140.311 5.13586 140.311H49.5414C51.9604 140.311 53.9214 138.35 53.9214 135.931V55.1033C53.9214 52.6843 51.9604 50.7233 49.5414 50.7233Z" fill="white"/>
<path d="M49.5324 141.068H5.12682C2.29373 141.063 0 138.765 0 135.931V55.1134C0 52.2747 2.29824 49.9719 5.13692 49.9664H49.5425C52.3828 49.9719 54.6839 52.2731 54.6895 55.1134V135.931C54.6868 137.297 54.142 138.605 53.1748 139.568C52.2077 140.531 50.8975 141.071 49.5324 141.068ZM5.13692 51.4701C3.13431 51.4757 1.51383 53.1007 1.51383 55.1033V135.921C1.51383 137.922 3.13594 139.545 5.13692 139.545H49.5425C51.5451 139.545 53.1701 137.924 53.1757 135.921V55.1134C53.1757 53.1068 51.549 51.4802 49.5425 51.4802L5.13692 51.4701Z" fill="#0B132B"/>
<path d="M45.0622 50.7233V54.0335C45.0649 54.9845 44.6883 55.8974 44.0158 56.5698C43.3434 57.2423 42.4305 57.6189 41.4795 57.6162H13.2214C12.2704 57.6189 11.3576 57.2423 10.6851 56.5698C10.0126 55.8974 9.63601 54.9845 9.63869 54.0335V50.7233" fill="white"/>
<path d="M41.4786 58.3731H13.2205C10.8261 58.3676 8.88641 56.4279 8.88086 54.0335V50.7233C8.88086 50.3053 9.21974 49.9664 9.63777 49.9664C10.0558 49.9664 10.3947 50.3053 10.3947 50.7233V54.0335C10.3947 55.5942 11.6598 56.8593 13.2205 56.8593H41.4786C43.0392 56.8593 44.3044 55.5942 44.3044 54.0335V50.7233C44.3044 50.3053 44.6433 49.9664 45.0613 49.9664C45.4793 49.9664 45.8182 50.3053 45.8182 50.7233V54.0335C45.8127 56.4279 43.873 58.3676 41.4786 58.3731Z" fill="#1C2441"/>
<path d="M49.5324 141.068H5.12682C2.29373 141.063 0 138.765 0 135.931V55.1134C0 52.2747 2.29824 49.9719 5.13692 49.9664H49.5425C52.3828 49.9719 54.6839 52.2731 54.6895 55.1134V135.931C54.6868 137.297 54.142 138.605 53.1748 139.568C52.2077 140.531 50.8975 141.071 49.5324 141.068ZM5.13692 51.4701C3.13431 51.4757 1.51383 53.1007 1.51383 55.1033V135.921C1.51383 137.922 3.13594 139.545 5.13692 139.545H49.5425C51.5451 139.545 53.1701 137.924 53.1757 135.921V55.1134C53.1757 53.1068 51.549 51.4802 49.5425 51.4802L5.13692 51.4701Z" fill="#0B132B"/>
<path d="M19.9523 55.9006C20.9054 55.9006 21.6781 55.128 21.6781 54.1749C21.6781 53.2217 20.9054 52.4491 19.9523 52.4491C18.9992 52.4491 18.2266 53.2217 18.2266 54.1749C18.2266 55.128 18.9992 55.9006 19.9523 55.9006Z" fill="#3A506B"/>
<path d="M35.9495 54.6794H24.1417C23.7236 54.6794 23.3848 54.3405 23.3848 53.9225C23.3848 53.5045 23.7236 53.1656 24.1417 53.1656H35.9495C36.3676 53.1656 36.7064 53.5045 36.7064 53.9225C36.7064 54.3405 36.3676 54.6794 35.9495 54.6794Z" fill="#3A506B"/>
<path d="M116.11 6.41864H71.7042C69.2852 6.41864 67.3242 8.37963 67.3242 10.7986V91.6269C67.3242 94.0459 69.2852 96.0069 71.7042 96.0069H116.11C118.529 96.0069 120.49 94.0459 120.49 91.6269V10.7986C120.49 8.37963 118.529 6.41864 116.11 6.41864Z" fill="#EDEDED"/>
<path d="M112.164 0.756927H67.7589C65.3399 0.756927 63.3789 2.71792 63.3789 5.13693V85.9651C63.3789 88.3842 65.3399 90.3452 67.7589 90.3452H112.164C114.583 90.3452 116.544 88.3842 116.544 85.9651V5.13693C116.544 2.71792 114.583 0.756927 112.164 0.756927Z" fill="white"/>
<path d="M112.164 91.1021H67.7583C64.9219 91.0965 62.6224 88.8015 62.6113 85.9652V5.13694C62.614 3.77186 63.1588 2.46376 64.126 1.5004C65.0931 0.537045 66.4034 -0.00265945 67.7684 9.85458e-06H112.174C115.009 0.00557266 117.305 2.3022 117.311 5.13694V85.9652C117.305 88.8038 115.003 91.1021 112.164 91.1021ZM67.7684 1.51385C65.7658 1.51385 64.1408 3.13433 64.1352 5.13694V85.9652C64.1408 87.9678 65.7658 89.5882 67.7684 89.5882H112.174C114.175 89.5882 115.797 87.9661 115.797 85.9652V5.13694C115.797 3.13596 114.175 1.51385 112.174 1.51385H67.7684Z" fill="#0B132B"/>
<path d="M107.684 0.756927V4.03688C107.684 6.01557 106.08 7.61966 104.101 7.61966H75.8431C74.8895 7.62498 73.973 7.24989 73.2967 6.57741C72.6205 5.90494 72.2402 4.99059 72.2402 4.03688V0.756927" fill="white"/>
<path d="M104.1 8.40681H75.8423C74.6835 8.40951 73.5714 7.94966 72.7529 7.12926C71.9344 6.30886 71.4771 5.19576 71.4825 4.0369V0.756944C71.4825 0.338912 71.8214 3.05176e-05 72.2394 3.05176e-05C72.6575 3.05176e-05 72.9963 0.338912 72.9963 0.756944V4.0369C73.0019 5.59525 74.2638 6.85717 75.8221 6.86271H104.08C104.842 6.88176 105.579 6.59247 106.124 6.06045C106.67 5.52843 106.977 4.79875 106.977 4.0369V0.756944C106.977 0.338912 107.316 3.05176e-05 107.734 3.05176e-05C108.152 3.05176e-05 108.491 0.338912 108.491 0.756944V4.0369C108.496 5.20104 108.035 6.31879 107.209 7.14007C106.384 7.96136 105.265 8.41763 104.1 8.40681Z" fill="#1C2441"/>
<path d="M112.164 91.1021H67.7583C64.9219 91.0965 62.6224 88.8015 62.6113 85.9652V5.13694C62.614 3.77186 63.1588 2.46376 64.126 1.5004C65.0931 0.537045 66.4034 -0.00265945 67.7684 9.85458e-06H112.174C115.009 0.00557266 117.305 2.3022 117.311 5.13694V85.9652C117.305 88.8038 115.003 91.1021 112.164 91.1021ZM67.7684 1.51385C65.7658 1.51385 64.1408 3.13433 64.1352 5.13694V85.9652C64.1408 87.9678 65.7658 89.5882 67.7684 89.5882H112.174C114.175 89.5882 115.797 87.9661 115.797 85.9652V5.13694C115.797 3.13596 114.175 1.51385 112.174 1.51385H67.7684Z" fill="#0B132B"/>
<path d="M82.5851 5.92412C83.5382 5.92412 84.3109 5.15147 84.3109 4.19836C84.3109 3.24524 83.5382 2.4726 82.5851 2.4726C81.632 2.4726 80.8594 3.24524 80.8594 4.19836C80.8594 5.15147 81.632 5.92412 82.5851 5.92412Z" fill="#3A506B"/>
<path d="M98.5797 4.71308H86.7921C86.374 4.71308 86.0352 4.37419 86.0352 3.95616C86.0352 3.53813 86.374 3.19925 86.7921 3.19925H98.5797C98.9978 3.19925 99.3366 3.53813 99.3366 3.95616C99.3366 4.37419 98.9978 4.71308 98.5797 4.71308Z" fill="#3A506B"/>
<path d="M43.8101 112.386H12.2619C9.358 112.386 7.00391 114.741 7.00391 117.644V120.067C7.00391 122.971 9.358 125.325 12.2619 125.325H43.8101C46.714 125.325 49.0681 122.971 49.0681 120.067V117.644C49.0681 114.741 46.714 112.386 43.8101 112.386Z" fill="#00FCDC"/>
<path d="M16.3894 129.462V117.937C16.3894 117.303 16.0509 116.716 15.5013 116.399C14.9518 116.082 14.2747 116.082 13.7251 116.399C13.1755 116.716 12.837 117.303 12.837 117.937V133.015C12.5426 133.292 12.14 133.425 11.7384 133.376C11.3367 133.327 10.9775 133.102 10.758 132.763L9.335 130.552C7.912 128.605 5.74219 129.695 5.74219 130.552C5.74219 130.552 8.4368 136.84 8.8203 137.445C9.51666 138.535 10.3745 139.534 11.1011 140.604C12.1103 142.047 11.9489 143.057 11.9489 144.803C11.9489 144.994 11.9993 145.176 11.9993 145.368C11.9993 150.777 25.0485 150.303 25.2201 145.368C25.2201 145.237 25.2201 145.105 25.2201 144.964C25.0893 143.854 25.2784 142.73 25.7651 141.724C26.4324 140.841 26.8538 139.796 26.9862 138.697V130.351C26.946 129.394 26.1858 128.625 25.2302 128.574H23.4741C23.4335 127.615 22.6675 126.844 21.708 126.798H19.9318C19.4936 126.263 18.8464 125.944 18.1556 125.92H16.3894" fill="#EDEDED"/>
<path d="M18.2979 150H18.0153C13.9785 149.919 11.2233 148.052 11.2435 145.358C11.2484 145.304 11.2484 145.25 11.2435 145.196C11.233 145.062 11.233 144.927 11.2435 144.792V144.318C11.4003 143.171 11.1465 142.006 10.5269 141.028C10.204 140.554 9.85076 140.09 9.51771 139.625C9.18467 139.161 8.64979 138.475 8.25619 137.849C7.8626 137.223 5.50103 131.915 5.04688 130.855L4.98633 130.714V130.552C5.09352 129.72 5.70423 129.041 6.52034 128.847C7.81757 128.451 9.21952 128.967 9.95168 130.108L11.405 132.359C11.553 132.579 11.827 132.677 12.0811 132.601V117.937C11.9956 116.982 12.4569 116.06 13.2729 115.556C14.0888 115.052 15.1195 115.052 15.9355 115.556C16.7514 116.06 17.2127 116.982 17.1272 117.937V125.143H18.1364C18.929 125.169 19.6855 125.481 20.2659 126.021H21.6889C22.7745 126.074 23.7217 126.775 24.0908 127.797H25.2312C26.6103 127.844 27.7174 128.951 27.7644 130.33V138.677C27.6849 139.738 27.3148 140.758 26.6946 141.624C26.6038 141.765 26.523 141.906 26.4423 142.047C26.0306 142.918 25.8765 143.888 25.9982 144.843C26.0098 144.974 26.0098 145.106 25.9982 145.237C25.9928 145.27 25.9928 145.304 25.9982 145.337C25.8771 148.436 22.0825 150 18.2979 150ZM6.56071 130.532C7.82223 133.469 9.23513 136.678 9.45716 137.032C9.82048 137.607 10.2242 138.142 10.6581 138.707C11.0921 139.272 11.3848 139.716 11.7279 140.19C12.5362 141.41 12.8932 142.874 12.7371 144.328V144.803C12.7371 144.853 12.7371 144.914 12.7371 144.964C12.7466 145.098 12.7466 145.233 12.7371 145.368C12.7371 147.447 15.3813 148.395 18.0254 148.486C21.1439 148.537 24.3734 147.376 24.444 145.307C24.439 145.216 24.439 145.125 24.444 145.035C24.4497 145.001 24.4497 144.967 24.444 144.934C24.3098 143.689 24.5339 142.432 25.0899 141.311C25.1707 141.159 25.2615 141.008 25.3523 140.867C25.8257 140.232 26.1218 139.483 26.2102 138.697V130.351C26.1593 129.816 25.7359 129.392 25.201 129.341H22.7183V128.584C22.6637 128.051 22.2422 127.63 21.7091 127.575H19.5191L19.297 127.232C19.0016 126.911 18.5921 126.719 18.1566 126.697H17.1575V129.483C17.1575 129.901 16.8186 130.24 16.4006 130.24C15.9825 130.24 15.6437 129.901 15.6437 129.483V117.937C15.6437 117.38 15.1918 116.928 14.6344 116.928C14.0771 116.928 13.6252 117.38 13.6252 117.937V133.338L13.3931 133.56C12.9391 134.018 12.3022 134.245 11.6609 134.178C11.0196 134.112 10.4431 133.758 10.093 133.217L8.66997 131.007C8.39169 130.484 7.83883 130.166 7.24697 130.189C6.98708 130.226 6.74623 130.346 6.56071 130.532Z" fill="#1C2441"/>
<path d="M23.4757 131.996C23.0599 131.99 22.7242 131.654 22.7188 131.239V128.574C22.7188 128.156 23.0576 127.817 23.4757 127.817C23.8937 127.817 24.2326 128.156 24.2326 128.574V131.198C24.2437 131.406 24.1688 131.609 24.0257 131.76C23.8825 131.911 23.6836 131.996 23.4757 131.996Z" fill="#1C2441"/>
<path d="M19.9327 131.107C19.5147 131.107 19.1758 130.769 19.1758 130.35V126.798C19.1758 126.38 19.5147 126.041 19.9327 126.041C20.3507 126.041 20.6896 126.38 20.6896 126.798V130.35C20.6842 130.766 20.3485 131.102 19.9327 131.107Z" fill="#1C2441"/>
<path d="M63.5794 119.612H61.1573C60.7393 119.612 60.4004 119.274 60.4004 118.856C60.4004 118.438 60.7393 118.099 61.1573 118.099H63.5794C63.9975 118.099 64.3363 118.438 64.3363 118.856C64.3363 119.274 63.9975 119.612 63.5794 119.612Z" fill="#1C2441"/>
<path d="M83.6836 119.612H78.7182C78.3002 119.612 77.9613 119.274 77.9613 118.856C77.9613 118.438 78.3002 118.099 78.7182 118.099H83.7643C84.1823 118.099 84.5212 118.438 84.5212 118.856C84.5212 119.274 84.1823 119.612 83.7643 119.612H83.6836ZM73.652 119.612H68.6261C68.208 119.612 67.8691 119.274 67.8691 118.856C67.8691 118.438 68.208 118.099 68.6261 118.099H73.6721C74.0902 118.099 74.4291 118.438 74.4291 118.856C74.4291 119.274 74.0902 119.612 73.6721 119.612H73.652Z" fill="#1C2441"/>
<path d="M91.8389 119.612H88.7003C88.2822 119.612 87.9434 119.274 87.9434 118.856C87.9434 118.438 88.2822 118.099 88.7003 118.099H90.3655V116.433C90.3655 116.015 90.7044 115.677 91.1224 115.677C91.5404 115.677 91.8793 116.015 91.8793 116.433L91.8389 119.612Z" fill="#1C2441"/>
<path d="M91.1241 112.598C90.7061 112.598 90.3672 112.26 90.3672 111.842V107.26C90.3672 106.842 90.7061 106.503 91.1241 106.503C91.5421 106.503 91.881 106.842 91.881 107.26V111.842C91.8838 112.043 91.8049 112.237 91.6623 112.38C91.5198 112.522 91.3257 112.601 91.1241 112.598Z" fill="#1C2441"/>
<path d="M91.1241 103.435C90.7061 103.435 90.3672 103.096 90.3672 102.678V100.256C90.3672 99.8377 90.7061 99.4988 91.1241 99.4988C91.5421 99.4988 91.881 99.8377 91.881 100.256V102.678C91.8838 102.879 91.8049 103.074 91.6623 103.216C91.5198 103.359 91.3257 103.437 91.1241 103.435Z" fill="#1C2441"/>
<path d="M27.4218 65.7203C27.4218 65.7203 15.0992 65.7203 11.7385 75.8124C8.37784 85.9046 10.6183 89.2451 10.6183 89.2451C10.6183 89.2451 15.1396 102.678 26.3015 102.678C37.4635 102.678 40.0067 98.0253 40.0067 98.0253L28.542 83.6339L27.4218 65.7203Z" fill="#4FCBC2"/>
<path d="M43.0939 72.4417L28.541 83.6339L38.6332 99.3171C38.6332 99.3171 46.4243 92.5957 46.4243 84.7743C46.4243 76.9529 43.0939 72.4417 43.0939 72.4417Z" fill="#3A506B"/>
<path d="M27.4199 65.7203L28.5402 83.6339L43.0931 72.4417C43.0931 72.4417 35.2514 63.4798 27.4199 65.7203Z" fill="#00FCDC"/>
<path d="M28.1066 103.344C18.5935 103.355 10.4899 96.4352 9.01164 87.0376C7.53335 77.6401 13.121 68.5663 22.1782 65.6565C31.2353 62.7467 41.0622 66.8682 45.3339 75.3683C48.3459 81.3491 48.0418 88.4638 44.5306 94.1657C41.0193 99.8676 34.8029 103.341 28.1066 103.344ZM28.046 66.245C20.0977 66.2654 13.1281 71.5581 10.9745 79.2091C8.82085 86.8602 12.0062 95.0113 18.7768 99.1749C25.5474 103.338 34.2589 102.503 40.1151 97.129C45.9712 91.7548 47.5498 83.147 43.9816 76.0445C40.9488 70.0287 34.7831 66.2372 28.046 66.245Z" fill="#0B132B"/>
<path d="M28.1769 84.8348C28.066 84.8396 27.9556 84.8188 27.8539 84.7743C27.5981 84.6592 27.4299 84.4087 27.42 84.1284L26.653 65.5487C26.6448 65.3479 26.7168 65.1521 26.8531 65.0044C26.9894 64.8568 27.1788 64.7694 27.3796 64.7614C27.7901 64.7549 28.1349 65.0688 28.1668 65.478L28.8733 82.6347L42.3867 72.2398C42.7189 72.0115 43.1717 72.0836 43.4166 72.4038C43.6615 72.724 43.6124 73.18 43.3051 73.4408L28.6411 84.6733C28.5069 84.7741 28.3447 84.8306 28.1769 84.8348Z" fill="#0B132B"/>
<path d="M38.5915 99.3273C38.3447 99.3311 38.1129 99.2095 37.9758 99.0043L27.5607 84.5119C27.3411 84.1721 27.4276 83.7197 27.757 83.4848C28.0864 83.2499 28.5423 83.3156 28.792 83.6339L39.197 98.1263C39.4105 98.4562 39.3359 98.8946 39.0254 99.1355C38.9047 99.2436 38.7528 99.3108 38.5915 99.3273Z" fill="#0B132B"/>
<path d="M31.6996 122.63C31.4987 122.631 31.3059 122.551 31.1647 122.408C30.8696 122.112 30.8696 121.634 31.1647 121.338L33.4355 119.088L31.1647 116.817C30.8868 116.519 30.895 116.054 31.1833 115.766C31.4715 115.477 31.9363 115.469 32.2345 115.747L35.0401 118.553C35.3353 118.848 35.3353 119.327 35.0401 119.623L32.2345 122.418C32.0923 122.558 31.8993 122.635 31.6996 122.63Z" fill="#1C2441"/>
<path d="M34.5042 119.835H22.3936C21.9756 119.835 21.6367 119.496 21.6367 119.078C21.6367 118.66 21.9756 118.321 22.3936 118.321H34.5042C34.9223 118.321 35.2612 118.66 35.2612 119.078C35.2612 119.496 34.9223 119.835 34.5042 119.835Z" fill="#1C2441"/>
<path d="M111.346 67.0322H69.2823C68.8643 67.0322 68.5254 66.6933 68.5254 66.2753V12.8877C68.5254 12.4697 68.8643 12.1308 69.2823 12.1308C69.7003 12.1308 70.0392 12.4697 70.0392 12.8877V65.5184H111.346C111.765 65.5184 112.103 65.8573 112.103 66.2753C112.103 66.6933 111.765 67.0322 111.346 67.0322Z" fill="#0B132B"/>
<path d="M110.178 71.937H72.0699C70.9774 71.937 70.0918 72.8226 70.0918 73.9151V76.428C70.0918 77.5205 70.9774 78.4061 72.0699 78.4061H110.178C111.27 78.4061 112.156 77.5205 112.156 76.428V73.9151C112.156 72.8226 111.27 71.937 110.178 71.937Z" fill="#4FCBC2"/>
<path d="M110.178 80.0309H72.0699C70.9774 80.0309 70.0918 80.9166 70.0918 82.009V84.522C70.0918 85.6144 70.9774 86.5 72.0699 86.5H110.178C111.27 86.5 112.156 85.6144 112.156 84.522V82.009C112.156 80.9166 111.27 80.0309 110.178 80.0309Z" fill="#3A506B"/>
<path d="M105.776 17.6815H77.4066C75.4669 17.6815 73.8945 19.2539 73.8945 21.1936V57.2529C73.8945 59.1926 75.4669 60.765 77.4066 60.765H105.776C107.715 60.765 109.288 59.1926 109.288 57.2529V21.1936C109.288 19.2539 107.715 17.6815 105.776 17.6815Z" fill="#EDEDED"/>
<path d="M70.0499 66.9111C69.946 66.9106 69.8432 66.8901 69.7471 66.8506C69.3602 66.6802 69.1841 66.2288 69.3535 65.8414L80.1218 41.2165C80.2447 40.9415 80.5171 40.7639 80.8182 40.7623H86.5909L90.981 34.9189C91.1101 34.7386 91.3146 34.6271 91.5361 34.6162C91.7551 34.595 91.9716 34.6771 92.1214 34.8382L94.5032 37.2099L100.165 27.2993C100.282 27.0948 100.487 26.9563 100.72 26.9247C100.954 26.893 101.189 26.9718 101.356 27.1379L103.727 29.5095L110.933 16.5411C111.05 16.2804 111.303 16.1073 111.588 16.0933C111.873 16.0794 112.141 16.2271 112.283 16.4753C112.424 16.7234 112.413 17.0298 112.255 17.2677L104.565 31.1243C104.447 31.3271 104.242 31.4647 104.01 31.4977C103.773 31.5383 103.531 31.459 103.364 31.2858L100.992 28.9141L95.3207 38.8246C95.2048 39.0296 94.9991 39.168 94.7656 39.198C94.5327 39.2256 94.2996 39.1479 94.1298 38.9861L91.6673 36.5337L87.6304 41.9835C87.4885 42.1753 87.2635 42.2878 87.0249 42.2862H81.3127L70.7462 66.457C70.6234 66.7319 70.351 66.9096 70.0499 66.9111Z" fill="#0B132B"/>
</svg>
