<svg width="18" height="18" viewBox="0 0 18 18" fill="none" xmlns="http://www.w3.org/2000/svg">
<path fill-rule="evenodd" clip-rule="evenodd" d="M2.25 1.8C2.00114 1.8 1.8 2.00142 1.8 2.24962V9.20571V10.8V12.6V13.5C1.8 14.9912 3.00883 16.2 4.5 16.2C6.16406 16.2 7.51304 14.851 7.51304 13.187V12.6446C7.51304 12.1229 7.93593 11.7 8.4576 11.7H11.7V2.7C11.7 2.20294 11.2971 1.8 10.8 1.8H2.25ZM0 9.20571V10.8V12.6V13.5V13.6029H0.00115237C0.0558267 16.0406 2.0491 18 4.5 18H12.6C15.546 18 18 15.6139 18 12.6446C18 12.1229 17.5771 11.7 17.0554 11.7H13.5V2.7C13.5 1.20883 12.2912 0 10.8 0H2.25C1.00769 0 0 1.00665 0 2.24962V9.20571ZM8.25348 16.2H12.6C14.2773 16.2 15.7017 15.0439 16.0934 13.5H13.5H13.05H9.30303C9.23762 14.5188 8.85525 15.4513 8.25348 16.2ZM7.64978 3.6C7.64978 3.10294 7.24684 2.7 6.74978 2.7C6.25272 2.7 5.84978 3.10294 5.84978 3.6V3.92068C4.83224 4.06611 4.05 4.94116 4.05 5.99892C4.05 7.15841 4.98996 8.09837 6.14946 8.09837H7.35219C7.51757 8.09837 7.65165 8.23245 7.65165 8.39783C7.65165 8.56322 7.51757 8.69729 7.35219 8.69729H5.25014C4.75308 8.69729 4.35014 9.10023 4.35014 9.59729C4.35014 10.0943 4.75308 10.4973 5.25014 10.4973H5.84978V10.7967C5.84978 11.2938 6.25272 11.6967 6.74978 11.6967C7.24684 11.6967 7.64978 11.2938 7.64978 10.7967V10.4764C8.66834 10.3318 9.45165 9.45631 9.45165 8.39783C9.45165 7.23834 8.51169 6.29837 7.35219 6.29837H6.14946C5.98407 6.29837 5.85 6.1643 5.85 5.99892C5.85 5.83353 5.98407 5.69946 6.14946 5.69946H8.25151C8.74857 5.69946 9.15151 5.29651 9.15151 4.79946C9.15151 4.3024 8.74857 3.89946 8.25151 3.89946H7.64978V3.6Z" fill="#2D9F98"/>
</svg>
