<svg width="20" height="20" viewBox="0 0 20 20" fill="none" xmlns="http://www.w3.org/2000/svg">
<path fill-rule="evenodd" clip-rule="evenodd" d="M4.392 10.2849C4.787 9.89894 5.42 9.90593 5.806 10.3009C6.192 10.6959 6.185 11.3289 5.79 11.7149L3.453 13.9999H17C17.552 13.9999 18 14.4479 18 14.9999C18 15.5519 17.552 15.9999 17 15.9999H3.453L5.79 18.2849C6.185 18.6709 6.192 19.3039 5.806 19.6989C5.42 20.0939 4.787 20.1009 4.392 19.7149L0.301003 15.7149C0.108002 15.5269 0 15.2689 0 14.9999C0 14.7309 0.108002 14.4729 0.301003 14.2849L4.392 10.2849ZM15.608 0.284943C15.213 -0.101057 14.58 -0.094066 14.194 0.300934C13.808 0.695934 13.815 1.32894 14.21 1.71494L16.547 3.99994H3C2.448 3.99994 2 4.44794 2 4.99994C2 5.55194 2.448 5.99994 3 5.99994H16.547L14.21 8.28494C13.815 8.67094 13.808 9.30394 14.194 9.69894C14.58 10.0939 15.213 10.1009 15.608 9.71494L19.699 5.71494C19.892 5.52694 20 5.26894 20 4.99994C20 4.73094 19.892 4.47294 19.699 4.28494L15.608 0.284943Z" fill="#A1A4A4"/>
</svg>
