<svg width="18" height="16" viewBox="0 0 18 16" fill="none" xmlns="http://www.w3.org/2000/svg">
<path fill-rule="evenodd" clip-rule="evenodd" d="M5.77628 6.58527C6.63376 6.02242 7.2 5.05233 7.2 3.94999C7.2 2.21029 5.7897 0.799988 4.05 0.799988C2.3103 0.799988 0.9 2.21029 0.9 3.94999C0.9 5.05233 1.46624 6.02242 2.32372 6.58527C0.950344 7.23333 0 8.63068 0 10.25V11.7286V14.3C0 14.797 0.402944 15.2 0.9 15.2C1.39706 15.2 1.8 14.797 1.8 14.3V11.7286V10.25C1.8 9.00735 2.80736 7.99999 4.05 7.99999C5.29264 7.99999 6.3 9.00735 6.3 10.25V11.7286V14.3C6.3 14.797 6.70294 15.2 7.2 15.2C7.69706 15.2 8.1 14.797 8.1 14.3V11.7286V10.25C8.1 8.63068 7.14966 7.23333 5.77628 6.58527ZM4.05 2.59999C4.79558 2.59999 5.4 3.2044 5.4 3.94999C5.4 4.69557 4.79558 5.29999 4.05 5.29999C3.30442 5.29999 2.7 4.69557 2.7 3.94999C2.7 3.2044 3.30442 2.59999 4.05 2.59999ZM15.6763 6.58527C16.5338 6.02242 17.1 5.05233 17.1 3.94999C17.1 2.21029 15.6897 0.799988 13.95 0.799988C12.2103 0.799988 10.8 2.21029 10.8 3.94999C10.8 5.05233 11.3662 6.02242 12.2237 6.58527C10.8503 7.23334 9.9 8.63068 9.9 10.25V11.7286V14.3C9.9 14.797 10.3029 15.2 10.8 15.2C11.2971 15.2 11.7 14.797 11.7 14.3V11.7286V10.25C11.7 9.00735 12.7074 7.99999 13.95 7.99999C15.1926 7.99999 16.2 9.00735 16.2 10.25V11.7286V14.3C16.2 14.797 16.6029 15.2 17.1 15.2C17.5971 15.2 18 14.797 18 14.3V11.7286V10.25C18 8.63068 17.0497 7.23334 15.6763 6.58527ZM15.3 3.94999C15.3 3.2044 14.6956 2.59999 13.95 2.59999C13.2044 2.59999 12.6 3.2044 12.6 3.94999C12.6 4.69557 13.2044 5.29999 13.95 5.29999C14.6956 5.29999 15.3 4.69557 15.3 3.94999Z" fill="#2D9F98"/>
</svg>
