<svg width="39" height="14" viewBox="0 0 39 14" fill="none" xmlns="http://www.w3.org/2000/svg">
<path fill-rule="evenodd" clip-rule="evenodd" d="M39 11C39 12.6569 37.6568 14 36 14L22 14C20.3431 14 19 12.6569 19 11V3C19 1.34315 20.3431 0 22 0H36C37.6568 0 39 1.34315 39 3V11ZM36 12C36.5523 12 37 11.5523 37 11V9.53545C35.6381 9.73025 34.5291 10.7091 34.1449 12H36ZM32.0907 12L25.9093 12C25.4684 9.59993 23.4696 7.74497 21 7.52242V6.47758C23.4696 6.25503 25.4684 4.40007 25.9093 2L32.0907 2C32.5315 4.40007 34.5304 6.25503 37 6.47758V7.52242C34.5304 7.74497 32.5315 9.59993 32.0907 12ZM21 9.53545C22.3619 9.73025 23.4708 10.7091 23.8551 12H22C21.4477 12 21 11.5523 21 11V9.53545ZM37 3V4.46456C35.6381 4.26975 34.5291 3.29095 34.1449 2L36 2C36.5523 2 37 2.44771 37 3ZM21 4.46456C22.3619 4.26976 23.4708 3.29095 23.8551 2L22 2C21.4477 2 21 2.44772 21 3V4.46456ZM31 7C31 5.89543 30.1046 5 29 5C27.8954 5 27 5.89543 27 7C27 8.10457 27.8954 9 29 9C30.1046 9 31 8.10457 31 7ZM5.74895 11.7559C5.41421 12.0814 4.8715 12.0814 4.53676 11.7559L0.251051 7.58925C-0.0836838 7.26382 -0.0836837 6.73618 0.251051 6.41074L4.53677 2.24408C4.8715 1.91864 5.41421 1.91864 5.74895 2.24408C6.08368 2.56951 6.08368 3.09715 5.74895 3.42259L2.06933 7L5.74895 10.5774C6.08368 10.9028 6.08368 11.4305 5.74895 11.7559ZM11.7489 11.7559C11.4142 12.0814 10.8715 12.0814 10.5368 11.7559L6.25105 7.58926C5.91632 7.26382 5.91632 6.73618 6.25105 6.41074L10.5368 2.24408C10.8715 1.91864 11.4142 1.91864 11.7489 2.24408C12.0837 2.56951 12.0837 3.09715 11.7489 3.42259L8.06932 7L11.7489 10.5774C12.0837 10.9028 12.0837 11.4305 11.7489 11.7559Z" fill="#808282"/>
</svg>
