<svg width="137" height="160" viewBox="0 0 137 160" fill="none" xmlns="http://www.w3.org/2000/svg">
<path d="M112.614 9.70532H43.6696C39.9112 9.70532 36.8644 12.7521 36.8644 16.5105V142.025C36.8644 145.783 39.9112 148.83 43.6696 148.83H112.614C116.372 148.83 119.419 145.783 119.419 142.025V16.5105C119.419 12.7521 116.372 9.70532 112.614 9.70532Z" fill="#EDEDED"/>
<path d="M106.486 0.921997H37.5418C33.7834 0.921997 30.7366 3.96878 30.7366 7.72719V133.242C30.7366 137 33.7834 140.047 37.5418 140.047H106.486C110.244 140.047 113.291 137 113.291 133.242V7.72719C113.291 3.96878 110.244 0.921997 106.486 0.921997Z" fill="white"/>
<path d="M106.486 140.928H37.5417C33.3286 140.922 29.9147 137.508 29.9088 133.295V7.72717C29.9088 3.51158 33.3262 0.0941772 37.5417 0.0941772H106.486C110.699 0.100099 114.113 3.51404 114.119 7.72717V133.242C114.13 135.274 113.332 137.228 111.899 138.67C110.467 140.113 108.519 140.925 106.486 140.928ZM37.5417 1.74978C34.2388 1.74978 31.5595 4.42421 31.5536 7.72717V133.242C31.5654 136.542 34.2412 139.213 37.5417 139.219H106.486C109.785 139.213 112.457 136.54 112.463 133.242V7.72717C112.463 4.42595 109.787 1.74978 106.486 1.74978H37.5417Z" fill="#0B132B"/>
<path d="M99.5301 0.921997V6.06083C99.533 7.53581 98.9483 8.95119 97.9053 9.99416C96.8624 11.0371 95.447 11.6218 93.972 11.6189H50.0447C48.5706 11.6189 47.1569 11.0334 46.1145 9.991C45.0722 8.94866 44.4866 7.53493 44.4866 6.06083V0.921997" fill="white"/>
<path d="M93.9721 12.4467H50.0447C46.5221 12.4408 43.6696 9.58347 43.6696 6.06082V0.921987C43.6334 0.60571 43.7817 0.296683 44.0512 0.12715C44.3206 -0.0423833 44.6634 -0.0423833 44.9328 0.12715C45.2023 0.296683 45.3507 0.60571 45.3144 0.921987V6.06082C45.3203 8.67084 47.4347 10.7852 50.0447 10.7911H93.9721C95.2266 10.7911 96.4298 10.2928 97.3169 9.40565C98.204 8.51854 98.7024 7.31537 98.7024 6.06082V0.921987C98.7024 0.464804 99.073 0.0941837 99.5302 0.0941837C99.9874 0.0941837 100.358 0.464804 100.358 0.921987V6.06082C100.323 9.57308 97.4843 12.4118 93.9721 12.4467Z" fill="#1C2441"/>
<path d="M106.486 140.928H37.5417C33.3286 140.922 29.9147 137.508 29.9088 133.295V7.72717C29.9088 3.51158 33.3262 0.0941772 37.5417 0.0941772H106.486C110.699 0.100099 114.113 3.51404 114.119 7.72717V133.242C114.13 135.274 113.332 137.228 111.899 138.67C110.467 140.113 108.519 140.925 106.486 140.928ZM37.5417 1.74978C34.2388 1.74978 31.5595 4.42421 31.5536 7.72717V133.242C31.5654 136.542 34.2412 139.213 37.5417 139.219H106.486C109.785 139.213 112.457 136.54 112.463 133.242V7.72717C112.463 4.42595 109.787 1.74978 106.486 1.74978H37.5417Z" fill="#0B132B"/>
<path d="M60.5483 8.95272C62.0267 8.95272 63.2252 7.75422 63.2252 6.2758C63.2252 4.79738 62.0267 3.59888 60.5483 3.59888C59.0698 3.59888 57.8713 4.79738 57.8713 6.2758C57.8713 7.75422 59.0698 8.95272 60.5483 8.95272Z" fill="#3A506B"/>
<path d="M85.3932 6.71658H67.0417C66.5845 6.71658 66.2139 6.34596 66.2139 5.88878C66.2139 5.43159 66.5845 5.06097 67.0417 5.06097H85.3932C85.8503 5.06097 86.221 5.43159 86.221 5.88878C86.221 6.34596 85.8503 6.71658 85.3932 6.71658Z" fill="#3A506B"/>
<path d="M74.1264 133.822H108.26C108.865 133.822 109.356 133.331 109.356 132.726V127.275C109.356 126.669 108.865 126.178 108.26 126.178H74.1264C73.5207 126.178 73.0298 126.669 73.0298 127.275V132.726C73.0298 133.331 73.5207 133.822 74.1264 133.822Z" fill="#00FCDC"/>
<path d="M35.9399 133.822H46.1316C46.6184 133.822 47.0131 133.427 47.0131 132.941V127.06C47.0131 126.573 46.6184 126.178 46.1316 126.178H35.9399C35.453 126.178 35.0583 126.573 35.0583 127.06V132.941C35.0583 133.427 35.453 133.822 35.9399 133.822Z" fill="#3A506B"/>
<path d="M51.4533 133.822H69.3962C70.0315 133.822 70.5465 133.307 70.5465 132.672V127.329C70.5465 126.693 70.0315 126.178 69.3962 126.178H51.4533C50.818 126.178 50.3029 126.693 50.3029 127.329V132.672C50.3029 133.307 50.818 133.822 51.4533 133.822Z" fill="#4FCBC2"/>
<path d="M99.0142 113.815H47.8301C47.4121 113.767 47.0965 113.413 47.0965 112.993C47.0965 112.572 47.4121 112.218 47.8301 112.17H99.0142C99.3304 112.134 99.6395 112.282 99.809 112.552C99.9785 112.821 99.9785 113.164 99.809 113.433C99.6395 113.703 99.3304 113.851 99.0142 113.815Z" fill="#1C2441"/>
<path d="M62.6876 86.3362H51.1306V106.386H62.6876V86.3362Z" fill="#3A506B"/>
<path d="M62.6876 107.214H51.1306C50.6776 107.208 50.3135 106.839 50.3135 106.386V86.3363C50.3135 85.8833 50.6776 85.5144 51.1306 85.5085H62.6876C63.1448 85.5085 63.5154 85.8791 63.5154 86.3363V106.386C63.5154 106.844 63.1448 107.214 62.6876 107.214ZM51.9369 105.559H61.849V87.1748H51.9584L51.9369 105.559Z" fill="#1C2441"/>
<path d="M79.2006 66.2969H67.6436V106.397H79.2006V66.2969Z" fill="#4FCBC2"/>
<path d="M79.2007 107.214H67.6437C67.189 107.208 66.8217 106.841 66.8159 106.386V66.2969C66.8159 65.8398 67.1865 65.4691 67.6437 65.4691H79.2007C79.4211 65.4662 79.6334 65.5525 79.7893 65.7084C79.9452 65.8643 80.0314 66.0765 80.0286 66.2969V106.386C80.0286 106.843 79.6579 107.214 79.2007 107.214ZM68.45 105.558H78.3729V67.114H68.4715L68.45 105.558Z" fill="#1C2441"/>
<path d="M95.7137 36.2165H84.1567V106.386H95.7137V36.2165Z" fill="#00FCDC"/>
<path d="M95.6815 107.214H84.1567C83.6995 107.214 83.3289 106.844 83.3289 106.386V36.2165C83.3289 35.998 83.4165 35.7885 83.572 35.635C83.7276 35.4814 83.9382 35.3966 84.1567 35.3994H95.6815C96.1345 35.3994 96.5034 35.7636 96.5093 36.2165V106.386C96.5035 106.841 96.1362 107.208 95.6815 107.214ZM84.9308 105.559H94.8322V37.0443H84.9845L84.9308 105.559Z" fill="#1C2441"/>
<path d="M89.3387 127.63H81.6735V149.626H89.3387V127.63Z" fill="#EDEDED"/>
<path d="M108.668 127.63H101.003V149.626H108.668V127.63Z" fill="#EDEDED"/>
<path d="M127.987 127.63H120.322V149.626H127.987V127.63Z" fill="#EDEDED"/>
<path d="M77.6742 154.625L81.6735 149.626L89.0054 149.959L92.2091 154.141L77.6742 154.625Z" fill="#4FCBC2"/>
<path d="M96.6706 154.625L101.336 149.959L108.668 150.292L112.334 154.291L96.6706 154.625Z" fill="#4FCBC2"/>
<path d="M116.667 154.291L120.655 149.959H127.987L131.653 154.625L116.667 154.291Z" fill="#4FCBC2"/>
<path d="M78.1364 123.329L81.6733 127.963H89.0053L93.0046 122.964L78.1364 123.329Z" fill="#4FCBC2"/>
<path d="M97.3371 122.964L101.003 127.963H108.002L112.334 122.964H97.3371Z" fill="#4FCBC2"/>
<path d="M116.699 123.394L119.989 127.63H127.321L131.696 123.211L116.699 123.394Z" fill="#4FCBC2"/>
<path d="M74.6746 123.297L104.336 104.634L135.319 123.297H74.6746Z" fill="#EDEDED"/>
<path d="M135.147 153.937H74.0403V159.032H135.147V153.937Z" fill="#3A506B"/>
<path d="M104.594 118.975C106.844 118.975 108.668 117.151 108.668 114.901C108.668 112.651 106.844 110.826 104.594 110.826C102.344 110.826 100.519 112.651 100.519 114.901C100.519 117.151 102.344 118.975 104.594 118.975Z" fill="#4FCBC2"/>
<path d="M104.766 109.977C102.047 109.977 99.842 112.182 99.842 114.901C99.842 117.62 102.047 119.825 104.766 119.825C107.485 119.825 109.69 117.62 109.69 114.901C109.69 112.182 107.485 109.977 104.766 109.977ZM104.766 118.223C103.417 118.223 102.201 117.41 101.686 116.163C101.171 114.916 101.458 113.482 102.413 112.53C103.368 111.577 104.804 111.295 106.049 111.814C107.294 112.333 108.103 113.552 108.099 114.901C108.093 116.737 106.602 118.223 104.766 118.223Z" fill="#1C2441"/>
<path d="M128.536 128.027L131.761 124.007H135.395C135.75 124.005 136.062 123.768 136.158 123.426C136.251 123.085 136.112 122.724 135.814 122.534L105.185 103.752C104.93 103.602 104.613 103.602 104.357 103.752L73.7608 122.577C73.4591 122.764 73.315 123.126 73.4061 123.469C73.5032 123.815 73.8206 124.053 74.1801 124.05H77.8139L81.0391 128.049V149.55L77.8139 153.55H74.2554C73.816 153.55 73.4598 153.906 73.4598 154.345V159.204C73.4598 159.644 73.816 160 74.2554 160H135.287C135.726 160 136.083 159.644 136.083 159.204V154.377C136.083 154.166 135.999 153.964 135.85 153.815C135.7 153.666 135.498 153.582 135.287 153.582H131.729L128.503 149.561L128.536 128.027ZM112.517 153.507L109.292 149.486V128.027L112.517 124.007H116.237L119.408 128.006V149.507L116.237 153.507H112.517ZM93.3056 153.507L90.0804 149.486V128.027L93.3056 124.007H97.0253L100.251 128.006V149.507L97.0253 153.507H93.3056ZM82.5549 128.554H88.5V148.981H82.5764L82.5549 128.554ZM101.766 128.554H107.712V148.981H101.788L101.766 128.554ZM108.12 126.963H101.401L99.0572 124.007H110.485L108.12 126.963ZM101.379 150.615H108.12L110.464 153.56H99.0572L101.379 150.615ZM120.978 128.608H126.923V149.034H120.978V128.608ZM127.332 127.017H120.591L118.258 124.05H129.686L127.332 127.017ZM104.755 105.376L132.546 122.469H76.9861L104.755 105.376ZM91.2737 124.05L88.9301 127.006H82.1894L79.8457 124.05H91.2737ZM82.1894 150.604H88.9301L91.2737 153.55H79.8457L82.1894 150.604ZM134.492 158.377H75.0509V155.151H134.492V158.377ZM118.258 153.55L120.602 150.604H127.342L129.686 153.55H118.258Z" fill="#1C2441"/>
<path d="M35.2346 57.1331L31.7301 53.6287L21.2243 64.1345L24.7288 67.6389L35.2346 57.1331Z" fill="#3A506B"/>
<path d="M24.7268 68.4578C24.5096 68.4593 24.3007 68.3742 24.1463 68.2213L20.6416 64.7166C20.486 64.5613 20.3986 64.3505 20.3986 64.1306C20.3986 63.9108 20.486 63.7 20.6416 63.5447L31.1773 53.0413C31.3326 52.8857 31.5434 52.7983 31.7632 52.7983C31.983 52.7983 32.1938 52.8857 32.3491 53.0413L35.8431 56.546C36.0007 56.698 36.0898 56.9076 36.0898 57.1266C36.0898 57.3456 36.0007 57.5551 35.8431 57.7071L25.3396 68.2213C25.1767 68.3813 24.955 68.4668 24.7268 68.4578ZM22.3939 64.1575L24.7268 66.4689L34.0692 57.1266L31.7256 54.7937L22.3939 64.1575Z" fill="#1C2441"/>
<path d="M48.1098 65.2649C61.6472 65.2649 72.6214 54.2907 72.6214 40.7533C72.6214 27.216 61.6472 16.2418 48.1098 16.2418C34.5724 16.2418 23.5982 27.216 23.5982 40.7533C23.5982 54.2907 34.5724 65.2649 48.1098 65.2649Z" fill="white"/>
<path d="M48.1096 66.0928C36.02 66.0942 25.6132 57.555 23.2541 45.6979C20.895 33.8407 27.2409 21.9684 38.4104 17.3424C49.5799 12.7163 62.4617 16.6252 69.1771 26.6781C75.8924 36.7311 74.5707 50.1279 66.0203 58.6747C61.2801 63.4398 54.8308 66.1109 48.1096 66.0928ZM48.1096 17.0586C37.4286 17.1014 28.1016 24.2974 25.3504 34.6181C22.5993 44.9388 27.1067 55.8226 36.3493 61.1762C45.5918 66.5298 57.2755 65.0244 64.8592 57.5029C71.676 50.7419 73.7293 40.5308 70.0556 31.6604C66.382 22.79 57.7105 17.0205 48.1096 17.0586Z" fill="#1C2441"/>
<path d="M27.6771 69.353L19.5051 61.181L0.827227 79.8588L8.99926 88.0308L27.6771 69.353Z" fill="#4FCBC2"/>
<path d="M8.99866 88.852C8.78117 88.8546 8.57181 88.7693 8.41812 88.6154L0.247596 80.4449C0.0893083 80.291 0 80.0797 0 79.859C0 79.6382 0.0893083 79.4269 0.247596 79.2731L18.9216 60.5991C19.2496 60.2865 19.7653 60.2865 20.0934 60.5991L28.2639 68.7696C28.4188 68.9231 28.506 69.1321 28.506 69.3502C28.506 69.5682 28.4188 69.7772 28.2639 69.9307L9.5792 88.6154C9.42551 88.7693 9.21615 88.8546 8.99866 88.852ZM1.98921 79.8643L8.99866 86.863L26.5115 69.3502L19.5021 62.3515L1.98921 79.8643Z" fill="#1C2441"/>
<path d="M28.7263 47.2682C28.3925 47.2687 28.0911 47.0686 27.9618 46.7608C27.8326 46.4531 27.9009 46.0978 28.135 45.8599L39.262 34.7436C39.4829 34.5186 39.8147 34.443 40.1113 34.5501L49.2709 37.7753L60.4623 26.5516C60.7923 26.276 61.2784 26.299 61.581 26.6044C61.8836 26.9098 61.902 27.396 61.6234 27.7234L50.0664 39.2804C49.8455 39.5055 49.5137 39.5811 49.2171 39.4739L40.0575 36.2487L29.3068 46.9994C29.1579 47.1642 28.9483 47.2612 28.7263 47.2682Z" fill="#1D253F"/>
<path d="M61.9136 54.568C54.2859 62.192 41.9228 62.192 34.2951 54.568C32.6072 52.8908 28.9197 47.881 30.3818 48.9668C32.2524 50.3429 51.1951 59.1155 58.6131 49.6119C63.0424 43.9463 65.4076 37.3561 63.7197 30.8627C63.6631 30.6025 63.8016 30.3393 64.0481 30.2386C64.2945 30.1379 64.5777 30.2288 64.7195 30.4541C69.5028 38.1672 68.3401 48.1593 61.9136 54.568Z" fill="#00FCDC"/>
</svg>
