<svg width="142" height="160" viewBox="0 0 142 160" fill="none" xmlns="http://www.w3.org/2000/svg">
<path d="M41.8433 160C56.7317 160 68.8011 155.706 68.8011 150.409C68.8011 145.113 56.7317 140.819 41.8433 140.819C26.9549 140.819 14.8855 145.113 14.8855 150.409C14.8855 155.706 26.9549 160 41.8433 160Z" fill="#EDEDED"/>
<path d="M107.207 140.819C126.27 140.819 141.724 136.525 141.724 131.228C141.724 125.932 126.27 121.638 107.207 121.638C88.1434 121.638 72.6895 125.932 72.6895 131.228C72.6895 136.525 88.1434 140.819 107.207 140.819Z" fill="#EDEDED"/>
<path d="M37.8896 136.985C56.953 136.985 72.4069 132.691 72.4069 127.394C72.4069 122.098 56.953 117.804 37.8896 117.804C18.8262 117.804 3.37231 122.098 3.37231 127.394C3.37231 132.691 18.8262 136.985 37.8896 136.985Z" fill="#EDEDED"/>
<path d="M63.5659 154.667C86.8702 154.667 105.762 149.42 105.762 142.948C105.762 136.475 86.8702 131.228 63.5659 131.228C40.2615 131.228 21.3696 136.475 21.3696 142.948C21.3696 149.42 40.2615 154.667 63.5659 154.667Z" fill="#EDEDED"/>
<path d="M0.831055 109.158V120.758C0.831055 120.758 6.32689 127.394 25.5732 127.394C44.8194 127.394 50.3261 120.758 50.3261 120.758V109.158" fill="#00FCDC"/>
<path d="M25.573 128.165C6.16382 128.165 0.429039 121.573 0.19009 121.29C0.070403 121.139 0.00534779 120.951 0.00544758 120.758V109.158C-0.0309228 108.843 0.116939 108.534 0.385707 108.365C0.654476 108.196 0.99648 108.196 1.26525 108.365C1.53402 108.534 1.68188 108.843 1.64551 109.158V120.432C2.73164 121.518 8.91173 126.569 25.5404 126.569C42.1691 126.569 48.3492 121.497 49.4353 120.432V109.158C49.4353 108.702 49.8049 108.333 50.2608 108.333C50.7167 108.333 51.0863 108.702 51.0863 109.158V120.758C51.0824 120.952 51.0136 121.14 50.8908 121.29C50.7278 121.573 44.9931 128.165 25.573 128.165Z" fill="#1C2441"/>
<path d="M0.831055 98.7313V110.342C0.831055 110.342 6.32689 116.967 25.5732 116.967C44.8194 116.967 50.3261 110.342 50.3261 110.342V98.7313" fill="#EDEDED"/>
<path d="M25.5732 117.793C6.16399 117.793 0.429207 111.146 0.190258 110.863C0.0721204 110.715 0.00710667 110.532 0.00561523 110.342V98.7313C0.0536349 98.3147 0.406329 98.0004 0.825645 98.0004C1.24496 98.0004 1.59766 98.3147 1.64568 98.7313V110.005C2.73181 111.091 8.9119 116.153 25.5406 116.153C42.1693 116.153 48.3494 111.081 49.4355 110.016V98.7313C49.4355 98.2754 49.8051 97.9058 50.261 97.9058C50.7169 97.9058 51.0864 98.2754 51.0864 98.7313V110.342C51.081 110.533 51.0122 110.716 50.8909 110.863C50.728 111.146 44.9932 117.793 25.5732 117.793Z" fill="#1C2441"/>
<path d="M0.831055 87.4464V99.0462C0.831055 99.0462 6.32689 105.683 25.5732 105.683C44.8194 105.683 50.3261 99.0462 50.3261 99.0462V87.4464" fill="#4FCBC2"/>
<path d="M25.573 106.508C6.16382 106.508 0.429039 99.8609 0.19009 99.5785C0.070403 99.4269 0.00534779 99.2394 0.00544758 99.0463V87.4464C-0.0309228 87.1309 0.116939 86.8225 0.385707 86.6533C0.654476 86.4841 0.99648 86.4841 1.26525 86.6533C1.53402 86.8225 1.68188 87.1309 1.64551 87.4464V98.7204C2.73164 99.8066 8.91173 104.857 25.5404 104.857C42.1691 104.857 48.3492 99.7957 49.4353 98.7204V87.4464C49.4353 86.9905 49.8049 86.6209 50.2608 86.6209C50.7167 86.6209 51.0863 86.9905 51.0863 87.4464V99.0463C51.0824 99.2405 51.0136 99.4279 50.8908 99.5785C50.7278 99.8609 44.9931 106.508 25.573 106.508Z" fill="#1C2441"/>
<path d="M25.573 93.5287C39.2437 93.5287 50.326 90.8055 50.326 87.4464C50.326 84.0872 39.2437 81.364 25.573 81.364C11.9023 81.364 0.820068 84.0872 0.820068 87.4464C0.820068 90.8055 11.9023 93.5287 25.573 93.5287Z" fill="white"/>
<path d="M25.5732 94.3433C12.8654 94.3433 0.00561523 91.9755 0.00561523 87.4463C0.00561523 82.9172 12.8654 80.5494 25.5732 80.5494C38.2809 80.5494 51.1516 82.9172 51.1516 87.4463C51.1516 91.9755 38.2809 94.3433 25.5732 94.3433ZM25.5732 82.1894C10.7475 82.1894 1.67826 85.2523 1.67826 87.4463C1.67826 89.6403 10.7801 92.7032 25.5732 92.7032C40.3663 92.7032 49.4681 89.6403 49.4681 87.4463C49.4681 85.2523 40.3989 82.1894 25.5732 82.1894Z" fill="#1C2441"/>
<path d="M82.7688 116.913V128.556C82.7688 128.556 88.2864 135.204 107.598 135.204C126.909 135.204 132.416 128.556 132.416 128.556V116.913" fill="#3A506B"/>
<path d="M107.598 136.029C88.1235 136.029 82.367 129.36 82.1389 129.078C82.0176 128.931 81.9488 128.747 81.9434 128.556V116.913C81.9434 116.694 82.0303 116.484 82.1851 116.329C82.3399 116.175 82.5499 116.088 82.7688 116.088C82.9868 116.088 83.1956 116.175 83.3487 116.33C83.5018 116.485 83.5863 116.695 83.5834 116.913V128.22C84.6696 129.306 90.8714 134.389 107.598 134.389C124.324 134.389 130.483 129.295 131.601 128.22V116.913C131.565 116.598 131.713 116.289 131.982 116.12C132.25 115.951 132.592 115.951 132.861 116.12C133.13 116.289 133.278 116.598 133.241 116.913V128.556C133.24 128.748 133.171 128.933 133.046 129.078C132.818 129.36 127.083 136.029 107.598 136.029Z" fill="#1C2441"/>
<path d="M82.7688 106.443V118.086C82.7688 118.086 88.2864 124.744 107.598 124.744C126.909 124.744 132.416 118.086 132.416 118.086V106.443" fill="#4FCBC2"/>
<path d="M107.598 125.57C88.1235 125.57 82.367 118.912 82.1389 118.618C82.0145 118.473 81.9453 118.288 81.9434 118.097V106.443C81.9493 105.991 82.3171 105.628 82.7688 105.628C82.9941 105.613 83.2155 105.692 83.3803 105.847C83.545 106.001 83.6382 106.217 83.6377 106.443V117.76C84.7239 118.846 90.9257 123.919 107.652 123.919C124.379 123.919 130.537 118.836 131.656 117.76V106.443C131.704 106.026 132.056 105.712 132.476 105.712C132.895 105.712 133.248 106.026 133.296 106.443V118.086C133.299 118.278 133.229 118.465 133.1 118.607C132.818 118.912 127.083 125.57 107.598 125.57Z" fill="#1C2441"/>
<path d="M82.7688 95.1362V106.78C82.7688 106.78 88.2864 113.427 107.598 113.427C126.909 113.427 132.416 106.78 132.416 106.78V95.1362" fill="white"/>
<path d="M107.598 114.252C88.1235 114.252 82.367 107.583 82.1389 107.301C82.0176 107.154 81.9488 106.97 81.9434 106.78V95.1362C81.9434 94.9172 82.0303 94.7073 82.1851 94.5525C82.3399 94.3977 82.5499 94.3107 82.7688 94.3107C82.9868 94.3107 83.1956 94.398 83.3487 94.5531C83.5018 94.7083 83.5863 94.9183 83.5834 95.1362V106.443C84.6696 107.529 90.8714 112.612 107.598 112.612C124.324 112.612 130.483 107.529 131.601 106.443V95.1362C131.565 94.8207 131.713 94.5123 131.982 94.3431C132.25 94.1739 132.592 94.1739 132.861 94.3431C133.13 94.5123 133.278 94.8207 133.241 95.1362V106.78C133.24 106.971 133.171 107.156 133.046 107.301C132.818 107.583 127.083 114.252 107.598 114.252Z" fill="#1C2441"/>
<path d="M107.598 101.229C121.31 101.229 132.427 98.5013 132.427 95.1361C132.427 91.7709 121.31 89.0429 107.598 89.0429C93.8851 89.0429 82.7688 91.7709 82.7688 95.1361C82.7688 98.5013 93.8851 101.229 107.598 101.229Z" fill="#4FCBC2"/>
<path d="M107.598 102.098C94.8466 102.098 81.9434 99.7196 81.9434 95.1796C81.9434 90.6396 94.8466 88.2609 107.598 88.2609C120.349 88.2609 133.241 90.6396 133.241 95.1796C133.241 99.7196 120.338 102.098 107.598 102.098ZM107.598 89.901C92.7178 89.8575 83.6377 92.9313 83.6377 95.1361C83.6377 97.341 92.7721 100.415 107.652 100.415C122.532 100.415 131.656 97.341 131.656 95.1361C131.656 92.9313 122.467 89.8575 107.598 89.8575V89.901Z" fill="#1C2441"/>
<path d="M32.1333 121.138V137.322C32.1333 137.322 39.8123 146.63 66.6615 146.63C93.5107 146.63 101.179 137.376 101.179 137.376V121.192" fill="#4FCBC2"/>
<path d="M66.6614 147.39C39.7362 147.39 31.8292 138.234 31.5033 137.843C31.382 137.696 31.3166 137.512 31.3187 137.322V121.138C31.2823 120.823 31.4302 120.514 31.6989 120.345C31.9677 120.176 32.3097 120.176 32.5785 120.345C32.8472 120.514 32.9951 120.823 32.9587 121.138V136.996C34.2838 138.31 42.8208 145.75 66.6289 145.75C90.4369 145.75 98.9956 138.321 100.299 136.996V121.138C100.296 120.92 100.381 120.71 100.534 120.555C100.687 120.4 100.896 120.313 101.114 120.313C101.332 120.313 101.542 120.4 101.697 120.555C101.852 120.709 101.939 120.919 101.939 121.138V137.322C101.937 137.513 101.868 137.697 101.744 137.843C101.483 138.234 93.5867 147.39 66.6614 147.39Z" fill="#1C2441"/>
<path d="M32.1333 108.289V124.483C32.1333 124.483 39.8123 133.726 66.6615 133.726C93.5107 133.726 101.179 124.483 101.179 124.483V108.289" fill="#EDEDED"/>
<path d="M66.6614 134.552C39.7361 134.552 31.8291 125.396 31.5032 125.005C31.3851 124.857 31.3201 124.673 31.3186 124.483V108.289C31.3666 107.873 31.7193 107.558 32.1386 107.558C32.5579 107.558 32.9106 107.873 32.9587 108.289V124.158C34.2837 125.472 42.8208 132.912 66.6288 132.912C90.4368 132.912 98.9955 125.483 100.299 124.158V108.289C100.299 107.839 100.664 107.475 101.113 107.475C101.565 107.475 101.933 107.838 101.939 108.289V124.483C101.934 124.674 101.865 124.858 101.743 125.005C101.483 125.396 93.5866 134.552 66.6614 134.552Z" fill="#1C2441"/>
<path d="M32.1333 93.7568V109.951C32.1333 109.951 39.8123 119.194 66.6615 119.194C93.5107 119.194 101.179 109.951 101.179 109.951V93.7568" fill="#00FCDC"/>
<path d="M66.6614 120.019C39.7361 120.019 31.8291 110.863 31.5032 110.472C31.3851 110.324 31.3201 110.141 31.3186 109.951V93.7568C31.3666 93.3402 31.7193 93.0258 32.1386 93.0258C32.5579 93.0258 32.9106 93.3402 32.9587 93.7568V109.625C34.2837 110.939 42.8208 118.379 66.6288 118.379C90.4368 118.379 98.9955 110.95 100.299 109.625V93.7568C100.296 93.5398 100.381 93.3309 100.534 93.1775C100.688 93.0241 100.897 92.9392 101.113 92.9421C101.331 92.9393 101.541 93.0238 101.697 93.1769C101.852 93.33 101.939 93.5388 101.939 93.7568V109.951C101.934 110.142 101.865 110.325 101.743 110.472C101.483 110.863 93.5866 120.019 66.6614 120.019Z" fill="#1C2441"/>
<path d="M31.8833 78.0079V94.2021C31.8833 94.2021 39.584 103.445 66.5309 103.445C93.4779 103.445 101.179 94.2021 101.179 94.2021V78.0079" fill="#3A506B"/>
<path d="M66.5311 104.271C39.5081 104.271 31.5793 95.1144 31.2535 94.7234C31.1338 94.576 31.0688 94.3919 31.0688 94.2021V78.0078C31.0688 77.5579 31.4336 77.1932 31.8834 77.1932C32.3351 77.1932 32.703 77.5562 32.7089 78.0078V93.8762C34.034 95.1905 42.6036 102.63 66.5311 102.63C90.4586 102.63 99.0173 95.2013 100.364 93.8762V78.0078C100.364 77.5579 100.729 77.1932 101.179 77.1932C101.63 77.1932 101.998 77.5562 102.004 78.0078V94.2021C102 94.3931 101.931 94.5771 101.809 94.7234C101.483 95.1144 93.5541 104.271 66.5311 104.271Z" fill="#1C2441"/>
<path d="M66.6613 86.4905C85.7247 86.4905 101.179 82.6927 101.179 78.0078C101.179 73.323 85.7247 69.5251 66.6613 69.5251C47.598 69.5251 32.144 73.323 32.144 78.0078C32.144 82.6927 47.598 86.4905 66.6613 86.4905Z" fill="#EDEDED"/>
<path d="M66.6614 87.316C49.5222 87.316 31.3186 84.0576 31.3186 78.0079C31.3186 71.9581 49.5222 68.7106 66.6614 68.7106C83.8005 68.7106 102.004 71.969 102.004 78.0079C102.004 84.0468 83.7897 87.316 66.6614 87.316ZM66.6614 70.3506C44.9387 70.3506 32.9912 74.8798 32.9912 77.9536C32.9912 81.0273 44.993 85.6217 66.6614 85.6217C88.3297 85.6217 100.331 81.0925 100.331 77.9536C100.331 74.8146 88.3623 70.3506 66.6614 70.3506Z" fill="#1C2441"/>
<path d="M13.832 136.854V146.988C13.832 146.988 18.6327 152.777 35.4569 152.777C52.2811 152.777 57.071 146.988 57.071 146.988V136.854" fill="#4FCBC2"/>
<path d="M35.457 153.548C18.4481 153.548 13.4085 147.705 13.2021 147.455C13.0777 147.31 13.0085 147.125 13.0066 146.934V136.855C13.0066 136.56 13.1639 136.287 13.4193 136.14C13.6747 135.992 13.9894 135.992 14.2448 136.14C14.5002 136.287 14.6575 136.56 14.6575 136.855V146.63C15.6785 147.607 21.0766 151.941 35.457 151.941C49.8374 151.941 55.2137 147.596 56.2564 146.63V136.855C56.2535 136.637 56.338 136.427 56.4911 136.271C56.6442 136.116 56.8531 136.029 57.071 136.029C57.5269 136.029 57.8965 136.399 57.8965 136.855V146.988C57.8946 147.179 57.8253 147.364 57.701 147.509C57.4946 147.716 52.4549 153.548 35.457 153.548Z" fill="#1C2441"/>
<path d="M13.832 126.938V137.072C13.832 137.072 18.6327 142.861 35.4569 142.861C52.2811 142.861 57.071 137.072 57.071 137.072V126.938" fill="#EDEDED"/>
<path d="M35.457 143.686C18.4481 143.686 13.4085 137.843 13.2021 137.593C13.0777 137.448 13.0085 137.263 13.0066 137.072V126.938C13.0066 126.482 13.3762 126.113 13.8321 126.113C14.2879 126.113 14.6575 126.482 14.6575 126.938V136.713C15.6785 137.691 21.0766 142.025 35.457 142.025C49.8374 142.025 55.2137 137.68 56.2564 136.713V126.938C56.2535 126.72 56.338 126.51 56.4911 126.355C56.6442 126.2 56.8531 126.113 57.071 126.113C57.5269 126.113 57.8965 126.482 57.8965 126.938V137.072C57.8946 137.263 57.8253 137.448 57.701 137.593C57.4946 137.843 52.4549 143.686 35.457 143.686Z" fill="#1C2441"/>
<path d="M35.4569 132.249C47.4 132.249 57.0818 129.871 57.0818 126.938C57.0818 124.005 47.4 121.627 35.4569 121.627C23.5138 121.627 13.832 124.005 13.832 126.938C13.832 129.871 23.5138 132.249 35.4569 132.249Z" fill="#3A506B"/>
<path d="M35.457 133.064C24.3024 133.064 13.0066 130.957 13.0066 126.938C13.0066 122.919 24.3024 120.801 35.457 120.801C46.6115 120.801 57.8965 122.909 57.8965 126.938C57.8965 130.968 46.6007 133.064 35.457 133.064ZM35.457 122.442C22.7601 122.442 14.6575 125.103 14.6575 126.938C14.6575 128.774 22.8144 131.424 35.457 131.424C48.0995 131.424 56.2564 128.763 56.2564 126.938C56.2564 125.113 48.1538 122.442 35.457 122.442Z" fill="#1C2441"/>
<path d="M71.3207 82.2546C83.7077 82.2546 93.7494 79.8816 93.7494 76.9543C93.7494 74.027 83.7077 71.654 71.3207 71.654C58.9337 71.654 48.8921 74.027 48.8921 76.9543C48.8921 79.8816 58.9337 82.2546 71.3207 82.2546Z" fill="#4FCBC2"/>
<path d="M62.4471 20.0084C50.315 31.5757 40.0184 45.6194 40.0076 56.2526C40.0076 70.8828 52.346 76.9543 67.6171 76.9543C82.8881 76.9543 95.2266 70.8937 95.2266 56.2526C95.2266 42.7411 84.5173 31.2064 72.7979 20.0084" fill="white"/>
<path d="M67.6172 77.7797C49.8264 77.7797 39.1931 69.7315 39.1931 56.2526C39.1931 51.6691 41.4197 38.9287 61.8716 19.4218C62.2075 19.1099 62.7327 19.1293 63.0446 19.4652C63.3565 19.8012 63.3371 20.3263 63.0011 20.6383C49.1312 33.8348 40.844 47.1616 40.8332 56.2526C40.8332 62.2263 43.4508 76.1397 67.6172 76.1397C91.7837 76.1397 94.4121 62.2263 94.4121 56.2526C94.4121 42.8931 83.453 31.2715 72.2333 20.6057C72.0774 20.4525 71.9896 20.2432 71.9896 20.0246C71.9896 19.8061 72.0774 19.5967 72.2333 19.4435C72.555 19.1246 73.0737 19.1246 73.3954 19.4435C84.8433 30.4135 96.0522 42.2415 96.0522 56.2526C96.0522 69.7315 85.4189 77.7797 67.6172 77.7797Z" fill="#1C2441"/>
<path d="M69.3441 60.5211H65.8902C63.5352 60.5152 61.6276 58.6076 61.6217 56.2526V54.5257C61.5853 54.2102 61.7332 53.9018 62.0019 53.7326C62.2707 53.5634 62.6127 53.5634 62.8815 53.7326C63.1502 53.9018 63.2981 54.2102 63.2617 54.5257V56.2526C63.2677 57.7018 64.441 58.8751 65.8902 58.8811H69.3441C70.7957 58.8811 71.9725 57.7043 71.9725 56.2526V53.559C71.9799 52.4234 71.2571 51.4114 70.1804 51.0501L64.5434 49.171C62.7964 48.5937 61.6179 46.9596 61.6217 45.1198V42.4479C61.6217 40.0887 63.531 38.1745 65.8902 38.1685H69.3441C71.7032 38.1745 73.6126 40.0887 73.6126 42.4479V44.164C73.6155 44.3819 73.5309 44.5919 73.3778 44.747C73.2248 44.9021 73.0159 44.9894 72.798 44.9894C72.3421 44.9894 71.9725 44.6199 71.9725 44.164V42.4479C71.9754 41.7489 71.6997 41.0775 71.2065 40.5823C70.7133 40.087 70.0431 39.8086 69.3441 39.8086H65.8902C64.4368 39.8146 63.2617 40.9945 63.2617 42.4479V45.1306C63.2606 46.2652 63.9875 47.2724 65.0647 47.6287L70.6909 49.5077C72.4378 50.085 73.6163 51.7192 73.6126 53.559V56.2526C73.6066 58.6076 71.699 60.5152 69.3441 60.5211Z" fill="#1C2441"/>
<path d="M67.6172 39.8085C67.4002 39.8115 67.1913 39.7266 67.0379 39.5732C66.8845 39.4198 66.7996 39.2109 66.8026 38.9939V33.8131C66.7996 33.5962 66.8845 33.3872 67.0379 33.2338C67.1913 33.0804 67.4002 32.9955 67.6172 32.9985C67.8351 32.9956 68.0451 33.0801 68.2002 33.2332C68.3553 33.3863 68.4426 33.5951 68.4426 33.8131V38.9939C68.4426 39.2119 68.3553 39.4207 68.2002 39.5738C68.0451 39.7269 67.8351 39.8114 67.6172 39.8085Z" fill="#1C2441"/>
<path d="M67.6172 65.702C67.3992 65.702 67.1904 65.6147 67.0373 65.4595C66.8842 65.3044 66.7997 65.0944 66.8026 64.8765V59.7391C66.8026 59.2892 67.1673 58.9245 67.6172 58.9245C68.0646 58.9303 68.4259 59.2917 68.4318 59.7391V64.92C68.4089 65.3546 68.0524 65.6968 67.6172 65.702Z" fill="#1C2441"/>
<path d="M72.7764 20.0084C72.1573 21.0402 69.2138 21.7353 67.5955 21.7353C65.9772 21.7353 63.0663 20.9533 62.4255 20.0084C62.4255 20.0084 54.6379 5.01972 54.9203 4.47665C57.4619 -0.378361 62.7079 0.555713 67.6281 1.89166C74.6228 3.79239 77.4033 3.44483 78.7501 3.39052C78.8696 5.36728 72.7764 20.0084 72.7764 20.0084Z" fill="#00FCDC"/>
<path d="M67.6172 22.5608C66.1183 22.5608 62.6862 21.8222 61.7629 20.4754C61.7663 20.4465 61.7663 20.4174 61.7629 20.3885C53.7907 5.01972 54.0405 4.55268 54.2686 4.09651C57.2664 -1.77947 64.1416 0.0995404 67.8453 1.08792C74.134 2.80401 76.8711 2.66281 78.3482 2.57592H78.7283C79.1642 2.58406 79.5266 2.9139 79.5755 3.34708C79.695 5.42159 74.5793 17.8578 73.5583 20.3342L73.4932 20.4428C72.6025 21.9199 69.1704 22.5608 67.6172 22.5608ZM63.1423 19.5522C63.5768 20.0952 65.9989 20.899 67.6172 20.899C69.2355 20.899 71.625 20.193 72.0703 19.6065C74.6119 13.4698 77.186 6.69237 77.8051 4.23771C74.28 4.25033 70.774 3.71912 67.4108 2.66281C61.7847 1.15309 57.8637 0.946724 55.8001 4.61785C56.2888 6.07327 59.8514 13.2309 63.1423 19.5522Z" fill="#1C2441"/>
<path d="M62.4472 20.8338C62.3788 20.8442 62.3092 20.8442 62.2409 20.8338L55.3982 19.0851C54.9954 18.9458 54.765 18.5227 54.8664 18.1087C54.9677 17.6947 55.3676 17.426 55.7892 17.4885L62.697 19.2155C63.0868 19.3272 63.3377 19.7054 63.289 20.108C63.2404 20.5105 62.9067 20.8181 62.5015 20.8338H62.4472Z" fill="#1C2441"/>
<path d="M72.7764 20.8338C72.3713 20.8181 72.0375 20.5105 71.9889 20.108C71.9403 19.7055 72.1912 19.3272 72.5809 19.2155L79.4779 17.4885C79.9186 17.3789 80.3651 17.6458 80.4771 18.0859C80.5806 18.5257 80.3161 18.9681 79.8797 19.0852L72.9937 20.8012C72.9238 20.825 72.8502 20.836 72.7764 20.8338Z" fill="#1C2441"/>
<path d="M62.2299 74.152C60.8658 73.9371 59.5217 73.6101 58.2113 73.1745C47.4911 69.5903 41.2676 59.3806 44.287 50.3657C45.4215 47.0102 47.6918 44.156 50.7061 42.2958C49.8241 43.6466 49.123 45.1072 48.6207 46.6403C45.1668 56.9477 51.1514 68.5042 62.2299 74.152Z" fill="#00FCDC"/>
<path d="M88.71 49.9639C89.2159 50.7156 89.6453 51.5161 89.9917 52.3534C91.8617 56.9277 91.0673 62.1596 87.9237 65.9728C84.7802 69.7859 79.7958 71.5636 74.9487 70.6004C76.176 70.3703 77.3743 70.006 78.5221 69.5143C86.1801 66.298 90.4609 58.0832 88.71 49.9639Z" fill="#4FCBC2"/>
<path d="M111.529 50.2137H103.861C103.405 50.2137 103.036 49.8441 103.036 49.3882C103.036 48.9323 103.405 48.5627 103.861 48.5627H111.529C111.985 48.5627 112.355 48.9323 112.355 49.3882C112.355 49.8441 111.985 50.2137 111.529 50.2137Z" fill="#1C2441"/>
<path d="M107.695 54.0478C107.24 54.0478 106.87 53.6782 106.87 53.2223V45.5542C106.834 45.2387 106.981 44.9303 107.25 44.7611C107.519 44.5919 107.861 44.5919 108.13 44.7611C108.399 44.9303 108.546 45.2387 108.51 45.5542V53.2223C108.51 53.674 108.147 54.0418 107.695 54.0478Z" fill="#1C2441"/>
<path d="M44.7434 13.8392H37.0644C36.6479 13.7911 36.3335 13.4384 36.3335 13.0191C36.3335 12.5998 36.6479 12.2471 37.0644 12.1991H44.7434C45.1599 12.2471 45.4743 12.5998 45.4743 13.0191C45.4743 13.4384 45.1599 13.7911 44.7434 13.8392Z" fill="#1C2441"/>
<path d="M40.9092 17.6732C40.4533 17.6732 40.0837 17.3036 40.0837 16.8477V9.1796C40.1318 8.76304 40.4845 8.44867 40.9038 8.44867C41.3231 8.44867 41.6758 8.76304 41.7238 9.1796V16.8477C41.7238 17.2994 41.3608 17.6672 40.9092 17.6732Z" fill="#1C2441"/>
<path d="M23.5092 62.0525H15.8411C15.3852 62.0525 15.0156 61.683 15.0156 61.2271C15.0156 61.0091 15.1029 60.8003 15.258 60.6472C15.4132 60.4941 15.6232 60.4096 15.8411 60.4125H23.5092C23.7271 60.4096 23.9371 60.4941 24.0922 60.6472C24.2473 60.8003 24.3346 61.0091 24.3346 61.2271C24.3346 61.446 24.2477 61.656 24.0929 61.8108C23.9381 61.9656 23.7281 62.0525 23.5092 62.0525Z" fill="#1C2441"/>
<path d="M19.6753 65.8866C19.2194 65.8866 18.8499 65.517 18.8499 65.0611V57.393C18.8499 56.9371 19.2194 56.5676 19.6753 56.5676C20.1312 56.5676 20.5008 56.9371 20.5008 57.393V65.0611C20.5008 65.517 20.1312 65.8866 19.6753 65.8866Z" fill="#1C2441"/>
<path d="M103.861 69.3839C103.41 69.3839 103.042 69.021 103.036 68.5693V57.0563C103.084 56.6398 103.437 56.3254 103.856 56.3254C104.275 56.3254 104.628 56.6398 104.676 57.0563V68.5693C104.67 69.0168 104.309 69.3781 103.861 69.3839Z" fill="#1C2441"/>
<path d="M109.607 77.0521C109.39 77.055 109.181 76.9701 109.028 76.8167C108.874 76.6633 108.79 76.4544 108.793 76.2375V64.7353C108.79 64.5174 108.874 64.3074 109.027 64.1523C109.18 63.9971 109.389 63.9099 109.607 63.9099C110.063 63.9099 110.433 64.2794 110.433 64.7353V76.2375C110.433 76.4554 110.345 76.6643 110.19 76.8173C110.035 76.9704 109.825 77.055 109.607 77.0521Z" fill="#1C2441"/>
<path d="M44.602 34.9318C44.1545 34.926 43.7932 34.5647 43.7874 34.1172V22.6042C43.8354 22.1877 44.1881 21.8733 44.6074 21.8733C45.0267 21.8733 45.3794 22.1877 45.4274 22.6042V34.1172C45.4215 34.5689 45.0536 34.9318 44.602 34.9318Z" fill="#1C2441"/>
<path d="M38.8562 42.6C38.6383 42.6028 38.4283 42.5183 38.2732 42.3652C38.1181 42.2121 38.0307 42.0033 38.0308 41.7853V30.2723C38.0788 29.8558 38.4315 29.5414 38.8508 29.5414C39.2701 29.5414 39.6228 29.8558 39.6708 30.2723V41.7853C39.6708 42.2352 39.3061 42.6 38.8562 42.6Z" fill="#1C2441"/>
<path d="M25.4317 79.2895C24.9758 79.2895 24.6063 78.9199 24.6063 78.464V66.9836C24.5699 66.6681 24.7178 66.3597 24.9865 66.1905C25.2553 66.0213 25.5973 66.0213 25.8661 66.1905C26.1348 66.3597 26.2827 66.6681 26.2463 66.9836V78.4857C26.2347 78.9289 25.8751 79.2838 25.4317 79.2895Z" fill="#1C2441"/>
<path d="M14.3208 79.2895C14.1028 79.2895 13.894 79.2022 13.7409 79.0471C13.5878 78.8919 13.5033 78.6819 13.5062 78.464V66.9836C13.5033 66.7657 13.5878 66.5557 13.7409 66.4006C13.894 66.2454 14.1028 66.1581 14.3208 66.1581C14.7767 66.1581 15.1462 66.5277 15.1462 66.9836V78.4858C15.1345 78.9331 14.7683 79.2896 14.3208 79.2895Z" fill="#1C2441"/>
<path d="M19.6753 86.9793C19.2236 86.9793 18.8558 86.6163 18.8499 86.1647V74.6517C18.8499 74.1958 19.2194 73.8262 19.6753 73.8262C20.1312 73.8262 20.5008 74.1958 20.5008 74.6517V86.1647C20.4948 86.6163 20.127 86.9793 19.6753 86.9793Z" fill="#1C2441"/>
<path d="M57.7007 4.52007L63.2508 15.6312C63.2508 15.6312 61.3935 8.22378 63.2508 6.3665C65.1081 4.50921 70.6474 6.3665 70.6474 6.3665C70.6474 6.3665 65.0972 2.67365 61.3935 2.67365C57.6898 2.67365 57.7007 4.52007 57.7007 4.52007Z" fill="white"/>
</svg>
