<svg width="129" height="160" viewBox="0 0 129 160" fill="none" xmlns="http://www.w3.org/2000/svg">
<path d="M57.0544 60.144H9.68848C7.10821 60.144 5.01648 62.2357 5.01648 64.816V151.033C5.01648 153.613 7.10821 155.705 9.68848 155.705H57.0544C59.6347 155.705 61.7264 153.613 61.7264 151.033V64.816C61.7264 62.2357 59.6347 60.144 57.0544 60.144Z" fill="#EDEDED"/>
<path d="M52.8453 54.1049H5.47938C2.8991 54.1049 0.807373 56.1966 0.807373 58.7769V144.994C0.807373 147.574 2.8991 149.666 5.47938 149.666H52.8453C55.4256 149.666 57.5173 147.574 57.5173 144.994V58.7769C57.5173 56.1966 55.4256 54.1049 52.8453 54.1049Z" fill="white"/>
<path d="M52.8345 150.473H5.46861C2.44664 150.467 0 148.016 0 144.994V58.7876C0 55.7597 2.45146 53.3034 5.47938 53.2975H52.8453C55.875 53.3034 58.3295 55.758 58.3355 58.7876V144.994C58.3326 146.45 57.7514 147.845 56.7198 148.873C55.6882 149.9 54.2906 150.476 52.8345 150.473ZM5.47938 54.9015C3.34326 54.9074 1.61475 56.6407 1.61475 58.7769V144.983C1.61475 147.117 3.345 148.847 5.47938 148.847H52.8453C54.9814 148.847 56.7148 147.119 56.7207 144.983V58.7876C56.7207 56.6473 54.9856 54.9122 52.8453 54.9122L5.47938 54.9015Z" fill="#0B132B"/>
<path d="M48.0657 54.1049V57.6358C48.0685 58.6502 47.6668 59.6239 46.9495 60.3412C46.2322 61.0585 45.2585 61.4602 44.2441 61.4574H14.1021C13.0877 61.4602 12.114 61.0585 11.3967 60.3412C10.6794 59.6239 10.2777 58.6502 10.2805 57.6358V54.1049" fill="white"/>
<path d="M44.2442 62.2647H14.1022C11.5482 62.2588 9.47919 60.1898 9.47327 57.6358V54.1049C9.47327 53.659 9.83474 53.2975 10.2806 53.2975C10.7265 53.2975 11.088 53.659 11.088 54.1049V57.6358C11.088 59.3005 12.4375 60.65 14.1022 60.65H44.2442C45.9089 60.65 47.2584 59.3005 47.2584 57.6358V54.1049C47.2584 53.659 47.6198 53.2975 48.0657 53.2975C48.5116 53.2975 48.8731 53.659 48.8731 54.1049V57.6358C48.8672 60.1898 46.7982 62.2588 44.2442 62.2647Z" fill="#1C2441"/>
<path d="M52.8345 150.473H5.46861C2.44664 150.467 0 148.016 0 144.994V58.7876C0 55.7597 2.45146 53.3034 5.47938 53.2975H52.8453C55.875 53.3034 58.3295 55.758 58.3355 58.7876V144.994C58.3326 146.45 57.7514 147.845 56.7198 148.873C55.6882 149.9 54.2906 150.476 52.8345 150.473ZM5.47938 54.9015C3.34326 54.9074 1.61475 56.6407 1.61475 58.7769V144.983C1.61475 147.117 3.345 148.847 5.47938 148.847H52.8453C54.9814 148.847 56.7148 147.119 56.7207 144.983V58.7876C56.7207 56.6473 54.9856 54.9122 52.8453 54.9122L5.47938 54.9015Z" fill="#0B132B"/>
<path d="M21.2825 59.6273C22.2991 59.6273 23.1233 58.8031 23.1233 57.7865C23.1233 56.7698 22.2991 55.9457 21.2825 55.9457C20.2658 55.9457 19.4417 56.7698 19.4417 57.7865C19.4417 58.8031 20.2658 59.6273 21.2825 59.6273Z" fill="#3A506B"/>
<path d="M38.3449 58.3247H25.7499C25.304 58.3247 24.9425 57.9632 24.9425 57.5173C24.9425 57.0714 25.304 56.71 25.7499 56.71H38.3449C38.7908 56.71 39.1523 57.0714 39.1523 57.5173C39.1523 57.9632 38.7908 58.3247 38.3449 58.3247Z" fill="#3A506B"/>
<path d="M123.851 6.84656H76.4852C73.905 6.84656 71.8132 8.93829 71.8132 11.5186V97.7353C71.8132 100.316 73.905 102.407 76.4852 102.407H123.851C126.431 102.407 128.523 100.316 128.523 97.7353V11.5186C128.523 8.93829 126.431 6.84656 123.851 6.84656Z" fill="#EDEDED"/>
<path d="M119.642 0.807434H72.2761C69.6959 0.807434 67.6041 2.89916 67.6041 5.47944V91.6962C67.6041 94.2765 69.6959 96.3682 72.2761 96.3682H119.642C122.222 96.3682 124.314 94.2765 124.314 91.6962V5.47944C124.314 2.89916 122.222 0.807434 119.642 0.807434Z" fill="white"/>
<path d="M119.642 97.1755H72.2762C69.2507 97.1696 66.7978 94.7216 66.786 91.6962V5.4794C66.7889 4.02332 67.37 2.62801 68.4016 1.60043C69.4333 0.572848 70.8308 -0.00283675 72.2869 1.05115e-05H119.653C122.677 0.00594417 125.126 2.45568 125.132 5.4794V91.6962C125.126 94.7241 122.67 97.1755 119.642 97.1755ZM72.2869 1.61477C70.1508 1.61477 68.4175 3.34328 68.4115 5.4794V91.6962C68.4175 93.8323 70.1508 95.5608 72.2869 95.5608H119.653C121.787 95.5608 123.517 93.8305 123.517 91.6962V5.4794C123.517 3.34502 121.787 1.61477 119.653 1.61477H72.2869Z" fill="#0B132B"/>
<path d="M114.862 0.807434V4.30605C114.862 6.41665 113.151 8.12769 111.041 8.12769H80.8988C79.8815 8.13336 78.9039 7.73326 78.1826 7.01595C77.4612 6.29865 77.0557 5.32334 77.0557 4.30605V0.807434" fill="white"/>
<path d="M111.041 8.96729H80.8989C79.6627 8.97017 78.4766 8.47966 77.6035 7.60457C76.7304 6.72948 76.2427 5.54218 76.2483 4.30606V0.807435C76.2483 0.361535 76.6099 6.10352e-05 77.0558 6.10352e-05C77.5017 6.10352e-05 77.8631 0.361535 77.8631 0.807435V4.30606C77.869 5.9683 79.2151 7.31435 80.8773 7.32025H111.019C111.832 7.34057 112.618 7.03199 113.2 6.4645C113.781 5.89702 114.109 5.1187 114.109 4.30606V0.807435C114.109 0.361535 114.47 6.10352e-05 114.916 6.10352e-05C115.362 6.10352e-05 115.724 0.361535 115.724 0.807435V4.30606C115.729 5.54781 115.237 6.74007 114.357 7.61611C113.477 8.49214 112.283 8.97883 111.041 8.96729Z" fill="#1C2441"/>
<path d="M119.642 97.1755H72.2762C69.2507 97.1696 66.7978 94.7216 66.786 91.6962V5.4794C66.7889 4.02332 67.37 2.62801 68.4016 1.60043C69.4333 0.572848 70.8308 -0.00283675 72.2869 1.05115e-05H119.653C122.677 0.00594417 125.126 2.45568 125.132 5.4794V91.6962C125.126 94.7241 122.67 97.1755 119.642 97.1755ZM72.2869 1.61477C70.1508 1.61477 68.4175 3.34328 68.4115 5.4794V91.6962C68.4175 93.8323 70.1508 95.5608 72.2869 95.5608H119.653C121.787 95.5608 123.517 93.8305 123.517 91.6962V5.4794C123.517 3.34502 121.787 1.61477 119.653 1.61477H72.2869Z" fill="#0B132B"/>
<path d="M88.0898 6.31908C89.1065 6.31908 89.9306 5.49492 89.9306 4.47826C89.9306 3.46161 89.1065 2.63745 88.0898 2.63745C87.0732 2.63745 86.249 3.46161 86.249 4.47826C86.249 5.49492 87.0732 6.31908 88.0898 6.31908Z" fill="#3A506B"/>
<path d="M105.152 5.02728H92.5789C92.133 5.02728 91.7715 4.66581 91.7715 4.21991C91.7715 3.77401 92.133 3.41254 92.5789 3.41254H105.152C105.598 3.41254 105.96 3.77401 105.96 4.21991C105.96 4.66581 105.598 5.02728 105.152 5.02728Z" fill="#3A506B"/>
<path d="M46.7307 119.879H13.0794C9.98186 119.879 7.47083 122.39 7.47083 125.487V128.071C7.47083 131.169 9.98186 133.68 13.0794 133.68H46.7307C49.8282 133.68 52.3393 131.169 52.3393 128.071V125.487C52.3393 122.39 49.8282 119.879 46.7307 119.879Z" fill="#00FCDC"/>
<path d="M17.4823 138.093V125.8C17.4823 125.123 17.1212 124.497 16.535 124.159C15.9488 123.82 15.2266 123.82 14.6403 124.159C14.0541 124.497 13.693 125.123 13.693 125.8V141.882C13.379 142.179 12.9496 142.32 12.5212 142.268C12.0927 142.216 11.7096 141.976 11.4754 141.613L9.95758 139.256C8.43972 137.178 6.12524 138.341 6.12524 139.256C6.12524 139.256 8.99949 145.962 9.40856 146.608C10.1513 147.771 11.0664 148.837 11.8415 149.978C12.9179 151.517 12.7457 152.594 12.7457 154.456C12.7457 154.661 12.7995 154.854 12.7995 155.059C12.7995 160.829 26.7187 160.323 26.9017 155.059C26.9017 154.919 26.9017 154.779 26.9017 154.628C26.7622 153.445 26.9639 152.246 27.483 151.173C28.1948 150.23 28.6443 149.116 28.7855 147.943V139.041C28.7426 138.021 27.9317 137.2 26.9124 137.146H25.0393C24.996 136.122 24.1789 135.3 23.1555 135.251H21.2608C20.7934 134.681 20.1031 134.34 19.3662 134.315H17.4823" fill="#EDEDED"/>
<path d="M19.5169 160H19.2155C14.9095 159.914 11.9706 157.922 11.9922 155.048C11.9974 154.991 11.9974 154.933 11.9922 154.876C11.981 154.733 11.981 154.589 11.9922 154.445V153.939C12.1595 152.716 11.8888 151.473 11.2278 150.43C10.8834 149.924 10.5066 149.429 10.1513 148.934C9.7961 148.438 9.22556 147.706 8.80573 147.039C8.38589 146.372 5.86689 140.709 5.38246 139.579L5.31787 139.428V139.256C5.4322 138.368 6.08364 137.644 6.95415 137.437C8.33786 137.015 9.83327 137.565 10.6142 138.782L12.1644 141.183C12.3223 141.418 12.6146 141.522 12.8857 141.441V125.8C12.7944 124.781 13.2865 123.798 14.1569 123.26C15.0272 122.722 16.1266 122.722 16.9969 123.26C17.8673 123.798 18.3594 124.781 18.2681 125.8V133.486H19.3446C20.1901 133.513 20.997 133.846 21.6161 134.422H23.1339C24.2919 134.479 25.3022 135.227 25.696 136.317H26.9124C28.3835 136.367 29.5643 137.548 29.6144 139.019V147.922C29.5297 149.054 29.1349 150.142 28.4734 151.065C28.3765 151.216 28.2903 151.366 28.2042 151.517C27.7651 152.446 27.6007 153.48 27.7306 154.499C27.7429 154.639 27.7429 154.779 27.7306 154.919C27.7247 154.955 27.7247 154.991 27.7306 155.027C27.6014 158.331 23.5538 160 19.5169 160ZM6.99721 139.234C8.34283 142.367 9.84993 145.79 10.0868 146.167C10.4743 146.781 10.9049 147.351 11.3678 147.954C11.8307 148.557 12.1429 149.03 12.5089 149.536C13.3711 150.837 13.7519 152.398 13.5854 153.95V154.456C13.5854 154.51 13.5854 154.574 13.5854 154.628C13.5955 154.772 13.5955 154.916 13.5854 155.059C13.5854 157.276 16.4058 158.288 19.2262 158.385C22.5526 158.439 25.9974 157.201 26.0728 154.994C26.0674 154.897 26.0674 154.8 26.0728 154.704C26.0788 154.668 26.0788 154.632 26.0728 154.596C25.9296 153.268 26.1686 151.928 26.7617 150.731C26.8478 150.57 26.9447 150.408 27.0416 150.258C27.5466 149.581 27.8624 148.782 27.9566 147.943V139.041C27.9024 138.47 27.4507 138.018 26.8801 137.964H24.2319V137.157C24.1737 136.588 23.7241 136.138 23.1555 136.08H20.8194L20.5826 135.714C20.2675 135.372 19.8307 135.167 19.3662 135.144H18.3004V138.115C18.3004 138.561 17.939 138.922 17.4931 138.922C17.0472 138.922 16.6857 138.561 16.6857 138.115V125.8C16.6857 125.205 16.2037 124.723 15.6092 124.723C15.0147 124.723 14.5327 125.205 14.5327 125.8V142.227L14.2851 142.464C13.8008 142.952 13.1214 143.195 12.4374 143.124C11.7534 143.053 11.1384 142.675 10.765 142.098L9.24709 139.74C8.95025 139.183 8.36054 138.844 7.72923 138.868C7.452 138.908 7.1951 139.036 6.99721 139.234Z" fill="#1C2441"/>
<path d="M25.0393 140.795C24.5958 140.789 24.2377 140.431 24.2319 139.988V137.146C24.2319 136.7 24.5934 136.339 25.0393 136.339C25.4852 136.339 25.8467 136.7 25.8467 137.146V139.945C25.8585 140.166 25.7787 140.383 25.626 140.544C25.4733 140.705 25.2611 140.796 25.0393 140.795Z" fill="#1C2441"/>
<path d="M21.2609 139.848C20.815 139.848 20.4535 139.486 20.4535 139.041V135.251C20.4535 134.805 20.815 134.444 21.2609 134.444C21.7068 134.444 22.0682 134.805 22.0682 135.251V139.041C22.0624 139.484 21.7043 139.842 21.2609 139.848Z" fill="#1C2441"/>
<path d="M67.8194 127.587H65.2358C64.7899 127.587 64.4285 127.225 64.4285 126.779C64.4285 126.333 64.7899 125.972 65.2358 125.972H67.8194C68.2653 125.972 68.6268 126.333 68.6268 126.779C68.6268 127.225 68.2653 127.587 67.8194 127.587Z" fill="#1C2441"/>
<path d="M89.2633 127.587H83.9669C83.521 127.587 83.1595 127.225 83.1595 126.779C83.1595 126.333 83.521 125.972 83.9669 125.972H89.3494C89.7953 125.972 90.1568 126.333 90.1568 126.779C90.1568 127.225 89.7953 127.587 89.3494 127.587H89.2633ZM78.5629 127.587H73.2019C72.756 127.587 72.3945 127.225 72.3945 126.779C72.3945 126.333 72.756 125.972 73.2019 125.972H78.5844C79.0303 125.972 79.3918 126.333 79.3918 126.779C79.3918 127.225 79.0303 127.587 78.5844 127.587H78.5629Z" fill="#1C2441"/>
<path d="M97.9614 127.587H94.6135C94.1676 127.587 93.8062 127.225 93.8062 126.779C93.8062 126.333 94.1676 125.972 94.6135 125.972H96.3898V124.196C96.3898 123.75 96.7512 123.388 97.1971 123.388C97.643 123.388 98.0045 123.75 98.0045 124.196L97.9614 127.587Z" fill="#1C2441"/>
<path d="M97.1971 120.105C96.7512 120.105 96.3898 119.743 96.3898 119.298V114.41C96.3898 113.964 96.7512 113.603 97.1971 113.603C97.643 113.603 98.0045 113.964 98.0045 114.41V119.298C98.0074 119.513 97.9233 119.72 97.7713 119.872C97.6192 120.024 97.4122 120.108 97.1971 120.105Z" fill="#1C2441"/>
<path d="M97.1971 110.33C96.7512 110.33 96.3898 109.969 96.3898 109.523V106.939C96.3898 106.493 96.7512 106.132 97.1971 106.132C97.643 106.132 98.0045 106.493 98.0045 106.939V109.523C98.0074 109.738 97.9233 109.945 97.7713 110.097C97.6192 110.249 97.4122 110.333 97.1971 110.33Z" fill="#1C2441"/>
<path d="M29.2484 70.1016C29.2484 70.1016 16.1043 70.1016 12.5196 80.8666C8.93484 91.6316 11.3247 95.1948 11.3247 95.1948C11.3247 95.1948 16.1474 109.523 28.0534 109.523C39.9595 109.523 42.6723 104.56 42.6723 104.56L30.4433 89.2095L29.2484 70.1016Z" fill="#4FCBC2"/>
<path d="M45.9665 77.2711L30.4434 89.2095L41.2083 105.938C41.2083 105.938 49.5189 98.7688 49.5189 90.4259C49.5189 82.0831 45.9665 77.2711 45.9665 77.2711Z" fill="#3A506B"/>
<path d="M29.2485 70.1016L30.4434 89.2095L45.9666 77.2711C45.9666 77.2711 37.6022 67.7118 29.2485 70.1016Z" fill="#00FCDC"/>
<path d="M29.9804 110.233C19.8331 110.246 11.1893 102.864 9.61247 92.8402C8.03563 82.8161 13.9958 73.1374 23.6568 70.0336C33.3177 66.9299 43.7998 71.3262 48.3562 80.3929C51.569 86.7724 51.2447 94.3614 47.4993 100.443C43.754 106.525 37.1232 110.231 29.9804 110.233ZM29.9158 70.6614C21.4376 70.6831 14.0034 76.3287 11.7062 84.4898C9.40896 92.6509 12.8066 101.345 20.0287 105.787C27.2507 110.228 36.5429 109.337 42.7894 103.604C49.036 97.8718 50.7198 88.6901 46.9137 81.1142C43.6788 74.6973 37.102 70.653 29.9158 70.6614Z" fill="#0B132B"/>
<path d="M30.0559 90.4905C29.9376 90.4956 29.8198 90.4735 29.7114 90.4259C29.4385 90.3031 29.259 90.036 29.2485 89.7369L28.4304 69.9186C28.4216 69.7044 28.4984 69.4956 28.6438 69.3381C28.7892 69.1806 28.9912 69.0873 29.2054 69.0788C29.6433 69.0719 30.011 69.4067 30.0451 69.8433L30.7987 88.1437L45.213 77.0558C45.5673 76.8123 46.0504 76.8892 46.3116 77.2308C46.5727 77.5723 46.5204 78.0586 46.1926 78.3368L30.5511 90.3183C30.4079 90.4257 30.2348 90.4859 30.0559 90.4905Z" fill="#0B132B"/>
<path d="M41.1653 105.949C40.9021 105.953 40.6548 105.823 40.5086 105.604L29.3991 90.146C29.1649 89.7835 29.2571 89.301 29.6085 89.0504C29.9598 88.7998 30.4461 88.8699 30.7125 89.2094L41.8112 104.668C42.0388 105.02 41.9593 105.488 41.6282 105.744C41.4993 105.86 41.3373 105.931 41.1653 105.949Z" fill="#0B132B"/>
<path d="M33.8128 130.805C33.5985 130.806 33.3928 130.721 33.2422 130.569C32.9274 130.253 32.9274 129.743 33.2422 129.427L35.6643 127.027L33.2422 124.605C32.9458 124.287 32.9545 123.791 33.262 123.483C33.5695 123.176 34.0652 123.167 34.3833 123.464L37.376 126.456C37.6908 126.772 37.6908 127.282 37.376 127.597L34.3833 130.579C34.2316 130.729 34.0257 130.81 33.8128 130.805Z" fill="#1C2441"/>
<path d="M36.8054 127.823H23.8875C23.4416 127.823 23.0801 127.462 23.0801 127.016C23.0801 126.57 23.4416 126.209 23.8875 126.209H36.8054C37.2513 126.209 37.6128 126.57 37.6128 127.016C37.6128 127.462 37.2513 127.823 36.8054 127.823Z" fill="#1C2441"/>
<path d="M118.77 71.501H73.9016C73.4557 71.501 73.0942 71.1396 73.0942 70.6937V13.7469C73.0942 13.301 73.4557 12.9395 73.9016 12.9395C74.3475 12.9395 74.709 13.301 74.709 13.7469V69.8863H118.77C119.216 69.8863 119.577 70.2478 119.577 70.6937C119.577 71.1396 119.216 71.501 118.77 71.501Z" fill="#0B132B"/>
<path d="M117.521 76.7328H76.8728C75.7075 76.7328 74.7628 77.6775 74.7628 78.8428V81.5233C74.7628 82.6886 75.7075 83.6332 76.8728 83.6332H117.521C118.687 83.6332 119.631 82.6886 119.631 81.5233V78.8428C119.631 77.6775 118.687 76.7328 117.521 76.7328Z" fill="#4FCBC2"/>
<path d="M117.521 85.3663H76.8728C75.7075 85.3663 74.7628 86.311 74.7628 87.4763V90.1568C74.7628 91.322 75.7075 92.2667 76.8728 92.2667H117.521C118.687 92.2667 119.631 91.322 119.631 90.1568V87.4763C119.631 86.311 118.687 85.3663 117.521 85.3663Z" fill="#3A506B"/>
<path d="M112.828 18.8603H82.5674C80.4984 18.8603 78.8212 20.5375 78.8212 22.6065V61.0698C78.8212 63.1388 80.4984 64.816 82.5674 64.816H112.828C114.897 64.816 116.574 63.1388 116.574 61.0698V22.6065C116.574 20.5375 114.897 18.8603 112.828 18.8603Z" fill="#EDEDED"/>
<path d="M74.7197 71.3719C74.6089 71.3713 74.4993 71.3494 74.3968 71.3073C73.984 71.1255 73.7963 70.644 73.9769 70.2308L85.4632 43.9642C85.5942 43.6709 85.8847 43.4815 86.206 43.4798H92.3635L97.0463 37.2469C97.184 37.0545 97.4021 36.9356 97.6384 36.9239C97.872 36.9013 98.1029 36.9889 98.2627 37.1608L100.803 39.6905L106.842 29.1193C106.967 28.9011 107.186 28.7534 107.435 28.7197C107.684 28.6859 107.935 28.77 108.113 28.9471L110.642 31.4769L118.329 17.6438C118.453 17.3658 118.723 17.1811 119.027 17.1662C119.331 17.1514 119.617 17.3089 119.768 17.5736C119.918 17.8383 119.907 18.1652 119.739 18.4189L111.536 33.1993C111.41 33.4156 111.192 33.5624 110.944 33.5976C110.691 33.6409 110.433 33.5562 110.255 33.3715L107.725 30.8417L101.675 41.4129C101.552 41.6316 101.332 41.7792 101.083 41.8112C100.835 41.8407 100.586 41.7578 100.405 41.5852L97.7783 38.9693L93.4723 44.7824C93.321 44.987 93.081 45.107 92.8264 45.1053H86.7334L75.4625 70.8875C75.3315 71.1808 75.0409 71.3702 74.7197 71.3719Z" fill="#0B132B"/>
</svg>
