<svg width="101" height="160" viewBox="0 0 101 160" fill="none" xmlns="http://www.w3.org/2000/svg">
<path d="M73.8702 160C83.844 160 91.9293 158.164 91.9293 155.899C91.9293 153.634 83.844 151.798 73.8702 151.798C63.8965 151.798 55.8112 153.634 55.8112 155.899C55.8112 158.164 63.8965 160 73.8702 160Z" fill="#EDEDED"/>
<path d="M18.0591 117.314C28.0329 117.314 36.1182 115.478 36.1182 113.213C36.1182 110.948 28.0329 109.112 18.0591 109.112C8.08533 109.112 0 110.948 0 113.213C0 115.478 8.08533 117.314 18.0591 117.314Z" fill="#EDEDED"/>
<path d="M70.7755 151.636C70.6929 151.646 70.6093 151.646 70.5267 151.636L67.4537 150.619C67.2508 150.552 67.083 150.407 66.9875 150.216C66.892 150.025 66.8768 149.804 66.9451 149.602C67.0093 149.397 67.1538 149.227 67.3457 149.131C67.5375 149.035 67.7601 149.021 67.9622 149.093L71.0244 150.099C71.4113 150.212 71.654 150.595 71.5908 150.993C71.5277 151.391 71.1784 151.681 70.7755 151.668V151.636ZM64.6512 149.591C64.5654 149.606 64.4774 149.606 64.3915 149.591L61.3402 148.509C60.9219 148.359 60.7039 147.899 60.8533 147.481C61.0027 147.062 61.4629 146.844 61.8812 146.994L64.9217 148.076C65.1252 148.145 65.2925 148.292 65.3861 148.486C65.4797 148.679 65.4917 148.902 65.4195 149.104C65.287 149.408 64.9828 149.601 64.6512 149.591ZM58.581 147.427C58.4915 147.442 58.4001 147.442 58.3105 147.427L55.2808 146.345C55.0699 146.27 54.8991 146.111 54.809 145.906C54.7188 145.702 54.7173 145.469 54.8048 145.263C54.8821 145.054 55.0409 144.885 55.2448 144.795C55.4488 144.705 55.6805 144.702 55.8868 144.787C56.9039 145.176 57.9102 145.555 58.8948 145.869C59.2581 146.008 59.4711 146.386 59.4024 146.769C59.3337 147.152 59.0027 147.433 58.6135 147.437L58.581 147.427ZM52.5541 145.144C52.454 145.147 52.3544 145.128 52.262 145.089L49.2648 143.91C48.8524 143.743 48.6538 143.273 48.8211 142.86C48.9884 142.448 49.4584 142.25 49.8707 142.417L52.8571 143.607C53.0642 143.686 53.2299 143.847 53.3157 144.051C53.4015 144.255 53.4 144.486 53.3116 144.689C53.1719 144.979 52.8759 145.161 52.5541 145.154V145.144ZM46.5921 142.72C46.4842 142.72 46.3773 142.698 46.2784 142.655C45.2721 142.222 44.2874 141.8 43.3136 141.356C43.1122 141.271 42.9544 141.108 42.8768 140.903C42.7991 140.699 42.8084 140.472 42.9024 140.274C42.9899 140.075 43.1538 139.919 43.3572 139.842C43.5607 139.765 43.7867 139.772 43.9844 139.863C44.9475 140.296 45.9321 140.718 46.9168 141.14C47.2708 141.291 47.4703 141.67 47.3943 142.047C47.3183 142.424 46.9878 142.696 46.603 142.698L46.5921 142.72ZM40.7167 140.08C40.597 140.082 40.4784 140.056 40.3705 140.004C39.3642 139.528 38.3903 139.041 37.4598 138.565C37.0691 138.359 36.9152 137.878 37.1136 137.483C37.2106 137.293 37.3794 137.15 37.5825 137.085C37.7856 137.02 38.0063 137.038 38.1956 137.137C39.1153 137.613 40.0783 138.078 41.063 138.554C41.2586 138.645 41.4091 138.812 41.4804 139.015C41.5517 139.219 41.5377 139.443 41.4417 139.636C41.3101 139.917 41.0266 140.094 40.7167 140.09V140.08ZM35.0036 137.115C34.8594 137.116 34.7174 137.079 34.5924 137.007C33.5753 136.422 32.6339 135.838 31.8116 135.286C31.5379 135.141 31.3707 134.853 31.3806 134.543C31.3906 134.234 31.576 133.957 31.8584 133.829C32.1409 133.702 32.4712 133.747 32.7097 133.945C33.5104 134.475 34.4193 135.027 35.4039 135.6C35.7217 135.783 35.8774 136.156 35.7837 136.511C35.69 136.865 35.3702 137.113 35.0036 137.115ZM29.7016 133.468C29.5022 133.469 29.3096 133.396 29.1606 133.263C28.2634 132.509 27.5273 131.581 26.9966 130.536C26.8748 130.275 26.9015 129.969 27.0666 129.733C27.2317 129.497 27.5101 129.367 27.7969 129.392C28.0838 129.417 28.3355 129.594 28.4573 129.854C28.9204 130.685 29.5373 131.419 30.2751 132.019C30.5747 132.308 30.6029 132.778 30.34 133.101C30.2035 133.325 29.9642 133.467 29.7016 133.479V133.468ZM28.1327 128.058C27.9228 128.058 27.7212 127.977 27.57 127.831C27.2895 127.525 27.2895 127.055 27.57 126.749C28.0321 126.261 28.5646 125.846 29.1498 125.516C29.5826 125.288 30.0262 125.061 30.4807 124.845C30.7397 124.719 31.0461 124.741 31.2844 124.903C31.5227 125.064 31.6567 125.34 31.636 125.628C31.6153 125.915 31.443 126.169 31.184 126.295C30.7512 126.511 30.3292 126.717 29.9289 126.944C29.4828 127.173 29.0742 127.468 28.717 127.82C28.566 127.983 28.3548 128.077 28.1327 128.08V128.058ZM33.7809 125.072C33.4489 125.071 33.1502 124.87 33.0235 124.563C32.9355 124.359 32.9355 124.127 33.0235 123.922C33.1115 123.718 33.2797 123.558 33.4887 123.481C34.4193 123.113 35.4472 122.735 36.5401 122.399C36.7423 122.327 36.9651 122.339 37.1584 122.433C37.3517 122.526 37.4993 122.694 37.568 122.897C37.6541 123.107 37.6481 123.344 37.5515 123.55C37.4548 123.755 37.2763 123.911 37.0595 123.979C35.9774 124.347 34.9928 124.715 34.073 125.061C33.979 125.092 33.8795 125.103 33.7809 125.094V125.072ZM39.8619 122.984C39.4691 122.973 39.1405 122.682 39.082 122.293C39.0234 121.905 39.2517 121.53 39.6239 121.404C40.641 121.09 41.6797 120.787 42.7293 120.495C42.9345 120.435 43.1552 120.46 43.3421 120.563C43.5291 120.667 43.6669 120.841 43.7248 121.047C43.785 121.253 43.7607 121.475 43.6573 121.664C43.5538 121.853 43.3795 121.993 43.1729 122.053C42.0909 122.345 41.1062 122.637 40.1 122.951C40.0234 122.98 39.9434 122.998 39.8619 123.005V122.984ZM46.0511 121.22C45.6406 121.231 45.2881 120.93 45.2352 120.523C45.1822 120.116 45.4458 119.734 45.8455 119.64L48.9618 118.807C49.3916 118.697 49.8302 118.952 49.9464 119.38C50.0572 119.813 49.8026 120.255 49.373 120.376L46.2567 121.198C46.1909 121.223 46.1215 121.238 46.0511 121.242V121.22ZM52.2728 119.575C51.8728 119.565 51.54 119.265 51.4887 118.868C51.4374 118.471 51.683 118.096 52.0672 117.985L55.1835 117.184C55.5937 117.118 55.9877 117.372 56.0964 117.773C56.205 118.174 55.9931 118.592 55.6055 118.742L52.4892 119.575C52.4187 119.594 52.3456 119.601 52.2728 119.597V119.575ZM58.4837 117.941C58.1218 117.945 57.8024 117.705 57.7046 117.357C57.586 116.93 57.8316 116.487 58.2564 116.362L61.3294 115.453C61.7537 115.321 62.2042 115.559 62.3357 115.983C62.4672 116.407 62.2298 116.858 61.8055 116.989C60.7992 117.303 59.7605 117.617 58.7001 117.92C58.6295 117.938 58.5565 117.945 58.4837 117.941ZM64.6188 116.015C64.2315 116.006 63.9051 115.724 63.8392 115.342C63.7734 114.96 63.9866 114.585 64.3483 114.446C65.4303 114.057 66.4149 113.689 67.3022 113.364C67.5689 113.25 67.8763 113.287 68.1084 113.461C68.3405 113.635 68.4622 113.92 68.4276 114.208C68.393 114.496 68.2073 114.743 67.9406 114.858C67.0101 115.247 66.0146 115.626 64.8893 116.026C64.7973 116.028 64.7057 116.013 64.6188 115.983V116.015ZM70.5158 113.473C70.1512 113.466 69.8358 113.217 69.745 112.863C69.6541 112.51 69.8101 112.14 70.1263 111.958C71.0221 111.478 71.8669 110.909 72.6474 110.259C72.9756 110.002 73.4464 110.039 73.7295 110.345C73.9868 110.674 73.9491 111.144 73.6429 111.428C72.7815 112.155 71.8458 112.79 70.8513 113.321C70.7498 113.385 70.6352 113.426 70.5158 113.44V113.473ZM17.4963 112.574C17.2575 112.574 17.0313 112.467 16.8796 112.282C16.1759 111.548 15.7642 110.582 15.7218 109.566C15.7221 109.232 15.7769 108.899 15.8841 108.582C15.9498 108.28 16.1815 108.041 16.4815 107.967C16.7816 107.892 17.0979 107.995 17.2973 108.231C17.4967 108.467 17.5445 108.796 17.4206 109.079C17.3691 109.237 17.3435 109.401 17.3448 109.566C17.3972 110.195 17.6692 110.785 18.1131 111.233C18.3208 111.473 18.3688 111.813 18.2361 112.102C18.1033 112.391 17.8142 112.575 17.4963 112.574ZM75.1037 109.166C74.9993 109.165 74.8962 109.143 74.8007 109.101C74.5935 109.022 74.4282 108.861 74.3441 108.656C74.2601 108.451 74.2647 108.221 74.3571 108.019C74.549 107.586 74.6521 107.119 74.66 106.645C74.6563 106.329 74.5457 106.024 74.3462 105.779C74.0803 105.418 74.1578 104.909 74.5194 104.643C74.8809 104.377 75.3896 104.455 75.6555 104.816C76.0535 105.343 76.2699 105.985 76.2723 106.645C76.2728 107.324 76.1405 107.997 75.8827 108.625C75.757 108.947 75.4384 109.153 75.0928 109.134L75.1037 109.166ZM18.7407 107.273C18.3801 107.278 18.0602 107.042 17.9591 106.696C17.8581 106.35 18.0008 105.979 18.3079 105.79C19.2619 105.19 20.2731 104.686 21.3267 104.286C21.5296 104.194 21.7615 104.191 21.9668 104.277C22.1721 104.364 22.3323 104.531 22.4088 104.741C22.504 104.943 22.5089 105.176 22.4223 105.383C22.3356 105.589 22.1656 105.749 21.9543 105.823C20.9916 106.166 20.064 106.601 19.1843 107.121C19.0545 107.214 18.9002 107.267 18.7407 107.273ZM24.6702 104.827C24.2542 104.852 23.8883 104.554 23.829 104.142C23.7696 103.729 24.0367 103.34 24.443 103.247C25.4276 102.966 26.488 102.696 27.6133 102.447C28.0314 102.391 28.422 102.666 28.5123 103.077C28.6026 103.489 28.3624 103.902 27.9596 104.026C26.8775 104.264 25.7955 104.524 24.8866 104.795L24.6702 104.827ZM72.3445 104.297C72.2367 104.295 72.1303 104.273 72.0307 104.232C71.0799 103.838 70.0994 103.519 69.0984 103.28C68.8001 103.225 68.5572 103.009 68.4685 102.719C68.3799 102.429 68.4603 102.114 68.6771 101.901C68.8938 101.689 69.2107 101.616 69.4987 101.711C70.5837 101.983 71.6441 102.345 72.6691 102.793C73.0114 102.952 73.1989 103.326 73.1214 103.695C73.0439 104.065 72.7219 104.332 72.3445 104.34V104.297ZM30.9352 103.42C30.5307 103.4 30.2032 103.084 30.1678 102.681C30.1323 102.278 30.3998 101.91 30.7945 101.819C31.8224 101.635 32.8936 101.473 34.0406 101.311C34.462 101.286 34.8317 101.589 34.891 102.007C34.9503 102.425 34.6793 102.818 34.2678 102.912C33.1858 103.063 32.1037 103.226 31.1191 103.41L30.9352 103.42ZM66.1444 102.663H66.0038C65.0299 102.512 63.9804 102.36 62.8659 102.241C62.4207 102.19 62.1009 101.788 62.1517 101.343C62.2025 100.898 62.6046 100.578 63.0498 100.629C64.1968 100.748 65.2788 100.899 66.2959 101.062C66.7381 101.098 67.0676 101.485 67.0317 101.927C66.9958 102.369 66.6083 102.699 66.1661 102.663H66.1444ZM37.2975 102.522C36.8852 102.519 36.5408 102.207 36.4968 101.797C36.4726 101.585 36.5344 101.371 36.6686 101.205C36.8028 101.038 36.9981 100.932 37.2109 100.91C38.293 100.791 39.375 100.683 40.457 100.586C40.6702 100.565 40.8827 100.631 41.0459 100.77C41.2091 100.909 41.309 101.108 41.3226 101.321C41.3436 101.536 41.2775 101.749 41.139 101.914C41.0006 102.079 40.8016 102.181 40.5869 102.198C39.5048 102.295 38.4228 102.393 37.4165 102.512L37.2975 102.522ZM43.7031 101.971C43.2549 101.971 42.8916 101.607 42.8916 101.159C42.8916 100.711 43.2549 100.348 43.7031 100.348C44.7851 100.283 45.8672 100.228 46.9492 100.185C47.3974 100.167 47.7753 100.516 47.7932 100.964C47.8111 101.412 47.4623 101.79 47.0141 101.808C45.9321 101.808 44.8501 101.895 43.768 101.971H43.7031ZM59.7605 101.971C58.6784 101.906 57.6613 101.852 56.5793 101.808C56.1336 101.785 55.7879 101.41 55.8002 100.964C55.8057 100.751 55.8974 100.549 56.0544 100.404C56.2114 100.259 56.4202 100.184 56.6334 100.196C57.7154 100.196 58.7974 100.293 59.8795 100.358C60.2887 100.418 60.5879 100.775 60.574 101.189C60.5601 101.602 60.2377 101.939 59.8254 101.971H59.7605ZM50.1304 101.711C49.6822 101.711 49.3189 101.348 49.3189 100.899C49.3189 100.451 49.6822 100.088 50.1304 100.088H53.3765C53.6868 100.052 53.9902 100.197 54.1567 100.461C54.3232 100.726 54.3232 101.062 54.1567 101.326C53.9902 101.591 53.6868 101.736 53.3765 101.7H51.9374H50.1196L50.1304 101.711Z" fill="#0B132B"/>
<path d="M29.7127 88.8888C29.7127 95.9869 16.8474 112.996 16.8474 112.996C16.8474 112.996 3.99286 95.9869 3.99286 88.8888C3.857 84.2054 6.27794 79.8185 10.3127 77.4367C14.3475 75.0549 19.3581 75.0549 23.3929 77.4367C27.4277 79.8185 29.8486 84.2054 29.7127 88.8888Z" fill="#00FCDC"/>
<path d="M16.8473 113.808C16.5948 113.808 16.3576 113.687 16.2089 113.483C15.6678 112.78 3.22449 96.1709 3.22449 88.878C3.22449 81.3305 9.34298 75.212 16.8905 75.212C24.4381 75.212 30.5566 81.3305 30.5566 88.878C30.5566 96.1709 18.0699 112.78 17.5722 113.483C17.405 113.712 17.1293 113.836 16.8473 113.808ZM16.8473 76.835C10.1968 76.841 4.80536 82.2276 4.79343 88.878C4.79343 94.7426 14.2612 108.095 16.8473 111.601C19.4333 108.062 28.9011 94.7102 28.9011 88.878C28.8951 82.2234 23.5019 76.8302 16.8473 76.8242V76.835Z" fill="#0B132B"/>
<path d="M16.6526 94.8075C20.2023 94.8075 23.0799 91.9299 23.0799 88.3803C23.0799 84.8306 20.2023 81.953 16.6526 81.953C13.1029 81.953 10.2253 84.8306 10.2253 88.3803C10.2253 91.9299 13.1029 94.8075 16.6526 94.8075Z" fill="white"/>
<path d="M16.6526 95.6191C12.6547 95.6191 9.41382 92.3781 9.41382 88.3803C9.41382 84.3824 12.6547 81.1415 16.6526 81.1415C20.6505 81.1415 23.8914 84.3824 23.8914 88.3803C23.8854 92.3757 20.648 95.6131 16.6526 95.6191ZM16.6526 82.7645C14.3749 82.7602 12.3193 84.1294 11.4456 86.2329C10.5719 88.3364 11.0526 90.7591 12.6632 92.3697C14.2738 93.9802 16.6965 94.4609 18.8 93.5873C20.9035 92.7136 22.2727 90.658 22.2684 88.3803C22.2624 85.2812 19.7516 82.7705 16.6526 82.7645Z" fill="#0B132B"/>
<path d="M74.1731 82.8403C60.2194 82.8403 48.9077 94.152 48.9077 108.106C48.9077 122.064 74.1731 155.488 74.1731 155.488C74.1731 155.488 99.4386 122.064 99.4386 108.106C99.4326 94.1545 88.1244 82.8462 74.1731 82.8403ZM73.7728 119.759C68.6602 119.764 64.0485 116.687 62.089 111.965C60.1294 107.243 61.208 101.805 64.8216 98.1884C68.4353 94.5716 73.872 93.4884 78.5959 95.4439C83.3197 97.3994 86.4001 102.008 86.4001 107.121C86.4001 114.097 80.7484 119.753 73.7728 119.759Z" fill="#4FCBC2"/>
<path d="M74.1731 156.299C73.9173 156.301 73.676 156.18 73.5239 155.975C72.4419 154.601 48.0962 122.172 48.0962 108.106C48.3853 93.9137 59.9728 82.5599 74.1677 82.5599C88.3626 82.5599 99.9501 93.9137 100.239 108.106C100.239 122.172 75.8503 154.633 74.8115 155.975C74.6628 156.179 74.4256 156.299 74.1731 156.299ZM74.1731 83.6518C60.6708 83.6637 49.7263 94.6033 49.7084 108.106C49.7084 120.398 70.267 148.801 74.1731 154.135C78.1009 148.801 98.627 120.398 98.627 108.106C98.6091 94.6076 87.6712 83.6696 74.1731 83.6518ZM73.7728 120.571C68.3319 120.575 63.4244 117.301 61.3392 112.275C59.2541 107.25 60.4021 101.463 64.2478 97.6145C68.0935 93.7657 73.8793 92.613 78.9064 94.6941C83.9335 96.7752 87.2116 101.68 87.2116 107.121C87.2056 114.542 81.1941 120.559 73.7728 120.571ZM73.7728 95.2944C68.982 95.2857 64.6584 98.1654 62.82 102.589C60.9816 107.013 61.991 112.109 65.377 115.498C68.763 118.887 73.858 119.901 78.2836 118.067C82.7093 116.233 85.5929 111.912 85.5886 107.121C85.5826 100.596 80.2977 95.3063 73.7728 95.2944Z" fill="#0B132B"/>
<path d="M15.592 35.0145L20.2881 39.3427H82.9052V7.64998L78.9882 4.04681L15.592 35.0145Z" fill="#4FCBC2"/>
<path d="M82.9052 40.1434H20.288C20.0891 40.1408 19.8975 40.0679 19.747 39.9378L15.051 35.6097C14.8515 35.4303 14.7551 35.1628 14.7942 34.8974C14.8334 34.6319 15.0029 34.4037 15.2458 34.2896L78.6311 3.32188C78.9318 3.17314 79.293 3.22474 79.54 3.45172L83.4462 7.05488C83.6152 7.20601 83.71 7.42329 83.706 7.65V39.3427C83.706 39.7849 83.3474 40.1434 82.9052 40.1434ZM20.5585 38.5311H82.0936V7.99625L78.8475 5.00984L17.0095 35.2201L20.5585 38.5311Z" fill="#0B132B"/>
<path d="M27.7757 52.327C27.3275 52.327 26.9642 51.9637 26.9642 51.5155V46.5273C26.9282 46.217 27.0734 45.9136 27.3378 45.7471C27.6021 45.5806 27.9385 45.5806 28.2028 45.7471C28.4671 45.9136 28.6124 46.217 28.5764 46.5273V51.5047C28.5793 51.7199 28.4965 51.9275 28.3464 52.0817C28.1962 52.2359 27.9909 52.3242 27.7757 52.327Z" fill="#0B132B"/>
<path d="M68.7521 76.2616C68.3099 76.2616 67.9514 75.903 67.9514 75.4608V47.5444C67.9989 47.1351 68.3455 46.8264 68.7575 46.8264C69.1695 46.8264 69.5162 47.1351 69.5636 47.5444V75.4608C69.5637 75.675 69.4778 75.8803 69.3253 76.0308C69.1728 76.1813 68.9664 76.2644 68.7521 76.2616Z" fill="#0B132B"/>
<path d="M48.6914 87.7527C48.2474 87.7527 47.8858 87.396 47.8799 86.952V46.5273C47.8799 46.0792 48.2432 45.7158 48.6914 45.7158C49.1396 45.7158 49.5029 46.0792 49.5029 46.5273V86.952C49.497 87.396 49.1354 87.7527 48.6914 87.7527Z" fill="#0B132B"/>
<path d="M38.304 68.0598C37.8582 68.0539 37.4983 67.694 37.4924 67.2482V48.4101C37.4924 47.9619 37.8558 47.5986 38.304 47.5986C38.7521 47.5986 39.1155 47.9619 39.1155 48.4101V67.2482C39.1096 67.694 38.7497 68.0539 38.304 68.0598Z" fill="#0B132B"/>
<path d="M59.0358 71.3383C58.5876 71.3383 58.2242 70.975 58.2242 70.5268V59.9445C58.2242 59.4963 58.5876 59.133 59.0358 59.133C59.484 59.133 59.8473 59.4963 59.8473 59.9445V70.5268C59.8473 70.742 59.7618 70.9484 59.6096 71.1006C59.4574 71.2528 59.251 71.3383 59.0358 71.3383Z" fill="#0B132B"/>
<path d="M59.0358 56.5686C58.59 56.5628 58.2301 56.2028 58.2242 55.7571V45.9106C58.2242 45.4624 58.5876 45.0991 59.0358 45.0991C59.484 45.0991 59.8473 45.4624 59.8473 45.9106V55.7571C59.8415 56.2028 59.4815 56.5628 59.0358 56.5686Z" fill="#0B132B"/>
<path d="M27.7756 74.6602C27.3274 74.6602 26.9641 74.2968 26.9641 73.8486V56.4279C27.0116 56.0187 27.3582 55.71 27.7702 55.71C28.1822 55.71 28.5288 56.0187 28.5763 56.4279V73.8162C28.5851 74.0351 28.505 74.2483 28.3542 74.4072C28.2034 74.5662 27.9947 74.6574 27.7756 74.6602Z" fill="#0B132B"/>
<path d="M79.5942 36.8756V0.811523L14.2396 0.811523V36.8756L79.5942 36.8756Z" fill="white"/>
<path d="M79.5834 37.6872H14.2287C13.7847 37.6812 13.4279 37.3196 13.4279 36.8756V0.811546C13.4251 0.597318 13.5082 0.390865 13.6587 0.238356C13.8091 0.0858464 14.0145 -5.14895e-05 14.2287 -5.14895e-05H79.5834C79.7995 -0.00291805 80.0076 0.0816368 80.1604 0.234469C80.3133 0.387301 80.3978 0.595428 80.395 0.811546V36.8756C80.395 37.3238 80.0315 37.6872 79.5834 37.6872ZM15.0402 36.0641H78.7826V1.61225H15.0402V36.0641Z" fill="#0B132B"/>
<path d="M74.8657 26.9966H63.0175C62.2108 26.9966 61.5568 27.6506 61.5568 28.4574V32.1038C61.5568 32.9106 62.2108 33.5646 63.0175 33.5646H74.8657C75.6725 33.5646 76.3265 32.9106 76.3265 32.1038V28.4574C76.3265 27.6506 75.6725 26.9966 74.8657 26.9966Z" fill="#00FCDC"/>
<path d="M73.5781 31.0868H64.3267C64.0164 31.1228 63.713 30.9775 63.5465 30.7132C63.38 30.4489 63.38 30.1124 63.5465 29.8481C63.713 29.5838 64.0164 29.4385 64.3267 29.4745H73.5781C73.9873 29.522 74.296 29.8687 74.296 30.2807C74.296 30.6927 73.9873 31.0393 73.5781 31.0868Z" fill="#0B132B"/>
<path d="M32.1903 4.01434H20.3421C19.5353 4.01434 18.8813 4.66834 18.8813 5.47508V9.12153C18.8813 9.92827 19.5353 10.5823 20.3421 10.5823H32.1903C32.9971 10.5823 33.6511 9.92827 33.6511 9.12153V5.47508C33.6511 4.66834 32.9971 4.01434 32.1903 4.01434Z" fill="#00FCDC"/>
<path d="M30.8919 8.10441H21.6405C21.3303 8.14042 21.0268 7.99513 20.8603 7.73081C20.6939 7.4665 20.6939 7.13009 20.8603 6.86578C21.0268 6.60146 21.3303 6.45617 21.6405 6.49218H30.8919C31.2022 6.45617 31.5056 6.60146 31.6721 6.86578C31.8386 7.13009 31.8386 7.4665 31.6721 7.73081C31.5056 7.99513 31.2022 8.14042 30.8919 8.10441Z" fill="#0B132B"/>
<path d="M46.9061 35.2309C53.2525 35.2309 58.3972 27.8819 58.3972 18.8165C58.3972 9.75108 53.2525 2.4021 46.9061 2.4021C40.5597 2.4021 35.4149 9.75108 35.4149 18.8165C35.4149 27.8819 40.5597 35.2309 46.9061 35.2309Z" fill="#EDEDED"/>
<path d="M49.2648 26.3691H44.558C41.4201 26.3691 39.0504 24.9841 39.0504 23.123V21.9544C39.0504 21.5062 39.4137 21.1429 39.8619 21.1429C40.3101 21.1429 40.6735 21.5062 40.6735 21.9544V23.1555C40.6735 23.8047 42.1883 24.7461 44.558 24.7461H49.2648C51.6344 24.7461 53.1493 23.8047 53.1493 23.1555V21.2836C53.1493 20.775 52.1971 20.0717 50.6065 19.8012L42.9349 18.5027C40.5761 18.1024 39.0504 16.8905 39.0504 15.4298V13.5579C39.0504 11.7292 41.4201 10.3118 44.558 10.3118H49.2648C52.4027 10.3118 54.7615 11.6968 54.7615 13.5579V14.7589C54.714 15.1682 54.3674 15.4769 53.9554 15.4769C53.5434 15.4769 53.1968 15.1682 53.1493 14.7589V13.5579C53.1493 12.9086 51.6344 11.9673 49.2648 11.9673H44.558C42.1883 11.9673 40.6735 12.9086 40.6735 13.5579V15.4298C40.6735 15.9383 41.6256 16.6308 43.2162 16.9013L50.8554 18.2106C53.2142 18.6109 54.7399 19.8228 54.7399 21.2836V23.1555C54.7615 24.9841 52.4027 26.3691 49.2648 26.3691Z" fill="#0B132B"/>
<path d="M46.9059 30.9029C46.6916 30.9029 46.4863 30.817 46.3358 30.6645C46.1853 30.512 46.1023 30.3055 46.1052 30.0913V7.85557C46.0691 7.54528 46.2144 7.24186 46.4787 7.07537C46.7431 6.90888 47.0795 6.90888 47.3438 7.07537C47.6081 7.24186 47.7534 7.54528 47.7174 7.85557V30.0913C47.7203 30.3074 47.6358 30.5156 47.4829 30.6684C47.3301 30.8212 47.122 30.9058 46.9059 30.9029Z" fill="#0B132B"/>
</svg>
